<svg xmlns="http://www.w3.org/2000/svg" width="28" height="28" fill="none" viewBox="0 0 28 28">
    <defs>
        <clipPath id="clip0">
            <path fill="#fff" d="M0 0H20V20H0z" transform="translate(4 4)"/>
        </clipPath>
    </defs>    
    <rect width="28" height="28" fill="#DCDCDC" rx="14"/>
    <g clip-path="url(#clip0)">
        <path fill="#fff" stroke="#9C9C9C" d="M4.333 19.833v.5H17V17.75c0-.67-.34-1.218-.8-1.642-.456-.422-1.064-.753-1.703-1.009-1.275-.51-2.797-.766-3.83-.766-1.034 0-2.555.256-3.83.766-.64.256-1.247.587-1.704 1.009-.46.424-.8.973-.8 1.642v2.083zm12.15-5.456l-1.34.115 1.089.788c.884.64 1.435 1.448 1.435 2.47v2.583h6V17.75c0-.67-.34-1.218-.8-1.642-.457-.422-1.065-.753-1.703-1.009-1.276-.51-2.797-.766-3.83-.766-.263 0-.554.018-.852.044zm.85-.71c1.662 0 2.992-1.343 2.992-3 0-1.658-1.33-3-2.992-3-1.66 0-3 1.34-3 3s1.34 3 3 3zm-6.666 0c1.661 0 2.991-1.343 2.991-3 0-1.658-1.33-3-2.991-3-1.66 0-3 1.34-3 3s1.34 3 3 3z"/>
    </g>
</svg>
