<svg xmlns="http://www.w3.org/2000/svg" xmlns:xlink="http://www.w3.org/1999/xlink" width="31" height="20" viewBox="0 0 31 20">
    <defs>
        <path id="a" d="M0 .72h30.818v18.26H0z"/>
        <path id="c" d="M0 19.085h30.818V.825H0z"/>
    </defs>
    <g fill="none" fill-rule="evenodd">
        <g fill="#BBB">
            <path d="M22.879 13.163c.073.066.147.127.223.181.642.454 1.366.55 2.155.283a.444.444 0 0 1 .26 0c1.08.395 2.27-.034 2.824-1.02.583-1.038.343-2.306-.572-3.016-.67-.522-1.42-.641-2.223-.359-.12.041-.201.043-.231.031-.9-.339-1.716-.191-2.426.435v-1.92h.806V6.651h-.823a1.266 1.266 0 0 1-.005-.108c-.002-.143-.001-.288 0-.431 0-.212 0-.423-.003-.634-.019-1.003-.622-1.602-1.616-1.603H9.093L9.09 3.5c-.002-.462-.006-.915.01-1.368.006-.189.198-.243.259-.255.095-.02.202-.022.313-.022h19.403c.53 0 .61.08.61.607v11.613c0 .532-.073.607-.605.607H22.88v-1.52zm2.28-1.728a1.188 1.188 0 0 1 .345-.85c.222-.229.514-.356.82-.358h.007c.667 0 1.19.526 1.193 1.2.003.664-.516 1.21-1.16 1.216h-.01c-.642 0-1.189-.55-1.195-1.208zm-1.742-.623c.207-.343.562-.552.934-.567-.429.79-.428 1.59.004 2.384-.288-.001-.62-.175-.86-.467-.293-.357-.327-.937-.078-1.35zM1.204 9.296H21.65V7.79H1.204v1.506zm-.08-2.933c-.003-.335-.007-.666.008-.996.01-.186.077-.315.372-.343.07-.006.139-.006.21-.006h19.448c.066 0 .133-.001.199.005.323.032.365.228.37.374.009.324.007.649.005.98v.25H1.125l-.002-.264zm20.612 4.113V17.3c0 .45-.096.546-.535.546H1.663c-.436 0-.542-.106-.542-.543v-6.826h20.615zm9.068.349c.003-.467.005-.934.005-1.402V7.65c0-1.772 0-3.544.002-5.316 0-.418-.097-.744-.31-1.025-.397-.528-.961-.59-1.351-.59L17.227.722h-4.313c-1.11 0-2.22-.001-3.33.001-1.026.002-1.638.626-1.641 1.669L7.94 3.809c0 .022 0 .044-.002.066l-1.932.002c-1.479.002-2.953.003-4.428-.006h-.011c-.419 0-.826.168-1.118.464A1.58 1.58 0 0 0 0 5.468c.014 2.75.012 5.5.011 8.25v3.69c0 .145.006.314.052.478.207.726.749 1.094 1.61 1.094h19.512c1.097-.001 1.678-.59 1.68-1.705v-1.44l1.966-.003a337.307 337.307 0 0 1 4.311.01c.505 0 .93-.164 1.232-.474.301-.307.454-.734.443-1.232a132.05 132.05 0 0 1-.013-3.311z"/>
        </g>
        <g fill="#BBB">
            <path d="M17.792 15.726h1.559v-1.59h-1.56v1.59zm-1.138 1.14h3.826V12.99h-3.826v3.877zM2.23 14.337h8.108v-1.11H2.23zM2.298 12.606h4.14v-1.115h-4.14zM7.292 12.605h3.04v-1.113h-3.04zM24.074 7.862h2.01V6.777h-2.01zM26.34 7.872h1.952v-1.1H26.34z"/>
        </g>
        <path fill-rule="nonzero" d="M0-5h31v31H0z"/>
    </g>
</svg>
