<?xml version="1.0" encoding="utf-8"?>
<!-- Generator: Adobe Illustrator 23.0.1, SVG Export Plug-In . SVG Version: 6.00 Build 0)  -->
<svg version="1.1" id="Layer_1" xmlns="http://www.w3.org/2000/svg" xmlns:xlink="http://www.w3.org/1999/xlink" x="0px" y="0px"
	 width="28px" height="28px" viewBox="0 0 28 28" enable-background="new 0 0 28 28" xml:space="preserve">
<linearGradient id="SVGID_1_" gradientUnits="userSpaceOnUse" x1="14" y1="30" x2="14" y2="2" gradientTransform="matrix(1 0 0 -1 0 30)">
	<stop  offset="0" style="stop-color:#725EF6"/>
	<stop  offset="1" style="stop-color:#6001D1"/>
</linearGradient>
<path fill="url(#SVGID_1_)" d="M14,0L14,0c7.7,0,14,6.3,14,14l0,0c0,7.7-6.3,14-14,14l0,0C6.3,28,0,21.7,0,14l0,0C0,6.3,6.3,0,14,0z
	"/>
<path fill="#FFFFFF" d="M14.3,18.6h-2.7l9.1-7.7V6H6.2v4.2h8.4L6,17.6v5.2h8.3C14.3,22.8,14.3,18.6,14.3,18.6z M21.1,18.6H17v4.1
	h4.1V18.6z"/>
</svg>
