<?xml version="1.0" encoding="utf-8"?>
<!-- Generator: Adobe Illustrator 23.0.1, SVG Export Plug-In . SVG Version: 6.00 Build 0)  -->
<svg version="1.1" id="Layer_1" xmlns="http://www.w3.org/2000/svg" xmlns:xlink="http://www.w3.org/1999/xlink" x="0px" y="0px"
	 width="28px" height="28px" viewBox="0 0 28 28" enable-background="new 0 0 28 28" xml:space="preserve">
<path fill="#DCDCDC" d="M14,0L14,0c7.7,0,14,6.3,14,14l0,0c0,7.7-6.3,14-14,14l0,0C6.3,28,0,21.7,0,14l0,0C0,6.3,6.3,0,14,0z"/>
<path fill="#FFFFFF" d="M7,5h13.6v16.5L19,23.2l-1.7-0.8l-2.1,0.8l-1.7-1.7l-1.2,1.7L10.7,22l-2.1,1.2L7,21.5C7,21.5,7,5,7,5z"/>
<path fill="#9C9C9C" d="M14.4,11h-0.8c-0.3,0-0.6-0.3-0.6-0.6c0-0.3,0.3-0.6,0.6-0.6h1.6c0.3,0,0.5-0.2,0.5-0.5s-0.2-0.5-0.5-0.5
	h-0.6V8.2c0-0.3-0.2-0.5-0.5-0.5c-0.3,0-0.5,0.2-0.5,0.5v0.6c-0.9,0.1-1.6,0.8-1.6,1.6c0,0.9,0.8,1.6,1.7,1.6h0.8
	c0.3,0,0.6,0.3,0.6,0.6c0,0.3-0.3,0.6-0.6,0.6h-1.6c-0.3,0-0.5,0.2-0.5,0.5c0,0.3,0.2,0.5,0.5,0.5h0.6v0.6c0,0.3,0.2,0.5,0.5,0.5
	c0.3,0,0.5-0.2,0.5-0.5v-0.6c0.9-0.1,1.6-0.8,1.6-1.6C16.1,11.8,15.3,11,14.4,11L14.4,11z M16.8,18.6h-6c-0.3,0-0.6,0.3-0.6,0.6
	c0,0.3,0.3,0.6,0.6,0.6h6c0.3,0,0.6-0.3,0.6-0.6S17.1,18.6,16.8,18.6L16.8,18.6z"/>
<path fill-rule="evenodd" clip-rule="evenodd" fill="#9C9C9C" d="M7.2,4.2h13.3c0.3,0,0.6,0.3,0.6,0.6v17c0,0.2-0.1,0.3-0.2,0.4
	l-1.7,1.7C19.1,24,18.9,24,18.8,24s-0.3-0.1-0.4-0.2l-1.3-1.3l-1.3,1.3C15.8,24,15.6,24,15.5,24c-0.1,0-0.3-0.1-0.4-0.2l-1.3-1.3
	l-1.3,1.3C12.4,24,12.3,24,12.1,24c-0.1,0-0.3-0.1-0.4-0.2l-1.3-1.3l-1.3,1.3c-0.2,0.2-0.6,0.2-0.8,0l-1.7-1.7
	c-0.1-0.1-0.2-0.3-0.2-0.4v-17C6.6,4.5,6.9,4.2,7.2,4.2L7.2,4.2z M17.5,21.3l1.3,1.3l1.1-1.1V5.4H7.7v16.1l1.1,1.1l1.3-1.3
	c0.1-0.1,0.2-0.2,0.4-0.2s0.3,0.1,0.4,0.2l1.3,1.3l1.3-1.3c0.2-0.2,0.6-0.2,0.8,0l1.3,1.3l1.3-1.3c0.1-0.1,0.2-0.2,0.4-0.2
	S17.4,21.2,17.5,21.3L17.5,21.3z"/>
</svg>
