<svg xmlns="http://www.w3.org/2000/svg" width="40" height="40" fill="none" viewBox="0 0 40 40">
    <defs>
        <linearGradient id="paint0_linear" x1="20" x2="20" y1="0" y2="40" gradientUnits="userSpaceOnUse">
            <stop stop-color="#FAF6FF"/>
            <stop offset="1" stop-color="#DEC7FF"/>
        </linearGradient>
        <linearGradient id="paint1_linear" x1="18.88" x2="18.88" y1="7" y2="33.346" gradientUnits="userSpaceOnUse">
            <stop stop-color="#725EF6"/>
            <stop offset="1" stop-color="#6001D1"/>
        </linearGradient>
        <linearGradient id="paint2_linear" x1="16.28" x2="16.28" y1="7" y2="33.346" gradientUnits="userSpaceOnUse">
            <stop stop-color="#725EF6"/>
            <stop offset="1" stop-color="#6001D1"/>
        </linearGradient>
    </defs>
    <rect width="40" height="40" fill="url(#paint0_linear)" rx="20"/>
    <path fill="#5B00E4" d="M28.76 7H10.04C9.466 7 9 7.472 9 8.054v24.238c0 .582.466 1.054 1.04 1.054h18.72c.574 0 1.04-.472 1.04-1.054V8.054C29.8 7.472 29.334 7 28.76 7z"/>
    <path fill="url(#paint1_linear)" d="M27.72 7H10.04C9.466 7 9 7.472 9 8.054v24.238c0 .582.466 1.054 1.04 1.054h17.68c.574 0 1.04-.472 1.04-1.054V8.054c0-.582-.466-1.054-1.04-1.054z"/>
    <path fill="#5B00E4" d="M23.56 7H10.04C9.466 7 9 7.472 9 8.054v24.238c0 .582.466 1.054 1.04 1.054h13.52c.574 0 1.04-.472 1.04-1.054V8.054C24.6 7.472 24.134 7 23.56 7z"/>
    <path fill="url(#paint2_linear)" d="M22.52 7H10.04C9.466 7 9 7.472 9 8.054v24.238c0 .582.466 1.054 1.04 1.054h12.48c.574 0 1.04-.472 1.04-1.054V8.054c0-.582-.466-1.054-1.04-1.054z"/>
    <path fill="#fff" d="M24.6 8.58h2.08c.138 0 .27.056.368.155.097.099.152.233.152.373v22.13c0 .14-.055.274-.152.373-.098.098-.23.154-.368.154H24.6V8.581zM16.28 19.646c2.872 0 5.2-2.36 5.2-5.27 0-2.91-2.328-5.268-5.2-5.268-2.872 0-5.2 2.359-5.2 5.269s2.328 5.269 5.2 5.269z"/>
    <path fill="#DAC0FF" d="M17.32 16.572h-.26V13.85c0-.21-.082-.41-.229-.559-.146-.148-.344-.231-.551-.231h-1.04c-.207 0-.405.083-.552.231-.146.148-.228.35-.228.559 0 .21.082.41.228.559.147.148.345.231.552.231h.26v1.932h-.26c-.207 0-.405.084-.552.232-.146.148-.228.35-.228.559 0 .21.082.41.228.559.147.148.345.231.552.231h2.08c.207 0 .405-.083.552-.231.146-.149.228-.35.228-.56 0-.209-.082-.41-.229-.558-.146-.148-.344-.232-.551-.232zM16.28 12.62c.574 0 1.04-.471 1.04-1.053s-.466-1.054-1.04-1.054c-.574 0-1.04.472-1.04 1.053 0 .583.466 1.054 1.04 1.054z"/>
</svg>