<svg xmlns="http://www.w3.org/2000/svg" width="40" height="40" fill="none" viewBox="0 0 40 40">
    <defs>
        <linearGradient id="paint0_linear" x1="20" x2="20" y1="0" y2="40" gradientUnits="userSpaceOnUse">
            <stop stop-color="#FAF6FF"/>
            <stop offset="1" stop-color="#DEC7FF"/>
        </linearGradient>
        <linearGradient id="paint1_linear" x1="20" x2="20" y1="24.16" y2="30.88" gradientUnits="userSpaceOnUse">
            <stop stop-color="#725EF6"/>
            <stop offset="1" stop-color="#6001D1"/>
        </linearGradient>
    </defs>
    <rect width="40" height="40" fill="url(#paint0_linear)" rx="20"/>
    <path fill="#fff" d="M23.5 11c0-1.105.895-2 2-2h6c1.105 0 2 .895 2 2v6.133c0 1.105-.895 2-2 2h-6c-1.105 0-2-.895-2-2V11zM27.416 19.275h2.028v16.44h-2.028v-16.44z"/>
    <path fill="#DAC0FF" d="M27.136 17.751c-.25 0-.454-.206-.454-.46v-6.449c0-.254.203-.46.454-.46h1.797c.486-.002.953.191 1.298.537.712.706.724 1.863.027 2.584l-.027.027c-.345.345-.812.538-1.298.537h-1.342v3.224c0 .254-.204.46-.455.46zm.455-4.606h1.342c.247 0 .484-.098.66-.272.354-.35.361-.923.017-1.28l-.016-.017c-.177-.175-.414-.273-.66-.273H27.59v1.842z"/>
    <path fill="#5B00E4" d="M26.34 18H13.66c-1.05 0-1.954.747-2.166 1.788l-.954 4.694h18.92l-.954-4.694C28.294 18.748 27.39 18 26.34 18z"/>
    <path fill="#fff" d="M25.35 19.12H14.608c-.889 0-1.655.576-1.834 1.378l-.808 3.619h16.026l-.809-3.619c-.179-.802-.945-1.378-1.833-1.378z"/>
    <path fill="url(#paint1_linear)" d="M29.947 30.88H10.053v-5.6c0-.619.494-1.12 1.105-1.12h17.684c.61 0 1.105.501 1.105 1.12v5.6z"/>
    <path fill="#000" d="M10.603 32.533h3.31v3.354h-3.31v-3.354zM26.049 32.533h3.31v3.354h-3.31v-3.354z"/>
    <path fill="#5B00E4" d="M9.5 30.88h21v2.24h-21v-2.24z"/>
    <path fill="#F2E8FF" d="M12.816 28.08c.61 0 1.105-.502 1.105-1.12 0-.619-.495-1.12-1.105-1.12s-1.105.501-1.105 1.12c0 .618.494 1.12 1.105 1.12zM27.184 28.08c.61 0 1.105-.502 1.105-1.12 0-.619-.494-1.12-1.105-1.12-.61 0-1.105.501-1.105 1.12 0 .618.495 1.12 1.105 1.12z"/>
</svg>
