<svg xmlns="http://www.w3.org/2000/svg" width="40" height="40" fill="none" viewBox="0 0 40 40">
    <defs>
        <linearGradient id="paint0_linear" x1="20" x2="20" y1="0" y2="40" gradientUnits="userSpaceOnUse">
            <stop stop-color="#FAF6FF"/>
            <stop offset="1" stop-color="#DEC7FF"/>
        </linearGradient>
        <linearGradient id="paint1_linear" x1="12.652" x2="12.652" y1="27.677" y2="33" gradientUnits="userSpaceOnUse">
            <stop stop-color="#725EF6"/>
            <stop offset="1" stop-color="#6001D1"/>
        </linearGradient>
        <linearGradient id="paint2_linear" x1="23.539" x2="23.539" y1="14.129" y2="22.839" gradientUnits="userSpaceOnUse">
            <stop stop-color="#725EF6"/>
            <stop offset="1" stop-color="#6001D1"/>
        </linearGradient>
        <clipPath id="clip0">
            <path fill="#fff" d="M0 0H30V30H0z" transform="translate(5 3)"/>
        </clipPath>
    </defs>
    <rect width="40" height="40" fill="url(#paint0_linear)" rx="20"/>
    <g clip-path="url(#clip0)">
        <path fill="#F2E8FF" d="M18.942 24.29h15V33H17.974v-9.9l.968 1.19zm12.58 5.807V26.71h-4.354v3.387h4.355zm-6.773 0V26.71h-4.355v3.387h4.355z"/>
        <path fill="#DAC0FF" d="M31.523 26.71h-4.355v3.387h4.355V26.71zM24.749 26.71h-4.355v3.387h4.355V26.71z"/>
        <path fill="url(#paint1_linear)" d="M14.104 27.677H11.2V33h2.904v-5.323z"/>
        <path fill="#DAC0FF" d="M12.652 21.871c.798 0 1.452.648 1.452 1.452 0 .797-.654 1.451-1.452 1.451-.803 0-1.452-.654-1.452-1.451 0-.804.649-1.452 1.452-1.452z"/>
        <path fill="#fff" d="M17.974 23.1V33h-3.87v-5.323H11.2V33H7.33V23.095l5.322-6.547 5.322 6.552zm-3.87.223c0-.804-.654-1.452-1.452-1.452-.803 0-1.452.648-1.452 1.452 0 .797.649 1.451 1.452 1.451.799 0 1.452-.654 1.452-1.451z"/>
        <path fill="#5B00E4" d="M19.727 22.839h14.7v1.451H18.941l-.967-1.19-5.323-6.552-5.323 6.547v.005l-.967 1.19-.788-1.451 7.078-8.71 7.075 8.71z"/>
        <path fill="#000" d="M16.794 14.129h7.258l1.18 1.452h-7.258l-1.18-1.452z"/>
        <path fill="url(#paint2_linear)" d="M27.348 14.129l7.078 8.71H19.727l-7.075-8.71h4.142l1.18 1.452h7.259l-1.18-1.452h3.295z"/>
        <path fill="#FC4" d="M24.265 6.387c0 1.867-1.52 3.387-3.387 3.387-1.872 0-3.387-1.52-3.387-3.387C17.49 4.515 19.006 3 20.878 3c1.868 0 3.387 1.515 3.387 3.387z"/>
        <path fill="#E3A500" d="M20.878 3c-.337 0-.662.05-.969.142 1.398.416 2.42 1.71 2.42 3.245 0 1.532-1.022 2.827-2.42 3.245.307.091.633.142.969.142 1.867 0 3.387-1.52 3.387-3.387 0-1.872-1.52-3.387-3.387-3.387z"/>
        <path fill="#E3A500" d="M20.877 7.839c-.267 0-.484-.217-.484-.484V5.419c0-.267.217-.484.484-.484.268 0 .484.217.484.484v1.936c0 .267-.217.484-.484.484z"/>
    </g>
    
</svg>
