<svg xmlns="http://www.w3.org/2000/svg" width="40" height="40" fill="none" viewBox="0 0 40 40">
    <defs>
        <linearGradient id="paint0_linear" x1="20" x2="20" y1="0" y2="40" gradientUnits="userSpaceOnUse">
            <stop stop-color="#FAF6FF"/>
            <stop offset="1" stop-color="#DEC7FF"/>
        </linearGradient>
        <linearGradient id="paint1_linear" x1="20" x2="20" y1="11.295" y2="28.705" gradientUnits="userSpaceOnUse">
            <stop stop-color="#725EF6"/>
            <stop offset="1" stop-color="#6001D1"/>
        </linearGradient>
        <clipPath id="clip0">
            <path fill="#fff" d="M0 0H40V40H0z"/>
        </clipPath>
    </defs>
    <rect width="40" height="40" fill="url(#paint0_linear)" rx="19.2"/>
    <g clip-path="url(#clip0)">
        <path fill="#DAC0FF" d="M40 20c0-.78-.045-1.55-.132-2.308l-5.502-5.501L5.82 28.007l11.86 11.86c.761.088 1.536.133 2.32.133 11.047 0 20-8.954 20-20z"/>
        <path fill="url(#paint1_linear)" d="M34.954 13.803v12.395c0 1.384-1.123 2.507-2.508 2.507H7.553c-1.384 0-2.507-1.123-2.507-2.507V13.803c0-1.385 1.123-2.508 2.507-2.508h24.893c1.385 0 2.508 1.123 2.508 2.508z"/>
        <path fill="#5B00E4" d="M5.046 20.043v6.155c0 1.384 1.123 2.507 2.507 2.507h24.893c1.385 0 2.508-1.123 2.508-2.507v-6.155H5.046z"/>
        <path fill="#fff" d="M7.599 26.72V13.28h23.448v13.44H7.599z"/>
        <path fill="#DAC0FF" d="M9.866 22.099l.88-1.249c.465.465 1.182.852 2.063.852.57 0 .92-.223.92-.532 0-.881-3.66-.175-3.66-2.662 0-1.084.92-2.052 2.575-2.052 1.036 0 1.936.31 2.623.9l-.91 1.19c-.542-.445-1.248-.668-1.887-.668-.484 0-.697.194-.697.465 0 .823 3.65.223 3.65 2.623 0 1.297-.96 2.159-2.692 2.159-1.307 0-2.217-.407-2.865-1.026zM15.867 19.785c0-1.965 1.481-3.34 3.456-3.34 1.974 0 3.446 1.375 3.446 3.34 0 1.965-1.471 3.34-3.446 3.34s-3.456-1.375-3.456-3.34zm5.208 0c0-1.055-.688-1.868-1.752-1.868-1.075 0-1.762.813-1.762 1.868 0 1.046.687 1.869 1.762 1.869 1.064 0 1.752-.823 1.752-1.869zM23.146 22.099l.881-1.249c.465.465 1.18.852 2.062.852.57 0 .92-.223.92-.532 0-.881-3.66-.175-3.66-2.662 0-1.084.92-2.052 2.575-2.052 1.036 0 1.936.31 2.623.9l-.91 1.19c-.541-.445-1.248-.668-1.887-.668-.484 0-.697.194-.697.465 0 .823 3.65.223 3.65 2.623 0 1.297-.959 2.159-2.692 2.159-1.306 0-2.216-.407-2.865-1.026z"/>
        <path fill="#5B00E4" d="M32.994 21.196c.66 0 1.196-.535 1.196-1.196 0-.66-.535-1.196-1.196-1.196-.66 0-1.196.535-1.196 1.196 0 .66.535 1.196 1.196 1.196z"/>
    </g>
</svg>
