<svg width="40" height="40" viewBox="0 0 40 40" fill="none" xmlns="http://www.w3.org/2000/svg">
<rect width="40" height="40" rx="12" fill="#F5F5F5"/>
<rect x="6.00012" y="10" width="28" height="20" rx="2" fill="white"/>
<mask id="mask0" mask-type="alpha" maskUnits="userSpaceOnUse" x="6" y="10" width="29" height="20">
<rect x="6.00012" y="10" width="28" height="20" rx="2" fill="white"/>
</mask>
<defs>
<filter id="filter0_d" x="7.33374" y="11.3334" width="9.33344" height="7.66664" filterUnits="userSpaceOnUse" color-interpolation-filters="sRGB">
<feFlood flood-opacity="0" result="BackgroundImageFix"/>
<feColorMatrix in="SourceAlpha" type="matrix" values="0 0 0 0 0 0 0 0 0 0 0 0 0 0 0 0 0 0 127 0"/>
<feOffset dy="1"/>
<feColorMatrix type="matrix" values="0 0 0 0 0 0 0 0 0 0 0 0 0 0 0 0 0 0 0.06 0"/>
<feBlend mode="normal" in2="BackgroundImageFix" result="effect1_dropShadow"/>
<feBlend mode="normal" in="SourceGraphic" in2="effect1_dropShadow" result="shape"/>
</filter>
<linearGradient id="paint0_linear" x1="7.33374" y1="11.3334" x2="7.33374" y2="18" gradientUnits="userSpaceOnUse">
<stop stop-color="white"/>
<stop offset="1" stop-color="#F0F0F0"/>
</linearGradient>
</defs>
<g mask="url(#mask0)">
<path fill-rule="evenodd" clip-rule="evenodd" d="M34.0001 10H6.00012V11.3333H34.0001V10ZM34.0002 12.6666H6.00023V14H34.0002V12.6666ZM6.00023 15.3334H34.0002V16.6667H6.00023V15.3334ZM34.0002 18H6.00023V19.3333H34.0002V18ZM6.00023 20.6667H34.0002V22H6.00023V20.6667ZM34.0002 23.3333H6.00023V24.6667H34.0002V23.3333ZM6.00023 26H34.0002V27.3333H6.00023V26ZM34.0002 28.6667H6.00023V30H34.0002V28.6667Z" fill="#D02F44"/>
<rect x="6.00012" y="10" width="12" height="9.33333" fill="#46467F"/>
<g filter="url(#filter0_d)">
<path fill-rule="evenodd" clip-rule="evenodd" d="M11.3336 12C11.3336 12.3682 11.0351 12.6667 10.6669 12.6667C10.2987 12.6667 10.0003 12.3682 10.0003 12C10.0003 11.6319 10.2987 11.3334 10.6669 11.3334C11.0351 11.3334 11.3336 11.6319 11.3336 12ZM8.66707 12C8.66707 12.3682 8.3686 12.6667 8.00041 12.6667C7.63222 12.6667 7.33374 12.3682 7.33374 12C7.33374 11.6319 7.63222 11.3334 8.00041 11.3334C8.3686 11.3334 8.66707 11.6319 8.66707 12ZM13.3338 12.6667C13.702 12.6667 14.0005 12.3682 14.0005 12C14.0005 11.6319 13.702 11.3334 13.3338 11.3334C12.9656 11.3334 12.6672 11.6319 12.6672 12C12.6672 12.3682 12.9656 12.6667 13.3338 12.6667ZM16.6672 12C16.6672 12.3682 16.3687 12.6667 16.0005 12.6667C15.6323 12.6667 15.3339 12.3682 15.3339 12C15.3339 11.6319 15.6323 11.3334 16.0005 11.3334C16.3687 11.3334 16.6672 11.6319 16.6672 12ZM9.33393 14C9.70212 14 10.0006 13.7015 10.0006 13.3334C10.0006 12.9652 9.70212 12.6667 9.33393 12.6667C8.96574 12.6667 8.66726 12.9652 8.66726 13.3334C8.66726 13.7015 8.96574 14 9.33393 14ZM12.6671 13.3334C12.6671 13.7015 12.3686 14 12.0004 14C11.6322 14 11.3337 13.7015 11.3337 13.3334C11.3337 12.9652 11.6322 12.6667 12.0004 12.6667C12.3686 12.6667 12.6671 12.9652 12.6671 13.3334ZM14.6668 14C15.035 14 15.3335 13.7015 15.3335 13.3334C15.3335 12.9652 15.035 12.6667 14.6668 12.6667C14.2987 12.6667 14.0002 12.9652 14.0002 13.3334C14.0002 13.7015 14.2987 14 14.6668 14ZM16.6672 14.6667C16.6672 15.0349 16.3687 15.3333 16.0005 15.3333C15.6323 15.3333 15.3339 15.0349 15.3339 14.6667C15.3339 14.2985 15.6323 14 16.0005 14C16.3687 14 16.6672 14.2985 16.6672 14.6667ZM13.3338 15.3333C13.702 15.3333 14.0005 15.0349 14.0005 14.6667C14.0005 14.2985 13.702 14 13.3338 14C12.9656 14 12.6672 14.2985 12.6672 14.6667C12.6672 15.0349 12.9656 15.3333 13.3338 15.3333ZM11.3336 14.6667C11.3336 15.0349 11.0351 15.3333 10.6669 15.3333C10.2987 15.3333 10.0003 15.0349 10.0003 14.6667C10.0003 14.2985 10.2987 14 10.6669 14C11.0351 14 11.3336 14.2985 11.3336 14.6667ZM8.00047 15.3333C8.36866 15.3333 8.66714 15.0349 8.66714 14.6667C8.66714 14.2985 8.36866 14 8.00047 14C7.63228 14 7.33381 14.2985 7.33381 14.6667C7.33381 15.0349 7.63228 15.3333 8.00047 15.3333ZM10.0006 16C10.0006 16.3682 9.70212 16.6667 9.33393 16.6667C8.96574 16.6667 8.66726 16.3682 8.66726 16C8.66726 15.6318 8.96574 15.3334 9.33393 15.3334C9.70212 15.3334 10.0006 15.6318 10.0006 16ZM12.0004 16.6667C12.3686 16.6667 12.6671 16.3682 12.6671 16C12.6671 15.6318 12.3686 15.3334 12.0004 15.3334C11.6322 15.3334 11.3337 15.6318 11.3337 16C11.3337 16.3682 11.6322 16.6667 12.0004 16.6667ZM15.3335 16C15.3335 16.3682 15.035 16.6667 14.6668 16.6667C14.2987 16.6667 14.0002 16.3682 14.0002 16C14.0002 15.6318 14.2987 15.3334 14.6668 15.3334C15.035 15.3334 15.3335 15.6318 15.3335 16ZM16.0005 18C16.3687 18 16.6672 17.7015 16.6672 17.3333C16.6672 16.9652 16.3687 16.6667 16.0005 16.6667C15.6323 16.6667 15.3339 16.9652 15.3339 17.3333C15.3339 17.7015 15.6323 18 16.0005 18ZM14.0005 17.3333C14.0005 17.7015 13.702 18 13.3338 18C12.9656 18 12.6672 17.7015 12.6672 17.3333C12.6672 16.9652 12.9656 16.6667 13.3338 16.6667C13.702 16.6667 14.0005 16.9652 14.0005 17.3333ZM10.6669 18C11.0351 18 11.3336 17.7015 11.3336 17.3333C11.3336 16.9652 11.0351 16.6667 10.6669 16.6667C10.2987 16.6667 10.0003 16.9652 10.0003 17.3333C10.0003 17.7015 10.2987 18 10.6669 18ZM8.66714 17.3333C8.66714 17.7015 8.36866 18 8.00047 18C7.63228 18 7.33381 17.7015 7.33381 17.3333C7.33381 16.9652 7.63228 16.6667 8.00047 16.6667C8.36866 16.6667 8.66714 16.9652 8.66714 17.3333Z" fill="url(#paint0_linear)"/>
</g>
</g>
</svg>
