<svg xmlns="http://www.w3.org/2000/svg" width="20" height="20" fill="none" viewBox="0 0 20 20">
    <path fill="#fff" d="M10 20c5.523 0 10-4.477 10-10S15.523 0 10 0 0 4.477 0 10s4.477 10 10 10z"/>
    <rect width="14" height="10" x="3" y="5" fill="#fff" rx="2"/>
    <mask id="21c3izswda" width="14" height="10" x="3" y="5" maskUnits="userSpaceOnUse">
        <rect width="14" height="10" x="3" y="5" fill="#fff" rx="2"/>
    </mask>
    <g mask="url(#21c3izswda)">
        <path fill="#EA403F" d="M3 5H17V15H3z"/>
        <path fill="#FFFE4E" fill-rule="evenodd" d="M10 11.17l-1.763 1.257.65-2.066-1.74-1.288 2.165-.02L10 7l.688 2.053 2.165.02-1.74 1.288.65 2.066L10 11.17z" clip-rule="evenodd"/>
    </g>
</svg>
