<svg xmlns="http://www.w3.org/2000/svg" width="40" height="40" viewBox="0 0 40 40">
    <g fill="none" fill-rule="evenodd">
        <circle cx="20" cy="20" r="20" fill="#FFF"/>
        <g fill-rule="nonzero" stroke="gray">
            <path d="M19.843 10C14.407 10 10 14.407 10 19.843s4.407 9.845 9.843 9.845 9.845-4.409 9.845-9.845c0-5.436-4.409-9.843-9.845-9.843z"/>
            <path d="M21.892 25.256c-.506.2-.91.351-1.212.456a3.199 3.199 0 0 1-1.052.158c-.613 0-1.09-.15-1.43-.45a1.45 1.45 0 0 1-.51-1.138c0-.18.013-.363.038-.55.026-.186.067-.396.122-.632l.635-2.24c.055-.215.104-.42.142-.61.038-.19.057-.367.057-.527 0-.285-.06-.485-.177-.597-.12-.113-.343-.168-.678-.168-.163 0-.331.025-.504.075-.17.053-.319.1-.44.147l.167-.69c.415-.17.812-.314 1.192-.434a3.52 3.52 0 0 1 1.075-.182c.609 0 1.079.149 1.41.442.329.294.495.677.495 1.147 0 .097-.012.269-.035.514a3.44 3.44 0 0 1-.126.675l-.631 2.234c-.052.179-.098.384-.14.613-.04.23-.06.404-.06.522 0 .297.066.499.2.607.13.107.362.161.688.161.154 0 .327-.027.522-.08.193-.054.333-.101.422-.142l-.17.689zM21.78 16.19c-.293.274-.648.41-1.062.41-.413 0-.77-.136-1.066-.41a1.309 1.309 0 0 1-.445-.993c0-.388.15-.721.445-.997a1.51 1.51 0 0 1 1.066-.414c.414 0 .77.137 1.063.414.294.276.441.61.441.997 0 .389-.147.72-.441.994z"/>
        </g>
    </g>
</svg>
