<svg width="195" height="200" fill="none" xmlns="http://www.w3.org/2000/svg">
    <defs>
        <linearGradient id="a" x1="45.54" y1="142.885" x2="45.54" y2="199.99" gradientUnits="userSpaceOnUse">
            <stop stop-color="#725EF6"/>
            <stop offset="1" stop-color="#6001D1"/>
        </linearGradient>
        <linearGradient id="c" x1="99" y1="60" x2="99" y2="96" gradientUnits="userSpaceOnUse">
            <stop stop-color="#FAF6FF"/>
            <stop offset="1" stop-color="#DEC7FF"/>
        </linearGradient>
        <linearGradient id="e" x1="99" y1="72.208" x2="99" y2="88.286" gradientUnits="userSpaceOnUse">
            <stop stop-color="#725EF6"/>
            <stop offset="1" stop-color="#6001D1"/>
        </linearGradient>
        <linearGradient id="f" x1="99" y1="80.482" x2="99" y2="88.286" gradientUnits="userSpaceOnUse">
            <stop stop-color="#725EF6"/>
            <stop offset="1" stop-color="#6001D1"/>
        </linearGradient>
        <linearGradient id="g" x1="165" y1="64.848" x2="165" y2="100.848" gradientUnits="userSpaceOnUse">
            <stop stop-color="#FFFBEF"/>
            <stop offset="1" stop-color="#FFD964"/>
        </linearGradient>
        <linearGradient id="h" x1="43.992" y1="54.326" x2="43.992" y2="70.874" gradientUnits="userSpaceOnUse">
            <stop stop-color="#725EF6"/>
            <stop offset="1" stop-color="#6001D1"/>
        </linearGradient>
        <linearGradient id="i" x1="26.684" y1="46" x2="26.684" y2="70.874" gradientUnits="userSpaceOnUse">
            <stop stop-color="#725EF6"/>
            <stop offset="1" stop-color="#6001D1"/>
        </linearGradient>
        <clipPath id="d">
            <path fill="#fff" transform="translate(88.714 67.714)" d="M0 0h20.571v20.571H0z"/>
        </clipPath>
    </defs>
    <path d="M118.406 97.767s-9.708 19.421-19.577 32.837c-3.926 5.335-7.872 9.716-11.25 11.551-3.296 1.785-6.096 4.564-8.408 7.646-5.985 7.971-8.754 17.96-8.754 17.96l-25.227-38.15s.862-37.3 3.885-43.536c4.412-9.097 6.542-27.462 8.246-31.123 1.258-2.718 4.849-16.723 5.194-17.757.152-.447 1.349-1.126 2.9-1.126 1.248 0 3.358 1.207 3.896 3.681 2.698 12.504-.548 20.749-.517 21.124.953 9.614-1.907 16.743.101 18.63.071.07.213.04.406-.092 3.48-2.231 25.065-33.689 27.722-34.368 2.82-.73 21.383 52.723 21.383 52.723z" fill="#FFB27D"/>
    <path d="M78.014 160.196s-.345 16.956-1.329 39.794h-63.62C27.6 168.988 40.25 142.885 40.25 142.885s36.233 1.106 37.764 17.311z" fill="url(#a)"/>
    <path d="m140.458 32.033-7.811 11.45-7.668 11.236c-.467.567-1.004.76-1.593.7-1.836-.173-4.118-2.83-5.893-4.3l-.183-.153c-2.343-1.937-2.667-5.425-.73-7.768l11.716-14.157 3.479-4.198c1.938-2.343 5.427-2.667 7.77-.73l.183.152c2.343 1.927 2.667 5.425.73 7.768z" fill="#FFB27D"/>
    <path d="m132.647 43.482-7.668 11.236c-.467.568-1.004.761-1.593.7l4.91-26.367c.02.142.852 11.977 4.351 14.431zM98.829 130.604c-3.926 5.335-7.872 9.716-11.25 11.551-3.296 1.785-6.096 4.564-8.408 7.647a724.38 724.38 0 0 1-8.653-4.128c-3.611-1.754-3.743-6.876-.213-8.772.03-.02.071-.041.101-.061 3.307-1.896 6.705-8.579 6.705-8.579l21.718 2.342z" fill="#EFA26F"/>
    <path d="m62.353 37.763-2.05 8.254s1.786.73 2.932.163c1.146-.568 2.1-7.971-.882-8.417z" fill="#FFC197"/>
    <path d="M121.135 134.499H77.182c-4.32 0-7.86-3.54-7.86-7.86V30.055c0-4.32 3.54-7.86 7.86-7.86h43.953c4.321 0 7.861 3.54 7.861 7.86v96.584c0 4.32-3.54 7.86-7.861 7.86z" fill="#000"/>
    <path d="M126.044 30.796v94.342c0 3.205-2.597 5.821-5.782 5.821H78.055c-3.175 0-5.782-2.616-5.782-5.821V30.796c0-3.205 2.597-5.821 5.782-5.821h42.207c3.175 0 5.782 2.626 5.782 5.82z" fill="#F5F5F5"/>
    <path d="m120.262 24.975-41.68 105.984h-.517c-3.175 0-5.782-2.616-5.782-5.821V30.796c0-3.205 2.597-5.821 5.782-5.821h42.197z" fill="#fff"/>
    <mask id="b" mask-type="alpha" maskUnits="userSpaceOnUse" x="72" y="25" width="54" height="106">
        <path d="M72.336 28.676c0-2.017 1.793-3.652 4.004-3.652h45.614c2.211 0 4.004 1.635 4.004 3.652v98.621c0 2.018-1.793 3.653-4.004 3.653H76.34c-2.211 0-4.004-1.635-4.004-3.653v-98.62z" fill="#fff"/>
    </mask>
    <g mask="url(#b)">
        <path d="M72.336 25.023h53.698v116.265H72.336V25.023z" fill="#fff" fill-opacity=".6"/>
        <rect x="81" y="60" width="36" height="36" rx="10" fill="url(#c)"/>
        <g clip-path="url(#d)">
            <path d="M109.257 74.83a.722.722 0 0 0-.276-.387l-3.242-2.235H92.261l-3.242 2.235a.722.722 0 0 0-.305.585v12.548a.68.68 0 0 0 .142.422c.133.181.344.288.568.288h19.152a.701.701 0 0 0 .568-.288.685.685 0 0 0 .142-.422V75.028a.742.742 0 0 0-.029-.199z" fill="url(#e)"/>
            <path d="m109.258 74.83-3.519 2.67v-5.292l3.242 2.234c.133.095.231.23.277.387zM92.261 72.208V77.5l-3.518-2.67a.723.723 0 0 1 .276-.388l3.242-2.234z" fill="#5B00E4"/>
            <path d="M109.144 87.998a.703.703 0 0 1-.568.288H89.424a.702.702 0 0 1-.568-.288l8.623-6.54 1.092-.83a.702.702 0 0 1 .858 0l1.093.83 8.622 6.54z" fill="url(#f)"/>
            <path d="M105.739 68.069v9.43l-5.217 3.96-1.093-.83a.702.702 0 0 0-.858 0l-1.092.83-5.218-3.96v-9.43c0-.196.159-.355.355-.355h12.768c.196 0 .355.16.355.355z" fill="#fff"/>
            <path d="M99 69.133a4.965 4.965 0 1 0 0 9.93 4.965 4.965 0 0 0 0-9.93zm-3.195 6.505a3.547 3.547 0 0 1 4.734-4.735.355.355 0 0 1 .089.567l-4.256 4.257a.355.355 0 0 1-.567-.09zm3.624 1.983a3.556 3.556 0 0 1-1.968-.327.354.354 0 0 1-.089-.567l4.256-4.257a.355.355 0 0 1 .568.09 3.546 3.546 0 0 1-2.767 5.06z" fill="#DAC0FF"/>
        </g>
    </g>
    <path d="M107.978 28.483h-17.64a2.623 2.623 0 0 1-2.616-2.616v-.406a2.623 2.623 0 0 1 2.617-2.616h17.639a2.623 2.623 0 0 1 2.617 2.616v.406a2.616 2.616 0 0 1-2.617 2.616z" fill="#000"/>
    <path d="m136.573 75.264-1.166.447-7.831 2.97a3.56 3.56 0 0 1-.558.173c-2.597.67-5.356-.71-6.33-3.265l-.111-.304c-1.045-2.739.345-5.842 3.093-6.886l7.304-2.779.527-.203 1.167-.446c2.739-1.044 5.842.345 6.877 3.093l.112.304c1.055 2.759-.335 5.862-3.084 6.896z" fill="#FFB27D"/>
    <path d="M130.213 75.447c-1.308.497-3.672 1.38-4.94 1.552-.355.05-1.014-.142-1.633-.822-.365-.406-.72-.984-.984-1.775a5.6 5.6 0 0 1-.264-1.135 4.66 4.66 0 0 1 .041-1.35c.071-.405.345-.77.751-.963h.01c1.349-.638 3.164-1.43 4.747-1.866 1.095-.304 2.211.183 2.556 1.146l.162.447.842 2.302c.345.963-.223 2.058-1.288 2.464z" fill="#FFD3B6"/>
    <path d="M130.213 75.447c-1.309.497-3.672 1.38-4.94 1.552-.355.05-1.014-.142-1.633-.822a12.606 12.606 0 0 1-.183-.487 5.597 5.597 0 0 1-.263-1.135 4.625 4.625 0 0 1 .04-1.35c.071-.405.345-.77.751-.963h.01c1.349-.639 3.165-1.43 4.747-1.866.7-.192 1.41-.06 1.927.305l.842 2.302c.335.963-.233 2.058-1.298 2.464z" fill="#FFC197"/>
    <path d="m133.023 86.278-6.046 1.642a3.475 3.475 0 0 1-4.25-2.423l-.183-.68a3.475 3.475 0 0 1 2.425-4.249l6.045-1.643a3.477 3.477 0 0 1 4.251 2.424l.182.68c.497 1.835-.588 3.752-2.424 4.249z" fill="#FFB27D"/>
    <path d="M129.757 85.984c-1.106.294-3.115.82-4.169.872-.386.02-1.147-.305-1.644-1.309a4.2 4.2 0 0 1-.304-.851 3.796 3.796 0 0 1-.132-.893c-.01-.355.041-.7.132-1.034.091-.305.345-.568.68-.69h.01c1.146-.405 2.698-.892 4.037-1.125.923-.163 1.795.284 2.018 1.044l.153.548.466 1.632c.203.761-.345 1.562-1.247 1.806z" fill="#FFD3B6"/>
    <path d="M129.757 85.984c-1.106.294-3.115.82-4.169.872-.386.02-1.147-.305-1.644-1.309a3.819 3.819 0 0 1-.121-.831c-.011-.345.04-.7.131-1.034.092-.305.345-.568.68-.69h.01c1.146-.406 2.698-.892 4.037-1.126.761-.132 1.502.152 1.846.68l.467 1.632c.213.761-.335 1.562-1.237 1.806z" fill="#FFC197"/>
    <path d="M34.052 155.744s12.436 11.906 20.815 16.5l6.35-4.503v6.643s12.486 2.21 16.422 0v-18.102l-35.056-17.565-8.531 17.027z" fill="#5B00E4"/>
    <path d="M80.286 172.954c-4.828.993-15.235-2.799-15.235-2.799l1.683-16.216-11.766 13.467c-5.985-2.231-15.347-8.041-20.906-11.652-2.77-1.805-4.595-3.062-4.595-3.062 7.851-12.626 15.743-24.44 15.743-24.44 2.313 4.634 7.8 8.66 13.744 11.875 9.88 5.354 21.038 8.478 21.038 8.478-.01 9.634.294 24.349.294 24.349z" fill="#fff"/>
    <path d="M136.38 63.693a.491.491 0 0 1-.132.04l-7.922 2.03c-3.479.891-7.08-.995-8.003-4.19l-.467-1.632c-.882-3.073 1.015-6.277 4.25-7.322l2.618-.67 5.305-1.358c3.479-.892 7.08.994 8.003 4.188l.466 1.633c.873 3.032-.963 6.196-4.118 7.281z" fill="#FFB27D"/>
    <path d="m132.759 61.483-3.844 1.734c-.011 0-.011 0-.021.01-.152.04-.314.07-.466.091a1.24 1.24 0 0 1-.193.02h-.081a.608.608 0 0 1-.528-.862 3.752 3.752 0 0 0 .213-2.606l-.091-.334v-.01l-.294-1.096a4.071 4.071 0 0 0-1.4-2.13l-.243-.182c-.761-.527-.568-1.724.324-1.967.01 0 .021 0 .021-.01l4.219-.64c1.045-.283 2.049.518 2.333 1.562l.335 1.248.72 2.657c.284 1.054.031 2.23-1.004 2.515z" fill="#FFD3B6"/>
    <path d="m132.759 61.483-3.844 1.734c-.011 0-.011 0-.021.01-.091.02-.375.06-.74.122a.608.608 0 0 1-.528-.862 3.757 3.757 0 0 0 .213-2.607l-.091-.334v-.01l-.294-1.096a4.071 4.071 0 0 0-1.4-2.13c.132-.202.335-.354.609-.425.01 0 .02 0 .02-.01l4.22-.64c.882-.243 1.734.295 2.15 1.086l.72 2.657c.274 1.044.021 2.22-1.014 2.505z" fill="#FFC197"/>
    <path d="M69.321 104.876s-1.724-15.08-3.317-18.02c-1.592-2.941-2.942-8.833-.487-13.204 2.445-4.37 3.297-12.788 3.297-12.788.953 9.614-1.907 16.743.101 18.63.071.07.213.04.406-.092v25.474z" fill="#EFA26F"/>
    <path d="M190.151 200h-46.67c-2.242-1.501-13.856-9.421-18.664-15.333-1.015-1.248-4.748-12.048-7.608-20.8-1.785-5.476-3.246-10.151-3.489-11.226-.082-.375-.142-1.116-.173-2.119v-.011c-.122-3.579.041-10.496.213-15.982v-.091c.01-.244.02-.477.02-.71V133.647c.031-.954.061-1.856.092-2.667.071-2.039.132-3.58.162-4.179l.01-.283c.071-.041 2.323-1.238 5.315.922.721.528 1.39 1.785 2.009 3.428.395 1.055.761 2.262 1.095 3.529 1.309 4.888 2.252 10.74 2.749 12.301.812 2.536 10.347 13.66 10.945 14.35l.031.03v-17.574l-7.202-19.268-2.962-7.91-1.481-3.976s-2.283-3.742-4.19-8.244c-.831-1.968-1.602-4.087-2.079-6.095a18.298 18.298 0 0 1-.284-1.42c-.284-1.704-.304-3.275.091-4.553.7-2.282 2.262-2.718 3.469-2.667.122 0 .244.01.366.03.121.01.233.04.344.071a2.443 2.443 0 0 1 1.38.984s1.014 1.328 2.384 3.113c.902 1.176 1.947 2.546 2.962 3.874a585.988 585.988 0 0 1 3.925 5.202c2.475 3.489 9.15 14.857 9.15 14.857l7.81.325a5.174 5.174 0 0 1 3.317 1.389c2.779 2.596 8.764 8.204 9.505 9.036 0 .273 4.656 2.515 8.246 4.502 2.567 1.085 7.456 4.939 7.456 4.939 1.014.892 1.785 1.785 2.171 2.637 1.673 3.64 6.218 35.331 8.388 50.999.71 5.03 1.167 8.407 1.197 8.671z" fill="#FFB27D"/>
    <path d="M142.071 117.492s7.232 11.804 8.196 12.342c.953.527 4.686 1.277 5.112 0 .416-1.278-13.308-12.342-13.308-12.342zM178.435 137.723a.138.138 0 0 0-.04-.03s-4.889-3.854-7.456-4.939c-3.296-1.825-7.496-3.863-8.155-4.401.771.872 6.157 6.977 8.226 7.433 1.826.406 5.965 1.532 7.425 1.937zM136.198 161.068v-17.574s4.179 6.987 4.493 10.81c.325 3.834-1.734 10.04-4.493 6.764z" fill="#EFA26F"/>
    <path d="M121.053 96.591c-.608-1.044-1.704-2.94-2.079-4.006-.102-.304-.091-.902.274-1.541.223-.385.568-.78 1.095-1.136.244-.162.497-.314.771-.416a3.25 3.25 0 0 1 .984-.182c.304 0 .619.172.842.487.72 1.054 1.643 2.494 2.262 3.792.436.903.294 1.937-.335 2.394l-.294.213-1.501 1.095c-.629.466-1.522.152-2.019-.7z" fill="#FFD3B6"/>
    <path d="M121.053 96.591c-.608-1.044-1.704-2.94-2.079-4.006-.102-.304-.091-.902.274-1.541.101-.081.203-.162.314-.233.244-.163.497-.315.771-.416.314-.112.649-.172.984-.183.304 0 .619.173.842.487.72 1.055 1.643 2.495 2.262 3.793.274.578.324 1.207.152 1.704l-1.501 1.095c-.629.466-1.522.152-2.019-.7z" fill="#FFC197"/>
    <path d="M161.8 53.402h-9.778a4.69 4.69 0 0 1-4.677-4.675v-8.052c0-2.576 2.11-4.675 4.677-4.675h9.778a4.69 4.69 0 0 1 4.676 4.675v8.042c.01 2.576-2.099 4.685-4.676 4.685z" fill="#F2E8FF"/>
    <rect x="147" y="64.848" width="36" height="36" rx="10" fill="url(#g)"/>
    <path d="M172.028 89.356v4.375c0 .294.222.54.515.572 1.307.142 2.518.34 3.595.588a.575.575 0 0 0 .703-.562v-3.711a.576.576 0 0 0-.443-.56c-1.278-.309-2.757-.549-4.37-.702z" fill="#D68100"/>
    <path d="M176.398 90.057a25.27 25.27 0 0 0-1.197-.257v4.895c.322.062.635.127.937.196a.575.575 0 0 0 .703-.561v-3.712a.576.576 0 0 0-.443-.56zM157.972 89.356v4.375c0 .294-.222.54-.515.572-1.307.142-2.518.34-3.595.588a.575.575 0 0 1-.703-.562v-3.711c0-.267.183-.498.443-.56 1.278-.309 2.757-.549 4.37-.702z" fill="#FF9A00"/>
    <path d="M156.134 89.576v4.895c.429-.062.87-.119 1.323-.168a.576.576 0 0 0 .515-.572v-4.374c-.635.06-1.249.133-1.838.22z" fill="#D68100"/>
    <path d="M156.075 91.843c0 .37.343.644.703.561 2.265-.519 5.119-.828 8.222-.828 3.102 0 5.957.309 8.222.828a.575.575 0 0 0 .703-.561v-3.712a.575.575 0 0 0-.442-.56c-2.304-.556-5.26-.89-8.483-.89-3.223 0-6.179.334-8.484.89a.576.576 0 0 0-.442.56v3.712h.001z" fill="#FF9A00"/>
    <path d="M173.483 87.571c-.459-.11-.945-.212-1.453-.305v4.895c.413.075.811.156 1.192.243a.575.575 0 0 0 .703-.56V88.13a.575.575 0 0 0-.442-.56z" fill="#FF9A00"/>
    <path d="m156.744 83.002-.79 1.052a.272.272 0 0 0-.054.168l.021 1.316a.327.327 0 0 1-.433.314l-1.245-.426a.272.272 0 0 0-.176 0l-1.245.426a.327.327 0 0 1-.433-.314l.021-1.316a.272.272 0 0 0-.054-.168l-.791-1.052a.328.328 0 0 1 .166-.508l1.258-.387a.275.275 0 0 0 .142-.104l.757-1.077a.326.326 0 0 1 .534 0l.757 1.077c.035.05.085.086.142.104l1.258.387a.326.326 0 0 1 .165.508zM160.822 73.004l-.79 1.052a.272.272 0 0 0-.054.168l.02 1.316a.326.326 0 0 1-.432.314l-1.245-.426a.27.27 0 0 0-.176 0l-1.245.426a.327.327 0 0 1-.433-.314l.021-1.316a.272.272 0 0 0-.054-.168l-.791-1.052a.327.327 0 0 1 .166-.508l1.257-.387a.273.273 0 0 0 .143-.103l.757-1.078a.326.326 0 0 1 .534 0l.757 1.078a.27.27 0 0 0 .142.103l1.258.387a.327.327 0 0 1 .165.508zM178.434 83.002l-.79 1.052a.272.272 0 0 0-.054.168l.02 1.316a.326.326 0 0 1-.432.314l-1.245-.426a.272.272 0 0 0-.176 0l-1.245.426a.327.327 0 0 1-.433-.314l.021-1.316a.272.272 0 0 0-.054-.168l-.791-1.052a.328.328 0 0 1 .166-.508l1.258-.387a.275.275 0 0 0 .142-.104l.757-1.077a.326.326 0 0 1 .534 0l.757 1.077c.035.05.085.086.142.104l1.258.387a.326.326 0 0 1 .165.508zM174.357 73.004l-.791 1.052a.272.272 0 0 0-.054.168l.021 1.316a.327.327 0 0 1-.433.314l-1.245-.426a.27.27 0 0 0-.176 0l-1.245.426a.327.327 0 0 1-.433-.314l.021-1.316a.272.272 0 0 0-.054-.168l-.79-1.052a.327.327 0 0 1 .165-.508l1.258-.387a.274.274 0 0 0 .142-.103l.757-1.078a.326.326 0 0 1 .534 0l.757 1.078c.035.049.085.085.143.103l1.258.387c.216.066.3.327.165.508zM172.769 80.398l-2.452 3.264a.272.272 0 0 0-.054.167l.064 4.082a1.04 1.04 0 0 1-1.377 1.001l-3.862-1.322a.272.272 0 0 0-.176 0l-3.862 1.322a1.041 1.041 0 0 1-1.378-1l.065-4.083a.272.272 0 0 0-.054-.167l-2.452-3.264a1.04 1.04 0 0 1 .526-1.62l3.902-1.2a.267.267 0 0 0 .142-.103l2.348-3.34a1.04 1.04 0 0 1 1.702 0l2.347 3.34c.035.05.085.086.143.103l3.902 1.2a1.04 1.04 0 0 1 .526 1.62z" fill="#FC4"/>
    <path d="m168.181 83.153.046 2.937a.272.272 0 0 1-.36.261l-2.779-.951a.27.27 0 0 0-.176 0l-2.779.951a.272.272 0 0 1-.36-.261l.046-2.937a.272.272 0 0 0-.054-.168l-1.764-2.349a.271.271 0 0 1 .137-.423l2.809-.863a.274.274 0 0 0 .142-.104l1.689-2.403a.271.271 0 0 1 .444 0l1.689 2.403c.035.05.085.086.143.104l2.807.863c.18.056.251.273.138.423l-1.764 2.35a.272.272 0 0 0-.054.167z" fill="#fff"/>
    <path d="M151.829 44.549c.527 1.4 5.092 5.08 5.092 5.08s1.481-1.206 2.861-2.504c1.034-.964 1.988-1.978 2.221-2.576.538-1.39-.03-3.387-2.029-3.722-1.988-.334-3.053 1.734-3.053 1.734s-1.075-2.079-3.063-1.734c-.345.061-.65.173-.913.325-1.248.69-1.562 2.251-1.116 3.397z" fill="#FB5252"/>
    <path d="M4.483 96.895h29.305a4.261 4.261 0 0 1 4.25 4.249v12.859a3.914 3.914 0 0 1-3.905 3.905h-.75l1.41 5.963-8.866-5.963H4.24A4.251 4.251 0 0 1 0 113.669v-12.261c-.01-2.484 2.019-4.513 4.483-4.513z" fill="#F2E8FF"/>
    <path d="M3.702 106.225h30.553c.416 0 .76-.345.76-.76a.766.766 0 0 0-.76-.761H3.702a.766.766 0 0 0-.76.761c0 .426.345.76.76.76zM3.702 109.612h30.553c.416 0 .76-.345.76-.76a.766.766 0 0 0-.76-.761H3.702a.766.766 0 0 0-.76.761c0 .426.345.76.76.76zM3.702 112.999h30.553c.416 0 .76-.344.76-.76a.766.766 0 0 0-.76-.761H3.702a.766.766 0 0 0-.76.761c0 .426.345.76.76.76zM20.348 100.972h12.974a.905.905 0 0 0 .902-.902.905.905 0 0 0-.902-.903H20.348a.905.905 0 0 0-.903.903c0 .496.406.902.903.902z" fill="#DAC0FF"/>
    <path d="M9.2 100.972h7.81c.396 0 .71-.324.71-.71v-.375a.712.712 0 0 0-.71-.71H9.2a.712.712 0 0 0-.71.71v.375c0 .386.325.71.71.71z" fill="#CBE1FD"/>
    <path opacity=".4" d="M24.745 31.57h60.01a3.772 3.772 0 0 0 3.773-3.773V3.772A3.772 3.772 0 0 0 84.755 0h-60.01a3.772 3.772 0 0 0-3.773 3.772v24.025a3.772 3.772 0 0 0 3.773 3.772z" fill="#16C7FF"/>
    <path d="M46.94 14.603a9.78 9.78 0 0 1-3.46 7.474 9.733 9.733 0 0 1-6.33 2.322c-2.19 0-4.209-.72-5.842-1.937a9.824 9.824 0 0 1-1.907-1.876 9.717 9.717 0 0 1-2.028-5.973c0-5.405 4.382-9.786 9.788-9.786a9.77 9.77 0 0 1 9.779 9.776z" fill="#fff"/>
    <path d="M41.077 19.227c-.03-.03-.051-.06-.082-.08-.111-.092-.223-.143-.68-.213-.232-.041-.547-.082-1.003-.143 0 0-.102-.01-.153-.01-.03 0-.07-.01-.111-.01-.132-.07-.163-.608-.163-1.176v-.132c0-.213.01-.426.02-.619v-.03c.285.02.467.02.467.02.518-.04.842-1.44.964-2.566 0 0 .254-.618.254-1.287 0-.376-.082-.771-.335-1.075a1.269 1.269 0 0 0-.365-.325c-.03-.03-.061-.06-.102-.091-.487-.538-2.454-2.556-3.753-1.39-.03-.111-.456-1.43-2.495-.993.122-.01 1.035-.102 1.298.263-.04-.02-.821-.365-1.329-.06-.233.142-.375.425-.456.74v.03l-.03.122v.03c-.061.315-.061.619-.02.771.08.315.638 1.268 1.014 1.268.142 0 .294-.051.426-.102-.061.173-.112.355-.152.558-.396 1.866.841 3.286 1.48 2.93.416-.222.72.498.72.498-.06 1.369-.435 2.251-.71 2.474-.1.01-.314.04-.588.081 0 0-.943.102-1.663.416-.01 0-.01 0-.02.01a1.866 1.866 0 0 0-.406.223.578.578 0 0 0-.132.142.21.21 0 0 0-.04.061c-.244.457-.488 1.146-.72 1.957a8.25 8.25 0 0 0 4.96 1.643c2.048 0 3.915-.74 5.365-1.967-.517-1.146-1.126-1.724-1.46-1.968z" fill="#16C7FF"/>
    <path d="M64.762 9.664H53.634a.701.701 0 0 1-.7-.7V8.63c0-.385.315-.7.7-.7h11.128c.385 0 .7.315.7.7v.335c0 .385-.315.7-.7.7zM64.894 15.911H53.502a.567.567 0 1 1 0-1.135h11.392a.567.567 0 1 1 0 1.135zM59.852 18.589h-6.481a.433.433 0 0 1-.437-.436v-.264c0-.244.193-.436.437-.436h6.481c.244 0 .436.192.436.436v.264a.446.446 0 0 1-.436.436zM73.06 18.589H62.59a.552.552 0 0 1-.548-.548v-.04c0-.295.244-.548.548-.548h10.468c.294 0 .548.243.548.547v.041a.559.559 0 0 1-.548.548zM82.838 15.911H67.906a.567.567 0 1 1 0-1.135h14.932a.567.567 0 1 1 0 1.135zM64.894 21.266H53.502a.567.567 0 1 1 0-1.136h11.392a.567.567 0 1 1 0 1.136zM82.838 21.266H67.906a.567.567 0 1 1 0-1.136h14.932a.567.567 0 1 1 0 1.136zM75.595 9.664h-7.983a.6.6 0 0 1-.598-.598V8.53a.6.6 0 0 1 .598-.599h7.983a.6.6 0 0 1 .599.599v.537a.6.6 0 0 1-.599.598z" fill="#fff"/>
    <path d="M50.197 65.862 15 70.874l23.368-15.906 1.18 5.095 8.556 1.553 2.093 4.246z" fill="#DAC0FF"/>
    <path d="m15 70.874 29.292-15.098 28.692-1.45L15 70.874z" fill="url(#h)"/>
    <path d="M38.368 54.968 15 70.874 33.085 46l5.283 8.968z" fill="url(#i)"/>
    <path d="M166.71 192.78 152.772 200h-9.281c-2.242-1.501-13.856-9.421-18.664-15.333-1.015-1.248-4.747-12.048-7.608-20.8.386 1.166 8.379 18.183 10.651 20.12 2.272 1.937 14.231 13.204 17.528 13.082 3.195-.111 20.216-4.026 21.271-4.269.01-.01.02-.01.041-.02z" fill="#EFA26F"/>
    <path d="M194.756 200h-50.261c2.516-.994 12.162-4.675 22.164-7.2.02 0 .03-.01.051-.01 8.581-2.17 17.426-3.489 22.224-1.511l.03.05 5.792 8.671z" fill="#fff"/>
    <path d="M113.79 133.637c.852-.315 2.039-.518 2.617.446.903 1.501-2.444 14.765-2.86 16.428l.243-16.874z" fill="#EFA26F"/>
    <path d="m114.044 126.507-.284 8.022s1.684.274 2.648-.446c.963-.72.446-7.677-2.364-7.576z" fill="#FFC197"/>
    <path d="M47.147 158.229a1.952 1.952 0 0 1 1.978-1.937 1.952 1.952 0 0 1 1.938 1.977 1.952 1.952 0 0 1-1.978 1.937 1.965 1.965 0 0 1-1.938-1.977z" fill="#5B00E4"/>
</svg>
