<?xml version="1.0" encoding="utf-8"?>
<!-- Generator: Adobe Illustrator 23.0.1, SVG Export Plug-In . SVG Version: 6.00 Build 0)  -->
<svg version="1.1" id="Layer_1" xmlns="http://www.w3.org/2000/svg" xmlns:xlink="http://www.w3.org/1999/xlink" x="0px" y="0px"
	 width="40px" height="40px" viewBox="0 0 40 40" enable-background="new 0 0 40 40" xml:space="preserve">
<path fill="#F5F5F5" d="M20,40c11,0,20-9,20-20S31,0,20,0S0,9,0,20S9,40,20,40z"/>
<path fill-rule="evenodd" clip-rule="evenodd" fill="#FFFFFF" d="M29,33H12c-1.1,0-2-0.9-2-2V9v0l1.7,1.7L13.4,9l1.7,1.7L16.8,9
	l1.7,1.7L20.2,9l1.7,1.7L23.6,9l1.7,1.7L27,9v12"/>
<path fill-rule="evenodd" clip-rule="evenodd" d="M30.5,20H27V8.5c0-0.2-0.1-0.4-0.3-0.4c-0.2-0.1-0.4,0-0.5,0.1l-1.4,1.4l-1.4-1.4
	c-0.2-0.2-0.5-0.2-0.7,0l-1.4,1.4L20,8.1c-0.2-0.2-0.5-0.2-0.7,0L18,9.5l-1.4-1.4c-0.2-0.2-0.5-0.2-0.7,0l-1.4,1.4l-1.4-1.4
	C13,8,12.7,8,12.5,8.1l-1.4,1.4L9.8,8.1C9.6,8,9.3,8,9.1,8.1C9,8.2,9,8.4,9,8.5v22c0,1.4,1.1,2.5,2.5,2.5h17c1.4,0,2.5-1.1,2.5-2.5
	v-10C31,20.2,30.8,20,30.5,20z M10,30.5V9.7l0.9,0.9c0.2,0.2,0.5,0.2,0.7,0l1.4-1.4l1.4,1.4c0.2,0.2,0.5,0.2,0.7,0l1.4-1.4l1.4,1.4
	c0.2,0.2,0.5,0.2,0.7,0l1.4-1.4l1.4,1.4c0.2,0.2,0.5,0.2,0.7,0l1.4-1.4l1.4,1.4c0.2,0.2,0.5,0.2,0.7,0L26,9.7v20.8
	c0,0.6,0.2,1.1,0.5,1.6h-15C10.7,32,10,31.3,10,30.5L10,30.5z M28.5,32c0.8,0,1.5-0.7,1.5-1.6V21H27v9.5C27,31.3,27.7,32,28.5,32z"
	/>
<path fill-rule="evenodd" clip-rule="evenodd" d="M18,18.1c-0.5,0-0.9-0.4-0.9-0.8c0-0.3-0.2-0.5-0.5-0.5c-0.3,0-0.5,0.2-0.5,0.5
	c0,0.8,0.6,1.6,1.5,1.8v0.4c0,0.3,0.2,0.5,0.5,0.5c0.3,0,0.5-0.2,0.5-0.5v-0.4c0.8-0.2,1.5-0.9,1.5-1.8c0-1-0.9-1.8-2-1.8
	c-0.5,0-0.9-0.4-0.9-0.8c0-0.4,0.4-0.8,0.9-0.8s0.9,0.4,0.9,0.8c0,0.3,0.2,0.5,0.5,0.5c0.3,0,0.5-0.2,0.5-0.5c0-0.8-0.6-1.6-1.5-1.8
	v-0.4c0-0.3-0.2-0.5-0.5-0.5c-0.3,0-0.5,0.2-0.5,0.5v0.4c-0.8,0.2-1.5,0.9-1.5,1.8c0,1,0.9,1.8,2,1.8c0.5,0,0.9,0.4,0.9,0.8
	C18.9,17.7,18.5,18.1,18,18.1L18,18.1z M21.5,17h1c0.3,0,0.5-0.2,0.5-0.5S22.8,16,22.5,16h-1c-0.3,0-0.5,0.2-0.5,0.5
	S21.2,17,21.5,17z M14.5,16h-1c-0.3,0-0.5,0.2-0.5,0.5s0.2,0.5,0.5,0.5h1c0.3,0,0.5-0.2,0.5-0.5S14.8,16,14.5,16z M23.5,21h-8
	c-0.3,0-0.5,0.2-0.5,0.5s0.2,0.5,0.5,0.5h8c0.3,0,0.5-0.2,0.5-0.5S23.8,21,23.5,21z M12.5,21c-0.1,0-0.3,0.1-0.4,0.1
	c-0.1,0.1-0.1,0.2-0.1,0.4s0.1,0.3,0.1,0.4c0.1,0.1,0.2,0.1,0.4,0.1s0.3-0.1,0.4-0.1c0.1-0.1,0.1-0.2,0.1-0.4s-0.1-0.3-0.1-0.4
	C12.8,21.1,12.6,21,12.5,21z M23.5,25h-8c-0.3,0-0.5,0.2-0.5,0.5s0.2,0.5,0.5,0.5h8c0.3,0,0.5-0.2,0.5-0.5S23.8,25,23.5,25z
	 M12.5,25c-0.1,0-0.3,0.1-0.4,0.1c-0.1,0.1-0.1,0.2-0.1,0.4s0.1,0.3,0.1,0.4c0.1,0.1,0.2,0.1,0.4,0.1s0.3-0.1,0.4-0.1
	c0.1-0.1,0.1-0.2,0.1-0.4s-0.1-0.3-0.1-0.4C12.8,25.1,12.6,25,12.5,25z M23.5,28h-8c-0.3,0-0.5,0.2-0.5,0.5s0.2,0.5,0.5,0.5h8
	c0.3,0,0.5-0.2,0.5-0.5S23.8,28,23.5,28z M12.5,28c-0.1,0-0.3,0.1-0.4,0.1c-0.1,0.1-0.1,0.2-0.1,0.4s0.1,0.3,0.1,0.4
	c0.1,0.1,0.2,0.1,0.4,0.1s0.3-0.1,0.4-0.1c0.1-0.1,0.1-0.2,0.1-0.4s-0.1-0.3-0.1-0.4C12.8,28.1,12.6,28,12.5,28z"/>
</svg>
