<?xml version="1.0" encoding="utf-8"?>
<!-- Generator: Adobe Illustrator 23.0.1, SVG Export Plug-In . SVG Version: 6.00 Build 0)  -->
<svg version="1.1" id="Layer_1" xmlns="http://www.w3.org/2000/svg" xmlns:xlink="http://www.w3.org/1999/xlink" x="0px" y="0px"
	 width="40px" height="40px" viewBox="0 0 40 40" enable-background="new 0 0 40 40" xml:space="preserve">
<path fill="#FDCBCB" d="M20,40c11,0,20-9,20-20S31,0,20,0S0,9,0,20S9,40,20,40z"/>
<linearGradient id="SVGID_1_" gradientUnits="userSpaceOnUse" x1="20" y1="39.89" x2="20" y2="-0.11" gradientTransform="matrix(1 0 0 -1 0 39.89)">
	<stop  offset="0" style="stop-color:#FFFFFF"/>
	<stop  offset="1" style="stop-color:#FFFFFF;stop-opacity:0"/>
</linearGradient>
<path fill="url(#SVGID_1_)" d="M20,40c11,0,20-9,20-20S31,0,20,0S0,9,0,20S9,40,20,40z"/>
<path fill-rule="evenodd" clip-rule="evenodd" fill="#4C241D" d="M22.1,34.4H28c1.1,0,2-0.9,2-2V21.7c0-1.1-0.9-2-2-2h-5.8
	c-1.1,0-2,0.9-2,2v10.7C20.1,33.6,21,34.4,22.1,34.4z M21.1,21.7c0-0.6,0.5-1,1-1H28c0.6,0,1,0.5,1,1v10.7c0,0.6-0.5,1-1,1h-5.8
	c-0.6,0-1-0.5-1-1V21.7z"/>
<path fill="#FFFFFF" d="M22.1,20.7c-0.6,0-1,0.5-1,1v10.7c0,0.6,0.5,1,1,1H28c0.6,0,1-0.5,1-1V21.7c0-0.6-0.5-1-1-1
	C28,20.7,22.1,20.7,22.1,20.7z"/>
<path fill="#4C241D" d="M26.5,24.1h-2.9c-0.8,0-1.5-0.7-1.5-1.5s0.7-1.5,1.5-1.5h2.9c0.8,0,1.5,0.7,1.5,1.5S27.3,24.1,26.5,24.1z"/>
<path fill="#FFFFFF" d="M23.6,22.2c-0.3,0-0.5,0.2-0.5,0.5s0.2,0.5,0.5,0.5h2.9c0.3,0,0.5-0.2,0.5-0.5s-0.2-0.5-0.5-0.5H23.6z"/>
<path fill-rule="evenodd" clip-rule="evenodd" fill="#4C241D" d="M23.1,32H27c0.3,0,0.5-0.2,0.5-0.5v-3.2c0-0.1-0.1-0.3-0.1-0.3
	L25.4,26c-0.2-0.2-0.5-0.2-0.7,0l-2,1.9c-0.1,0.1-0.1,0.2-0.1,0.4v3.2C22.6,31.8,22.8,32,23.1,32L23.1,32z M26.5,31h-2.9v-2.5
	l1.5-1.4l1.4,1.4V31z"/>
<path fill="#4C241D" d="M28,29.5c-0.1,0-0.3,0-0.3-0.1l-2.9-2.9c-0.2-0.2-0.2-0.5,0-0.7c0.2-0.2,0.5-0.2,0.7,0l2.9,2.9
	c0.2,0.2,0.2,0.5,0,0.7C28.2,29.5,28.1,29.5,28,29.5L28,29.5z"/>
<path fill="#4C241D" d="M22.1,29.5c-0.1,0-0.3,0-0.3-0.1c-0.2-0.2-0.2-0.5,0-0.7l2.9-2.9c0.2-0.2,0.5-0.2,0.7,0
	c0.2,0.2,0.2,0.5,0,0.7l-2.9,2.9C22.3,29.5,22.2,29.5,22.1,29.5L22.1,29.5z"/>
<path fill-rule="evenodd" clip-rule="evenodd" fill="#4C241D" d="M15.4,34.8c0.1,0.1,0.2,0.2,0.4,0.2c0.1,0,0.1,0,0.2,0
	c0.2-0.1,0.3-0.3,0.3-0.5V22.2c1.7-0.7,2.9-2.4,2.9-4.2c0-2.5-2-4.5-4.5-4.5c-2.5,0-4.5,2-4.5,4.5c0,1.8,1.1,3.4,2.7,4.1v3
	c0,0.1,0,0.2,0.1,0.3l0.8,1.2l-0.8,1c-0.1,0.2-0.1,0.4,0,0.6l0.7,0.8l-0.7,0.7c-0.1,0.1-0.1,0.2-0.1,0.3v1.8c0,0.1,0,0.2,0.1,0.3
	C12.9,32.2,15.4,34.8,15.4,34.8z M15.2,33.2l-1.5-1.6v-1.4l0.8-0.8c0.2-0.2,0.2-0.5,0-0.7l-0.7-0.9l0.7-1c0.1-0.2,0.1-0.4,0-0.6
	L13.8,25v-3.2c0-0.2-0.1-0.4-0.3-0.5c-1.4-0.5-2.4-1.8-2.4-3.3c0-2,1.6-3.5,3.5-3.5c2,0,3.5,1.6,3.5,3.5c0,1.6-1.1,3-2.6,3.4
	c-0.2,0.1-0.4,0.3-0.4,0.5C15.2,21.9,15.2,33.2,15.2,33.2z"/>
<path fill="#FFFFFF" d="M13.8,31.7l1.5,1.6V21.9c0-0.2,0.1-0.4,0.4-0.5c1.5-0.4,2.6-1.8,2.6-3.4c0-2-1.6-3.5-3.5-3.5
	c-2,0-3.5,1.6-3.5,3.5c0,1.5,1,2.8,2.4,3.3c0.2,0.1,0.3,0.3,0.3,0.5V25l0.9,1.3c0.1,0.2,0.1,0.4,0,0.6l-0.7,1l0.7,0.9
	c0.2,0.2,0.2,0.5,0,0.7l-0.8,0.8C13.8,30.2,13.8,31.7,13.8,31.7z"/>
<path fill="#4C241D" d="M14.6,18.6c-0.9,0-1.7-0.8-1.7-1.7c0-0.9,0.8-1.7,1.7-1.7s1.7,0.8,1.7,1.7S15.5,18.6,14.6,18.6z"/>
<path fill="#FFFFFF" d="M14.6,16.2c-0.4,0-0.7,0.3-0.7,0.7s0.3,0.7,0.7,0.7s0.7-0.3,0.7-0.7S15,16.2,14.6,16.2z"/>
<path fill="#4C241D" d="M25,21.7c-0.3,0-0.5-0.2-0.5-0.5v-9.6c0-2.6-2.1-4.6-4.6-4.6c-2.6,0-4.6,2.1-4.6,4.6v3.7
	c0,0.3-0.2,0.5-0.5,0.5c-0.3,0-0.5-0.2-0.5-0.5v-3.7c0-3.1,2.5-5.6,5.6-5.6c3.1,0,5.6,2.5,5.6,5.6v9.6C25.5,21.5,25.3,21.7,25,21.7
	L25,21.7z"/>
</svg>
