<svg xmlns="http://www.w3.org/2000/svg" width="40" height="40" viewBox="0 0 40 40">
    <g fill="none" fill-rule="nonzero">
        <circle cx="20" cy="20" r="20" fill="#CEEFFF"/>
        <path fill="#000" d="M31.551 15.584h-2.794a.4.4 0 0 0-.4.4v1.197h-3.592v-.4a.4.4 0 0 0-.399-.398H22.77v-1.996a.4.4 0 0 0-.399-.4h-1.197v-2.394h1.157l2.388.479a1.708 1.708 0 1 0 0-3.35l-2.388.476h-1.157v-.799a.4.4 0 0 0-.4-.399h-1.596a.4.4 0 0 0-.4.4v.798H17.62l-2.388-.48a1.708 1.708 0 1 0 0 3.35l2.388-.475h1.158v2.395H17.58a.4.4 0 0 0-.399.399v1.996h-1.597a.4.4 0 0 0-.399.399v.798H13.19A5.195 5.195 0 0 0 8 22.77v2.394c0 .22.179.4.4.4h3.991a.4.4 0 0 0 .4-.4V22.77a.4.4 0 0 1 .398-.399h1.996v.798c0 .22.179.4.4.4h8.781a.4.4 0 0 0 .4-.4v-.399h3.592v1.198c0 .22.178.399.399.399h2.794a.4.4 0 0 0 .4-.4v-7.983a.4.4 0 0 0-.4-.399z"/>
        <path fill="#FFF" d="M21.173 9.996h1.197a.37.37 0 0 0 .08-.008l2.426-.485a.91.91 0 1 1 0 1.784l-2.426-.485a.37.37 0 0 0-.08-.008h-1.197v-.798zM15.185 21.572H13.19c-.661 0-1.197.536-1.197 1.197v1.996H8.798V22.77a4.396 4.396 0 0 1 4.391-4.39h1.996v3.193zM19.576 8.798h.798v.4h-.798zM19.576 9.996h.798v.798h-.798zM19.576 11.593h.798v2.395h-.798zM17.58 10.794a.37.37 0 0 0-.08.008l-2.426.485a.91.91 0 1 1 0-1.784l2.426.485a.37.37 0 0 0 .08.008h1.198v.798H17.58zM17.98 14.786h3.991v1.597h-3.992zM23.967 22.77h-7.983v-5.59h7.983zM28.358 21.97h-3.593v-3.99h3.593zM31.152 23.568h-1.996v-7.185h1.996z"/>
        <path fill="#000" d="M12.173 29.22l-1.426-2.648a.416.416 0 0 0-.704 0l-1.426 2.647a1.78 1.78 0 0 0 .04 1.773c.368.605 1.03.97 1.738.958a1.996 1.996 0 0 0 1.738-.958 1.78 1.78 0 0 0 .04-1.773z"/>
        <path fill="#FFF" d="M11.448 30.583c-.225.363-.626.58-1.053.569a1.204 1.204 0 0 1-1.053-.57.977.977 0 0 1-.021-.984l1.074-1.996 1.075 1.996a.977.977 0 0 1-.022.985z"/>
    </g>
</svg>
