<?xml version="1.0" encoding="utf-8"?>
<!-- Generator: Adobe Illustrator 23.0.1, SVG Export Plug-In . SVG Version: 6.00 Build 0)  -->
<svg version="1.1" id="Layer_1" xmlns="http://www.w3.org/2000/svg" xmlns:xlink="http://www.w3.org/1999/xlink" x="0px" y="0px"
	 width="40px" height="40px" viewBox="0 0 40 40" enable-background="new 0 0 40 40" xml:space="preserve">
<path fill="#F2E8FF" d="M20,40c11,0,20-9,20-20S31,0,20,0S0,9,0,20S9,40,20,40z"/>
<linearGradient id="SVGID_1_" gradientUnits="userSpaceOnUse" x1="20" y1="39.89" x2="20" y2="-0.11" gradientTransform="matrix(1 0 0 -1 0 39.89)">
	<stop  offset="0" style="stop-color:#FFFFFF"/>
	<stop  offset="1" style="stop-color:#FFFFFF;stop-opacity:0"/>
</linearGradient>
<path fill="url(#SVGID_1_)" d="M20,40c11,0,20-9,20-20S31,0,20,0S0,9,0,20S9,40,20,40z"/>
<path d="M29.5,12.5l-2-2c-0.1-0.1-0.3-0.2-0.5-0.1l-2.2,1.5l-2.4-1L22,8.3C22,8.1,21.8,8,21.6,8h-3.2C18.2,8,18,8.1,18,8.3l-0.4,2.6
	l-2.4,1L13,10.5c-0.2-0.1-0.4-0.1-0.5,0.1l-2,2c-0.1,0.1-0.2,0.3-0.1,0.5l1.5,2.2l-0.2,0.6l0.7,0.3l0.3-0.8c0.1-0.1,0-0.3,0-0.4
	l-1.4-2.2l1.5-1.5l2.1,1.4c0.1,0.1,0.3,0.1,0.4,0l2.8-1.2c0.1-0.1,0.2-0.2,0.2-0.3l0.4-2.5h2.5l0.4,2.5c0,0.1,0.1,0.3,0.2,0.3
	l2.8,1.2c0.1,0.1,0.3,0,0.4,0l2.1-1.4l1.5,1.6l-1,1.8c-0.1,0.1-0.1,0.2,0,0.3l0.4,1.2l0.7-0.3l-0.4-1l1.1-1.9
	C29.6,12.8,29.6,12.6,29.5,12.5z"/>
<path fill-rule="evenodd" clip-rule="evenodd" fill="#FFFFFF" d="M17.4,22.4l-1.3,1.2v8h8v-8l-1.4-1.2H17.4L17.4,22.4z M9,24l-1,1v7
	h6v-7l-1.1-1H9z M27,24l-1,1v7h6v-7l-1.1-1H27z"/>
<path fill-rule="evenodd" clip-rule="evenodd" d="M23.1,22.1l1.2,1.2c0.1,0.1,0.1,0.2,0.1,0.3v8c0,0.2-0.2,0.4-0.4,0.4h-8
	c-0.2,0-0.4-0.2-0.4-0.4v-8c0-0.1,0-0.2,0.1-0.3l1.2-1.2C17,22,17.1,22,17.2,22h5.6C22.9,22,23,22,23.1,22.1z M22.6,22.8h-1.3
	l-0.8,0.8l0.6,0.6C21.2,24.2,22.6,22.8,22.6,22.8z M20.6,24.8l-0.5,0.5C20,25.4,20,25.5,20,25.6c0-0.1,0-0.2-0.1-0.3l-0.5-0.5
	l0.6-0.6L20.6,24.8z M20,23l0.2-0.2h-0.5C19.8,22.8,20,23,20,23z M18.6,22.8l0.8,0.8l-0.6,0.6l-1.4-1.4
	C17.4,22.8,18.6,22.8,18.6,22.8z M16.4,31.2h2l0.7-5.5l-0.7-0.7l-1.7-1.7l-0.4,0.4V31.2z M19.3,31.2l0.7-5.5l0-0.1c0,0,0,0.1,0,0.1
	l1.1,5.5C21.1,31.2,19.3,31.2,19.3,31.2z M21.9,31.2h1.7v-7.4l-0.4-0.4l-1.7,1.7l-0.6,0.6C20.8,25.7,21.9,31.2,21.9,31.2z"/>
<path fill="#FFFAFA" d="M22.4,18c0,1.3-1.1,2.4-2.4,2.4s-2.4-1.1-2.4-2.4v-1.6h3.2c0.6,0,1.2-0.2,1.6-0.6C22.4,15.8,22.4,18,22.4,18
	z"/>
<path fill="#FFFFFF" d="M20.8,15.6h-3.2c0-0.9,0.7-1.6,1.6-1.6h3.2C22.4,14.9,21.7,15.6,20.8,15.6z"/>
<path fill-rule="evenodd" clip-rule="evenodd" d="M19.2,13.2h3.6c0.2,0,0.4,0.2,0.4,0.4V18c0,1.8-1.4,3.2-3.2,3.2
	c-1.8,0-3.2-1.4-3.2-3.2v-2.4C16.8,14.3,17.9,13.2,19.2,13.2z M19.2,14c-0.9,0-1.6,0.7-1.6,1.6h3.2c0.9,0,1.6-0.7,1.6-1.6H19.2z"/>
<path fill="#FFFAFA" d="M22.4,18c0,1.3-1.1,2.4-2.4,2.4s-2.4-1.1-2.4-2.4v-1.6h3.2c0.6,0,1.2-0.2,1.6-0.6C22.4,15.8,22.4,18,22.4,18
	z"/>
<path fill-rule="evenodd" clip-rule="evenodd" d="M30.7,23.7l1.2,1.2C32,25,32,25.1,32,25.2v6.4c0,0.2-0.2,0.4-0.4,0.4H26
	c-0.2,0-0.4-0.2-0.4-0.4v-6.4c0-0.1,0-0.2,0.1-0.3l1.2-1.2c0.1-0.1,0.2-0.1,0.3-0.1h3.2C30.5,23.6,30.6,23.6,30.7,23.7z M29.2,31.2
	h2v-5.8l-0.8-0.8l-1,0.9l-0.3-0.3l-0.3-0.3l0.5-0.5h-1.3l0.5,0.5l-0.3,0.3l-0.3,0.3l-0.9-0.9l-0.8,0.8v5.8h2v-6h0.8V31.2z"/>
<path d="M29.2,16.8h-0.8c-1.1,0-2,0.9-2,2l0,2c0,1.3,1.1,2.4,2.4,2.4h0c1.3,0,2.4-1.1,2.4-2.4v-2C31.2,17.7,30.3,16.8,29.2,16.8z"/>
<path fill="#FFFFFF" d="M27.2,18.8c0-0.7,0.5-1.2,1.2-1.2C28.4,18.3,27.9,18.8,27.2,18.8C27.2,18.8,27.2,18.8,27.2,18.8z M30.4,20.8
	c0,0.9-0.7,1.6-1.6,1.6c-0.9,0-1.6-0.7-1.6-1.6v0l0-1.2c0.6,0,1.2-0.3,1.6-0.8c0.4,0.5,1,0.8,1.6,0.8C30.4,19.6,30.4,20.8,30.4,20.8
	z M29.2,17.6c0.7,0,1.2,0.5,1.2,1.2C29.7,18.8,29.2,18.3,29.2,17.6z"/>
<path fill-rule="evenodd" clip-rule="evenodd" d="M13.1,23.7l1.2,1.2c0.1,0.1,0.1,0.2,0.1,0.3v6.4c0,0.2-0.2,0.4-0.4,0.4H8.4
	C8.2,32,8,31.8,8,31.6v-6.4c0-0.1,0-0.2,0.1-0.3l1.2-1.2c0.1-0.1,0.2-0.1,0.3-0.1h3.2C12.9,23.6,13,23.6,13.1,23.7z M11.6,31.2h2
	v-5.8l-0.8-0.8l-1,0.9l-0.3-0.3l-0.3-0.3l0.5-0.5h-1.3l0.5,0.5l-0.3,0.3l-0.3,0.3l-0.9-0.9l-0.8,0.8v5.8h2v-6h0.8V31.2z M10.8,16.8
	h0.8c1.1,0,2,0.9,2,2v2c0,1.3-1.1,2.4-2.4,2.4h0c-1.3,0-2.4-1.1-2.4-2.4l0-2C8.8,17.7,9.7,16.8,10.8,16.8z M12.7,18.4
	c-0.2-0.5-0.6-0.8-1.1-0.8h-0.7c0.2,0.5,0.6,0.8,1.1,0.8H12.7z M10,17.9L10,17.9c0,0.2,0,0.3-0.1,0.4c-0.1,0-0.1,0.1-0.2,0.1
	C9.8,18.2,9.9,18,10,17.9z M11.2,22.4c0.9,0,1.6-0.7,1.6-1.6v-1.6H12c-0.5,0-1-0.2-1.4-0.6c0,0.1-0.1,0.1-0.2,0.2
	c-0.2,0.2-0.5,0.3-0.8,0.3l0,1.6v0C9.6,21.7,10.3,22.4,11.2,22.4z"/>
<path fill="#FFFFFF" d="M11.6,17.6c0.5,0,1,0.3,1.1,0.8H12c-0.5,0-1-0.3-1.1-0.8C10.9,17.6,11.6,17.6,11.6,17.6z M10,17.9L10,17.9
	c0,0.2,0,0.3-0.1,0.4c-0.1,0-0.1,0.1-0.2,0.1C9.8,18.2,9.9,18,10,17.9z M12.8,20.8c0,0.9-0.7,1.6-1.6,1.6c-0.9,0-1.6-0.7-1.6-1.6v0
	l0-1.6c0.3,0,0.6-0.1,0.8-0.3c0.1-0.1,0.1-0.1,0.2-0.2c0.4,0.4,0.9,0.6,1.4,0.6h0.8C12.8,19.2,12.8,20.8,12.8,20.8z"/>
</svg>
