<svg xmlns="http://www.w3.org/2000/svg" width="40" height="40" fill="none" viewBox="0 0 40 40">
    <circle cx="20" cy="20" r="20" fill="#fff"/>
    <path fill="#C50000" d="M29.279 11.471a1.5 1.5 0 1 1-3 0 1.5 1.5 0 0 1 3 0zM13.721 28.529a1.5 1.5 0 1 1-3 0 1.5 1.5 0 0 1 3 0z"/>
    <path fill="#FB5252" d="M26.79 18.53a6.908 6.908 0 0 0-.953-2.298l.898-.899-2.074-2.071-.897.897a6.908 6.908 0 0 0-2.299-.952v-1.27h-2.93v1.27a6.907 6.907 0 0 0-2.3.952l-.897-.897-2.073 2.071.898.899a6.908 6.908 0 0 0-.952 2.298h-1.273l-.002 2.931h1.275c.178.832.505 1.608.952 2.299l-.901.901 2.072 2.074.902-.902a6.903 6.903 0 0 0 2.299.952v1.277h2.93v-1.277a6.906 6.906 0 0 0 2.3-.953l.902.903 2.071-2.073-.901-.902a6.899 6.899 0 0 0 .952-2.299h1.274v-2.93H26.79zM20 23.404a3.404 3.404 0 1 1 0-6.808 3.404 3.404 0 0 1 0 6.808z"/>
    <path fill="#000" d="M12.221 26.56c-.336 0-.659.084-.945.242A11.083 11.083 0 0 1 8.938 20C8.938 13.9 13.9 8.937 20 8.937c.742 0 1.483.074 2.203.22a.469.469 0 0 0 .186-.92A12.09 12.09 0 0 0 20 8a11.922 11.922 0 0 0-8.485 3.515A11.922 11.922 0 0 0 8 20c0 2.696.916 5.328 2.582 7.437-.214.32-.33.697-.33 1.092 0 .526.205 1.02.577 1.392.372.372.866.577 1.392.577.526 0 1.02-.205 1.392-.577.372-.372.577-.866.577-1.392 0-.526-.205-1.02-.577-1.392a1.956 1.956 0 0 0-1.392-.577zm.73 2.698a1.024 1.024 0 0 1-.73.302c-.275 0-.534-.107-.729-.302a1.024 1.024 0 0 1-.302-.73c0-.275.107-.534.302-.728.195-.195.454-.302.73-.302.274 0 .533.107.728.302.195.194.302.453.302.729 0 .275-.107.534-.302.729zM29.417 12.563c.51-.765.428-1.81-.246-2.484a1.956 1.956 0 0 0-1.392-.577c-.526 0-1.02.205-1.392.577a1.956 1.956 0 0 0-.577 1.392c0 .526.205 1.02.577 1.392.372.372.866.577 1.392.577.336 0 .659-.084.945-.242A11.083 11.083 0 0 1 31.062 20c0 6.1-4.962 11.063-11.062 11.063-.734 0-1.468-.073-2.182-.216a.469.469 0 0 0-.184.92A12.1 12.1 0 0 0 20 32c3.205 0 6.219-1.248 8.485-3.515A11.921 11.921 0 0 0 32 20c0-2.696-.916-5.328-2.583-7.437zM27.05 12.2a1.024 1.024 0 0 1-.302-.729c0-.275.107-.534.302-.729.194-.195.453-.302.729-.302a1.033 1.033 0 0 1 0 2.063c-.276 0-.535-.108-.73-.303z"/>
    <path fill="#000" d="M18.066 28.063c0 .258.21.468.468.468h2.931c.26 0 .47-.21.47-.468v-.91a7.334 7.334 0 0 0 1.758-.728l.642.641a.469.469 0 0 0 .663 0l2.072-2.073a.469.469 0 0 0 0-.663l-.641-.64a7.339 7.339 0 0 0 .729-1.76h.905c.26 0 .469-.21.469-.469v-2.93a.469.469 0 0 0-.469-.47h-.905a7.34 7.34 0 0 0-.73-1.759l.638-.637a.47.47 0 0 0 0-.663l-2.073-2.072a.469.469 0 0 0-.663 0l-.637.637a7.339 7.339 0 0 0-1.759-.73v-.9a.469.469 0 0 0-.469-.468h-2.93a.469.469 0 0 0-.47.469v.9a7.332 7.332 0 0 0-1.758.729l-.637-.637a.469.469 0 0 0-.663 0l-2.073 2.072a.468.468 0 0 0 0 .663l.637.637a7.337 7.337 0 0 0-.729 1.76h-.904a.469.469 0 0 0-.468.468l-.002 2.931a.468.468 0 0 0 .469.469h.905c.166.616.41 1.206.73 1.76l-.642.64a.469.469 0 0 0 0 .663l2.072 2.073a.469.469 0 0 0 .663 0l.641-.641a7.34 7.34 0 0 0 1.76.729v.909zm-1.576-2.624a.469.469 0 0 0-.586.062l-.57.57-1.41-1.41.57-.57a.469.469 0 0 0 .063-.585 6.417 6.417 0 0 1-.888-2.143.469.469 0 0 0-.458-.37h-.805v-1.994h.805a.469.469 0 0 0 .458-.37 6.417 6.417 0 0 1 .888-2.143.469.469 0 0 0-.062-.586l-.567-.566 1.41-1.41.566.567a.47.47 0 0 0 .586.062 6.415 6.415 0 0 1 2.143-.888.47.47 0 0 0 .37-.458v-.8h1.994v.8c0 .22.154.412.37.458a6.42 6.42 0 0 1 2.143.888c.185.12.43.094.585-.063l.567-.565 1.41 1.409-.567.566a.469.469 0 0 0-.062.586c.425.658.723 1.379.888 2.143.046.216.237.37.458.37h.805v1.993h-.805a.469.469 0 0 0-.458.37 6.416 6.416 0 0 1-.888 2.143.469.469 0 0 0 .062.586l.57.57-1.409 1.41-.57-.57a.469.469 0 0 0-.586-.062 6.421 6.421 0 0 1-2.143.888.469.469 0 0 0-.37.458v.809h-1.994v-.809a.469.469 0 0 0-.37-.458 6.417 6.417 0 0 1-2.143-.888z"/>
    <path fill="#000" d="M23.873 20A3.878 3.878 0 0 0 20 16.127 3.878 3.878 0 0 0 16.127 20 3.878 3.878 0 0 0 20 23.873 3.878 3.878 0 0 0 23.873 20zm-6.809 0A2.939 2.939 0 0 1 20 17.064 2.939 2.939 0 0 1 22.936 20 2.939 2.939 0 0 1 20 22.936 2.939 2.939 0 0 1 17.064 20zM24.316 9.773a.472.472 0 0 0 .469-.47.472.472 0 0 0-.8-.331.473.473 0 0 0-.138.332.471.471 0 0 0 .469.47zM15.704 30.236a.473.473 0 0 0-.468.468.472.472 0 0 0 .468.47.473.473 0 0 0 .469-.469.473.473 0 0 0-.469-.47z"/>
</svg>
