<svg xmlns="http://www.w3.org/2000/svg" width="40" height="40" fill="none" viewBox="0 0 40 40">
    <circle cx="20" cy="20" r="20" fill="#fff"/>
    <path fill="#D0D0D0" d="M31.6 20c0 6.406-5.194 11.6-11.6 11.6S8.4 26.406 8.4 20 13.594 8.4 20 8.4 31.6 13.594 31.6 20z"/>
    <path fill="#FB5252" d="M27.309 10.994L10.994 27.31a11.656 11.656 0 0 0 1.697 1.697L29.006 12.69a11.656 11.656 0 0 0-1.697-1.697z"/>
    <path fill="#B5B5B5" d="M20 8.4c-.201 0-.401.005-.6.015 6.128.313 11 5.38 11 11.585 0 6.205-4.872 11.272-11 11.585.199.01.399.015.6.015 6.406 0 11.6-5.194 11.6-11.6S26.406 8.4 20 8.4z"/>
    <path fill="#C50000" d="M29.006 12.691a11.655 11.655 0 0 0-1.697-1.697l-.6.6c.62.504 1.187 1.386 1.69 2.006l.607-.909z"/>
    <path fill="#000" d="M15.753 19.407c.21.913.597 1.69.919 2.224l7.728-7.728V13.6S24.875 10 20 10s-4.4 3.6-4.4 3.6v2.313c-.244.22-.4.535-.4.887v1.6c0 .422.222.793.553 1.007zM27.128 27.088l-3.569-1.946a1.457 1.457 0 0 1-.76-1.28V22.4s1.048-1.252 1.448-2.993A1.2 1.2 0 0 0 24.8 18.4v-1.503L12.693 29.004A11.546 11.546 0 0 0 20 31.6c3.235 0 6.159-1.325 8.263-3.46a3.199 3.199 0 0 0-1.135-1.052z"/>
    <path fill="#fff" d="M20 8.4c.201 0 .401.005.6.015-6.128.313-11 5.38-11 11.585 0 6.205 4.872 11.272 11 11.585-.199.01-.399.015-.6.015-6.406 0-11.6-5.194-11.6-11.6S13.594 8.4 20 8.4z"/>
    <path fill="#000" d="M20 8.8C13.824 8.8 8.8 13.824 8.8 20c0 6.176 5.024 11.2 11.2 11.2 6.176 0 11.2-5.024 11.2-11.2 0-6.176-5.024-11.2-11.2-11.2zM20 32c-6.617 0-12-5.383-12-12S13.383 8 20 8s12 5.383 12 12-5.383 12-12 12z"/>
    <path fill="#000" d="M20 10.4c-1.567 0-2.699.383-3.361 1.14-.78.888-.644 1.996-.643 2.008A.382.382 0 0 1 16 13.6v2.313a.4.4 0 0 1-.132.297.788.788 0 0 0-.268.59v1.6c0 .27.139.52.37.67.088.057.15.145.173.247.147.64.39 1.21.62 1.657L24 13.738V13.6c0-.018.001-.035.004-.052.001-.01.13-1.136-.65-2.016C22.692 10.78 21.563 10.4 20 10.4zm-3.328 11.631c-.016 0-.032 0-.048-.003a.401.401 0 0 1-.295-.19 8.293 8.293 0 0 1-.93-2.194A1.591 1.591 0 0 1 14.8 18.4v-1.6c0-.385.144-.759.4-1.05v-2.128c-.023-.22-.11-1.53.837-2.61C16.859 10.075 18.192 9.6 20 9.6c1.808 0 3.142.475 3.963 1.412.947 1.08.86 2.39.837 2.61v.281a.4.4 0 0 1-.117.283l-7.728 7.728a.4.4 0 0 1-.283.117zM13.296 28.967A11.22 11.22 0 0 0 20 31.2c2.908 0 5.64-1.099 7.734-3.101a2.772 2.772 0 0 0-.797-.66l-3.569-1.947a1.855 1.855 0 0 1-.968-1.63V22.4c0-.093.033-.184.093-.256.01-.012.992-1.207 1.364-2.827a.4.4 0 0 1 .173-.246c.232-.15.37-.401.37-.671v-.538L13.296 28.967zM20 32a12.02 12.02 0 0 1-7.56-2.686.402.402 0 0 1-.03-.593l12.107-12.107a.4.4 0 0 1 .683.283V18.4c0 .486-.221.94-.599 1.244a8.407 8.407 0 0 1-1.4 2.895v1.323c0 .387.21.743.55.928l3.569 1.947a3.62 3.62 0 0 1 1.276 1.181.4.4 0 0 1-.048.502A11.912 11.912 0 0 1 20 32z"/>
    <path fill="#000" d="M11.536 27.333c.35.402.728.781 1.132 1.13l15.795-15.796a11.32 11.32 0 0 0-1.13-1.13L11.535 27.332zm1.155 2.073a.399.399 0 0 1-.252-.09 12.101 12.101 0 0 1-1.755-1.755.4.4 0 0 1 .027-.535l16.315-16.315a.4.4 0 0 1 .535-.027 12.108 12.108 0 0 1 1.755 1.755.4.4 0 0 1-.027.535L12.974 29.289a.4.4 0 0 1-.283.117z"/>
</svg>
