<svg xmlns="http://www.w3.org/2000/svg" width="81" height="80" fill="none" viewBox="0 0 81 80">
    <defs>
        <linearGradient id="paint0_linear" x1="21.138" x2="21.138" y1="30.455" y2="67.848" gradientUnits="userSpaceOnUse">
            <stop stop-color="#FCDA81"/>
            <stop offset="1" stop-color="#F8B44A"/>
        </linearGradient>
    </defs>
    <path fill="#FF9A00" d="M14.527 36.675c-.072 0-.18-.07-.215-.142l-2.94-5.895c-.072-.142-.215-.177-.358-.106-.036.035-.108.07-.108.106l-2.94 5.895c-.036.071-.107.142-.215.142l-6.596.959c-.144.036-.251.142-.215.32 0 .07.035.106.071.142l4.768 4.616c.072.071.108.142.072.249L4.74 49.46c-.036.142.071.284.215.32.071 0 .107 0 .179-.036l5.664-3.019-3.585-3.48c-.179-.178-.179-.426 0-.604.072-.07.144-.106.251-.106l10.253-1.492c.144-.035.251-.106.323-.213l1.72-3.444-5.233-.71z"/>
    <path fill="#FFE0B2" d="M31.197 50.774c-.036-.142.036-.284.108-.355l.179-.178-5.198-5.043c-.215-.213-.215-.532 0-.745.071-.071.179-.142.287-.142l12.081-1.74c-.036-.036-.072-.036-.143-.036l-10.254-1.491c-.143-.036-.25-.107-.322-.214l-4.589-9.197c-.108-.213-.358-.284-.574-.178-.071.036-.143.107-.179.178l-4.589 9.197c-.071.107-.179.214-.322.214L7.429 42.535c-.216.036-.395.249-.359.462 0 .106.072.177.108.248l7.42 7.174c.108.106.144.248.108.355l-1.757 10.12c-.035.214.108.427.359.498.107 0 .18 0 .25-.036l9.178-4.794c.108-.07.252-.07.395 0l9.178 4.794c.215.107.466.036.573-.177.036-.071.072-.178.036-.249l-1.72-10.156zM74.65 43.245c.179-.177.179-.426 0-.603-.072-.072-.144-.107-.251-.107l-10.253-1.491c-.144-.036-.251-.107-.323-.214l-4.589-9.197c-.107-.213-.358-.284-.573-.178-.072.036-.144.107-.18.178l-4.589 9.197c-.071.107-.179.214-.322.214l-10.253 1.491c-.036 0-.108.036-.144.036l12.082 1.74c.287.035.466.32.43.603 0 .107-.072.213-.143.284l-5.199 5.043.18.178c.107.106.143.248.107.355l-1.757 10.12c-.035.214.108.427.359.498.108 0 .18 0 .251-.036l9.178-4.794c.107-.07.25-.07.394 0l9.178 4.794c.215.107.466.036.573-.177.036-.071.072-.178.036-.249l-1.757-10.12c-.035-.143.036-.285.108-.356l7.457-7.209z"/>
    <path fill="url(#paint0_linear)" d="M60.577 45.234c.215-.213.215-.533 0-.746-.071-.071-.179-.142-.286-.142l-12.763-1.847c-.18-.035-.323-.142-.394-.284l-5.736-11.47c-.144-.249-.43-.355-.717-.249-.108.036-.18.142-.251.249l-5.7 11.47c-.072.142-.216.249-.395.284l-12.763 1.847c-.286.036-.466.32-.43.604 0 .106.072.213.144.284l9.249 8.913c.107.107.18.284.143.462l-2.187 12.607c-.035.284.144.533.43.604.108.035.216 0 .323-.036l11.437-5.966c.143-.071.322-.071.502 0l11.436 5.966c.25.142.573.035.717-.213.035-.107.071-.213.035-.32l-2.186-12.607c-.036-.177.035-.355.143-.461l9.25-8.95z"/>
    <path fill="#FF9A00" d="M80.852 38.06c.108-.106.108-.284 0-.39-.036-.036-.108-.071-.143-.071l-6.597-.959c-.072 0-.18-.071-.215-.142l-2.94-5.895c-.071-.142-.215-.178-.358-.107-.036.036-.108.072-.108.107l-2.94 5.895c-.035.071-.107.142-.215.142l-5.198.746 1.721 3.444c.072.107.18.214.323.214l10.253 1.491c.215.036.394.249.358.462 0 .106-.071.177-.107.248l-3.585 3.48 5.664 2.948c.144.071.287.035.359-.107.035-.035.035-.106.035-.177l-1.11-6.499c0-.07 0-.177.07-.248l4.733-4.582z"/>
    <path fill="#55ACD5" d="M16.661 66.718h-.645v-.639c0-.497-.395-.888-.896-.888-.502 0-.897.391-.897.888v.64h-.645c-.502 0-.896.39-.896.887s.394.888.896.888h.645v.64c0 .496.394.887.896.887s.897-.39.897-.888v-.639h.645c.502 0 .896-.39.896-.888 0-.497-.394-.888-.896-.888z"/>
    <path fill="#EA4647" d="M37.203 71.584c-.036-.107-.071-.213-.143-.32-.036-.035-.072-.106-.108-.142-.358-.32-.896-.32-1.254 0-.036.035-.072.071-.108.142-.036.036-.072.107-.072.142-.035.071-.035.107-.035.178-.036.106-.036.248 0 .355 0 .07.035.106.035.177.036.036.036.107.072.142.036.036.072.107.108.142.358.356.896.356 1.254 0 .036-.035.072-.07.108-.142.036-.035.072-.106.072-.142.035-.035.035-.106.035-.177.072-.107.072-.249.036-.355z"/>
    <path fill="#FFCD29" d="M52.26.701c-.035-.106-.071-.213-.143-.32-.036-.035-.072-.106-.108-.141-.358-.32-.896-.32-1.254 0-.036.035-.072.07-.108.142-.036.035-.072.106-.072.142-.035.07-.035.106-.035.177-.036.107-.036.249 0 .355 0 .072.035.107.035.178.036.036.036.107.072.142.036.036.072.107.108.142.358.355.896.355 1.254 0 .036-.035.072-.07.108-.142.036-.035.072-.106.072-.142.035-.035.035-.106.035-.178.072-.142.072-.248.036-.355z"/>
    <path fill="#6DCC6D" d="M63.983 6.916c-1.47-.284-2.58-1.42-2.868-2.841 0-.036-.035-.071-.071-.071-.036 0-.036.035-.072.07-.287 1.457-1.434 2.558-2.868 2.842-.036 0-.072.035-.072.07 0 .036.036.036.072.072 1.47.284 2.581 1.42 2.868 2.84 0 .036.036.072.072.072s.036-.036.071-.071c.287-1.456 1.434-2.557 2.868-2.841.036 0 .072-.036.072-.071 0-.036-.036-.071-.072-.071z"/>
    <path fill="#FFCD29" d="M29.926 76.946c-1.47-.284-2.581-1.42-2.868-2.84 0-.036-.036-.072-.072-.072s-.036.036-.072.071c-.287 1.456-1.434 2.557-2.868 2.841-.035 0-.071.036-.071.071 0 .036.035.036.071.071 1.47.284 2.582 1.42 2.868 2.841 0 .036.036.071.072.071s.036-.035.072-.07c.287-1.457 1.434-2.558 2.868-2.842.036 0 .071-.035.071-.07-.035-.036-.035-.072-.071-.072z"/>
    <path fill="#FC4" d="M40.931 12.065c-.502 0-.896.391-.896.888v5.291c0 .498.395.888.896.888.502 0 .897-.39.897-.888v-5.29c0-.498-.395-.889-.897-.889zM51.58 13.202c-.467-.107-.969.178-1.076.675l-1.22 5.149c-.107.462.18.959.646 1.065.466.107.968-.177 1.076-.639l1.218-5.15c.144-.532-.143-.993-.645-1.1zM61.438 16.47c-.43-.25-.968-.072-1.219.354l-2.545 4.652c-.251.426-.072.96.358 1.208s.968.07 1.22-.355l2.544-4.652c.216-.462.072-.995-.358-1.208zM69.755 23.465c-.287-.426-.825-.533-1.255-.249l-4.445 2.912c-.43.249-.538.817-.287 1.243.251.426.825.533 1.255.284h.036l4.445-2.912c.394-.32.502-.852.251-1.278zM32.578 18.99l-1.218-5.15c-.108-.46-.61-.78-1.076-.639-.466.107-.753.604-.645 1.066l1.183 5.114c.107.461.573.78 1.075.674.502-.106.789-.568.681-1.065zM24.19 21.44l-2.546-4.652c-.25-.426-.788-.604-1.219-.355-.43.248-.61.781-.358 1.207l2.545 4.652c.251.427.789.604 1.22.356.43-.213.573-.746.358-1.208zM17.808 26.128l-4.445-2.912c-.43-.284-.968-.142-1.255.248-.287.427-.144.96.25 1.243l4.446 2.912c.395.284.968.178 1.255-.248.287-.39.18-.96-.25-1.243z"/>
</svg>
