<svg xmlns="http://www.w3.org/2000/svg" width="40" height="40" fill="none" viewBox="0 0 40 40">
    <defs>
        <linearGradient id="a" x1="11.351" x2="11.351" y1="19.907" y2="32.648" gradientUnits="userSpaceOnUse">
            <stop stop-color="#FCDA81"/>
            <stop offset="1" stop-color="#F8B44A"/>
        </linearGradient>
        <linearGradient id="b" x1="18.941" x2="18.941" y1="19.907" y2="32.648" gradientUnits="userSpaceOnUse">
            <stop stop-color="#FCDA81"/>
            <stop offset="1" stop-color="#F8B44A"/>
        </linearGradient>
        <linearGradient id="c" x1="14.492" x2="14.492" y1="12.031" y2="23.875" gradientUnits="userSpaceOnUse">
            <stop stop-color="#FCDA81"/>
            <stop offset="1" stop-color="#F8B44A"/>
        </linearGradient>
    </defs>
    <circle cx="20" cy="20" r="20" fill="#fff"/>
    <path fill="url(#a)" d="M16.237 32.598c-.179.16-.34-.173-.4-.405l-.022-.082a3.086 3.086 0 0 0-3.89-2.168c-.242.074-.64.097-.565-.145a.197.197 0 0 1 .018-.04l4.215-7.402a2.82 2.82 0 0 1 4.9 2.79l-4.216 7.402a.199.199 0 0 1-.04.05z"/>
    <path fill="url(#b)" d="M24.552 32.548c.14.245.373-.15.42-.429.28-1.655 1.937-2.725 3.554-2.272l.399.111c.228.064.59.098.55-.135a.2.2 0 0 0-.024-.066l-4.216-7.4a2.82 2.82 0 0 0-4.899 2.79l4.216 7.4z"/>
    <path fill="#fff" d="M20.922 9.796l.768-.338a1.26 1.26 0 0 1 1.492.368l.523.656c.22.277.547.448.899.472l.837.057a1.26 1.26 0 0 1 1.15 1.02l.159.824c.066.347.275.65.576.835l.715.44c.487.3.71.89.545 1.437l-.243.804c-.102.338-.058.703.122 1.007l.428.722a1.26 1.26 0 0 1-.185 1.526l-.588.598a1.26 1.26 0 0 0-.36.949l.044.838a1.26 1.26 0 0 1-.874 1.265l-.799.256a1.26 1.26 0 0 0-.76.673l-.35.763a1.26 1.26 0 0 1-1.361.714l-.827-.144a1.26 1.26 0 0 0-.985.242l-.665.513a1.26 1.26 0 0 1-1.537 0l-.665-.513a1.26 1.26 0 0 0-.985-.242l-.827.144a1.26 1.26 0 0 1-1.361-.714l-.35-.763a1.26 1.26 0 0 0-.76-.673l-.8-.256a1.26 1.26 0 0 1-.873-1.265l.044-.838a1.26 1.26 0 0 0-.36-.949l-.589-.598a1.26 1.26 0 0 1-.185-1.526l.429-.722c.18-.304.224-.67.122-1.007l-.243-.804a1.26 1.26 0 0 1 .545-1.437l.714-.44c.301-.185.51-.488.577-.835l.158-.824a1.26 1.26 0 0 1 1.15-1.02l.838-.057c.352-.024.678-.195.898-.472l.523-.656a1.26 1.26 0 0 1 1.493-.368l.768.338a1.26 1.26 0 0 0 1.015 0z"/>
    <path fill="url(#c)" d="M26.336 17.953a5.922 5.922 0 1 1-11.844 0 5.922 5.922 0 0 1 11.844 0z"/>
    <path fill="#F2F2F2" d="M20.55 13.853l.857 2.636a.142.142 0 0 0 .135.098h2.772c.137 0 .195.177.083.258l-2.242 1.63c-.05.036-.07.1-.052.159l.857 2.636a.143.143 0 0 1-.22.16l-2.242-1.63a.142.142 0 0 0-.167 0l-2.243 1.63a.142.142 0 0 1-.219-.16l.857-2.636a.143.143 0 0 0-.052-.16l-2.243-1.629a.143.143 0 0 1 .084-.258h2.772c.062 0 .116-.04.135-.098l.857-2.636a.143.143 0 0 1 .27 0z"/>
    <path fill="#000" d="M26.688 17.953a6.28 6.28 0 0 0-6.274-6.274 6.28 6.28 0 0 0-6.273 6.274 6.28 6.28 0 0 0 6.273 6.274 6.28 6.28 0 0 0 6.274-6.274zm-6.274 5.57a5.577 5.577 0 0 1-5.57-5.57 5.577 5.577 0 0 1 5.57-5.57 5.577 5.577 0 0 1 5.57 5.57 5.577 5.577 0 0 1-5.57 5.57z"/>
    <path fill="#000" d="M24.784 16.577a.493.493 0 0 0-.47-.341h-2.62l-.81-2.492a.493.493 0 0 0-.94 0l-.809 2.492h-2.62a.493.493 0 0 0-.29.894l2.12 1.54-.81 2.491a.493.493 0 0 0 .76.552l2.12-1.54 2.119 1.54a.493.493 0 0 0 .76-.552l-.81-2.491 2.12-1.54a.492.492 0 0 0 .18-.553zm-2.836 1.613a.493.493 0 0 0-.18.552l.658 2.024-1.721-1.25a.493.493 0 0 0-.581 0l-1.721 1.25.657-2.024a.493.493 0 0 0-.18-.552l-1.721-1.251h2.128a.493.493 0 0 0 .47-.341l.657-2.024.658 2.024a.493.493 0 0 0 .47.341h2.128l-1.722 1.251z"/>
    <path fill="#000" d="M29.757 29.583l-3.297-5.787.578-.185a1.612 1.612 0 0 0 1.117-1.618l-.044-.838a.91.91 0 0 1 .26-.684l.588-.599c.512-.52.61-1.323.237-1.951l-.428-.722a.91.91 0 0 1-.089-.727l.244-.803a1.612 1.612 0 0 0-.698-1.838l-.714-.44a.91.91 0 0 1-.416-.602l-.158-.824a1.612 1.612 0 0 0-1.472-1.304l-.837-.058a.91.91 0 0 1-.648-.34l-.523-.656a1.612 1.612 0 0 0-1.909-.47l-.768.338a.91.91 0 0 1-.731 0l-.768-.339a1.613 1.613 0 0 0-1.91.47l-.522.657a.91.91 0 0 1-.648.34l-.838.058a1.612 1.612 0 0 0-1.471 1.304l-.158.824a.91.91 0 0 1-.416.602l-.714.44a1.612 1.612 0 0 0-.698 1.838l.243.803a.91.91 0 0 1-.088.727l-.428.721a1.612 1.612 0 0 0 .237 1.952l.589.599a.91.91 0 0 1 .259.683l-.044.839a1.612 1.612 0 0 0 1.117 1.618l.578.185-3.297 5.787a.55.55 0 0 0 .507.822l2.755-.142 1.283 2.443a.55.55 0 0 0 .478.294h.01a.55.55 0 0 0 .477-.278l3.355-5.89a1.614 1.614 0 0 0 .955 0l3.355 5.89a.55.55 0 0 0 .478.278h.01a.55.55 0 0 0 .477-.294l1.282-2.443 2.756.142a.549.549 0 0 0 .507-.822zM16.11 32.132l-1.169-2.225.69-1.21a.352.352 0 0 0-.61-.349l-.69 1.21-2.51.13 3.168-5.56c.06.066.11.142.149.224l.35.763c.183.396.51.689.898.835l-.549.964a.352.352 0 0 0 .611.348l.696-1.221c.028-.004.057-.007.085-.013l.827-.144a.91.91 0 0 1 .71.175l.558.43-3.214 5.643zm4.762-6.054l-.004.002-.005.004a.908.908 0 0 1-.897 0l-.005-.004c-.001 0-.002 0-.003-.002a.895.895 0 0 1-.097-.064l-.666-.512a1.615 1.615 0 0 0-1.26-.31l-.827.144a.897.897 0 0 1-.159.013h-.013a.908.908 0 0 1-.809-.528l-.35-.763a1.615 1.615 0 0 0-.72-.755l-.002-.001-.006-.003-.023-.011-.005-.003a1.603 1.603 0 0 0-.216-.087l-.8-.257a.909.909 0 0 1-.629-.911l.044-.839a1.615 1.615 0 0 0-.46-1.213l-.589-.599a.909.909 0 0 1-.133-1.1l.428-.721c.23-.388.287-.858.156-1.29l-.243-.802a.908.908 0 0 1 .393-1.036l.715-.44c.384-.237.652-.626.737-1.069l.158-.824a.909.909 0 0 1 .83-.735l.837-.057c.45-.031.868-.251 1.15-.604l.522-.656a.909.909 0 0 1 1.076-.265l.768.338c.413.182.886.182 1.298 0l.768-.338a.908.908 0 0 1 1.076.265l.523.656c.281.353.7.573 1.15.604l.837.057c.41.029.752.33.83.735l.157.824c.085.443.354.832.738 1.069l.714.44c.351.216.513.642.393 1.036l-.243.803c-.13.431-.073.9.157 1.289l.428.721a.908.908 0 0 1-.134 1.1l-.588.599a1.615 1.615 0 0 0-.46 1.213l.043.839a.909.909 0 0 1-.629.911l-.8.257a1.629 1.629 0 0 0-.215.087l-.006.003-.022.011-.006.003-.002.001c-.314.164-.57.43-.72.755l-.35.763a.908.908 0 0 1-.982.515l-.826-.145a1.615 1.615 0 0 0-1.261.311l-.665.512a.901.901 0 0 1-.096.064zm5.626 3.48l-.695-1.22a.351.351 0 1 0-.611.348l.695 1.22-1.168 2.226-3.214-5.644.557-.429a.91.91 0 0 1 .71-.175l.827.144c.029.006.058.01.086.013l.696 1.22a.352.352 0 1 0 .61-.347l-.549-.965a1.61 1.61 0 0 0 .898-.834l.351-.763a.908.908 0 0 1 .148-.225l3.168 5.562-2.509-.13z"/>
</svg>
