<svg xmlns="http://www.w3.org/2000/svg" width="27" height="32" fill="none" viewBox="0 0 27 32">
    <path fill="#fff" d="M16.014 27.164H5.243c-1.02 0-1.864-.774-1.931-1.768L1.869 3.984h17.518l-1.442 21.412c-.067.994-.912 1.768-1.931 1.768z"/>
    <path fill="#DAC0FF" d="M15.276 3.984l-1.18 17.508c-.066.994-.91 1.767-1.93 1.767H3.168l.144 2.137c.067.994.911 1.768 1.93 1.768h10.772c1.02 0 1.864-.774 1.93-1.768l1.443-21.412h-4.11z"/>
    <path fill="#fff" d="M3.081 19.604h15.095c.272 0 .497-.207.515-.472l.557-8.27c.02-.292-.217-.539-.515-.539H2.523c-.298 0-.534.247-.515.538l.558 8.27c.017.266.243.473.515.473z"/>
    <path fill="#DAC0FF" d="M18.733 10.323h-3.884l-.625 9.28h3.951c.273 0 .498-.206.516-.471l.557-8.27c.02-.292-.217-.539-.515-.539z"/>
    <path fill="gray" d="M18.947 4.241H2.31l.253-2.65c.06-.636.606-1.122 1.26-1.122h13.61c.654 0 1.2.486 1.26 1.122l.254 2.65z"/>
    <path fill="#000" d="M18.694 1.59C18.633.956 18.087.47 17.434.47h-1.898l.114 1.186c.048.512-.364.955-.89.955H2.465L2.31 4.24h16.637l-.253-2.65z"/>
    <path fill="#fff" d="M9.965 17.893c1.459 0 2.642-.805 2.642-1.799 0-.993-1.183-1.799-2.642-1.799-1.459 0-2.641.806-2.641 1.8 0 .993 1.182 1.798 2.641 1.798z"/>
    <path fill="#fff" d="M10.56 14.342c.377.31.603.71.603 1.144 0 .994-1.183 1.799-2.642 1.799-.204 0-.403-.017-.595-.047.485.4 1.218.655 2.04.655 1.458 0 2.64-.805 2.64-1.799 0-.854-.874-1.568-2.046-1.752z"/>
    <path fill="#fff" d="M12.745 16.491c.81-.598.756-2.005-.122-3.143-.878-1.139-2.248-1.577-3.058-.979-.811.598-.756 2.006.122 3.144.878 1.139 2.247 1.577 3.058.978z"/>
    <path fill="#fff" d="M12.632 13.348c-.66-.856-1.599-1.316-2.369-1.237.517.192 1.033.57 1.442 1.101.879 1.14.933 2.547.122 3.146-.201.148-.437.232-.691.258.592.221 1.184.197 1.618-.122.81-.598.756-2.007-.122-3.146zM25.857 25.316c0 .675-.517 1.262-.719 1.871-.21.631-.152 1.401-.543 1.927-.395.53-1.165.713-1.707 1.1-.538.382-.95 1.043-1.597 1.248-.622.198-1.352-.093-2.042-.093-.69 0-1.42.29-2.042.093-.646-.205-1.059-.866-1.596-1.249-.543-.386-1.313-.569-1.708-1.1-.39-.524-.333-1.295-.543-1.926-.202-.609-.718-1.196-.718-1.87 0-.676.516-1.263.718-1.872.21-.631.152-1.401.543-1.927.395-.53 1.165-.713 1.708-1.1.537-.381.95-1.043 1.596-1.248.623-.198 1.352.093 2.042.093.69 0 1.42-.29 2.043-.093.645.205 1.058.866 1.596 1.249.542.386 1.312.569 1.707 1.1.391.525.333 1.295.543 1.926.202.61.719 1.196.719 1.871z"/>
    <path fill="#7A1DFF" d="M25.138 23.445c-.21-.631-.152-1.401-.543-1.927-.3-.404-.819-.606-1.288-.85.02.093.044.184.074.273.202.609.718 1.196.718 1.87 0 .675-.516 1.262-.718 1.872-.21.63-.152 1.401-.543 1.926-.395.531-1.165.714-1.707 1.1-.538.382-.951 1.044-1.597 1.249-.622.197-1.352-.094-2.042-.094-.69 0-1.42.291-2.042.094-.646-.205-1.06-.867-1.597-1.25-.129-.091-.271-.172-.419-.248.128.57.133 1.202.47 1.654.394.53 1.164.713 1.707 1.1.537.382.95 1.043 1.596 1.248.623.198 1.352-.093 2.042-.093.69 0 1.42.29 2.043.093.645-.205 1.058-.866 1.596-1.249.542-.386 1.312-.569 1.707-1.1.391-.524.333-1.295.543-1.926.202-.609.719-1.196.719-1.871s-.517-1.262-.719-1.871z"/>
    <path fill="gray" d="M20.394 5.499H.863c-.212 0-.384-.168-.384-.375V3.797c0-.208.172-.375.384-.375h19.53c.213 0 .384.167.384.375v1.327c0 .207-.172.375-.383.375z"/>
    <path fill="#000" d="M20.394 3.422h-2.828v.76c0 .135-.112.244-.25.244H.479v.698c0 .207.172.375.384.375h19.53c.213 0 .384-.168.384-.375V3.796c0-.207-.171-.374-.383-.374z"/>
    <path fill="#000" fill-rule="evenodd" d="M13.014 13.066c-.483-.626-1.118-1.09-1.788-1.304-.732-.234-1.421-.15-1.943.234-.52.384-.792 1.01-.762 1.762.004.103.014.207.03.312-1.036.38-1.707 1.159-1.707 2.024 0 1.272 1.371 2.268 3.121 2.268 1.255 0 2.38-.54 2.866-1.361.072-.04.144-.083.211-.133.521-.384.792-1.01.763-1.762-.027-.689-.307-1.413-.79-2.04zm-3.153-.322c.177-.13.382-.173.573-.173.192 0 .37.043.494.082.485.155.954.503 1.321.978s.58 1.011.598 1.51c.01.253-.026.716-.382.979-.355.262-.82.17-1.067.09-.485-.155-.955-.502-1.321-.977-.367-.475-.58-1.012-.599-1.511-.01-.253.027-.716.383-.978zm-1.043 2.23c-.62.244-1.015.669-1.015 1.12 0 .721.99 1.33 2.162 1.33.48 0 .934-.101 1.302-.275-.055-.014-.11-.03-.167-.048-.67-.214-1.305-.677-1.788-1.304-.202-.26-.367-.538-.494-.823z" clip-rule="evenodd"/>
    <path fill="#000" fill-rule="evenodd" d="M25.872 23.896c.218.412.464.879.464 1.42 0 .45-.173.853-.343 1.188-.118.232-.405.327-.642.212-.238-.115-.335-.396-.217-.628.126-.25.244-.516.244-.772 0-.314-.174-.642-.358-.99-.123-.234-.252-.477-.338-.736-.09-.27-.134-.547-.177-.815-.062-.382-.12-.743-.297-.981-.18-.242-.514-.407-.867-.582h-.002c-.246-.123-.5-.249-.733-.414-.23-.164-.429-.36-.62-.55h-.001c-.28-.277-.545-.538-.841-.632-.279-.089-.644-.032-1.03.028h-.001c-.279.043-.566.088-.864.088-.297 0-.585-.045-.863-.088-.387-.06-.752-.117-1.031-.028-.297.094-.561.355-.841.632-.193.19-.392.386-.621.55-.233.165-.487.291-.733.413h-.002c-.353.176-.687.341-.867.583-.178.238-.236.599-.297.98-.043.268-.088.546-.178.816-.086.26-.214.501-.338.736-.184.348-.357.676-.357.99 0 .314.173.642.357.99.124.234.252.477.338.736.09.27.134.547.178.815.061.382.12.743.297.98.18.243.513.408.867.583h.001c.246.123.5.249.734.414.229.163.427.36.619.549l.002.001c.28.277.545.538.84.632.28.089.645.032 1.031-.028h.001c.278-.043.566-.088.863-.088.298 0 .585.045.863.088h.002c.386.06.751.117 1.03.028.296-.094.56-.355.84-.632l.002-.001c.192-.19.39-.386.62-.549.232-.165.487-.291.733-.413h.001c.354-.176.688-.341.868-.583.143-.193.207-.464.255-.73.046-.254.294-.424.555-.38.26.045.435.288.389.543-.065.358-.166.77-.424 1.119-.316.424-.791.66-1.21.866-.223.11-.433.215-.603.336-.167.119-.33.28-.504.451-.332.329-.709.7-1.226.865-.214.068-.427.092-.639.092-.283 0-.563-.044-.838-.086h-.003c-.252-.04-.49-.077-.71-.077-.223 0-.461.037-.714.077-.481.074-.98.152-1.477-.006-.518-.165-.894-.536-1.226-.864-.174-.172-.337-.333-.504-.452-.17-.121-.38-.225-.603-.335-.42-.208-.894-.443-1.21-.867-.313-.421-.396-.934-.47-1.387-.01-.062-.019-.123-.03-.183H5.244c-1.268 0-2.326-.969-2.41-2.206l-.388-5.768c-.203-.166-.34-.408-.358-.683l-.557-8.271c-.018-.268.08-.534.267-.73l.004-.003.004-.004-.282-4.187h-.66C.387 5.968 0 5.589 0 5.124V3.796c0-.465.387-.843.863-.843H1.95l.135-1.405C2.17.665 2.916 0 3.823 0h13.61c.907 0 1.654.665 1.738 1.547l.134 1.406h1.089c.476 0 .862.378.862.843v1.328c0 .465-.387.843-.862.843h-.66l-.282 4.188.004.004.003.003c.188.196.285.462.267.73l-.532 7.9.023.002h.032c.222 0 .46-.036.713-.076.482-.074.98-.152 1.478.006.517.165.894.536 1.226.864v.001c.174.171.337.332.504.451.17.122.38.226.603.336.419.207.894.442 1.21.866.313.421.395.934.468 1.387.04.242.076.472.143.671.062.187.167.386.278.596zM13.786 3.89H.96v1.14h19.339V3.89h-4.382c-.264 0-.479-.21-.479-.469 0-.258.215-.468.48-.468h2.426l-.126-1.318c-.038-.398-.375-.698-.783-.698H3.823c-.409 0-.745.3-.783.698l-.126 1.318h10.872c.265 0 .48.21.48.468 0 .26-.215.47-.48.47zm4.987 2.078l-.261 3.886H2.745l-.262-3.886h16.29zm-2.447 13.167c.213-.171.452-.322.733-.41.397-.127.794-.103 1.182-.05l.529-7.845c0-.004.001-.016-.01-.027-.011-.012-.023-.012-.027-.012H2.524c-.004 0-.016 0-.027.012-.011.011-.01.023-.01.027l.557 8.27c.001.02.017.035.037.035h1.482c.265 0 .48.21.48.469s-.215.468-.48.468H3.421l.369 5.48c.05.746.688 1.33 1.453 1.33h7.46l-.077-.147c-.217-.411-.464-.878-.464-1.419s.247-1.008.464-1.42c.112-.21.216-.409.279-.596.066-.2.103-.428.142-.67v-.001c.073-.453.155-.966.469-1.387.316-.424.79-.66 1.21-.867.202-.1.394-.195.555-.303H6.672c-.265 0-.48-.21-.48-.468 0-.26.215-.469.48-.469h9.654z" clip-rule="evenodd"/>
    <path fill="#000" d="M16.365 24.077c.298 0 .54-.236.54-.527 0-.291-.242-.527-.54-.527-.297 0-.539.236-.539.527 0 .291.241.527.54.527zM19.25 24.077c.297 0 .538-.236.538-.527 0-.291-.241-.527-.539-.527-.298 0-.54.236-.54.527 0 .291.242.527.54.527zM22.133 24.077c.298 0 .54-.236.54-.527 0-.291-.242-.527-.54-.527-.298 0-.54.236-.54.527 0 .291.242.527.54.527zM16.365 27.55c.298 0 .54-.237.54-.528 0-.291-.242-.527-.54-.527-.297 0-.539.236-.539.527 0 .291.241.527.54.527zM19.25 27.55c.297 0 .538-.237.538-.528 0-.291-.241-.527-.539-.527-.298 0-.54.236-.54.527 0 .291.242.527.54.527zM22.133 27.55c.298 0 .54-.237.54-.528 0-.291-.242-.527-.54-.527-.298 0-.54.236-.54.527 0 .291.242.527.54.527zM17.805 25.813c.298 0 .54-.236.54-.527 0-.291-.242-.527-.54-.527-.297 0-.539.236-.539.527 0 .291.242.527.54.527zM20.69 25.813c.297 0 .539-.236.539-.527 0-.291-.242-.527-.54-.527-.297 0-.539.236-.539.527 0 .291.242.527.54.527zM17.805 22.34c.298 0 .54-.235.54-.526 0-.292-.242-.528-.54-.528-.297 0-.539.236-.539.528 0 .29.242.527.54.527zM20.69 22.34c.297 0 .539-.235.539-.526 0-.292-.242-.528-.54-.528-.297 0-.539.236-.539.528 0 .29.242.527.54.527zM17.805 29.285c.298 0 .54-.236.54-.527 0-.291-.242-.527-.54-.527-.297 0-.539.236-.539.527 0 .291.242.527.54.527zM20.69 29.285c.297 0 .539-.236.539-.527 0-.291-.242-.527-.54-.527-.297 0-.539.236-.539.527 0 .291.242.527.54.527zM11.172 15.189c.094.118.236.18.378.18.103 0 .207-.032.294-.099.21-.159.246-.453.084-.657l-.703-.882c-.163-.204-.464-.24-.673-.081-.209.16-.246.454-.083.658l.703.88z"/>
</svg>
