<svg xmlns="http://www.w3.org/2000/svg" width="31" height="33" fill="none" viewBox="0 0 31 33">
    <path fill="#00C" d="M21.792 3.049c-1.043.402-2.206.402-3.25 0-.283-.11-.605-.036-.82.179L.618 20.332c-.215.215-.288.536-.179.82.402 1.043.402 2.206 0 3.25-.11.284-.036.605.179.82l7.525 7.526c.215.215.537.288.82.178 1.044-.402 2.207-.402 3.25 0 .284.11.606.036.82-.178l17.105-17.104c.215-.215.288-.537.179-.82-.403-1.044-.403-2.207 0-3.25.109-.284.036-.606-.18-.821l-7.524-7.525c-.215-.215-.537-.289-.82-.18z" opacity=".1"/>
    <path fill="#F5F5F5" d="M21.792 1.416c-1.043.402-2.206.402-3.25 0-.283-.11-.605-.036-.82.178L.618 18.698c-.215.215-.288.537-.179.82.402 1.044.402 2.207 0 3.25-.11.284-.036.606.179.821l7.525 7.525c.215.215.537.289.82.18 1.044-.403 2.207-.403 3.25 0 .284.109.606.035.82-.18L30.139 14.01c.215-.215.288-.536.179-.82-.403-1.043-.403-2.206 0-3.25.109-.284.036-.605-.18-.82l-7.524-7.526c-.215-.214-.537-.288-.82-.178z"/>
    <path fill="#fff" d="M11.841 28.774c-.827-.154-1.678-.154-2.506 0-.124.023-.252-.019-.341-.108l-5.928-5.928c-.09-.09-.13-.217-.108-.341.154-.828.154-1.678 0-2.506-.023-.125.019-.252.108-.342L18.573 4.043c.089-.09.217-.131.341-.108.828.154 1.678.154 2.506 0 .124-.023.252.018.342.108l5.927 5.927c.09.09.131.218.108.342-.154.828-.154 1.678 0 2.506.023.124-.018.252-.108.342L12.183 28.666c-.09.09-.217.13-.341.108z"/>
    <path fill="#7A1DFF" d="M18.572 4.043l-7.753 7.753 9.117 9.117 7.753-7.753c.09-.09.131-.217.108-.342-.154-.828-.154-1.678 0-2.506.023-.124-.018-.252-.108-.342l-5.927-5.927c-.09-.09-.217-.131-.342-.108-.828.154-1.678.154-2.506 0-.124-.023-.252.018-.342.108z"/>
    <path fill="#000" d="M14.902 29.635c-.1 0-.199-.038-.275-.114-.151-.152-.151-.398 0-.55l15.236-15.235c.108-.109.144-.268.091-.406-.439-1.138-.439-2.392 0-3.53.053-.138.017-.297-.091-.405l-5.657-5.657c-.152-.152-.152-.398 0-.55.152-.151.398-.151.55 0l5.656 5.657c.326.326.43.81.267 1.235-.37.958-.37 2.013 0 2.97.164.425.06.91-.267 1.235L15.177 29.521c-.076.076-.175.114-.275.114zM12.484 31.732c-.138 0-.277-.025-.41-.076-.958-.37-2.013-.37-2.97 0-.425.164-.91.059-1.236-.267L.343 23.864c-.326-.326-.43-.81-.267-1.235.37-.958.37-2.013 0-2.97-.163-.425-.059-.91.267-1.235L17.447 1.32c.326-.326.81-.43 1.235-.267.958.37 2.013.37 2.97 0 .425-.164.91-.059 1.235.267.152.152.152.398 0 .55-.152.151-.397.151-.55 0-.108-.11-.267-.145-.405-.092-1.138.44-2.392.44-3.53 0-.138-.053-.297-.017-.405.091L.893 18.973c-.11.109-.145.268-.092.406.44 1.138.44 2.392 0 3.53-.053.138-.017.297.092.405l7.525 7.526c.108.108.268.144.406.09 1.138-.438 2.391-.438 3.53 0 .137.054.296.018.405-.09.152-.152.398-.152.55 0 .151.151.151.398 0 .55-.224.223-.522.342-.825.342z"/>
    <path fill="#B5B5B5" d="M6.702 22.095h-1.21c-.214 0-.388-.174-.388-.388v-1.21c0-.215.174-.389.388-.389h1.21c.215 0 .389.174.389.389v1.21c0 .214-.174.388-.389.388zm-.82-.777h.432v-.432H5.88v.432zM11.223 22.095h-1.21c-.214 0-.388-.174-.388-.388v-1.21c0-.215.174-.389.389-.389h1.21c.214 0 .388.174.388.389v1.21c0 .214-.174.388-.389.388zm-.82-.777h.432v-.432h-.433v.432zM8.358 24.105c-.215 0-.389-.174-.389-.388v-5.23c0-.215.174-.389.389-.389.214 0 .388.174.388.389v5.23c0 .214-.174.388-.388.388zM9.66 25.706l2.337-2.337c.152-.152.398-.152.55 0 .152.152.152.398 0 .55l-2.337 2.337c-.152.152-.398.152-.55 0-.152-.152-.152-.398 0-.55zM10.723 26.77l5.636-5.637c.152-.152.398-.152.55 0 .152.152.152.398 0 .55l-5.636 5.636c-.152.152-.398.152-.55 0-.152-.152-.152-.398 0-.55"/>
    <path fill="#fff" d="M20.22 15.966c2.46 0 4.454-1.994 4.454-4.454S22.68 7.06 20.22 7.06s-4.454 1.994-4.454 4.453c0 2.46 1.994 4.454 4.454 4.454z"/>
    <path fill="#000" d="M20.535 13.805c-.1 0-.2-.038-.275-.114-.152-.151-.152-.397 0-.55l1.153-1.152c.075-.075.116-.174.116-.28 0-.106-.041-.205-.116-.28-.154-.155-.406-.155-.56 0l-.717.716c-.457.458-1.201.458-1.659 0-.457-.457-.457-1.201 0-1.659l1.153-1.153c.152-.152.398-.152.55 0 .152.152.152.398 0 .55l-1.153 1.153c-.155.154-.155.405 0 .56.154.154.405.154.56 0l.716-.717c.458-.457 1.202-.457 1.66 0 .221.222.343.517.343.83 0 .313-.122.608-.344.83L20.81 13.69c-.076.076-.176.114-.275.114z"/>
    <path fill="#000" d="M21.743 13.424c-.1 0-.2-.038-.275-.114l-3.046-3.046c-.151-.151-.151-.397 0-.55.152-.15.398-.15.55 0l3.045 3.046c.152.152.152.398 0 .55-.075.076-.175.114-.274.114zM10.836 14.667c.24 0 .435-.194.435-.434s-.195-.435-.435-.435-.435.195-.435.435.195.434.435.434zM11.766 15.597c.24 0 .435-.194.435-.434s-.195-.435-.435-.435-.435.194-.435.435c0 .24.195.434.435.434zM12.696 16.527c.24 0 .434-.194.434-.434s-.194-.435-.434-.435-.435.194-.435.435c0 .24.195.434.435.434z"/>
</svg>
