<svg xmlns="http://www.w3.org/2000/svg" width="33" height="28" fill="none" viewBox="0 0 33 28">
    <path fill="#fff" d="M30.19 8.326c0-3.925-3.182-7.107-7.107-7.107-2.624 0-4.914 1.423-6.146 3.538-1.23-2.115-3.521-3.538-6.145-3.538-3.926 0-7.108 3.182-7.108 7.107 0 9.947 13.253 18.511 13.253 18.511S30.19 18.273 30.19 8.327z"/>
    <path fill="#DAC0FF" d="M16.85 21.34c-.386 0-.717-.274-.789-.654l-1.957-10.4-2.084 4.951c-.121.288-.4.48-.712.49-.313.011-.603-.161-.743-.44l-.557-1.108h-7.8c-.443 0-.802-.359-.802-.801 0-.443.36-.802.802-.802h8.294c.301 0 .577.17.714.437l2.443-5.806c.137-.326.473-.523.824-.486.352.038.638.301.703.649l1.615 8.577.668-4.013c.064-.387.398-.67.79-.67h2.617c.271 0 .524.137.672.364l1.228 1.885.53-.644c.152-.186.38-.293.62-.293h7.741c.443 0 .802.359.802.802 0 .442-.36.801-.802.801h-7.363l-.983 1.197c-.162.197-.409.305-.664.291-.255-.014-.488-.149-.627-.362l-1.589-2.438H18.94L17.64 20.67c-.064.383-.393.666-.782.67h-.009z"/>
    <path fill="#000" d="M31.667 12.107h-1.596c.39-1.281.588-2.55.588-3.78 0-1.722-.593-3.407-1.67-4.746-.163-.202-.458-.234-.66-.072-.201.162-.233.458-.071.66.957 1.19 1.464 2.627 1.464 4.157 0 1.224-.214 2.495-.634 3.781h-1.485c-.26 0-.469.21-.469.469 0 .258.21.468.469.468h4.064c.184 0 .333.15.333.333 0 .184-.15.333-.333.333h-7.363c-.14 0-.273.063-.362.171l-.983 1.197c-.067.082-.17.127-.276.121-.105-.006-.203-.062-.26-.15l-1.589-2.438c-.086-.133-.234-.213-.393-.213H18.94c-.23 0-.425.166-.463.392l-1.298 7.803c-.027.16-.163.276-.32.278h-.009c-.16 0-.297-.114-.327-.271l-1.958-10.401c-.038-.203-.205-.357-.41-.38-.206-.021-.402.094-.483.285l-2.083 4.951c-.05.12-.166.2-.295.204-.13.004-.251-.068-.31-.184l-.556-1.106c-.08-.159-.242-.258-.419-.258h-7.8c-.184 0-.333-.15-.333-.334 0-.183.15-.333.333-.333h8.294c.126 0 .24.07.297.182.083.162.252.263.435.255.182-.006.344-.118.415-.286l2.442-5.806c.057-.134.198-.217.343-.202.147.016.264.124.292.27l1.614 8.576c.042.222.236.382.46.382h.006c.227-.002.42-.167.457-.392l.668-4.013c.027-.16.165-.278.329-.278h2.616c.113 0 .217.057.279.151l1.229 1.886c.081.125.217.204.366.212.148.008.294-.055.389-.17l.53-.645c.063-.077.157-.122.257-.122h1.54c.26 0 .47-.21.47-.468 0-.26-.21-.469-.47-.469h-1.54c-.382 0-.74.17-.982.464l-.124.15-.88-1.35c-.235-.36-.633-.576-1.064-.576h-2.617c-.623 0-1.15.446-1.253 1.062l-.234 1.405-1.125-5.979c-.105-.555-.553-.968-1.114-1.028-.553-.059-1.09.258-1.306.77l-2.188 5.2c-.165-.076-.347-.118-.537-.118H4.787c-.42-1.286-.634-2.557-.634-3.78 0-3.661 2.978-6.64 6.639-6.64 2.354 0 4.553 1.267 5.74 3.306.084.144.238.233.405.233.167 0 .322-.089.405-.233 1.187-2.039 3.387-3.306 5.74-3.306 1.328 0 2.608.39 3.704 1.128.214.145.506.088.65-.127.145-.214.088-.506-.127-.65C26.06 1.195 24.597.75 23.083.75c-2.438 0-4.73 1.19-6.146 3.148C15.522 1.94 13.23.75 10.792.75c-4.178 0-7.577 3.399-7.577 7.576 0 1.23.199 2.5.589 3.781H2.208c-.7 0-1.27.57-1.27 1.27 0 .7.57 1.271 1.27 1.271h2.613c1.008 2.043 2.49 4.13 4.407 6.206.093.1.218.15.345.15.113 0 .228-.04.318-.124.19-.176.201-.473.026-.663-1.727-1.867-3.084-3.738-4.044-5.57h3.846l.427.85c.222.441.684.716 1.178.699.494-.017.937-.322 1.128-.777l1.48-3.515 1.669 8.869c.113.6.638 1.035 1.248 1.035h.014c.617-.006 1.138-.453 1.24-1.061l1.233-7.412h.852l1.45 2.225c.22.338.591.553.994.575.404.023.795-.15 1.051-.462l.843-1.025h3.476c-1.786 3.401-4.648 6.347-6.788 8.257-1.95 1.739-3.652 2.942-4.277 3.368-.756-.515-3.09-2.169-5.545-4.547-.186-.18-.483-.175-.662.01-.18.187-.176.483.01.663 3.041 2.945 5.826 4.756 5.943 4.832.077.05.166.075.254.075.089 0 .177-.025.255-.075.086-.056 2.13-1.384 4.634-3.616 2.292-2.044 5.395-5.251 7.228-8.967h2.613c.7 0 1.27-.57 1.27-1.27 0-.701-.57-1.271-1.27-1.271z"/>
</svg>
