<svg xmlns="http://www.w3.org/2000/svg" width="32" height="28" fill="none" viewBox="0 0 32 28">
    <path fill="#5B00E4" d="M13.94 11.865c.022-1.105.555-2.156 1.44-2.82L16 8.58V5.74h-3.097v.517c0 1.14-.924 2.065-2.064 2.065-1.14 0-2.065-.925-2.065-2.065v-.516H5.677V8.58l.62.464c.885.664 1.419 1.715 1.44 2.82L5.62 18.222l.162.217c.07.093 1.741 2.27 5.058 2.27 3.316 0 4.988-2.178 5.058-2.27l.162-.216-2.12-6.358z"/>
    <path fill="#000" d="M19.097 17.613h1.032v2.064h-1.032v-2.064zM23.226 17.613h1.032v2.064h-1.032v-2.064zM21.161 17.613h1.032v2.064h-1.032v-2.064z"/>
    <path fill="#000" d="M30.738 24.352l-2.35-3.292V3.677h.61c.214.6.782 1.033 1.454 1.033.853 0 1.548-.695 1.548-1.549 0-.853-.695-1.548-1.548-1.548-.672 0-1.24.433-1.454 1.032h-6.805c0-1.139-.925-2.064-2.064-2.064s-2.065.925-2.065 2.064h-6.71c0-1.139-.925-2.064-2.064-2.064-1.138 0-2.064.925-2.064 2.064H3.002c-.214-.6-.782-1.032-1.454-1.032C.695 1.613 0 2.308 0 3.16 0 4.015.695 4.71 1.548 4.71c.672 0 1.24-.433 1.454-1.033h.61V21.06l-2.35 3.292C.545 24.486 0 25.115 0 25.87v1.548h32v-1.548c0-.756-.545-1.385-1.262-1.52zm-.286-21.707c.284 0 .516.232.516.516 0 .284-.232.516-.516.516-.285 0-.517-.232-.517-.516 0-.284.232-.516.517-.516zM1.548 3.677c-.284 0-.516-.232-.516-.516 0-.284.232-.516.516-.516.285 0 .517.232.517.516 0 .284-.232.516-.517.516zM20.13 1.613c.57 0 1.032.463 1.032 1.032h-2.064c0-.57.463-1.032 1.032-1.032zm-9.29 4.766c.274.245.636.395 1.032.395h.428c-.213.6-.787 1.032-1.46 1.032-.673 0-1.247-.431-1.46-1.032h.427c.397 0 .759-.15 1.033-.395zM9.29 1.613c.57 0 1.033.463 1.033 1.032H8.258c0-.57.463-1.032 1.032-1.032zm1.033 2.064v1.549c0 .284-.232.516-.517.516H8.258v.516c0 1.423 1.158 2.58 2.58 2.58 1.424 0 2.581-1.157 2.581-2.58v-.516h-1.548c-.285 0-.516-.232-.516-.516V3.677h9.806v1.321c-.548.479-1.24.744-1.976.744h-2.153V9.87h2.58V8.839h-1.547V6.774h1.12c.916 0 1.784-.302 2.492-.86.709.558 1.577.86 2.492.86h1.121V8.84h-1.548V9.87h2.58V5.74H24.17c-.735 0-1.428-.264-1.976-.743v-1.32h5.162V21.06l-2.35 3.292c-.718.134-1.263.763-1.263 1.519v.516H8.258v-.516c0-.756-.545-1.385-1.262-1.52l-2.35-3.29V3.676h5.677zm15.483 22.71h-1.032v-.516c0-.284.232-.516.516-.516.285 0 .517.232.517.516v.516zM6.71 25.355c.284 0 .516.232.516.516v.516H6.194v-.516c0-.284.23-.516.516-.516zm-4.645 1.032H1.032v-.516c0-.284.232-.516.516-.516.285 0 .517.232.517.516v.516zm.311-1.82l1.753-2.453 1.753 2.453c-.432.275-.72.755-.72 1.304v.516H3.096v-.516c0-.549-.289-1.029-.72-1.304zm26.527 1.304v.516H26.84v-.516c0-.549-.289-1.029-.72-1.304l1.752-2.453 1.753 2.453c-.432.275-.72.755-.72 1.304zm2.065.516h-1.032v-.516c0-.284.23-.516.516-.516.284 0 .516.232.516.516v.516z"/>
    <path fill="#fff" d="M24.258 17.613h-5.161V8.839c0-.57.463-1.033 1.032-1.033h3.097c.57 0 1.032.463 1.032 1.033v8.774z"/>
</svg>
