<svg xmlns="http://www.w3.org/2000/svg" width="40" height="40" viewBox="0 0 40 40">
    <g fill="none" fill-rule="nonzero">
        <circle cx="20" cy="20" r="20" fill="#FFF2D1"/>
        <g fill="#000">
            <path d="M28.896 19.878V7.429a.43.43 0 0 0-.43-.429H10.438a.43.43 0 0 0-.429.43v24.897c0 .237.192.43.43.43h18.029a.43.43 0 0 0 .429-.43v-4.293h-.859v3.864h-17.17V7.858h17.17v12.02h.859z"/>
            <path d="M11.725 19.449h1v1h-1zM13.442 19.449h13.737v1H13.442zM11.725 15.156h1v1h-1zM13.442 15.156h13.737v1H13.442zM11.725 23.741h1v1h-1zM13.442 23.741h11.59v1h-11.59zM31.866 22.163l-1.82-1.821a.43.43 0 0 0-.608 0l-6.374 6.374c-.005.004-.006.01-.01.014a.42.42 0 0 0-.071.107l-.015.03c-.003.01-.006.01-.008.016l-.91 2.733a.43.43 0 0 0 .542.542l2.733-.91c.006 0 .01-.006.016-.008l.03-.015a.42.42 0 0 0 .107-.07c.004-.005.01-.006.014-.01l6.374-6.375a.43.43 0 0 0 0-.607zm-8.73 6.91l.42-1.258.838.839-1.259.42zm2.053-.838l-1.215-1.214 5.768-5.77 1.214 1.215-5.767 5.769z"/>
        </g>
    </g>
</svg>
