<svg xmlns="http://www.w3.org/2000/svg" width="40" height="40" viewBox="0 0 40 40">
    <g fill="none" fill-rule="evenodd">
        <circle cx="20" cy="20" r="20" fill="#D7FFED" fill-rule="nonzero"/>
        <path fill="#FFF" d="M29 33H12.016C10.903 33 10 32.083 10 30.951V9.001L10 9l1.698 1.727L13.397 9l1.698 1.727L16.794 9l1.698 1.727L20.191 9l1.698 1.727L23.588 9l1.698 1.727L26.985 9v12"/>
        <path fill="#000" fill-rule="nonzero" d="M30.52 20.012h-3.556V8.488a.489.489 0 0 0-.296-.45.475.475 0 0 0-.524.105l-1.36 1.383-1.361-1.383a.475.475 0 0 0-.68 0l-1.36 1.383-1.36-1.383a.475.475 0 0 0-.68 0l-1.361 1.383-1.36-1.383a.475.475 0 0 0-.68 0L14.58 9.526l-1.36-1.383a.475.475 0 0 0-.68 0l-1.36 1.383L9.82 8.143a.474.474 0 0 0-.676-.003.49.49 0 0 0-.144.361v21.96C9 31.861 10.12 33 11.498 33h17.004C29.88 33 31 31.861 31 30.461V20.5a.484.484 0 0 0-.48-.488zM9.96 30.46V9.668l.88.894c.188.19.492.19.68 0l1.36-1.383 1.361 1.383c.188.19.492.19.68 0l1.36-1.383 1.361 1.383c.188.19.492.19.68 0l1.36-1.383 1.361 1.383c.188.19.492.19.68 0l1.36-1.383 1.361 1.383c.188.19.492.19.68 0l.88-.895v20.794c0 .589.2 1.131.532 1.562H11.498c-.848 0-1.537-.7-1.537-1.562zm20.08 0c0 .862-.69 1.562-1.538 1.562-.847 0-1.537-.7-1.537-1.562v-9.473h3.074v9.473z"/>
        <path fill="#000" d="M18 18.084c-.522 0-.947-.36-.947-.8a.523.523 0 0 0-.527-.52.523.523 0 0 0-.526.52c0 .846.625 1.56 1.474 1.773v.424c0 .287.235.519.526.519.29 0 .526-.232.526-.52v-.423c.849-.213 1.474-.927 1.474-1.774 0-1.013-.897-1.838-2-1.838-.522 0-.947-.36-.947-.8 0-.442.425-.8.947-.8s.947.358.947.8c0 .286.236.519.527.519.29 0 .526-.233.526-.52 0-.846-.625-1.56-1.474-1.773v-.352A.523.523 0 0 0 18 12a.523.523 0 0 0-.526.52v.351c-.849.213-1.474.927-1.474 1.774 0 1.013.897 1.838 2 1.838.522 0 .947.36.947.8 0 .442-.425.8-.947.8zM21.506 17h.988c.28 0 .506-.224.506-.5s-.227-.5-.506-.5h-.988a.503.503 0 0 0-.506.5c0 .276.227.5.506.5zM14.494 16h-.988a.503.503 0 0 0-.506.5c0 .276.227.5.506.5h.988c.28 0 .506-.224.506-.5s-.227-.5-.506-.5zM23.496 21h-7.992a.502.502 0 0 0-.504.5c0 .276.226.5.504.5h7.992a.502.502 0 0 0 .504-.5c0-.276-.226-.5-.504-.5zM12.5 21a.504.504 0 0 0-.5.5.504.504 0 0 0 .5.5.504.504 0 0 0 .5-.5.504.504 0 0 0-.5-.5zM23.496 25h-7.992a.502.502 0 0 0-.504.5c0 .276.226.5.504.5h7.992a.502.502 0 0 0 .504-.5c0-.276-.226-.5-.504-.5zM12.5 25a.504.504 0 0 0-.5.5.504.504 0 0 0 .5.5.504.504 0 0 0 .5-.5.504.504 0 0 0-.5-.5zM23.496 28h-7.992a.502.502 0 0 0-.504.5c0 .276.226.5.504.5h7.992a.502.502 0 0 0 .504-.5c0-.276-.226-.5-.504-.5zM12.5 28a.504.504 0 0 0-.5.5.504.504 0 0 0 .5.5.504.504 0 0 0 .5-.5.504.504 0 0 0-.5-.5z"/>
    </g>
</svg>
