<svg xmlns="http://www.w3.org/2000/svg" width="40" height="40" fill="none" viewBox="0 0 40 40">
     <defs>
        <linearGradient id="paint0_linear" x1="20" x2="20" y1="0" y2="40" gradientUnits="userSpaceOnUse">
            <stop stop-color="#FAF6FF"/>
            <stop offset="1" stop-color="#DEC7FF"/>
        </linearGradient>
        <linearGradient id="paint1_linear" x1="19.163" x2="19.163" y1="28.43" y2="29.953" gradientUnits="userSpaceOnUse">
            <stop stop-color="#725EF6"/>
            <stop offset="1" stop-color="#6001D1"/>
        </linearGradient>
        <linearGradient id="paint2_linear" x1="26.651" x2="26.651" y1="15.943" y2="25.739" gradientUnits="userSpaceOnUse">
            <stop stop-color="#725EF6"/>
            <stop offset="1" stop-color="#6001D1"/>
        </linearGradient>
    </defs>
    <path fill="url(#paint0_linear)" d="M20 40c11.046 0 20-8.954 20-20S31.046 0 20 0 0 8.954 0 20s8.954 20 20 20z"/>
    <path fill="#fff" d="M26.019 11.57H22.21V7.762c0-.427-.335-.762-.762-.762H9.285C8.021 7 7 8.02 7 9.285v21.43C7 31.979 8.02 33 9.285 33h15.21c1.265 0 2.286-1.02 2.286-2.285V12.332c0-.427-.335-.762-.762-.762z"/>
    <path fill="#fff" d="M26.78 12.332v18.383c0 1.264-1.02 2.285-2.285 2.285h-7.617V7h4.57c.427 0 .762.335.762.762v3.808h3.809c.427 0 .762.335.762.762z"/>
    <path fill="#fff" d="M26.78 13.094h-5.332c-.42 0-.761-.34-.761-.762V7h1.66c.598 0 1.184.242 1.607.666l2.162 2.162c.422.424.665 1.009.665 1.605v1.66z"/>
    <path fill="#5B00E4" d="M32.326 15.166c-.853-.868-2.377-.868-3.23 0l-.777.792-.548.533c-.305.29-.305.777 0 1.067l1.081 1.081 1.082 1.082c.274.305.792.305 1.066 0l.549-.533.777-.792c.899-.854.899-2.377 0-3.23z"/>
    <path fill="#DAC0FF" d="M23.642 23.85l-1.569-1.57c-.03-.03-.06-.03-.091 0l-.046.03c-.091.092-.152.199-.183.305l-1.081 3.245c-.107.305-.016.594.182.777v.015c.214.198.503.275.777.168l3.245-1.082c.107-.03.213-.091.305-.183l.03-.03c.03-.03.03-.06 0-.091-.502-.518-1.05-1.067-1.569-1.585zM21.448 16.14h-10.64c-1.005 0-1.005-1.523 0-1.523h10.64c1.006 0 1.006 1.524 0 1.524zM18.402 19.188h-7.593c-1.006 0-1.006-1.524 0-1.524h7.593c1.005 0 1.005 1.523 0 1.523zM18.402 22.234h-7.593c-1.006 0-1.006-1.523 0-1.523h7.593c1.005 0 1.005 1.523 0 1.523zM18.402 25.281h-7.593c-1.006 0-1.006-1.523 0-1.523h7.593c1.005 0 1.005 1.523 0 1.523z"/>
    <path fill="url(#paint1_linear)" d="M21.449 29.953h-4.57c-1.006 0-1.006-1.523 0-1.523h4.57c1.005 0 1.005 1.523 0 1.523z"/>
    <path fill="url(#paint2_linear)" d="M31.549 19.188L31 19.72c-3.016 3.001-2.01 1.996-4.722 4.707 0 .03-1.082 1.113-1.097 1.128-.091.091-.198.152-.305.183l-3.123-3.123c.03-.107.092-.214.183-.305.015-.015 1.097-1.097 1.128-1.097 1.98-1.98 1.005-.99 4.707-4.723l.533-.548 3.245 3.245z"/>
</svg>
