<svg xmlns="http://www.w3.org/2000/svg" width="40" height="40" viewBox="0 0 40 40">
    <g fill="none" fill-rule="nonzero">
        <circle cx="20" cy="20" r="20" fill="#F1E8FF"/>
        <path fill="#000" d="M27.01 8.02c-2.59 0-4.8 1.69-5.628 3.954h-10.45c-.232 0-.42.209-.422.44l-.099 14.77H7.432c-.232 0-.432.169-.432.402v1.874a3.307 3.307 0 0 0 3.158 3.294v.01h13v-.013c.105.004.149.012.215.012h.01a3.307 3.307 0 0 0 3.301-3.307V19.98c.105.006.217.01.326.01 3.296 0 5.978-2.688 5.978-5.985 0-3.296-2.68-5.983-5.977-5.983zM10.319 31.922h-.003a2.477 2.477 0 0 1-2.473-2.465v-1.43h12.21v1.424c.001.879.352 1.72.976 2.34.044.044.099.079.145.131H10.318z"/>
        <path fill="#FFF" d="M27.01 19.146a5.136 5.136 0 1 1 0-10.271 5.136 5.136 0 0 1 0 10.271z"/>
        <path fill="#000" d="M26.913 11.71a.468.468 0 0 0 .093-.004c.511.01.92.428.921.94a.421.421 0 0 0 .843 0 1.785 1.785 0 0 0-1.402-1.741V10.5a.421.421 0 0 0-.842 0v.424a1.783 1.783 0 0 0 .46 3.505.94.94 0 1 1-.94.94.421.421 0 0 0-.842 0 1.786 1.786 0 0 0 1.322 1.722v.462a.421.421 0 0 0 .842 0v-.442a1.782 1.782 0 0 0-.381-3.524.94.94 0 0 1-.074-1.878z"/>
        <path fill="#FFF" d="M25.842 29.456c0 1.36-1.1 2.463-2.46 2.465h-.008a2.483 2.483 0 0 1-2.48-2.47v-1.865a.389.389 0 0 0-.401-.402h-9.24l.097-14.368h9.798a5.937 5.937 0 0 0 .393 3.579h-3.977a.42.42 0 1 0 0 .842h4.434a5.942 5.942 0 0 0 3.844 2.637v9.582z"/>
        <path fill="#000" d="M14.861 19.197c-.743 0-1.347.585-1.347 1.305s.604 1.305 1.347 1.305c.744 0 1.348-.585 1.348-1.305s-.604-1.305-1.348-1.305zm0 1.768c-.279 0-.505-.208-.505-.463s.227-.463.505-.463c.28 0 .506.208.506.463s-.227.463-.506.463zM17.143 20.5a.42.42 0 0 0 .421.421h5.614a.421.421 0 0 0 0-.842h-5.614a.42.42 0 0 0-.42.421zM14.861 15.537c-.743 0-1.347.586-1.347 1.305 0 .72.604 1.305 1.347 1.305.744 0 1.348-.585 1.348-1.305s-.604-1.305-1.348-1.305zm0 1.768c-.279 0-.505-.208-.505-.463s.227-.463.505-.463c.28 0 .506.208.506.463s-.227.463-.506.463zM14.861 22.857c-.743 0-1.347.585-1.347 1.305s.604 1.305 1.347 1.305c.744 0 1.348-.586 1.348-1.305 0-.72-.604-1.305-1.348-1.305zm0 1.768c-.279 0-.505-.208-.505-.463s.227-.463.505-.463c.28 0 .506.208.506.463s-.227.463-.506.463zM23.178 23.763h-5.614a.42.42 0 1 0 0 .842h5.614a.421.421 0 0 0 0-.842z"/>
    </g>
</svg>
