<svg xmlns="http://www.w3.org/2000/svg" width="40" height="40" viewBox="0 0 40 40">
    <g fill="none" fill-rule="evenodd">
        <circle cx="20" cy="20" r="20" fill="#FFF6CB" fill-rule="nonzero"/>
        <path fill="#FFF" d="M20 12.5l-2.86 4.618-5.072.963 3.966 3.759-.939 5.56 4.899-2.472 4.898 2.472-.51-5.56 3.537-3.759-5.071-.963z"/>
        <path fill="#000" fill-rule="nonzero" d="M24.24 22.277a.392.392 0 0 1 .143-.436l3.044-2.234a1.35 1.35 0 0 0 .492-1.526 1.35 1.35 0 0 0-1.295-.946l-3.776-.017a.392.392 0 0 1-.371-.27l-1.183-3.586a1.35 1.35 0 0 0-1.3-.94 1.35 1.35 0 0 0-1.3.94l-.533 1.616a.488.488 0 1 0 .927.306l.533-1.616a.381.381 0 0 1 .373-.269c.066 0 .29.02.373.27l1.183 3.585c.185.56.704.937 1.293.94l3.776.017c.264.002.351.208.372.272a.38.38 0 0 1-.141.437l-3.045 2.234c-.475.348-.673.96-.494 1.52l1.15 3.598c.08.25-.089.398-.142.437a.38.38 0 0 1-.46.001l-3.066-2.206a1.368 1.368 0 0 0-1.599 0l-3.065 2.207a.381.381 0 0 1-.46-.001.381.381 0 0 1-.143-.437l1.15-3.599c.18-.56-.02-1.172-.494-1.52l-3.044-2.234a.381.381 0 0 1-.142-.437.381.381 0 0 1 .372-.271l3.776-.018a.488.488 0 0 0-.002-.976h-.002l-3.777.017a1.35 1.35 0 0 0-1.295.946 1.35 1.35 0 0 0 .492 1.527l3.044 2.233c.137.1.193.275.142.436l-1.15 3.598a1.35 1.35 0 0 0 .5 1.525c.243.177.523.266.803.266.279 0 .557-.088.8-.263l3.066-2.206a.392.392 0 0 1 .458 0l3.065 2.206a1.35 1.35 0 0 0 1.604-.004 1.35 1.35 0 0 0 .5-1.524l-1.151-3.598z"/>
        <path fill="#000" fill-rule="nonzero" d="M19.994 8C13.38 8 8 13.38 8 19.994c0 6.613 5.38 11.993 11.994 11.993a.488.488 0 0 0 0-.976c-6.075 0-11.018-4.942-11.018-11.017 0-6.075 4.943-11.018 11.018-11.018 6.075 0 11.017 4.943 11.017 11.018 0 3.781-1.905 7.255-5.097 9.293a.488.488 0 0 0 .525.823 11.95 11.95 0 0 0 5.548-10.116C31.987 13.38 26.607 8 19.994 8z"/>
    </g>
</svg>
