<svg xmlns="http://www.w3.org/2000/svg" width="40" height="40" fill="none" viewBox="0 0 40 40">
    <defs>
        <linearGradient id="paint0_linear" x1="20" x2="20" y1="0" y2="40" gradientUnits="userSpaceOnUse">
            <stop stop-color="#FAF6FF"/>
            <stop offset="1" stop-color="#DEC7FF"/>
        </linearGradient>
    </defs>
    <path fill="url(#paint0_linear)" d="M20 40c11.046 0 20-8.954 20-20S31.046 0 20 0 0 8.954 0 20s8.954 20 20 20z"/>
    <path fill="#fff" fill-rule="evenodd" d="M29 33H12.016C10.903 33 10 32.045 10 30.866V8L10 8l1.698 1.799L13.397 8l1.698 1.799L16.794 8l1.698 1.799L20.191 8l1.698 1.799L23.588 8l1.698 1.799L26.985 8v12.5" clip-rule="evenodd"/>
    <path fill="#fff" fill-rule="evenodd" d="M30.52 20.011h-3.555V8.488c0-.198-.118-.376-.297-.451-.18-.076-.386-.034-.524.106l-1.36 1.383-1.361-1.383c-.188-.191-.492-.191-.68 0l-1.36 1.383-1.36-1.383c-.188-.191-.493-.191-.68 0l-1.361 1.383-1.36-1.383c-.188-.191-.493-.191-.68 0l-1.36 1.383-1.362-1.383c-.187-.191-.491-.191-.679 0l-1.36 1.383L9.82 8.143c-.187-.19-.488-.19-.676-.003-.1.099-.147.23-.144.36v21.96c0 1.4 1.12 2.54 2.498 2.54h17.004C29.88 33 31 31.86 31 30.46V20.5c0-.27-.215-.489-.48-.489zM9.96 30.461V9.668l.88.894c.188.19.492.19.68 0l1.36-1.383 1.361 1.383c.188.19.492.19.68 0l1.36-1.383 1.361 1.383c.188.19.492.19.68 0l1.36-1.383 1.361 1.383c.188.19.492.19.68 0l1.36-1.383 1.361 1.383c.188.19.492.19.68 0l.88-.895v20.794c0 .589.2 1.131.532 1.563H11.498c-.848 0-1.537-.701-1.537-1.563zm18.542 1.562c.848 0 1.537-.7 1.537-1.562v-9.473h-3.074v9.473c0 .861.69 1.562 1.537 1.562z" clip-rule="evenodd"/>
    <path fill="#6001D2" fill-rule="evenodd" d="M18 18.084c-.522 0-.947-.359-.947-.8 0-.287-.236-.52-.527-.52-.29 0-.526.233-.526.52 0 .846.625 1.56 1.474 1.774v.423c0 .287.235.52.526.52.29 0 .526-.233.526-.52v-.424c.849-.212 1.474-.927 1.474-1.773 0-1.014-.897-1.839-2-1.839-.522 0-.947-.359-.947-.8 0-.441.425-.8.947-.8s.947.359.947.8c0 .287.236.52.527.52.29 0 .526-.233.526-.52 0-.846-.626-1.56-1.474-1.774v-.351c0-.287-.235-.52-.526-.52-.29 0-.526.233-.526.52v.351c-.849.213-1.474.928-1.474 1.774 0 1.014.897 1.839 2 1.839.522 0 .947.359.947.8 0 .441-.425.8-.947.8zM21.506 17h.988c.28 0 .506-.224.506-.5s-.227-.5-.506-.5h-.988c-.28 0-.506.224-.506.5s.227.5.506.5zM14.493 16h-.986c-.28 0-.507.224-.507.5s.227.5.507.5h.986c.28 0 .507-.224.507-.5s-.227-.5-.507-.5zM23.496 22h-7.992c-.278 0-.504.224-.504.5s.226.5.504.5h7.992c.278 0 .504-.224.504-.5s-.226-.5-.504-.5zM12.5 22c-.132 0-.26.053-.354.146-.093.093-.146.223-.146.354 0 .131.053.26.146.354.093.093.222.146.354.146.132 0 .26-.053.354-.146.093-.093.146-.223.146-.354 0-.131-.053-.26-.146-.354-.093-.093-.222-.146-.354-.146zM23.496 25h-7.992c-.278 0-.504.224-.504.5s.226.5.504.5h7.992c.278 0 .504-.224.504-.5s-.226-.5-.504-.5zM12.5 25c-.132 0-.26.053-.354.146-.093.093-.146.223-.146.354 0 .131.053.26.146.354.093.093.222.146.354.146.132 0 .26-.053.354-.146.093-.093.146-.223.146-.354 0-.131-.053-.26-.146-.354-.093-.093-.222-.146-.354-.146zM23.496 28h-7.992c-.278 0-.504.223-.504.5 0 .276.226.5.504.5h7.992c.278 0 .504-.224.504-.5 0-.277-.226-.5-.504-.5zM12.5 28c-.132 0-.26.053-.354.146-.093.093-.146.222-.146.354 0 .131.053.26.146.353.093.093.222.146.354.146.132 0 .26-.053.354-.146.093-.093.146-.222.146-.354 0-.131-.053-.26-.146-.353-.093-.093-.222-.146-.354-.146z" clip-rule="evenodd"/>
    <path fill="#00AA7D" fill-rule="evenodd" d="M30 40c5.523 0 10-4.477 10-10s-4.477-10-10-10-10 4.477-10 10 4.477 10 10 10z" clip-rule="evenodd"/>
    <path fill="#fff" fill-rule="evenodd" d="M27.588 33.222l-2.902-2.903-.988.982 3.89 3.89 8.352-8.352-.981-.981-7.37 7.364z" clip-rule="evenodd"/>
    <mask id="j3mdjkddoa" width="13" height="11" x="23" y="25" maskUnits="userSpaceOnUse">
        <path fill="#fff" fill-rule="evenodd" d="M27.588 33.222l-2.902-2.903-.988.982 3.89 3.89 8.352-8.352-.981-.981-7.37 7.364z" clip-rule="evenodd"/>
    </mask>
</svg>
