<svg xmlns="http://www.w3.org/2000/svg" width="40" height="40" viewBox="0 0 40 40">
    <g fill="none" fill-rule="nonzero">
        <circle cx="20" cy="20" r="20" fill="#CEEFFF"/>
        <path fill="#000" d="M29.442 14.052H11.37a.558.558 0 0 0-.558.557v1.052H5.495a.558.558 0 1 0 0 1.116h5.316v7.243H7.633a.558.558 0 1 0 0 1.116h3.178v1.052c0 .308.25.557.558.557h18.073c.308 0 .558-.25.558-.557V14.609a.558.558 0 0 0-.558-.557z"/>
        <path fill="#FFF" d="M28.066 15.167l-7.66 6.288-7.625-6.288z"/>
        <path fill="#FFF" d="M28.884 25.63H11.926v-9.722l8.125 6.7a.557.557 0 0 0 .708 0l8.125-6.67v9.692z"/>
        <path fill="#000" d="M8.545 19.784H2.558a.558.558 0 1 0 0 1.116h5.987a.558.558 0 1 0 0-1.116zM5.793 24.02h-.298a.558.558 0 1 0 0 1.116h.298a.558.558 0 1 0 0-1.116z"/>
    </g>
</svg>
