<svg xmlns="http://www.w3.org/2000/svg" width="80" height="80" fill="none" viewBox="0 0 80 80">
    <path fill="#F2E8FF" d="M18.615 9.26c15.372 0 25.927-7.962 33.334-7.962 7.406 0 22.962 4.258 22.962 38.33 0 34.074-20.927 39.074-29.073 39.074C7.688 78.704-8.607 9.26 18.615 9.26z"/>
    <path fill="#7A1DFF" d="M5.556 31.111c-1.838 0-3.334-1.495-3.334-3.333s1.496-3.334 3.334-3.334 3.333 1.496 3.333 3.334-1.495 3.333-3.333 3.333zm0-4.444c-.614 0-1.111.5-1.111 1.11 0 .612.497 1.112 1.11 1.112.614 0 1.112-.5 1.112-1.111s-.498-1.111-1.111-1.111z"/>
    <path fill="#fff" d="M60.556 79H19.444C16.99 79 15 76.052 15 72.412V23h50v49.412C65 76.052 63.011 79 60.556 79z"/>
    <path fill="#7A1DFF" d="M65 22.778H15v-3.334C15 16.99 16.989 15 19.444 15h41.112C63.01 15 65 16.989 65 19.444v3.334z"/>
    <path fill="#5B00E4" d="M24.444 15h-5C16.99 15 15 16.989 15 19.444v3.334h5v-3.334C20 16.99 21.989 15 24.444 15z"/>
    <path fill="#000" d="M66.667 70.5h-3.334V19.444c0-1.53-1.246-2.777-2.777-2.777H19.444c-1.53 0-2.777 1.246-2.777 2.777V70.5h-3.334V19.444c0-3.37 2.74-6.11 6.111-6.11h41.112c3.37 0 6.11 2.74 6.11 6.11V70.5z"/>
    <path fill="#000" d="M15 21.111h50v3.333H15v-3.333z"/>
    <g fill="#5B00E4" clip-path="url(#clip0)">
        <path d="M31.739 58.491c-.409 0-.794-.192-1.039-.52l-5.451-7.268v6.49c0 .717-.582 1.298-1.299 1.298-.716 0-1.298-.581-1.298-1.298V46.81c0-.717.581-1.298 1.298-1.298.409 0 .794.192 1.039.519l5.452 7.269v-6.49c0-.717.58-1.298 1.298-1.298.717 0 1.298.58 1.298 1.298v10.384c0 .559-.358 1.054-.888 1.23-.132.045-.27.068-.41.068zM42.123 58.491h-5.192c-.717 0-1.298-.581-1.298-1.298V46.809c0-.717.581-1.298 1.298-1.298h5.192c.717 0 1.298.58 1.298 1.298 0 .717-.581 1.298-1.298 1.298H38.23v7.788h3.894c.717 0 1.298.581 1.298 1.298 0 .717-.581 1.298-1.298 1.298z"/>
        <path d="M42.123 53.299h-5.192c-.717 0-1.298-.581-1.298-1.298 0-.717.581-1.298 1.298-1.298h5.192c.717 0 1.298.58 1.298 1.298 0 .717-.581 1.298-1.298 1.298zM55.103 58.491c-.559 0-1.056-.357-1.233-.888l-1.363-4.094-1.362 4.094c-.166.56-.7.93-1.283.886-.577-.022-1.07-.422-1.21-.982l-2.596-10.384c-.173-.696.25-1.401.947-1.575.696-.173 1.4.25 1.574.947l1.514 6.059 1.186-3.56c.308-.68 1.11-.981 1.79-.673.299.136.538.375.674.674l1.186 3.559 1.514-6.06c.173-.696.878-1.12 1.574-.946.696.174 1.12.879.946 1.575l-2.596 10.384c-.14.56-.633.96-1.21.982l-.052.002z"/>
    </g>
    <defs>
        <clipPath id="clip0">
            <path fill="#fff" d="M0 0H38V38H0z" transform="translate(21 33)"/>
        </clipPath>
    </defs>
</svg>
