<svg xmlns="http://www.w3.org/2000/svg" width="40" height="40" viewBox="0 0 40 40">
    <g fill="none" fill-rule="evenodd">
        <circle cx="20" cy="20" r="20" fill="#F2E8FF" fill-rule="nonzero"/>
        <g fill="#000">
            <path d="M25.465 27.343c-.396.403-.814.777-1.187 1.195-.546.612-1.233.806-2.01.762-1.135-.06-2.188-.441-3.196-.934a17.376 17.376 0 0 1-5.774-4.519c-1.187-1.411-2.166-2.95-2.815-4.69-.314-.844-.538-1.703-.471-2.614.045-.56.254-1.038.665-1.434.448-.426.866-.867 1.307-1.3.575-.568 1.292-.56 1.867 0 .358.351.702.702 1.053 1.053.344.344.687.68 1.023 1.023.598.605.598 1.308 0 1.913-.425.433-.851.866-1.292 1.284-.112.112-.127.202-.067.344.284.687.702 1.3 1.165 1.867.934 1.15 1.994 2.173 3.264 2.965.269.172.568.291.851.448.142.082.247.053.359-.067.426-.44.866-.874 1.3-1.307.575-.568 1.292-.568 1.86 0 .701.695 1.396 1.39 2.09 2.091.598.613.598 1.33.008 1.92zM18.84 15.736l.224-1.598a7.09 7.09 0 0 1 4.056 2.024 7.055 7.055 0 0 1 1.987 3.831l-1.591.277a5.485 5.485 0 0 0-1.539-2.965 5.459 5.459 0 0 0-3.137-1.569zM27.706 19.993a10.198 10.198 0 0 0-2.846-5.497 10.167 10.167 0 0 0-5.81-2.898L19.272 10a11.71 11.71 0 0 1 6.722 3.354 11.803 11.803 0 0 1 3.302 6.363l-1.591.276z"/>
        </g>
    </g>
</svg>
