<svg xmlns="http://www.w3.org/2000/svg" width="16" height="16" fill="none" viewBox="0 0 16 16">
    <path fill="#6001D2" d="M10.597 7.702c-.113-.226-.344-.369-.597-.369H8.667V.667C8.667.299 8.37 0 8 0c-.368 0-.666.299-.666.667v6.666H6c-.252 0-.483.143-.596.369-.112.226-.088.496.063.698l2 2.667c.009.011.022.015.031.026.044.052.096.092.154.128.024.015.043.034.07.046.084.04.178.066.278.066.101 0 .194-.026.28-.066.026-.012.045-.031.068-.046.058-.036.11-.076.154-.128.01-.011.023-.015.032-.026l2-2.667c.152-.202.176-.472.063-.698z"/>
    <path fill="#6001D2" d="M15.333 10c-.368 0-.666.299-.666.667v2c0 1.102-.898 2-2 2H3.333c-1.102 0-2-.898-2-2v-2c0-.368-.298-.667-.666-.667-.369 0-.667.299-.667.667v2C0 14.505 1.495 16 3.333 16h9.334C14.505 16 16 14.505 16 12.667v-2c0-.368-.298-.667-.667-.667z"/>
</svg>
