<svg xmlns="http://www.w3.org/2000/svg" width="24" height="22" fill="none" viewBox="0 0 24 22">
    <path fill="#000" d="M9.046 8.542c.91 0 1.649-.738 1.649-1.649 0-.91-.739-1.649-1.65-1.649-.91 0-1.648.738-1.648 1.649 0 .91.738 1.649 1.649 1.649z"/>
    <path fill="#000" d="M22.58 12.962c-.778-.733-1.763-1.214-2.84-1.351V3.229c0-.893-.366-1.695-.938-2.29C18.206.344 17.405 0 16.512 0H3.228C2.336 0 1.534.366.939.939.344 1.534 0 2.336 0 3.229v13.672c0 .893.366 1.694.939 2.29.595.595 1.397.939 2.29.939h12.847c.848.687 1.901 1.122 3.069 1.122 1.351 0 2.565-.55 3.435-1.42.87-.87 1.42-2.084 1.42-3.435s-.55-2.565-1.42-3.435zM1.214 3.229c0-.55.229-1.053.595-1.397.367-.366.87-.595 1.42-.595h13.282c.55 0 1.054.229 1.42.595.367.366.596.87.596 1.42v7.145l-3.39-3.39c-.229-.228-.618-.251-.87 0l-5.107 5.13-3.458-3.48c-.229-.23-.618-.252-.87 0L1.214 12.32V3.229zm1.992 15.733v-.046c-.55 0-1.053-.229-1.42-.595-.343-.367-.572-.87-.572-1.42v-2.84l4.053-4.076 3.458 3.458c.23.229.619.229.87 0l5.107-5.13 3.344 3.366-.206.07c-.092.022-.183.045-.298.09-.092.024-.183.07-.275.092-.069.023-.114.046-.183.092-.092.046-.16.069-.229.114-.114.07-.229.138-.344.207-.068.045-.114.068-.183.114-.046.023-.069.046-.114.069-.206.137-.39.297-.55.48-.87.87-1.42 2.085-1.42 3.436 0 .343.046.664.115 1.007.023.092.046.16.069.252.068.23.137.458.228.687v.023c.092.183.184.39.298.55H3.206zm18.481 0c-.664.664-1.557 1.053-2.565 1.053-.962 0-1.855-.389-2.496-1.007-.092-.092-.183-.206-.275-.298-.069-.069-.137-.16-.206-.23-.092-.114-.16-.251-.229-.388-.046-.092-.092-.16-.137-.252-.046-.115-.092-.252-.115-.39-.023-.091-.069-.206-.091-.297-.046-.23-.07-.481-.07-.733 0-1.008.413-1.9 1.054-2.565.642-.664 1.558-1.053 2.565-1.053 1.008 0 1.9.412 2.565 1.053.664.664 1.053 1.557 1.053 2.565 0 .985-.412 1.878-1.053 2.542z"/>
    <path fill="#000" d="M19.557 13.946c-.045-.045-.114-.091-.206-.137-.069-.023-.137-.046-.206-.046H19.1c-.068 0-.137.023-.206.046-.069.023-.137.069-.206.137l-1.42 1.42c-.229.23-.229.619 0 .87.23.23.619.23.87 0l.367-.366v2.52c0 .343.275.617.618.617.344 0 .619-.274.619-.618V15.87l.366.367c.229.229.618.229.87 0 .23-.23.23-.619 0-.87l-1.42-1.42z"/>
</svg>
