<svg xmlns="http://www.w3.org/2000/svg" width="30" height="30" fill="none" viewBox="0 0 30 30">
    <path fill="#fff" d="M0 0h30v30H0z"/>
    <path fill="#fff" stroke="#B5B5B5" d="M19.116 10.327l.117.273.296.027 9.717.902a.279.279 0 0 1 .158.486l-7.332 6.441-.223.196.066.29 2.145 9.52a.279.279 0 0 1-.414.3l-8.39-4.982-.256-.152-.255.152-8.391 4.982a.279.279 0 0 1-.414-.3l-.488-.11.488.11 2.145-9.52.065-.29-.223-.196-7.331-6.44a.279.279 0 0 1 .158-.487l9.717-.902.296-.027.117-.273 3.86-8.963a.279.279 0 0 1 .512 0l3.86 8.963z"/>
</svg>
