<svg xmlns="http://www.w3.org/2000/svg" width="56" height="56" fill="none" viewBox="0 0 56 56">
    <defs>
        <linearGradient id="paint0_linear" x1="28" x2="28" y1="0" y2="56" gradientUnits="userSpaceOnUse">
            <stop stop-color="#FFFBEF"/>
            <stop offset="1" stop-color="#FFD964"/>
        </linearGradient>
        <clipPath id="clip0">
            <path fill="#fff" d="M0 0H42V42H0z" transform="translate(7 7)"/>
        </clipPath>
    </defs>
    <rect width="56" height="56" fill="url(#paint0_linear)" rx="16"/>
    <g clip-path="url(#clip0)">
        <path fill="#D68100" d="M38.932 38.125v6.805c0 .458.346.84.8.89 2.035.22 3.918.53 5.594.914.56.128 1.093-.299 1.093-.873v-5.774c0-.415-.285-.775-.688-.872-1.989-.48-4.29-.853-6.8-1.09z"/>
        <path fill="#FF9A00" d="M45.73 39.215c-.593-.143-1.215-.276-1.861-.4v7.615c.5.095.988.196 1.457.304.56.128 1.093-.298 1.093-.873v-5.774c0-.415-.285-.774-.688-.872zM17.068 38.125v6.805c0 .458-.346.84-.801.89-2.034.22-3.917.53-5.593.914-.56.128-1.093-.299-1.093-.873v-5.774c0-.415.285-.775.688-.872 1.989-.48 4.29-.853 6.8-1.09z"/>
        <path fill="#D68100" d="M14.209 38.467v7.614c.666-.097 1.352-.185 2.058-.261.455-.05.801-.432.801-.89v-6.805c-.988.093-1.943.208-2.86.342z"/>
        <path fill="#FF9A00" d="M14.116 41.993c0 .575.534 1.001 1.094.873 3.523-.807 7.964-1.289 12.79-1.289 4.826 0 9.266.481 12.79 1.289.56.128 1.094-.298 1.094-.873v-5.774c0-.415-.285-.774-.688-.871-3.585-.865-8.182-1.385-13.196-1.385-5.014 0-9.612.52-13.197 1.385-.403.097-.687.456-.687.87v5.775z"/>
        <path fill="#FF9A00" d="M41.196 35.348c-.714-.172-1.47-.33-2.26-.474v7.614c.642.116 1.26.242 1.853.378.56.129 1.095-.297 1.095-.872v-5.775c0-.414-.285-.773-.688-.87z"/>
        <path fill="#FC4" d="M15.158 28.24l-1.229 1.637c-.056.075-.086.167-.085.26l.033 2.048c.005.351-.34.603-.673.489l-1.937-.664c-.088-.03-.185-.03-.274 0l-1.936.664c-.333.114-.678-.138-.673-.49l.032-2.046c.002-.094-.028-.186-.084-.26l-1.23-1.638c-.211-.281-.08-.687.257-.79l1.957-.602c.09-.028.167-.085.221-.161l1.177-1.676c.203-.288.63-.288.832 0l1.177 1.676c.054.076.132.133.221.16l1.957.602c.337.104.468.51.257.791zM21.501 12.688l-1.229 1.637c-.056.075-.086.167-.084.26l.032 2.047c.005.352-.34.603-.673.49l-1.937-.664c-.088-.03-.185-.03-.273 0l-1.937.663c-.333.114-.678-.137-.673-.489l.032-2.047c.002-.093-.028-.185-.084-.26l-1.23-1.637c-.211-.282-.079-.688.258-.79l1.956-.603c.09-.027.168-.084.222-.16l1.177-1.676c.202-.288.63-.288.831 0l1.177 1.675c.054.077.132.134.222.161l1.957.602c.336.103.467.51.256.791zM48.898 28.24l-1.229 1.637c-.056.075-.086.167-.085.26l.033 2.048c.005.351-.34.603-.673.489l-1.937-.664c-.088-.03-.185-.03-.273 0l-1.937.664c-.333.114-.678-.138-.673-.49l.032-2.046c.002-.094-.028-.186-.084-.26l-1.23-1.638c-.211-.281-.079-.687.258-.79l1.956-.602c.09-.028.168-.085.222-.161l1.177-1.676c.202-.288.629-.288.831 0l1.177 1.676c.054.076.132.133.222.16l1.956.602c.337.104.468.51.257.791zM42.555 12.688l-1.23 1.637c-.056.075-.085.167-.084.26l.032 2.047c.006.352-.34.603-.672.49l-1.937-.664c-.089-.03-.185-.03-.274 0l-1.937.663c-.333.114-.678-.137-.673-.489l.033-2.047c.002-.093-.028-.185-.085-.26l-1.23-1.637c-.21-.282-.078-.688.258-.79l1.957-.603c.09-.027.167-.084.221-.16l1.177-1.676c.203-.288.63-.288.832 0l1.177 1.675c.054.077.132.134.222.161l1.956.602c.337.103.468.51.257.791zM40.085 24.19l-3.814 5.077c-.056.075-.086.166-.084.26l.1 6.35c.018 1.12-1.082 1.92-2.143 1.556l-6.007-2.057c-.089-.03-.185-.03-.274 0l-6.007 2.057c-1.061.363-2.161-.436-2.144-1.557l.101-6.349c.002-.094-.028-.185-.085-.26l-3.813-5.078c-.673-.897-.253-2.19.819-2.519l6.069-1.867c.09-.028.168-.084.221-.16l3.652-5.196c.644-.918 2.003-.918 2.648 0l3.651 5.195c.054.077.132.133.222.161l6.07 1.867c1.071.33 1.49 1.622.818 2.52z"/>
        <path fill="#fff" d="M32.948 28.474l.072 4.57c.004.292-.283.5-.56.406l-4.323-1.48c-.089-.03-.185-.03-.274 0l-4.323 1.48c-.277.094-.564-.114-.56-.407l.072-4.569c.002-.093-.028-.185-.084-.26l-2.744-3.654c-.176-.234-.067-.572.213-.658l4.369-1.343c.09-.028.167-.084.221-.161l2.627-3.74c.169-.239.524-.239.692 0l2.627 3.74c.054.077.132.133.221.16l4.368 1.344c.28.086.39.424.214.658l-2.744 3.654c-.056.075-.086.167-.084.26z"/>
    </g>
</svg>
