<svg xmlns="http://www.w3.org/2000/svg" width="40" height="40" fill="none" viewBox="0 0 40 40">
    <circle cx="20" cy="20" r="20" fill="#fff"/>
    <path fill="#FB5252" d="M31.211 9.788S23.465 27.074 20.83 29.709a6.746 6.746 0 0 1-9.54-9.54C13.925 17.534 31.21 9.788 31.21 9.788z"/>
    <path fill="#D68100" d="M21.155 29.344c-.102.127-.21.25-.325.365a6.746 6.746 0 0 1-9.54-9.54c.115-.115.237-.224.365-.325a6.746 6.746 0 0 0 9.5 9.5z"/>
    <path fill="#FC4" d="M26.794 14.204s-6.044 10.77-8.238 13.743a3.07 3.07 0 0 0-.032.044c-.111.147-.21.274-.298.377a3.968 3.968 0 1 1-5.774-5.433c.048-.048.107-.103.179-.163.103-.087.23-.186.377-.297l.044-.032c2.972-2.195 13.742-8.239 13.742-8.239z"/>
    <path stroke="#000" d="M26.794 14.204s-6.044 10.77-8.238 13.743a3.07 3.07 0 0 0-.032.044c-.111.147-.21.274-.298.377a3.968 3.968 0 1 1-5.774-5.433c.048-.048.107-.103.179-.163.103-.087.23-.186.377-.297l.044-.032c2.972-2.195 13.742-8.239 13.742-8.239z"/>
    <path fill="#FFCD00" d="M18.413 28.138c-.068.087-.131.162-.187.23a3.968 3.968 0 1 1-5.774-5.433 2.7 2.7 0 0 1 .179-.163c.071-.06.143-.119.23-.186a3.968 3.968 0 0 0 5.552 5.552z"/>
    <path fill="#000" d="M31.493 9.505a.397.397 0 0 0-.44-.081c-.709.317-17.387 7.808-20.041 10.464A7.143 7.143 0 0 0 21.11 29.99c2.656-2.656 10.146-19.333 10.464-20.041a.397.397 0 0 0-.082-.444zM20.55 29.427a6.35 6.35 0 0 1-8.98-8.978c2.2-2.2 15.186-8.201 18.847-9.868-1.666 3.661-7.667 16.647-9.867 18.848v-.002zM27.673 22.683l.793-.794.561.562-.793.793-.561-.561zM22.24 30.892l9.003-9.003.561.561-9.003 9.003-.56-.56zM23.704 26.65l3.175-3.174.56.561-3.174 3.175-.56-.562zM13.389 15.936l.793-.794.561.561-.793.794-.561-.561zM9.544 17.003L18.547 8l.561.561-9.003 9.003-.561-.56zM14.58 14.745l4.364-4.364.561.56-4.364 4.365-.562-.56z"/>
</svg>
