<svg xmlns="http://www.w3.org/2000/svg" width="40" height="40" fill="none" viewBox="0 0 40 40">
    <circle cx="20" cy="20" r="20" fill="#fff"/>
    <path fill="#276EF1" d="M29.65 21.945c0 5.36-4.32 9.704-9.65 9.704s-9.65-4.345-9.65-9.704c0-5.358 4.32-9.703 9.65-9.703s9.65 4.345 9.65 9.703zM22.827 10.54h-5.654l-.175-.175V8.527l.175-.176h5.654l.175.176v1.838l-.175.175z"/>
    <path fill="#fff" d="M18.447 10.54h3.106v1.647h-3.106V10.54zM27.3 21.945c0 4.054-3.268 7.34-7.3 7.34s-7.3-3.286-7.3-7.34c0-4.053 3.268-7.34 7.3-7.34s7.3 3.287 7.3 7.34z"/>
    <path fill="#FB5252" d="M20 14.605c4.025 0 7.3 3.293 7.3 7.34H20v-7.34z"/>
    <path fill="#0044C2" d="M11.747 21.945c0-5.122 3.948-9.317 8.952-9.677a9.741 9.741 0 0 0-.7-.026c-5.329 0-9.65 4.345-9.65 9.703 0 5.36 4.321 9.704 9.65 9.704.236 0 .469-.01.7-.026-5.004-.36-8.952-4.555-8.952-9.678zM18.396 8.527l.175-.176h-1.398l-.175.176v1.838l.175.175h1.398l-.175-.175V8.527z"/>
    <path fill="#C6C5CA" d="M18.447 10.54h1.398v1.647h-1.398V10.54zM14.098 21.945c0-3.816 2.897-6.952 6.601-7.306a7.374 7.374 0 0 0-.699-.034c-4.032 0-7.3 3.287-7.3 7.34 0 4.054 3.268 7.34 7.3 7.34.236 0 .469-.011.699-.033-3.704-.354-6.601-3.49-6.601-7.306z"/>
    <path fill="#C50000" d="M20 14.605v7.34h1.398v-7.204A7.268 7.268 0 0 0 20 14.605z"/>
    <path fill="#000" d="M21.902 12.072v-1.18h1.07l.38-.382V8.382L22.971 8h-5.944l-.38.382v2.128l.38.382h1.07v1.18C13.57 12.944 10 16.96 10 21.945 10 27.502 14.473 32 20 32s10-4.497 10-10.055a10.04 10.04 0 0 0-8.098-9.873zm-4.555-3.37h5.305v1.487h-.75v-.9h-.698v.9h-.855v-.9h-.698v.9h-.862v-.9h-.7v.9h-.741V8.703zm3.857 2.19v.943h-2.408v-.943h2.408zM20 31.297c-5.129 0-9.301-4.195-9.301-9.352 0-5.156 4.172-9.351 9.301-9.351 5.129 0 9.301 4.195 9.301 9.351 0 5.157-4.172 9.352-9.301 9.352z"/>
    <path fill="#000" d="M20 14.254c-4.218 0-7.65 3.45-7.65 7.691 0 4.242 3.432 7.692 7.65 7.692s7.65-3.45 7.65-7.692c0-4.24-3.432-7.69-7.65-7.69zm4.66 2.51l-1.179 1.184.495.497 1.178-1.184a6.982 6.982 0 0 1 1.797 4.684c0 1.801-.68 3.445-1.797 4.685l-1.178-1.184-.495.497 1.178 1.184a6.904 6.904 0 0 1-4.31 1.799v-1.68h-.698v1.68a6.904 6.904 0 0 1-4.31-1.799l1.178-1.184-.494-.497-1.178 1.184a6.981 6.981 0 0 1-1.789-4.333h1.67v-.703h-1.67a6.982 6.982 0 0 1 1.789-4.333l1.178 1.184.494-.497-1.178-1.184A6.902 6.902 0 0 1 20 14.957c1.79 0 3.425.684 4.659 1.807z"/>
    <path fill="#000" d="M26.369 21.594h-6.02v-6.052h-.698v6.755h6.718v-.703z"/>
    <path fill="#fff" d="M25.102 15.628a7.942 7.942 0 0 0-2.897-1.533l.191-.676a8.635 8.635 0 0 1 3.151 1.667l-.445.542zm-3.33-1.644a7.937 7.937 0 0 0-.659-.12l.097-.696c.24.033.48.077.716.13l-.154.686zm-1.103-.17a8.148 8.148 0 0 0-.669-.027v-.703c.242 0 .487.01.727.03l-.058.7z"/>
</svg>
