<svg xmlns="http://www.w3.org/2000/svg" width="40" height="40" fill="none" viewBox="0 0 40 40">
    <circle cx="20" cy="20" r="20" fill="#fff"/>
    <path fill="#23C99D" d="M26.5 8h-13a1 1 0 0 0-1 1v16a1 1 0 0 0 1 1h13a1 1 0 0 0 1-1V9a1 1 0 0 0-1-1z"/>
    <path fill="#FC4" d="M27 21.5a2 2 0 0 1-2 2h-1v-3h2a1.008 1.008 0 0 1 1 1z"/>
    <path fill="#FFE0B2" d="M26 33.5v1h-6v-3h4V33h1.935c.045.163.066.331.065.5zM26 14.5v6h-2v-8a1.998 1.998 0 0 1 2 2z"/>
    <path fill="#FB5252" d="M25.935 33H24v-1.5a1.996 1.996 0 0 1 1.935 1.5zM24.5 9.5v1a.5.5 0 0 1-.5.5h-.5a1.003 1.003 0 0 1-1-1V9H24a.5.5 0 0 1 .5.5z"/>
    <path fill="#FC4" d="M16 20h8v2h-8v-2z"/>
    <path fill="#FFE0B2" d="M24 12.5V20h-8v-7.5h1.36a3.956 3.956 0 0 0 2.915.99 3.976 3.976 0 0 0 2.37-.99H24z"/>
    <path fill="#FC4" d="M23.97 9H22.5A3.134 3.134 0 0 0 20 8a3.136 3.136 0 0 0-2.5 1h-1.465c.044-.347.144-.685.295-1 .605-1.285 2.025-2 3.67-2s3.065.715 3.675 2c.149.316.248.654.295 1z"/>
    <path fill="#44FFE8" d="M23.71 11A4.008 4.008 0 0 1 20 13.5a3.955 3.955 0 0 1-2.64-1h-.005A4.014 4.014 0 0 1 16.29 11h.21a1.003 1.003 0 0 0 1-1V9A3.135 3.135 0 0 1 20 8a3.135 3.135 0 0 1 2.5 1v1a1.003 1.003 0 0 0 1 1h.21z"/>
    <path fill="#FFE0B2" d="M23.71 11A4.008 4.008 0 0 1 20 13.5a3.955 3.955 0 0 1-2.64-1h-.005A4.014 4.014 0 0 1 16.29 11h.21a1.003 1.003 0 0 0 1-1V9A3.135 3.135 0 0 1 20 8a3.135 3.135 0 0 1 2.5 1v1a1.003 1.003 0 0 0 1 1h.21zM20 22h3v9.5h-3V22zM17 22h3v9.5h-3V22z"/>
    <path fill="#FFDE55" d="M23 26v2h-1a.5.5 0 0 1-.5-.5v-1a.5.5 0 0 1 .5-.5h1z"/>
    <path fill="#FC4" d="M22.5 15v1.5a.5.5 0 0 1-.5.5h-1a.5.5 0 0 1-.5-.5V15h2z"/>
    <path fill="#FFE0B2" d="M20 31.5v3h-6v-1c-.002-.169.02-.337.065-.5H16v-1.5h4z"/>
    <path fill="#FFDE55" d="M18.5 26.5v1a.5.5 0 0 1-.5.5h-1v-2h1a.5.5 0 0 1 .5.5z"/>
    <path fill="#FB5252" d="M17.5 9v1a1.003 1.003 0 0 1-1 1H16a.5.5 0 0 1-.5-.5v-1A.5.5 0 0 1 16 9h1.5zM16 31.5V33h-1.935A1.996 1.996 0 0 1 16 31.5z"/>
    <path fill="#FC4" d="M16 20.5v3h-1a2 2 0 0 1-2-2 1.008 1.008 0 0 1 1-1h2z"/>
    <path fill="#FFE0B2" d="M16 12.5v8h-2v-6a1.998 1.998 0 0 1 2-2z"/>
    <path fill="#000" d="M21 17.5h1a1 1 0 0 0 1-1V15a.5.5 0 0 0-.5-.5h-2a.5.5 0 0 0-.5.5v1.5a1 1 0 0 0 1 1zm0-2h1v1h-1v-1z"/>
    <path fill="#000" d="M26.5 7.571V5h-1v2.5h-1.529c-.737-1.236-2.186-2-3.971-2-1.785 0-3.235.764-3.97 2H14a2 2 0 0 0-2 2V24a2.503 2.503 0 0 0 2.5 2.5h2V31H16a2.503 2.503 0 0 0-2.5 2.5v1a.5.5 0 0 0 .5.5h12a.5.5 0 0 0 .5-.5v-1A2.503 2.503 0 0 0 24 31h-.5v-4.5h2A2.503 2.503 0 0 0 28 24V9.5a2 2 0 0 0-1.5-1.929zM26 8.5a1 1 0 0 1 1 1v10.89a1.495 1.495 0 0 0-.5-.3V14.5A2.503 2.503 0 0 0 24 12a.497.497 0 0 0-.357.15l-.012-.007c.148-.203.279-.418.39-.643a1 1 0 0 0 .979-1v-1a1 1 0 0 0-.6-.914c-.006-.029-.014-.057-.021-.086H26zm-9.5 13v-1h7v1h-7zM18 10v-.804a2.775 2.775 0 0 1 2-.696 2.775 2.775 0 0 1 2 .696V10a1.5 1.5 0 0 0 .939 1.389A3.506 3.506 0 0 1 20 12.998a3.483 3.483 0 0 1-2.94-1.611A1.5 1.5 0 0 0 18 10zm7.5 10h-1v-6.915a1.503 1.503 0 0 1 1 1.415V20zM24 9.5v1h-.5a.5.5 0 0 1-.5-.5v-.5h1zm-7 .5a.5.5 0 0 1-.5.5H16v-1h1v.5zm0 3h.184a4.48 4.48 0 0 0 3.124.989 4.489 4.489 0 0 0 2.5-.989H23a.5.5 0 0 1 .5.5v6h-7v-6a.5.5 0 0 1 .5-.5zm-1.5.5V20h-1v-5.5a1.503 1.503 0 0 1 1-1.415v.415zM14 21h1.5v2H15a1.5 1.5 0 0 1-1.5-1.5.5.5 0 0 1 .5-.5zm10.5 0H26a.5.5 0 0 1 .5.5A1.5 1.5 0 0 1 25 23h-.5v-2zM20 6.5c1.664 0 2.915.768 3.341 2h-.623A3.704 3.704 0 0 0 20 7.5a3.703 3.703 0 0 0-2.718 1h-.62c.424-1.232 1.672-2 3.338-2zm-6 2h1.623l-.021.084A1 1 0 0 0 15 9.5v1a1 1 0 0 0 .98 1c.112.226.242.442.39.646l-.014.007A.497.497 0 0 0 16 12a2.503 2.503 0 0 0-2.5 2.5v5.592a1.495 1.495 0 0 0-.5.3V9.5a1 1 0 0 1 1-1zm.5 17A1.5 1.5 0 0 1 13 24v-1.015A2.49 2.49 0 0 0 15 24h1a.5.5 0 0 0 .5-.5v2h-2zm3 1h.5v1h-.5v-1zm0 2h.5a1 1 0 0 0 1-1v-1a1 1 0 0 0-1-1h-.5v-3h2V31h-2v-2.5zm-2 3.592v.408h-.61a1.5 1.5 0 0 1 .61-.408zm-1 1.408H16a.5.5 0 0 0 .5-.5v-1h3v2h-5v-.5zm11 .5h-5v-2h3v1a.5.5 0 0 0 .5.5h1.5v.5zm-.39-1.5h-.61v-.408a1.5 1.5 0 0 1 .61.408zM20.5 31v-8.5h2v3H22a1 1 0 0 0-1 1v1a1 1 0 0 0 1 1h.5V31h-2zm2-3.5H22v-1h.5v1zm3-2h-2v-2a.5.5 0 0 0 .5.5h1a2.49 2.49 0 0 0 2-1.015V24a1.5 1.5 0 0 1-1.5 1.5z"/>
</svg>
