<svg xmlns="http://www.w3.org/2000/svg" width="40" height="40" fill="none" viewBox="0 0 40 40">
    <circle cx="20" cy="20" r="20" fill="#fff"/>
    <path fill="#FC4" d="M31.6 11.6v4.8h-7.2l2.8-2.4v-2.4h4.4z"/>
    <path fill="#006DF0" d="M27.104 22.432a3.927 3.927 0 0 0-.644.124c.938.75 1.753 1.642 2.416 2.644h.8a11.524 11.524 0 0 0-2.572-2.768zM31.488 30h-.8c.076.53.113 1.065.112 1.6h.8c.001-.535-.036-1.07-.112-1.6z"/>
    <path fill="#FC4" d="M31.488 30H26a2.4 2.4 0 1 1 0-4.8h3.676a11.447 11.447 0 0 1 1.812 4.8zM27.2 11.6V14H20V9.2h7.2v2.4zM27.2 14l-2.8 2.4V14h2.8z"/>
    <path fill="#00AA7D" d="M27.104 22.432C25.1 22.652 24.908 24 22.556 24c-2.56 0-2.56-1.6-5.116-1.6-2.556 0-2.56 1.6-5.12 1.6a4.8 4.8 0 0 1-.996-.096 11.591 11.591 0 0 1 15.78-1.472z"/>
    <path fill="#007579" d="M27.104 22.432C25.1 22.652 24.908 24 22.556 24c-.148 0-.284-.004-.416-.016 1.996-.136 2.276-1.344 4.164-1.552a11.48 11.48 0 0 0-6.748-2.424c.148-.004.296-.008.444-.008 2.573-.005 5.074.85 7.104 2.432z"/>
    <path fill="#276EF1" fill-rule="evenodd" d="M8.4 31.6h23.2c.001-.535-.036-1.07-.112-1.6H26a2.4 2.4 0 0 1 0-4.8h3.676a11.522 11.522 0 0 0-2.572-2.768c-.913.1-1.45.435-1.987.77-.64.399-1.281.798-2.561.798s-1.919-.4-2.558-.8c-.639-.4-1.278-.8-2.558-.8-1.28 0-1.92.4-2.56.8-.64.4-1.28.8-2.56.8a4.8 4.8 0 0 1-.996-.096A11.527 11.527 0 0 0 8.4 31.6zm6.866-6.4zm-1.699.641z" clip-rule="evenodd"/>
    <path fill="#FFCD00" d="M31.488 30h-.8a11.447 11.447 0 0 0-1.812-4.8h.8a11.447 11.447 0 0 1 1.812 4.8z"/>
    <path fill="#000" d="M31.6 11.2h-4v-2a.4.4 0 0 0-.4-.4h-6.8V8h-.8v11.61A12.012 12.012 0 0 0 8 31.6a.4.4 0 0 0 .4.4h23.2a.4.4 0 0 0 .4-.4 12.013 12.013 0 0 0-11.6-11.99V14.4H24v2a.4.4 0 0 0 .4.4h7.2a.4.4 0 0 0 .4-.4v-4.8a.4.4 0 0 0-.4-.4zM20 20.4a11.136 11.136 0 0 1 6.14 1.837c-.435.158-.85.368-1.235.625a3.862 3.862 0 0 1-2.349.738 3.85 3.85 0 0 1-2.348-.74A4.624 4.624 0 0 0 17.44 22a4.632 4.632 0 0 0-2.772.86 3.851 3.851 0 0 1-2.348.74c-.05 0-.094-.005-.142-.006A11.16 11.16 0 0 1 20 20.4zm11.02 9.2H26a2.002 2.002 0 0 1-2-2 2.004 2.004 0 0 1 2-2h3.453a11.128 11.128 0 0 1 1.567 4zm-2.128-4.8H26a2.803 2.803 0 0 0-2.8 2.8 2.803 2.803 0 0 0 2.8 2.8h5.133c.028.264.05.53.06.8H8.807a11.148 11.148 0 0 1 2.678-6.868c.276.044.555.067.835.068a4.634 4.634 0 0 0 2.772-.86 3.851 3.851 0 0 1 2.348-.74 3.843 3.843 0 0 1 2.344.739c.808.577 1.78.878 2.772.861a4.643 4.643 0 0 0 2.772-.859 4.051 4.051 0 0 1 1.66-.688c.71.57 1.35 1.224 1.904 1.947zM20.4 9.6h6.4v4h-6.4v-4zm5.72 4.8l-1.32 1.13V14.4h1.32zM31.2 16h-5.72l1.979-1.696-.003-.004a.394.394 0 0 0 .144-.3v-2h3.6v4z"/>
</svg>
