<svg width="28" height="20" viewBox="0 0 28 20" fill="none" xmlns="http://www.w3.org/2000/svg">
<defs>
<filter id="filter0_d_ooo" x="1.33374" y="1.33337" width="9.33344" height="7.66664" filterUnits="userSpaceOnUse" color-interpolation-filters="sRGB">
<feFlood flood-opacity="0" result="BackgroundImageFix"/>
<feColorMatrix in="SourceAlpha" type="matrix" values="0 0 0 0 0 0 0 0 0 0 0 0 0 0 0 0 0 0 127 0"/>
<feOffset dy="1"/>
<feColorMatrix type="matrix" values="0 0 0 0 0 0 0 0 0 0 0 0 0 0 0 0 0 0 0.06 0"/>
<feBlend mode="normal" in2="BackgroundImageFix" result="effect1_dropShadow"/>
<feBlend mode="normal" in="SourceGraphic" in2="effect1_dropShadow" result="shape"/>
</filter>
<linearGradient id="paint0_linear" x1="1.33374" y1="1.33337" x2="1.33374" y2="8.00002" gradientUnits="userSpaceOnUse">
<stop stop-color="white"/>
<stop offset="1" stop-color="#F0F0F0"/>
</linearGradient>
</defs>
<rect x="0.00012207" width="28" height="20" rx="2" fill="white"/>
<mask id="mask0" mask-type="alpha" maskUnits="userSpaceOnUse" x="0" y="0" width="29" height="20">
<rect x="0.00012207" width="28" height="20" rx="2" fill="white"/>
</mask>
<g mask="url(#mask0)">
<path fill-rule="evenodd" clip-rule="evenodd" d="M28.0001 0H0.00012207V1.33333H28.0001V0ZM28.0002 2.66663H0.000233043V3.99996H28.0002V2.66663ZM0.000233043 5.33336H28.0002V6.6667H0.000233043V5.33336ZM28.0002 7.99999H0.000233043V9.33332H28.0002V7.99999ZM0.000233043 10.6667H28.0002V12H0.000233043V10.6667ZM28.0002 13.3333H0.000233043V14.6667H28.0002V13.3333ZM0.000233043 16H28.0002V17.3333H0.000233043V16ZM28.0002 18.6667H0.000233043V20H28.0002V18.6667Z" fill="#D02F44"/>
<rect x="0.00012207" width="12" height="9.33333" fill="#46467F"/>
<g filter="url(#filter0_d_ooo)">
<path fill-rule="evenodd" clip-rule="evenodd" d="M5.3336 2.00004C5.3336 2.36823 5.03512 2.66671 4.66693 2.66671C4.29874 2.66671 4.00027 2.36823 4.00027 2.00004C4.00027 1.63185 4.29874 1.33337 4.66693 1.33337C5.03512 1.33337 5.3336 1.63185 5.3336 2.00004ZM2.66707 2.00005C2.66707 2.36824 2.3686 2.66671 2.00041 2.66671C1.63222 2.66671 1.33374 2.36824 1.33374 2.00005C1.33374 1.63186 1.63222 1.33338 2.00041 1.33338C2.3686 1.33338 2.66707 1.63186 2.66707 2.00005ZM7.33384 2.66671C7.70203 2.66671 8.0005 2.36823 8.0005 2.00004C8.0005 1.63185 7.70203 1.33337 7.33384 1.33337C6.96565 1.33337 6.66717 1.63185 6.66717 2.00004C6.66717 2.36823 6.96565 2.66671 7.33384 2.66671ZM10.6672 2.00004C10.6672 2.36823 10.3687 2.66671 10.0005 2.66671C9.63233 2.66671 9.33385 2.36823 9.33385 2.00004C9.33385 1.63185 9.63233 1.33337 10.0005 1.33337C10.3687 1.33337 10.6672 1.63185 10.6672 2.00004ZM3.33393 4.00002C3.70212 4.00002 4.00059 3.70154 4.00059 3.33335C4.00059 2.96516 3.70212 2.66669 3.33393 2.66669C2.96574 2.66669 2.66726 2.96516 2.66726 3.33335C2.66726 3.70154 2.96574 4.00002 3.33393 4.00002ZM6.66705 3.33335C6.66705 3.70154 6.36857 4.00002 6.00038 4.00002C5.63219 4.00002 5.33372 3.70154 5.33372 3.33335C5.33372 2.96516 5.63219 2.66669 6.00038 2.66669C6.36857 2.66669 6.66705 2.96516 6.66705 3.33335ZM8.66684 4.00002C9.03503 4.00002 9.33351 3.70154 9.33351 3.33335C9.33351 2.96516 9.03503 2.66669 8.66684 2.66669C8.29865 2.66669 8.00018 2.96516 8.00018 3.33335C8.00018 3.70154 8.29865 4.00002 8.66684 4.00002ZM10.6672 4.66667C10.6672 5.03486 10.3687 5.33333 10.0005 5.33333C9.63233 5.33333 9.33385 5.03486 9.33385 4.66667C9.33385 4.29848 9.63233 4 10.0005 4C10.3687 4 10.6672 4.29848 10.6672 4.66667ZM7.33384 5.33333C7.70203 5.33333 8.0005 5.03486 8.0005 4.66667C8.0005 4.29848 7.70203 4 7.33384 4C6.96565 4 6.66717 4.29848 6.66717 4.66667C6.66717 5.03486 6.96565 5.33333 7.33384 5.33333ZM5.3336 4.66667C5.3336 5.03486 5.03512 5.33333 4.66693 5.33333C4.29874 5.33333 4.00027 5.03486 4.00027 4.66667C4.00027 4.29848 4.29874 4 4.66693 4C5.03512 4 5.3336 4.29848 5.3336 4.66667ZM2.00047 5.33333C2.36866 5.33333 2.66714 5.03486 2.66714 4.66667C2.66714 4.29848 2.36866 4 2.00047 4C1.63228 4 1.33381 4.29848 1.33381 4.66667C1.33381 5.03486 1.63228 5.33333 2.00047 5.33333ZM4.00059 6.00004C4.00059 6.36823 3.70212 6.6667 3.33393 6.6667C2.96574 6.6667 2.66726 6.36823 2.66726 6.00004C2.66726 5.63185 2.96574 5.33337 3.33393 5.33337C3.70212 5.33337 4.00059 5.63185 4.00059 6.00004ZM6.00038 6.6667C6.36857 6.6667 6.66705 6.36823 6.66705 6.00004C6.66705 5.63185 6.36857 5.33337 6.00038 5.33337C5.63219 5.33337 5.33372 5.63185 5.33372 6.00004C5.33372 6.36823 5.63219 6.6667 6.00038 6.6667ZM9.33351 6.00004C9.33351 6.36823 9.03503 6.6667 8.66684 6.6667C8.29865 6.6667 8.00018 6.36823 8.00018 6.00004C8.00018 5.63185 8.29865 5.33337 8.66684 5.33337C9.03503 5.33337 9.33351 5.63185 9.33351 6.00004ZM10.0005 8.00002C10.3687 8.00002 10.6672 7.70154 10.6672 7.33335C10.6672 6.96516 10.3687 6.66668 10.0005 6.66668C9.63233 6.66668 9.33385 6.96516 9.33385 7.33335C9.33385 7.70154 9.63233 8.00002 10.0005 8.00002ZM8.0005 7.33335C8.0005 7.70154 7.70203 8.00002 7.33384 8.00002C6.96565 8.00002 6.66717 7.70154 6.66717 7.33335C6.66717 6.96516 6.96565 6.66668 7.33384 6.66668C7.70203 6.66668 8.0005 6.96516 8.0005 7.33335ZM4.66693 8.00002C5.03512 8.00002 5.3336 7.70154 5.3336 7.33335C5.3336 6.96516 5.03512 6.66668 4.66693 6.66668C4.29874 6.66668 4.00027 6.96516 4.00027 7.33335C4.00027 7.70154 4.29874 8.00002 4.66693 8.00002ZM2.66714 7.33335C2.66714 7.70154 2.36866 8.00002 2.00047 8.00002C1.63228 8.00002 1.33381 7.70154 1.33381 7.33335C1.33381 6.96516 1.63228 6.66668 2.00047 6.66668C2.36866 6.66668 2.66714 6.96516 2.66714 7.33335Z" fill="url(#paint0_linear)"/>
</g>
</g>
</svg>
