<svg xmlns="http://www.w3.org/2000/svg" width="67" height="20" fill="none" viewBox="0 0 67 20">
    <path fill="#6001D2" d="M3.907 0v8.744H4c.093-.279.28-.465.465-.744.186-.28.465-.465.744-.651.28-.186.651-.372 1.024-.465.372-.093.744-.186 1.209-.186 1.023 0 1.767.186 2.418.465.559.279 1.117.744 1.396 1.21.372.557.558 1.208.651 1.86.093.744.186 1.488.186 2.325v6.977H8.279v-6.14-1.116c0-.372-.093-.744-.279-1.116-.093-.372-.372-.558-.558-.837-.28-.187-.651-.28-1.116-.28-.466 0-.93.094-1.21.28-.279.186-.558.465-.744.744-.186.279-.279.65-.279 1.023C4 12.465 4 12.837 4 13.303v6.232H0V0h3.907zM13.21 13.302c0-1.023.185-1.953.557-2.697.373-.838.838-1.489 1.489-2.047.558-.651 1.302-1.116 2.232-1.395.838-.28 1.768-.465 2.698-.465.93 0 1.86.186 2.698.465.93.279 1.674.744 2.232 1.302.651.558 1.117 1.302 1.489 2.047.372.837.558 1.674.558 2.697 0 1.024-.186 1.954-.558 2.698-.372.837-.838 1.488-1.489 2.046-.65.559-1.395 1.024-2.232 1.303-.837.279-1.768.465-2.698.465-.93 0-1.86-.186-2.698-.465-.837-.28-1.581-.744-2.232-1.303-.651-.558-1.116-1.302-1.489-2.046-.372-.651-.558-1.581-.558-2.605zm3.906 0c0 .93.28 1.675.837 2.326.559.558 1.303.837 2.326.837 1.023 0 1.768-.279 2.326-.837.558-.558.837-1.395.837-2.326 0-.93-.28-1.674-.837-2.325-.558-.558-1.303-.838-2.326-.838-1.023 0-1.767.28-2.326.838-.558.65-.837 1.395-.837 2.325zM40.372 19.628h-3.72v-1.675h-.094c-.093.28-.279.466-.558.745-.186.279-.465.465-.837.65-.28.187-.651.373-1.023.466-.372.093-.838.186-1.303.186-1.023 0-1.767-.186-2.418-.465-.651-.28-1.117-.744-1.396-1.302-.372-.559-.558-1.21-.65-1.86-.094-.745-.187-1.49-.187-2.327v-7.07h3.907v7.257c0 .372.093.744.28 1.116.092.372.371.558.557.837.28.186.651.28 1.117.28.465 0 .93-.094 1.209-.28.279-.186.558-.465.744-.744.186-.28.28-.651.28-1.023.092-.373.092-.745.092-1.21V6.977h3.907v12.65h.093zM65.954 17.395c-.651.838-1.396 1.396-2.326 1.86-.93.466-1.953.652-2.977.652-.93 0-1.86-.186-2.697-.465-.838-.28-1.582-.744-2.233-1.302-.651-.559-1.116-1.303-1.488-2.047-.372-.837-.558-1.674-.558-2.698 0-4.279 3.255-6.604 6.604-6.604 6.047 0 6.326 5.581 6.326 6.604v1.21H57.58c.187.744.466 1.302 1.024 1.767.558.465 1.116.651 1.953.651.651 0 1.21-.186 1.582-.465.465-.279.837-.651 1.116-1.116l2.698 1.953zm-3.256-5.488c0-.651-.186-1.21-.651-1.674-.465-.466-1.024-.745-1.768-.745-.465 0-.837.093-1.116.186-.372.093-.651.28-.837.559-.28.186-.372.465-.558.744-.093.279-.187.558-.187.93h5.117zM48.093 16.465h-2.046l6.883-5.767V6.977H42.047v3.162h6.325l-6.511 5.582v3.907h6.232v-3.163zM53.023 16.465h-3.07v3.07h3.07v-3.07z"/>
</svg>
