<svg xmlns="http://www.w3.org/2000/svg" width="91" height="82" fill="none" viewBox="0 0 91 82">
    <defs>
        <linearGradient id="paint0_linear" x1="45" x2="45" y1="26.666" y2="76.666" gradientUnits="userSpaceOnUse">
            <stop stop-color="#725EF6"/>
            <stop offset="1" stop-color="#6001D1"/>
        </linearGradient>
        <linearGradient id="paint1_linear" x1="74" x2="73.5" y1="48" y2="82" gradientUnits="userSpaceOnUse">
            <stop stop-color="#0EC2B2"/>
            <stop offset="1" stop-color="#D7FFED"/>
        </linearGradient>
    </defs>

    <path fill="#DAC0FF" d="M5.827 32.02c-.517-.299-1.155-.297-1.667.004l-.86.499C.15 34.36-.937 38.446.883 41.625l2.67 4.67c.3.528.86.839 1.445.839.143 0 .287-.018.43-.056.73-.195 1.237-.857 1.237-1.613V33.467c0-.597-.32-1.15-.837-1.448zM25.269 23.303h42.357c.596 0 1.143-.316 1.442-.831.3-.515.3-1.15.003-1.667L60.96 6.615c-1.755-3.07-5.984-4.22-9.05-2.44l-27.48 16.017c-.651.38-.967 1.149-.768 1.877.195.729.856 1.234 1.608 1.234z"/>
    <path fill="url(#paint0_linear)" d="M73.333 26.666H16.667c-3.675 0-6.667 2.99-6.667 6.667v36.666c0 3.677 2.992 6.667 6.667 6.667h56.666c3.675 0 6.667-2.99 6.667-6.667V33.333c0-3.677-2.992-6.667-6.667-6.667zM30.001 40.028c3.676 0 6.667 2.992 6.667 6.672 0 3.68-2.992 6.671-6.667 6.671s-6.667-2.992-6.667-6.672c0-3.68 2.992-6.671 6.667-6.671zm13.334 23.455c0 1.782-1.494 3.232-3.333 3.232H20c-1.84 0-3.334-1.45-3.334-3.232v-.762c0-2.219 1.293-4.22 3.376-5.224 2.33-1.12 5.948-2.458 9.958-2.458s7.628 1.337 9.958 2.458c2.084 1.003 3.376 3.005 3.376 5.224v.762zm28.332-3.484H51.666c-.921 0-1.667-.745-1.667-1.666 0-.922.745-1.667 1.667-1.667h20c.922 0 1.667.745 1.667 1.667 0 .92-.745 1.666-1.666 1.666zm.003-10H45.002c-.921 0-1.667-.745-1.667-1.666 0-.922.746-1.667 1.667-1.667H71.67c.92 0 1.666.745 1.666 1.667 0 .92-.745 1.666-1.666 1.666z"/>
    <path fill="url(#paint1_linear)" d="M73.5 82C83.165 82 91 74.165 91 64.5S83.165 47 73.5 47 56 54.835 56 64.5 63.835 82 73.5 82z" style="mix-blend-mode:multiply"/>
    <path fill="#23C99D" fill-rule="evenodd" d="M82.87 68.68c-.662 1.793-1.662 3.351-2.973 4.632-1.493 1.458-3.448 2.616-5.81 3.442-.078.027-.16.05-.24.066-.108.021-.217.033-.325.034H73.5c-.115 0-.231-.011-.346-.034-.081-.016-.161-.038-.238-.065-2.366-.825-4.323-1.983-5.817-3.44-1.313-1.281-2.313-2.839-2.973-4.631-1.2-3.259-1.132-6.849-1.077-9.733v-.045c.012-.238.019-.488.023-.765.02-1.356 1.098-2.479 2.455-2.554 2.83-.158 5.017-1.08 6.887-2.903l.017-.015c.31-.285.701-.425 1.09-.419.376.005.75.145 1.05.419l.015.015c1.87 1.822 4.059 2.745 6.888 2.903 1.357.075 2.435 1.198 2.455 2.554.004.279.011.528.022.765l.001.019c.055 2.89.123 6.487-1.082 9.755z" clip-rule="evenodd"/>
    <path fill="#23C99D" fill-rule="evenodd" d="M82.87 68.68c-.662 1.793-1.662 3.351-2.973 4.632-1.493 1.458-3.448 2.616-5.81 3.442-.078.027-.16.05-.24.066-.108.021-.217.032-.325.034V52.25c.375.005.749.144 1.048.419l.016.015c1.87 1.822 4.059 2.745 6.888 2.903 1.357.075 2.435 1.198 2.455 2.554.004.278.011.528.022.765l.001.019c.055 2.89.123 6.487-1.082 9.755z" clip-rule="evenodd"/>
    <path fill="#fff" fill-rule="evenodd" d="M79.632 64.552c0 3.374-2.74 6.12-6.11 6.132H73.5c-3.381 0-6.132-2.751-6.132-6.132s2.751-6.132 6.132-6.132h.022c3.37.012 6.11 2.758 6.11 6.132z" clip-rule="evenodd"/>
    <path fill="#23C99D" fill-rule="evenodd" d="M76.283 63.669l-2.761 2.762-.597.597c-.141.14-.326.211-.51.211-.186 0-.37-.07-.512-.211l-1.282-1.284c-.282-.282-.282-.739 0-1.02.281-.283.738-.283 1.02 0l.773.772 2.848-2.848c.282-.282.74-.282 1.021 0 .282.282.282.74 0 1.02z" clip-rule="evenodd"/>
</svg>
