<svg xmlns="http://www.w3.org/2000/svg" width="80" height="80" fill="none" viewBox="0 0 80 80">
    <defs>
        <linearGradient id="paint0_linear" x1="40" x2="40" y1="0" y2="80" gradientUnits="userSpaceOnUse">
            <stop stop-color="#FAF6FF"/>
            <stop offset="1" stop-color="#DEC7FF"/>
        </linearGradient>
        <linearGradient id="paint1_linear" x1="37.76" x2="37.76" y1="14" y2="66.692" gradientUnits="userSpaceOnUse">
            <stop stop-color="#725EF6"/>
            <stop offset="1" stop-color="#6001D1"/>
        </linearGradient>
        <linearGradient id="paint2_linear" x1="32.56" x2="32.56" y1="14" y2="66.692" gradientUnits="userSpaceOnUse">
            <stop stop-color="#725EF6"/>
            <stop offset="1" stop-color="#6001D1"/>
        </linearGradient>
    </defs>
    <rect width="80" height="80" fill="url(#paint0_linear)" rx="20"/>
    <path fill="#5B00E4" d="M57.52 14H20.08c-1.149 0-2.08.944-2.08 2.108v48.476c0 1.164.931 2.108 2.08 2.108h37.44c1.149 0 2.08-.944 2.08-2.108V16.108c0-1.164-.931-2.108-2.08-2.108z"/>
    <path fill="url(#paint1_linear)" d="M55.44 14H20.08c-1.149 0-2.08.944-2.08 2.108v48.476c0 1.164.931 2.108 2.08 2.108h35.36c1.149 0 2.08-.944 2.08-2.108V16.108c0-1.164-.931-2.108-2.08-2.108z"/>
    <path fill="#5B00E4" d="M47.12 14H20.08c-1.149 0-2.08.944-2.08 2.108v48.476c0 1.164.931 2.108 2.08 2.108h27.04c1.149 0 2.08-.944 2.08-2.108V16.108c0-1.164-.931-2.108-2.08-2.108z"/>
    <path fill="url(#paint2_linear)" d="M45.04 14H20.08c-1.149 0-2.08.944-2.08 2.108v48.476c0 1.164.931 2.108 2.08 2.108h24.96c1.149 0 2.08-.944 2.08-2.108V16.108c0-1.164-.931-2.108-2.08-2.108z"/>
    <path fill="#fff" d="M49.2 17.161h4.16c.276 0 .54.111.736.309.195.198.304.466.304.745v44.261c0 .28-.11.548-.304.745-.195.198-.46.309-.736.309H49.2V17.161zM32.56 39.292c5.744 0 10.4-4.718 10.4-10.538s-4.656-10.539-10.4-10.539c-5.744 0-10.4 4.718-10.4 10.539 0 5.82 4.656 10.538 10.4 10.538z"/>
    <path fill="#DAC0FF" d="M34.64 33.145h-.52V27.7c0-.42-.164-.821-.457-1.118-.292-.296-.69-.463-1.103-.463h-2.08c-.414 0-.81.167-1.103.463-.293.297-.457.699-.457 1.118 0 .42.164.821.457 1.118.292.296.69.463 1.103.463H31v3.864h-.52c-.414 0-.81.166-1.103.463-.293.296-.457.698-.457 1.117 0 .42.164.822.457 1.118.292.297.69.463 1.103.463h4.16c.414 0 .81-.166 1.103-.463.293-.296.457-.698.457-1.118 0-.419-.164-.82-.457-1.117-.293-.297-.69-.463-1.103-.463zM32.56 25.24c1.15 0 2.08-.943 2.08-2.107 0-1.164-.93-2.108-2.08-2.108-1.148 0-2.08.944-2.08 2.108 0 1.164.932 2.108 2.08 2.108z"/>
</svg>
