<svg xmlns="http://www.w3.org/2000/svg" width="80" height="80" fill="none" viewBox="0 0 80 80">
    <defs>
        <linearGradient id="paint0_linear" x1="40" x2="40" y1="0" y2="80" gradientUnits="userSpaceOnUse">
            <stop stop-color="#FAF6FF"/>
            <stop offset="1" stop-color="#DEC7FF"/>
        </linearGradient>
        <linearGradient id="paint1_linear" x1="40" x2="40" y1="48.32" y2="61.759" gradientUnits="userSpaceOnUse">
            <stop stop-color="#725EF6"/>
            <stop offset="1" stop-color="#6001D1"/>
        </linearGradient>
    </defs>
    <rect width="80" height="80" fill="url(#paint0_linear)" rx="20"/>
    <path fill="#fff" d="M47 20c0-1.105.895-2 2-2h16c1.105 0 2 .895 2 2v16.266c0 1.105-.895 2-2 2H49c-1.105 0-2-.895-2-2V20zM54.832 38.55h4.056v32.879h-4.056v-32.88z"/>
    <path fill="#DAC0FF" d="M54.272 35.502c-.502 0-.909-.412-.909-.92V21.684c0-.509.407-.921.91-.921h3.593c.971-.004 1.905.382 2.596 1.074 1.423 1.412 1.447 3.726.053 5.167l-.053.054c-.691.691-1.625 1.078-2.596 1.074h-2.684v6.448c0 .509-.408.921-.91.921zm.91-9.211h2.684c.493-.001.967-.197 1.32-.546.708-.698.722-1.844.033-2.56l-.032-.034c-.354-.349-.828-.544-1.321-.545h-2.684v3.685z"/>
    <path fill="#5B00E4" d="M52.682 36H27.318c-2.097 0-3.906 1.494-4.33 3.576l-1.908 9.389h37.84l-1.909-9.389C56.588 37.494 54.78 36 52.681 36z"/>
    <path fill="#fff" d="M50.7 38.24H29.214c-1.777 0-3.309 1.152-3.668 2.756l-1.616 7.237h32.052l-1.617-7.236c-.358-1.605-1.89-2.757-3.667-2.757z"/>
    <path fill="url(#paint1_linear)" d="M59.895 61.76h-39.79v-11.2c0-1.238.99-2.24 2.211-2.24h35.368c1.221 0 2.21 1.002 2.21 2.24v11.2z"/>
    <path fill="#000" d="M21.206 65.066h6.62v6.708h-6.62v-6.708zM52.098 65.066h6.62v6.708h-6.62v-6.708z"/>
    <path fill="#5B00E4" d="M19 61.76h42v4.48H19v-4.48z"/>
    <path fill="#F2E8FF" d="M25.631 56.16c1.221 0 2.211-1.003 2.211-2.24 0-1.238-.99-2.24-2.21-2.24-1.221 0-2.211 1.002-2.211 2.24 0 1.237.99 2.24 2.21 2.24zM54.369 56.16c1.22 0 2.21-1.003 2.21-2.24 0-1.238-.99-2.24-2.21-2.24-1.221 0-2.21 1.002-2.21 2.24 0 1.237.989 2.24 2.21 2.24z"/>
</svg>
