<?xml version="1.0" encoding="utf-8"?>
<!-- Generator: Adobe Illustrator 23.0.1, SVG Export Plug-In . SVG Version: 6.00 Build 0)  -->
<svg version="1.1" id="Layer_1" xmlns="http://www.w3.org/2000/svg" xmlns:xlink="http://www.w3.org/1999/xlink" x="0px" y="0px"
	 width="28px" height="28px" viewBox="0 0 28 28" enable-background="new 0 0 28 28" xml:space="preserve">
<linearGradient id="SVGID_1_" gradientUnits="userSpaceOnUse" x1="14" y1="30" x2="14" y2="2" gradientTransform="matrix(1 0 0 -1 0 30)">
	<stop  offset="0" style="stop-color:#725EF6"/>
	<stop  offset="1" style="stop-color:#6001D1"/>
</linearGradient>
<path fill="url(#SVGID_1_)" d="M14,0L14,0c7.7,0,14,6.3,14,14l0,0c0,7.7-6.3,14-14,14l0,0C6.3,28,0,21.7,0,14l0,0C0,6.3,6.3,0,14,0z
	"/>
<path fill="#FFFFFF" d="M4.4,7h19.2v14H4.4V7z"/>
<path fill="#FFFFFF" d="M14,15.8L5.2,7.7h18.2L14,15.8z"/>
<path fill-rule="evenodd" clip-rule="evenodd" fill="#6001D2" d="M23.4,19.8c-2.1-1.9-4.2-3.8-6.3-5.7l6.3-5.6V19.8z M22.4,20.5H14
	v0H5.4l6.3-5.7c0.7,0.6,1.3,1.2,2,1.8c0.1,0.1,0.2,0.2,0.4,0.2v0c0.1,0,0.2-0.1,0.3-0.2c0.7-0.6,1.3-1.2,2-1.8l6.3,5.7L22.4,20.5
	L22.4,20.5z M4.6,8.5l6.3,5.6l-6.3,5.7V8.5z M14,7.9L14,7.9l8.6,0c-2.9,2.6-5.7,5.1-8.6,7.6v0L5.4,7.9H14L14,7.9z M24.5,7.5
	c0-0.2-0.1-0.4-0.2-0.5c-0.1-0.1-0.3-0.2-0.4-0.2c-0.6,0-1.2,0-1.9,0H14v0H6c-0.6,0-1.2,0-1.9,0C4,6.8,3.8,6.9,3.7,7
	C3.6,7.1,3.5,7.3,3.5,7.5c0,4.4,0,8.8,0,13.3c0,0.6,0.3,0.8,0.7,0.8c3.3,0,6.5,0,9.8,0v0c3.2,0,6.5,0,9.7,0c0.4,0,0.7-0.2,0.7-0.8
	C24.5,16.3,24.5,11.9,24.5,7.5z"/>
</svg>
