<?xml version="1.0" encoding="utf-8"?>
<!-- Generator: Adobe Illustrator 23.0.1, SVG Export Plug-In . SVG Version: 6.00 Build 0)  -->
<svg version="1.1" id="Layer_1" xmlns="http://www.w3.org/2000/svg" xmlns:xlink="http://www.w3.org/1999/xlink" x="0px" y="0px"
	 width="28px" height="28px" viewBox="0 0 28 28" enable-background="new 0 0 28 28" xml:space="preserve">
<linearGradient id="SVGID_1_" gradientUnits="userSpaceOnUse" x1="14" y1="30" x2="14" y2="2" gradientTransform="matrix(1 0 0 -1 0 30)">
	<stop  offset="0" style="stop-color:#725EF6"/>
	<stop  offset="1" style="stop-color:#6001D1"/>
</linearGradient>
<circle fill="url(#SVGID_1_)" cx="14" cy="14" r="14"/>
<circle fill="#FFFFFF" cx="14.3" cy="9.1" r="3.4"/>
<path fill="#FFFFFF" d="M7.1,18.5c-0.3-2.1,4.7-3.4,7.2-3.8c3.9,0.3,6.4,2.4,7.2,3.4c-1.8,3.3-5.6,4.2-7.2,4.2
	C9.7,22.3,7.6,19.8,7.1,18.5z"/>
<path fill-rule="evenodd" clip-rule="evenodd" fill="#6001D2" d="M14.1,6.1c-1.7,0-3,1.3-3,3s1.3,3,3,3s3-1.3,3-3S15.7,6.1,14.1,6.1
	z M9.9,9.1c0-2.3,1.9-4.2,4.2-4.2c2.3,0,4.2,1.9,4.2,4.2c0,2.3-1.9,4.2-4.2,4.2C11.8,13.3,9.9,11.4,9.9,9.1z M7.5,18.5
	c1.5,2.1,3.9,3.4,6.6,3.4c2.7,0,5.1-1.4,6.6-3.4c-0.1-0.3-0.2-0.7-0.6-1c-0.4-0.4-1-0.7-1.7-1c-1.4-0.6-3.1-0.9-4.2-0.9
	c-1.1,0-2.8,0.3-4.2,0.9c-0.7,0.3-1.3,0.6-1.7,1C7.8,17.8,7.6,18.2,7.5,18.5z M9.4,15.4c1.6-0.7,3.4-1,4.7-1c1.3,0,3.1,0.3,4.7,1
	c0.8,0.3,1.5,0.7,2.1,1.3c0.6,0.5,1,1.2,1,2l0,0.2L21.8,19c-1.6,2.5-4.5,4.1-7.7,4.1c-3.2,0-6-1.6-7.7-4.1l-0.1-0.2l0-0.2
	c0-0.8,0.4-1.5,1-2C7.9,16.1,8.6,15.7,9.4,15.4L9.4,15.4z"/>
</svg>
