<svg xmlns="http://www.w3.org/2000/svg" width="40" height="40" fill="none" viewBox="0 0 40 40">
    <defs>
        <linearGradient id="paint0_linear" x1="20" x2="20" y1="0" y2="40" gradientUnits="userSpaceOnUse">
            <stop stop-color="#FAF6FF"/>
            <stop offset="1" stop-color="#DEC7FF"/>
        </linearGradient>
        <linearGradient id="paint1_linear" x1="20" x2="20" y1="13.938" y2="25.69" gradientUnits="userSpaceOnUse">
            <stop stop-color="#725EF6"/>
            <stop offset="1" stop-color="#6001D1"/>
        </linearGradient>
        <linearGradient id="paint2_linear" x1="31.062" x2="31.062" y1="13.938" y2="25.69" gradientUnits="userSpaceOnUse">
            <stop stop-color="#725EF6"/>
            <stop offset="1" stop-color="#6001D1"/>
        </linearGradient>
    </defs>
    <rect width="40" height="40" fill="url(#paint0_linear)" rx="20"/>
    <path fill="#fff" d="M33.59 30.062h-4.92c-.108 0-.213-.043-.29-.12l-.256-.256-.257.256c-.077.077-.181.12-.29.12H6.41c-.226 0-.41-.183-.41-.41V18.72c0-.226.184-.41.41-.41h21.167c.11 0 .213.044.29.12l.257.257.257-.257c.076-.076.18-.12.29-.12h4.919c.226 0 .41.184.41.41v10.933c0 .226-.184.41-.41.41z"/>
    <path fill="#fff" d="M33.59 18.31h-4.92c-.108 0-.212.044-.29.12l-.256.257v10.999l.257.256c.077.077.18.12.29.12h4.92c.225 0 .409-.183.409-.41V18.72c0-.226-.184-.41-.41-.41z"/>
    <path fill="url(#paint1_linear)" d="M33.59 25.69h-4.92c-.108 0-.213-.044-.29-.12l-.256-.257-.257.257c-.077.076-.181.12-.29.12H6.41c-.226 0-.41-.184-.41-.41V14.347c0-.226.184-.41.41-.41h21.167c.11 0 .213.044.29.12l.257.257.257-.256c.076-.077.18-.12.29-.12h4.919c.226 0 .41.183.41.41V25.28c0 .226-.184.41-.41.41z"/>
    <path fill="url(#paint2_linear)" d="M33.59 13.938h-4.92c-.108 0-.212.043-.29.12l-.256.256v10.999l.257.257c.077.076.18.12.29.12h4.92c.225 0 .409-.184.409-.41V14.347c0-.226-.184-.41-.41-.41z"/>
    <path fill="#F2E8FF" d="M28.124 23.503c-.226 0-.41-.183-.41-.41V22c0-.227.184-.41.41-.41.226 0 .41.183.41.41v1.093c0 .227-.184.41-.41.41zM28.124 20.77c-.226 0-.41-.183-.41-.41v-1.093c0-.226.184-.41.41-.41.226 0 .41.184.41.41v1.093c0 .227-.184.41-.41.41zM28.124 18.037c-.226 0-.41-.183-.41-.41v-1.093c0-.226.184-.41.41-.41.226 0 .41.184.41.41v1.093c0 .227-.184.41-.41.41z"/>
    <path fill="#DAC0FF" d="M31.404 23.503c-.227 0-.41-.183-.41-.41v-6.559c0-.226.183-.41.41-.41.226 0 .41.184.41.41v6.56c0 .226-.184.41-.41.41z"/>
    <path fill="#F2E8FF" d="M9.69 19.404c-.83 0-1.503-.675-1.503-1.503 0-.83.674-1.504 1.503-1.504.829 0 1.503.675 1.503 1.504 0 .828-.675 1.503-1.503 1.503zm0-2.187c-.377 0-.684.307-.684.684 0 .376.307.683.684.683.377 0 .683-.307.683-.683 0-.377-.306-.684-.683-.684zM13.516 23.23c-.83 0-1.503-.675-1.503-1.503 0-.83.674-1.503 1.503-1.503.829 0 1.503.674 1.503 1.503 0 .828-.674 1.503-1.503 1.503zm0-2.187c-.377 0-.684.307-.684.684 0 .376.307.683.684.683.377 0 .683-.307.683-.683 0-.377-.306-.684-.683-.684zM8.596 23.23c-.104 0-.21-.04-.29-.12-.16-.16-.16-.42 0-.58l6.013-6.013c.16-.16.42-.16.58 0 .16.16.16.42 0 .58L8.886 23.11c-.08.08-.185.12-.29.12z"/>
    <path fill="#DAC0FF" d="M15.16 27.46H8.41c-.227 0-.41-.184-.41-.41 0-.227.183-.41.41-.41h6.75c.227 0 .41.183.41.41 0 .226-.183.41-.41.41zM32.16 27.46h-6.75c-.227 0-.41-.184-.41-.41 0-.227.183-.41.41-.41h6.75c.227 0 .41.183.41.41 0 .226-.183.41-.41.41zM11.88 29.1H8.41c-.227 0-.41-.184-.41-.41 0-.227.183-.41.41-.41h3.47c.227 0 .41.183.41.41 0 .226-.183.41-.41.41z"/>
</svg>
