<svg xmlns="http://www.w3.org/2000/svg" width="170" height="57" fill="none" viewBox="0 0 170 57">
<defs>
        <linearGradient id="paint0_linear" x1="152.5" x2="152.5" y1="0" y2="35" gradientUnits="userSpaceOnUse">
            <stop stop-color="#FAF6FF"/>
            <stop offset="1" stop-color="#DEC7FF"/>
        </linearGradient>
        <linearGradient id="paint1_linear" x1="152.5" x2="152.5" y1="11.095" y2="28.875" gradientUnits="userSpaceOnUse">
            <stop stop-color="#725EF6"/>
            <stop offset="1" stop-color="#6001D1"/>
        </linearGradient>
        <linearGradient id="paint2_linear" x1="152.5" x2="152.5" y1="20.245" y2="28.875" gradientUnits="userSpaceOnUse">
            <stop stop-color="#725EF6"/>
            <stop offset="1" stop-color="#6001D1"/>
        </linearGradient>
        <linearGradient id="paint3_linear" x1="30.243" x2="30.243" y1="9.445" y2="29.954" gradientUnits="userSpaceOnUse">
            <stop stop-color="#725EF6"/>
            <stop offset="1" stop-color="#6001D1"/>
        </linearGradient>
        <clipPath id="clip0">
            <path fill="#fff" d="M0 0H22.75V22.75H0z" transform="translate(141.125 6.125)"/>
        </clipPath>
    </defs>
    <rect width="35" height="35" x="135" fill="url(#paint0_linear)" rx="17.5"/>
    <g clip-path="url(#clip0)">
        <path fill="url(#paint1_linear)" d="M163.844 13.993c-.051-.173-.159-.323-.306-.427l-3.585-2.471h-14.906l-3.585 2.47c-.147.105-.255.255-.306.428-.02.072-.03.146-.031.22v13.878c-.001.168.054.333.157.466.146.2.38.318.628.318h21.181c.247 0 .481-.118.627-.318.103-.133.159-.298.157-.466V14.213c0-.074-.011-.148-.031-.22z"/>
        <path fill="#5B00E4" d="M163.844 13.993l-3.891 2.954v-5.852l3.585 2.47c.147.105.255.255.306.428zM145.047 11.095v5.852l-3.891-2.954c.051-.173.159-.323.306-.427l3.585-2.471z"/>
        <path fill="url(#paint2_linear)" d="M163.718 28.557c-.147.2-.38.318-.628.318h-21.181c-.248 0-.481-.118-.627-.318l9.535-7.233 1.208-.918c.28-.215.67-.215.949 0l1.209.918 9.535 7.233z"/>
        <path fill="#fff" d="M159.953 6.517v10.43l-5.77 4.377-1.208-.918c-.28-.215-.67-.215-.95 0l-1.208.918-5.77-4.377V6.517c0-.216.176-.392.393-.392h14.12c.217 0 .393.176.393.392z"/>
        <path fill="#23C99D" d="M151.178 16.312l-2.371-2.488-.807.841L151.178 18 158 10.841l-.802-.841-6.02 6.312z"/>
    </g>
    <path fill="#fff" d="M16.945 28.166c.232-.07.474-.108.718-.108.507 0 1.018.159 1.455.488.923.694 1.229 1.943.733 2.985l-3.543 7.442.21 1.648c.065.495.096.991.096 1.486 0 1.835-.434 3.65-1.275 5.296l.32 8.252c.029.734-.558 1.345-1.292 1.345H3.99c-.729 0-1.314-.603-1.293-1.333l.277-9.395-1.233-2.404c-2.735-5.33-2.217-11.752 1.336-16.574l3.882-5.268 3.86-5.227 6.126 11.367z"/>
    <path fill="#F2E8FF" d="M6.7 55.667l.277-9.395-1.234-2.404C3.01 38.538 3.526 32.116 7.08 27.294l3.882-5.268 1.545-2.094L10.82 16.8l-3.86 5.227-3.882 5.268c-3.553 4.822-4.07 11.243-1.336 16.574l1.233 2.404-.277 9.395c-.021.73-.452 1.333.277 1.333h5.019c-.73 0-1.315-.603-1.293-1.333z"/>
    <path fill="#5B00E4" d="M57 3.75v31.105c0 2.071-1.678 3.75-3.746 3.75H10.97l-1.81-.334c-1.298-.59-2.2-1.897-2.2-3.416V3.75C6.96 1.679 8.638 0 10.706 0h42.548C55.323 0 57 1.678 57 3.75z"/>
    <path fill="#7A1DFF" d="M14.098 36.145V1.8c0-.645.134-1.255.372-1.8h-3.764C8.638 0 6.96 1.68 6.96 3.75v31.105c0 1.519.902 2.827 2.2 3.416l1.81.334h3.862c-.46-.688-.734-1.538-.734-2.46z"/>
    <path fill="#fff" d="M48.967 3.75v31.105c0 .172-.139.31-.31.31H10.704c-.17 0-.31-.138-.31-.31V3.75c0-.172.14-.311.31-.311h37.951c.172 0 .31.139.31.31z"/>
    <path fill="#DAC0FF" d="M20.494 26.712c-.823-.62-1.802-.947-2.83-.947-.47 0-.937.07-1.397.21-.294.092-.575.21-.841.353-.6.323-1.328-.125-1.328-.807V3.44h-3.393c-.17 0-.31.139-.31.31v31.105c0 .172.14.31.31.31h9.953l1.261-2.648c.96-2.019.362-4.46-1.425-5.805z"/>
    <path fill="#fff" d="M52.956 21.258c-.474 0-.859-.385-.859-.86V17.86c0-.475.385-.86.859-.86s.859.385.859.86v2.538c0 .475-.385.86-.859.86zM19.118 28.546c-.437-.329-.948-.487-1.455-.487-.244 0-.486.037-.718.108-.491.152-.94.46-1.26.914L7.813 40.167l-2.117 2.565 3.383 7.724h6.378l-.119-3.052c.84-1.646 1.275-3.462 1.275-5.296 0-.495-.031-.992-.095-1.486l-.21-1.648 3.542-7.442c.496-1.042.19-2.29-.733-2.986z"/>
    <path fill="url(#paint3_linear)" d="M30.243 29.954c5.657 0 10.243-4.59 10.243-10.254S35.9 9.445 30.243 9.445 20 14.036 20 19.7c0 5.663 4.586 10.254 10.243 10.254z"/>
    <path fill="#F9F7F8" d="M26.811 23.903v-8.407c0-1.195 1.34-1.899 2.321-1.22l6.082 4.204c.853.589.853 1.85 0 2.439l-6.082 4.203c-.982.679-2.321-.025-2.321-1.22z"/>
    <path stroke="#fff" stroke-dasharray="4 4" stroke-linecap="round" d="M58.5 18.5H133"/>
</svg>
