<?xml version="1.0" encoding="utf-8"?>
<!-- Generator: Adobe Illustrator 23.0.1, SVG Export Plug-In . SVG Version: 6.00 Build 0)  -->
<svg version="1.1" id="Layer_1" xmlns="http://www.w3.org/2000/svg" xmlns:xlink="http://www.w3.org/1999/xlink" x="0px" y="0px"
	 width="80px" height="80px" viewBox="0 0 80 80" enable-background="new 0 0 80 80" xml:space="preserve">
<linearGradient id="SVGID_1_" gradientUnits="userSpaceOnUse" x1="40" y1="82" x2="40" y2="2" gradientTransform="matrix(1 0 0 -1 0 82)">
	<stop  offset="0" style="stop-color:#FAF6FF"/>
	<stop  offset="1" style="stop-color:#DEC7FF"/>
</linearGradient>
<path fill="url(#SVGID_1_)" d="M20,0h40c11,0,20,9,20,20v40c0,11-9,20-20,20H20C9,80,0,71,0,60V20C0,9,9,0,20,0z"/>
<g>
	<defs>
		<rect id="SVGID_2_" x="14" y="14" width="52" height="52"/>
	</defs>
	<clipPath id="SVGID_3_">
		<use xlink:href="#SVGID_2_"  overflow="visible"/>
	</clipPath>
	<g clip-path="url(#SVGID_3_)">
		
			<linearGradient id="SVGID_4_" gradientUnits="userSpaceOnUse" x1="40.001" y1="56.641" x2="40.001" y2="16" gradientTransform="matrix(1 0 0 -1 0 82)">
			<stop  offset="0" style="stop-color:#725EF6"/>
			<stop  offset="1" style="stop-color:#6001D1"/>
		</linearGradient>
		<path fill="url(#SVGID_4_)" d="M65.9,32c-0.1-0.4-0.4-0.7-0.7-1L57,25.4H23L14.8,31c-0.3,0.2-0.6,0.6-0.7,1c0,0.2-0.1,0.3-0.1,0.5
			v31.7c0,0.4,0.1,0.8,0.4,1.1c0.3,0.5,0.9,0.7,1.4,0.7h48.4c0.6,0,1.1-0.3,1.4-0.7c0.2-0.3,0.4-0.7,0.4-1.1V32.5
			C66,32.3,66,32.1,65.9,32z"/>
		<path fill="#5B00E4" d="M65.9,32L57,38.7V25.4l8.2,5.6C65.6,31.2,65.8,31.6,65.9,32L65.9,32z M23,25.4v13.4L14.1,32
			c0.1-0.4,0.4-0.7,0.7-1L23,25.4L23,25.4z"/>
		
			<linearGradient id="SVGID_5_" gradientUnits="userSpaceOnUse" x1="40.0005" y1="35.7277" x2="40.0005" y2="16" gradientTransform="matrix(1 0 0 -1 0 82)">
			<stop  offset="0" style="stop-color:#725EF6"/>
			<stop  offset="1" style="stop-color:#6001D1"/>
		</linearGradient>
		<path fill="url(#SVGID_5_)" d="M65.6,65.3c-0.3,0.5-0.9,0.7-1.4,0.7H15.8c-0.6,0-1.1-0.3-1.4-0.7l21.8-16.5l2.8-2.1
			c0.6-0.5,1.5-0.5,2.2,0l2.8,2.1L65.6,65.3L65.6,65.3z"/>
		<path fill="#FFFFFF" d="M57,14.9v23.8l-13.2,10l-2.8-2.1c-0.6-0.5-1.5-0.5-2.2,0l-2.8,2.1L23,38.7V14.9c0-0.5,0.4-0.9,0.9-0.9
			h32.3C56.6,14,57,14.4,57,14.9L57,14.9z"/>
		<path fill="#DAC0FF" d="M40,17.6c-6.9,0-12.6,5.6-12.6,12.6S33.1,42.7,40,42.7s12.6-5.6,12.6-12.6c0-3.3-1.3-6.5-3.7-8.9
			C46.5,18.9,43.3,17.6,40,17.6z M31.9,34c-1.7-3.4-1-7.5,1.7-10.2c2.7-2.7,6.8-3.4,10.2-1.7c0.3,0.1,0.4,0.4,0.5,0.7
			c0,0.3,0,0.6-0.3,0.8L33.4,34.3c-0.2,0.2-0.5,0.3-0.8,0.3C32.3,34.5,32.1,34.3,31.9,34z M41.1,39c-1.7,0.2-3.4-0.1-5-0.8
			c-0.3-0.1-0.4-0.4-0.5-0.7c0-0.3,0-0.6,0.3-0.8L46.6,26c0.2-0.2,0.5-0.3,0.8-0.3c0.3,0,0.5,0.2,0.7,0.5c1.3,2.6,1.2,5.7-0.2,8.2
			C46.5,37,44,38.7,41.1,39L41.1,39z"/>
	</g>
</g>
</svg>
