<svg xmlns="http://www.w3.org/2000/svg" width="67" height="67" viewBox="0 0 67 67">
    <g fill="none" fill-rule="evenodd">
        <circle cx="33.5" cy="33.5" r="33.5" fill="#F5F7F8"/>
        <g fill-rule="nonzero">
            <path fill="#D0D0D0" d="M33.251 32.65c3.558 0 6.443-3.503 6.443-7.825S38.747 17 33.25 17c-5.495 0-6.442 3.503-6.442 7.825s2.884 7.825 6.442 7.825z"/>
            <path fill="#000" d="M21.09 44.598c0-.264-.002-.074 0 0zM45.427 44.804c.004-.072.001-.5 0 0z"/>
            <path fill="#D0D0D0" d="M45.405 44.282c-.119-7.528-1.102-9.674-8.626-11.031 0 0-1.06 1.35-3.528 1.35s-3.528-1.35-3.528-1.35c-7.441 1.343-8.484 3.456-8.622 10.786-.01.599-.016.63-.018.561l.001.79S22.875 49 33.251 49s12.168-3.611 12.168-3.611v-.585c-.002.043-.006-.04-.014-.522z"/>
        </g>
        <text fill="#F5F7F8" font-family="iCielBCCubano-Normal, iCielBC Cubano" font-size="8" letter-spacing=".109">
            <tspan x="31.045" y="43">?</tspan>
        </text>
    </g>
</svg>
