<svg xmlns="http://www.w3.org/2000/svg" width="67" height="67" viewBox="0 0 67 67">
    <g fill="none" fill-rule="evenodd">
        <circle cx="33.5" cy="33.5" r="33.5" fill="#FDEEFF"/>
        <path fill="#FE73B9" fill-rule="nonzero" d="M42.178 38.22l-4.376-.878a1.004 1.004 0 0 1-.802-.98V35.22c4.37-.416 5-1.31 5-2.22 0-2.69-1.788-8.936-2.084-9.952-.036-1.57-.324-2.454-1.042-3.226-.508-.55-1.254-.678-1.856-.78-.236-.042-.562-.096-.682-.162-1.066-.578-2.12-.856-3.378-.88-2.634.108-5.872 1.784-6.98 4.848C25.898 23.134 24 29.898 24 33c0 1.294 1.464 1.976 5 2.288v1.074c0 .474-.338.886-.804.98l-4.37.876A6.002 6.002 0 0 0 19 44.1V46c0 1.102.898 2 2 2h24c1.102 0 2-.898 2-2v-1.9c0-2.858-2.03-5.332-4.822-5.88z"/>
    </g>
</svg>
