<svg xmlns="http://www.w3.org/2000/svg" width="80" height="80" viewBox="0 0 80 80">
    <g fill="none" fill-rule="nonzero">
        <path fill="#FFCDCD" d="M78.438 10.938c0-1.726-1.4-3.126-3.126-3.126H4.689a3.125 3.125 0 0 0-3.125 3.125v64.376c0 1.725 1.399 3.124 3.125 3.124h58.177l15.572-15.572V10.937z"/>
        <path fill="#FFF" d="M1.563 25.313v50c0 1.725 1.399 3.124 3.125 3.124H62.89l15.547-15.546V25.313H1.561z"/>
        <path fill="#F5F7F8" d="M62.749 65.874v12.564l15.688-15.69H65.874a3.125 3.125 0 0 0-3.125 3.126z"/>
        <path fill="#FFF" d="M19.063 7.344V5.312a3.75 3.75 0 1 0-7.5 0v7.657a3.75 3.75 0 1 0 7.5 0V7.344zM43.73 7.344V5.312a3.75 3.75 0 1 0-7.5 0v7.657a3.75 3.75 0 1 0 7.5 0V7.344zM68.398 7.344V5.312a3.75 3.75 0 1 0-7.5 0v7.657a3.75 3.75 0 1 0 7.5 0V7.344z"/>
        <g fill="#000">
            <path d="M72.188 26.875c.41 0 .814-.167 1.104-.458.29-.29.458-.694.458-1.105 0-.41-.167-.814-.458-1.104a1.574 1.574 0 0 0-1.105-.458c-.41 0-.814.167-1.104.458-.29.29-.458.694-.458 1.105 0 .41.167.814.458 1.104.29.29.694.458 1.105.458zM30.703 69.323h-.023a1.563 1.563 0 0 0 0 3.125h.023a1.563 1.563 0 0 0 0-3.125z"/>
            <path d="M80 62.749V10.937a4.693 4.693 0 0 0-4.688-4.687H69.96v-.938A5.318 5.318 0 0 0 64.648 0a5.318 5.318 0 0 0-5.313 5.313v.937H45.293v-.938A5.318 5.318 0 0 0 39.98 0a5.318 5.318 0 0 0-5.312 5.313v.937H20.625v-.938A5.318 5.318 0 0 0 15.312 0 5.318 5.318 0 0 0 10 5.313v.937H4.687A4.693 4.693 0 0 0 0 10.938v64.374A4.693 4.693 0 0 0 4.688 80h58.06c.432 0 .822-.175 1.105-.457l15.69-15.69c.282-.282.457-.673.457-1.104zM62.46 5.312a2.19 2.19 0 0 1 2.188-2.187 2.19 2.19 0 0 1 2.187 2.188v7.656a2.19 2.19 0 0 1-2.187 2.187 2.19 2.19 0 0 1-2.188-2.187V5.313zm-24.667 0a2.19 2.19 0 0 1 2.187-2.187 2.19 2.19 0 0 1 2.188 2.188v7.656a2.19 2.19 0 0 1-2.188 2.187 2.19 2.19 0 0 1-2.187-2.187V5.313zm-24.668 0a2.19 2.19 0 0 1 2.188-2.187A2.19 2.19 0 0 1 17.5 5.313v7.656a2.19 2.19 0 0 1-2.188 2.187 2.19 2.19 0 0 1-2.187-2.187V5.313zm-10 70v-2.864h21.328a1.563 1.563 0 0 0 0-3.125H3.125V26.875h62.813a1.563 1.563 0 0 0 0-3.125H3.124V10.937c0-.861.7-1.562 1.563-1.562H10v3.594a5.318 5.318 0 0 0 5.313 5.312 5.318 5.318 0 0 0 5.312-5.312V9.375h14.043v3.594a5.318 5.318 0 0 0 5.312 5.312 5.318 5.318 0 0 0 5.313-5.312V9.375h14.042v3.594a5.318 5.318 0 0 0 5.313 5.312 5.318 5.318 0 0 0 5.312-5.312V9.375h5.353c.861 0 1.562.7 1.562 1.563v50.248H65.874a4.693 4.693 0 0 0-4.688 4.688v11.001H4.688c-.862 0-1.563-.7-1.563-1.563zm61.186-.647v-8.792c0-.861.701-1.562 1.563-1.562h8.791L64.311 74.665z"/>
        </g>
        <g fill="#000">
            <path d="M32.616 55.153l-2.299 3.158a1.398 1.398 0 1 0 2.262 1.646l2.316-3.183a10.803 10.803 0 0 0 5.097 1.272c5.996 0 10.874-4.878 10.874-10.874 0-3.057-1.27-5.82-3.306-7.798l2.883-3.962a1.398 1.398 0 0 0-2.26-1.646L45.321 37.7a10.8 10.8 0 0 0-5.33-1.401c-5.995 0-10.873 4.878-10.873 10.874 0 3.152 1.348 5.993 3.498 7.98zm15.454-7.981c0 4.454-3.624 8.078-8.078 8.078a8.02 8.02 0 0 1-3.426-.773l9.322-12.808a8.038 8.038 0 0 1 2.182 5.503zm-8.078-8.078c1.32 0 2.564.325 3.665.889l-9.382 12.89a8.052 8.052 0 0 1-2.362-5.7c0-4.455 3.624-8.079 8.079-8.079z"/>
        </g>
    </g>
</svg>
