<?xml version="1.0" encoding="utf-8"?>
<!-- Generator: Adobe Illustrator 23.0.1, SVG Export Plug-In . SVG Version: 6.00 Build 0)  -->
<svg version="1.1" id="Layer_1" xmlns="http://www.w3.org/2000/svg" xmlns:xlink="http://www.w3.org/1999/xlink" x="0px" y="0px"
	 width="40px" height="40px" viewBox="0 0 40 40" enable-background="new 0 0 40 40" xml:space="preserve">
<path fill="#FFEFC6" d="M20,40c11,0,20-9,20-20S31,0,20,0S0,9,0,20S9,40,20,40z"/>
<linearGradient id="SVGID_1_" gradientUnits="userSpaceOnUse" x1="20" y1="39.89" x2="20" y2="-0.11" gradientTransform="matrix(1 0 0 -1 0 39.89)">
	<stop  offset="0" style="stop-color:#FFFFFF"/>
	<stop  offset="1" style="stop-color:#FFFFFF;stop-opacity:0"/>
</linearGradient>
<path fill="url(#SVGID_1_)" d="M20,40c11,0,20-9,20-20S31,0,20,0S0,9,0,20S9,40,20,40z"/>
<path d="M13.2,26.8c-0.4-0.4-0.9-0.6-1.4-0.6c-0.3,0-0.6,0.1-0.9,0.2c-2.7-3.8-2.7-9,0-12.8c0.1-0.2,0.1-0.5-0.1-0.7
	c-0.2-0.1-0.5-0.1-0.7,0.1C8.7,15.2,8,17.7,8,20.3c0,2.5,0.8,4.8,2.2,6.8c-0.6,0.8-0.5,1.9,0.2,2.6c0.4,0.4,0.9,0.6,1.4,0.6
	c0.5,0,1-0.2,1.4-0.6C14,28.9,14,27.6,13.2,26.8L13.2,26.8z"/>
<path fill="#FFFFFF" d="M12.6,29c-0.4,0.4-1.1,0.4-1.5,0c-0.4-0.4-0.4-1.1,0-1.5c0.2-0.2,0.5-0.3,0.7-0.3s0.5,0.1,0.7,0.3
	C13,27.9,13,28.6,12.6,29L12.6,29z"/>
<path d="M27.1,29.2c-0.2-0.2-0.4-0.3-0.7-0.1c-1.3,1-2.8,1.6-4.5,1.9c-0.4,0.1-0.8,0-1.1-0.3c-0.3-0.2-0.5-0.6-0.5-1v-3.5h0
	c0.5,0,1-0.4,1-1v-0.8c1.6-0.6,2.7-2.2,2.7-4v-2.2c0.8-0.2,1.3-0.9,1.3-1.7c0-0.9-0.7-1.7-1.5-1.8v-2.9c0-0.8-0.6-1.4-1.4-1.4
	c-0.8,0-1.4,0.6-1.4,1.4v2.9h-2.3v-2.9c0-0.8-0.6-1.4-1.4-1.4c-0.8,0-1.4,0.6-1.4,1.4v2.9c-0.9,0.1-1.5,0.9-1.5,1.8
	c0,0.8,0.6,1.5,1.3,1.7v2.2c0,1.8,1.1,3.4,2.7,4v0.8c0,0.5,0.4,1,1,1h0.1v3.5c0,0.7,0.3,1.3,0.8,1.7c0.4,0.3,0.9,0.5,1.4,0.5
	c0.1,0,0.3,0,0.4,0c1.8-0.3,3.4-1,4.9-2.1C27.2,29.7,27.3,29.4,27.1,29.2z"/>
<path fill="#FFFFFF" d="M22.1,11.9c0-0.3,0.2-0.5,0.5-0.5c0.3,0,0.5,0.2,0.5,0.5v2.9h-0.9L22.1,11.9L22.1,11.9z M17,11.9
	c0-0.3,0.2-0.5,0.5-0.5c0.3,0,0.5,0.2,0.5,0.5v2.9H17V11.9z M15.4,16.6c0-0.5,0.4-0.8,0.8-0.8h7.5c0.5,0,0.8,0.4,0.8,0.8
	c0,0.5-0.4,0.8-0.8,0.8h-7.5C15.8,17.4,15.4,17.1,15.4,16.6z M16.7,20.5v-2.2h6.6v2.2c0,1.8-1.5,3.3-3.3,3.3
	C18.2,23.8,16.7,22.4,16.7,20.5z M20,25.3L20,25.3l-0.5,0c0,0,0,0,0,0v-0.6c0.2,0,0.4,0,0.6,0c0.2,0,0.4,0,0.6,0v0.6c0,0,0,0,0,0
	C20.5,25.3,20,25.3,20,25.3z"/>
<path d="M28.5,27.9c-0.2-0.2-0.5-0.2-0.7,0l0,0c-0.2,0.2-0.2,0.5,0,0.7c0.1,0.1,0.2,0.1,0.3,0.1c0.1,0,0.2,0,0.3-0.1l0,0
	C28.7,28.4,28.7,28.1,28.5,27.9z M32,19.2c-0.2-2.9-1.4-5.6-3.5-7.6c-2-2-4.7-3.2-7.5-3.5c-2.8-0.2-5.6,0.5-7.9,2.2
	c-0.2,0.1-0.3,0.4-0.1,0.7c0.1,0.2,0.4,0.3,0.7,0.1c4.4-3.1,10.5-2.6,14.2,1.2c3.9,3.9,4.4,10,1.1,14.4c-0.2,0.2-0.1,0.5,0.1,0.7
	c0.1,0.1,0.2,0.1,0.3,0.1c0.1,0,0.3-0.1,0.4-0.2C31.4,24.9,32.2,22,32,19.2L32,19.2z M12.1,11.6c-0.2-0.2-0.5-0.2-0.7,0l0,0
	c-0.2,0.2-0.2,0.5,0,0.7c0.1,0.1,0.2,0.1,0.3,0.1s0.2,0,0.3-0.1l0,0C12.3,12.1,12.3,11.8,12.1,11.6L12.1,11.6z"/>
<path d="M21.1,20.4c-0.1-0.1-0.2-0.2-0.4-0.2h-0.3l0.6-0.8c0.2-0.2,0.1-0.5-0.1-0.7c-0.2-0.2-0.5-0.1-0.7,0.1L19,20.3
	c-0.1,0.1-0.1,0.3-0.1,0.5c0.1,0.2,0.2,0.3,0.4,0.3h0.5l-0.6,1c-0.1,0.2,0,0.5,0.2,0.6c0.1,0,0.2,0.1,0.2,0.1c0.2,0,0.3-0.1,0.4-0.2
	l1-1.7C21.1,20.7,21.1,20.5,21.1,20.4z"/>
</svg>
