<?xml version="1.0" encoding="utf-8"?>
<!-- Generator: Adobe Illustrator 23.0.1, SVG Export Plug-In . SVG Version: 6.00 Build 0)  -->
<svg version="1.1" id="Layer_1" xmlns="http://www.w3.org/2000/svg" xmlns:xlink="http://www.w3.org/1999/xlink" x="0px" y="0px"
	 width="40px" height="40px" viewBox="0 0 40 40" enable-background="new 0 0 40 40" xml:space="preserve">
<path fill="#BCEEE1" d="M20,40c11,0,20-9,20-20S31,0,20,0S0,9,0,20S9,40,20,40z"/>
<linearGradient id="SVGID_1_" gradientUnits="userSpaceOnUse" x1="20" y1="39.89" x2="20" y2="-0.11" gradientTransform="matrix(1 0 0 -1 0 39.89)">
	<stop  offset="0" style="stop-color:#FFFFFF"/>
	<stop  offset="1" style="stop-color:#FFFFFF;stop-opacity:0"/>
</linearGradient>
<path fill="url(#SVGID_1_)" d="M20,40c11,0,20-9,20-20S31,0,20,0S0,9,0,20S9,40,20,40z"/>
<path fill-rule="evenodd" clip-rule="evenodd" fill="#FFFFFF" d="M8.5,23.5v3.7l1.7,1L31,28.4l0.6-0.8v-2.2L31,23.9L27.6,23
	l-2.7-0.9L21.9,20L19,19.6h-3.8l-2.3,0.8l-2.3,1.7l-1.9,0.6L8.5,23.5L8.5,23.5z"/>
<path fill-rule="evenodd" clip-rule="evenodd" d="M26.9,12h1.3c0.8,0,1.4,0.4,1.4,1.3v0c0,1-0.6,1.3-1.5,1.3h-0.7V16
	c0,0.2-0.2,0.2-0.4,0.2c-0.2,0-0.4-0.1-0.4-0.2v-3.8C26.6,12.1,26.7,12,26.9,12z M28.1,14.1c0.4,0,0.7-0.2,0.7-0.7v-0.1
	c0-0.5-0.3-0.7-0.7-0.7h-0.7v1.4C27.4,14.1,28.1,14.1,28.1,14.1z"/>
<path d="M24.8,22.9c-0.1-0.1-0.3-0.2-0.4-0.3l-2.3-1.5c-0.7-0.5-1.5-0.7-2.3-0.7h-4.1c-1.1,0-2.1,0.4-2.9,1.2
	c-0.4,0.4-0.9,0.7-1.4,1c-0.3,0.2-0.5,0.5-0.5,0.8c0,0.5,0.4,0.9,0.9,0.9h1.4c0.2,0,0.3-0.2,0.3-0.3c0-0.2-0.2-0.3-0.3-0.3h-1.4
	c-0.1,0-0.2-0.1-0.2-0.2c0-0.1,0-0.1,0.1-0.2c0.6-0.3,1.1-0.7,1.5-1.1c0.6-0.6,1.5-1,2.4-1h0.9v2.5h-1.1c-0.2,0-0.3,0.2-0.3,0.3
	c0,0.2,0.2,0.3,0.3,0.3h9.4c0.3,0,0.5-0.2,0.5-0.5C25.3,23.4,25.1,23.1,24.8,22.9z"/>
<path fill="#FFFFFF" d="M17.3,23.6v-2.5h2.5c0.7,0,1.4,0.2,1.9,0.6l2.3,1.5c0.2,0.1,0.3,0.2,0.5,0.3c0,0,0.1,0.1,0.1,0.1L17.3,23.6
	L17.3,23.6z"/>
<path d="M18.1,24.8H17c-0.2,0-0.3,0.2-0.3,0.3s0.2,0.3,0.3,0.3h1.1c0.2,0,0.3-0.2,0.3-0.3S18.3,24.8,18.1,24.8z"/>
<path fill-rule="evenodd" clip-rule="evenodd" d="M31.6,24.3l0.1,0.2c0.2,0.3,0.3,0.7,0.3,1.1v1.8c0,0.7-0.6,1.3-1.3,1.3H30
	c-0.1,0.4-0.3,0.7-0.6,1c-0.4,0.4-1,0.7-1.6,0.7c-0.6,0-1.2-0.2-1.6-0.7c-0.3-0.3-0.5-0.6-0.6-1H14.4c-0.1,0.4-0.3,0.7-0.6,1
	c-0.4,0.4-1,0.7-1.6,0.7c-0.6,0-1.2-0.2-1.6-0.7c-0.3-0.3-0.5-0.7-0.6-1.2l-1.4-0.6C8.2,27.7,8,27.3,8,26.9v-3.3
	c0-0.7,0.5-1.4,1.3-1.5L9.7,22c0.9-0.2,1.6-0.6,2.2-1.2c1-1,2.3-1.5,3.7-1.5h4.1c1,0,2,0.3,2.9,0.9l2.3,1.5c0.4,0.3,1,0.6,1.6,0.8
	l0.5,0.1v-4.1h-2.6c-0.5,0-0.9-0.4-0.9-0.9v-1.9c0-0.2,0.2-0.3,0.3-0.3c0.2,0,0.3,0.2,0.3,0.3v1.9c0,0.1,0.1,0.2,0.2,0.2h6.6
	c0.1,0,0.2-0.1,0.2-0.2v-6.6c0-0.1-0.1-0.2-0.2-0.2h-6.6c-0.1,0-0.2,0.1-0.2,0.2v2.5c0,0.2-0.2,0.3-0.3,0.3c-0.2,0-0.3-0.2-0.3-0.3
	v-2.5c0-0.5,0.4-0.9,0.9-0.9h6.6c0.5,0,0.9,0.4,0.9,0.9v6.6c0,0.5-0.4,0.9-0.9,0.9h-2.3v4.5l0.9,0.2C30.5,23.2,31.1,23.7,31.6,24.3
	L31.6,24.3z M31.3,27.3v-1.8c0-0.2-0.1-0.5-0.2-0.7L31,24.7c-0.3-0.5-0.8-0.9-1.4-1l-3.1-0.6c-0.7-0.1-1.4-0.6-1.9-0.9l-2.3-1.5
	c-0.7-0.5-1.6-0.8-2.5-0.8h-4.1c-1.2,0-2.3,0.5-3.2,1.3c-0.7,0.7-1.6,1.2-2.6,1.4l-0.5,0.1c-0.4,0.1-0.7,0.5-0.7,0.9v3.3
	c0,0.1,0.1,0.2,0.2,0.3l1.1,0.5c0-0.3,0.1-0.5,0.2-0.7v0l0.1-0.1l0,0c0-0.1,0.1-0.1,0.1-0.2l0,0l0.1-0.1l0,0l0.1-0.1l0,0l0,0
	c0,0,0-0.1,0.1-0.1c0.4-0.4,1-0.7,1.6-0.7c0.4,0,0.9,0.1,1.2,0.4c0.1,0.1,0.2,0.2,0.4,0.3c0,0,0.1,0.1,0.1,0.1l0,0l0.1,0.1l0,0
	c0.3,0.4,0.5,0.9,0.5,1.4h11.2c0-0.5,0.2-1,0.5-1.4l0,0l0.1-0.1l0,0l0,0l0.1-0.1l0,0l0,0c0.3-0.3,0.7-0.5,1.2-0.6c0.1,0,0.3,0,0.4,0
	c0.2,0,0.4,0,0.6,0.1c0.4,0.1,0.8,0.3,1,0.6l0,0l0.1,0.1l0,0l0.1,0.1l0,0c0.3,0.4,0.5,0.9,0.5,1.4h0.6C31,27.9,31.3,27.7,31.3,27.3z
	"/>
<path fill="#FFFFFF" d="M27.7,18.4h0.4v4.3l-0.4-0.1V18.4z"/>
<path fill="#FFF0F0" d="M13.3,29.1c-0.3,0.3-0.7,0.5-1.1,0.5c-0.4,0-0.8-0.2-1.1-0.5c-0.5-0.5-0.6-1.2-0.3-1.8l0,0l0-0.1l0,0l0,0
	l0,0l0,0l0,0l0,0l0,0l0,0l0,0l0,0c0,0,0,0,0.1-0.1l0,0l0,0l0,0l0,0l0,0l0,0c0.6-0.5,1.4-0.5,2,0l0,0l0.1,0l0,0c0,0,0,0,0.1,0.1
	l0.1,0.1l0,0l0,0l0,0l0,0l0,0.1l0,0C13.9,27.7,13.8,28.6,13.3,29.1z M29,29.1c-0.3,0.3-0.7,0.5-1.1,0.5c-0.4,0-0.8-0.2-1.1-0.5
	c-0.5-0.5-0.6-1.4-0.2-2l0,0l0-0.1l0,0l0,0l0,0l0,0l0.1-0.1c0.3-0.3,0.7-0.5,1.1-0.5c0.4,0,0.8,0.2,1.1,0.5l0.1,0.1l0,0l0,0l0,0l0,0
	l0,0.1l0,0C29.6,27.7,29.5,28.6,29,29.1L29,29.1z"/>
<path fill-rule="evenodd" clip-rule="evenodd" d="M12.2,27c0.3,0,0.6,0.1,0.8,0.3c0.4,0.4,0.4,1.1,0,1.6c-0.2,0.2-0.5,0.3-0.8,0.3
	s-0.6-0.1-0.8-0.3s-0.3-0.5-0.3-0.8s0.1-0.6,0.3-0.8C11.7,27.1,11.9,27,12.2,27L12.2,27z M12.2,28.4c0.1,0,0.2,0,0.3-0.1
	c0.1-0.1,0.1-0.4,0-0.5c-0.1-0.1-0.2-0.1-0.3-0.1s-0.2,0-0.3,0.1c-0.1,0.1-0.1,0.2-0.1,0.3s0,0.2,0.1,0.3
	C12,28.4,12.1,28.4,12.2,28.4L12.2,28.4z M27.9,27c0.3,0,0.6,0.1,0.8,0.3s0.3,0.5,0.3,0.8s-0.1,0.6-0.3,0.8s-0.5,0.3-0.8,0.3
	s-0.6-0.1-0.8-0.3c-0.4-0.4-0.4-1.1,0-1.6C27.4,27.1,27.6,27,27.9,27z M27.9,28.4c0.1,0,0.2,0,0.3-0.1c0.1-0.1,0.1-0.2,0.1-0.3
	s0-0.2-0.1-0.3c-0.1-0.1-0.2-0.1-0.3-0.1s-0.2,0-0.3,0.1c-0.1,0.1-0.1,0.4,0,0.5C27.7,28.4,27.8,28.4,27.9,28.4z"/>
</svg>
