<svg xmlns="http://www.w3.org/2000/svg" width="12" height="12" fill="none" viewBox="0 0 12 12">
    <path fill="#fff" d="M6.117 7.902c-.116.116-.18.274-.18.438 0 .165.065.322.181.438.116.117.274.182.438.182.164 0 .322-.064.439-.18l2.34-2.341c.117-.117.182-.274.182-.439 0-.165-.065-.322-.182-.439l-2.34-2.34c-.117-.117-.275-.182-.44-.182-.164 0-.322.065-.438.181-.117.117-.182.275-.182.44 0 .164.066.322.182.438L7.398 5.38H.621c-.165 0-.323.066-.44.182C.066 5.678 0 5.835 0 6c0 .165.065.322.182.439.116.116.274.182.439.182h6.777L6.117 7.9z"/>
    <path fill="#fff" d="M10.966 0H5.172c-.274 0-.537.109-.731.303-.194.194-.303.457-.303.731v.828c0 .165.065.323.182.439.116.116.274.182.439.182.164 0 .322-.066.439-.182.116-.116.181-.274.181-.439v-.62h5.38v9.517h-5.38v-.621c0-.165-.065-.323-.181-.439-.117-.116-.275-.182-.44-.182-.164 0-.322.066-.438.182-.117.116-.182.274-.182.439v.828c0 .274.109.537.303.731.194.194.457.303.731.303h5.794c.274 0 .537-.109.731-.303.194-.194.303-.457.303-.731V1.034c0-.274-.109-.537-.303-.731C11.503.109 11.24 0 10.966 0z"/>
</svg>
