<svg xmlns="http://www.w3.org/2000/svg" width="46" height="54" viewBox="0 0 46 54">
    <g fill="none" fill-rule="nonzero">
        <path fill="#000" d="M39.245 26.747V.892c0-.493-.4-.892-.891-.892H.908C.416 0 .017.4.017.892v51.71c0 .492.399.891.891.891h37.446c.492 0 .891-.399.891-.891v-8.916h-1.783v8.024H1.8V1.783h35.662v24.964h1.783z"/>
        <path fill="#000" d="M3.583 25.855h1.783v1.783H3.583zM7.149 25.855h28.53v1.783H7.149zM3.583 16.94h1.783v1.783H3.583zM7.149 16.94h28.53v1.783H7.149zM3.583 34.771h1.783v1.783H3.583zM7.149 34.771h24.072v1.783H7.149zM45.415 31.492l-3.782-3.782a.892.892 0 0 0-1.26 0l-13.24 13.238c-.01.01-.012.022-.021.03a.87.87 0 0 0-.148.223c-.01.02-.021.039-.03.06-.008.022-.012.023-.016.035l-1.891 5.675a.892.892 0 0 0 1.126 1.127l5.675-1.891c.013 0 .023-.013.035-.017.013-.005.04-.02.06-.03a.87.87 0 0 0 .223-.148c.009-.009.021-.011.03-.02l13.239-13.24a.892.892 0 0 0 0-1.26z"/>
        <path fill="#DAC0FF" d="M27.281 45.846l.872-2.614 1.742 1.742zM31.546 44.104l-2.523-2.523L41.003 29.6l2.522 2.522z"/>
    </g>
</svg>
