<svg xmlns="http://www.w3.org/2000/svg" xmlns:xlink="http://www.w3.org/1999/xlink" width="40" height="40" viewBox="0 0 40 40">
    <defs>
        <path id="a" d="M12.833 0h-8.75c-.402 0-.717.204-.927.513L0 5.25l3.156 4.73c.21.31.525.52.927.52h8.75A1.17 1.17 0 0 0 14 9.333V1.167A1.17 1.17 0 0 0 12.833 0zm-1.75 7.344l-.822.823-2.094-2.095-2.095 2.095-.822-.823L7.344 5.25 5.25 3.156l.822-.823 2.095 2.095 2.094-2.095.822.823L8.99 5.25l2.094 2.094z"/>
    </defs>
    <g fill="none" fill-rule="evenodd">
        <circle cx="20" cy="20" r="20" fill="#F5F7F8" fill-rule="nonzero"/>
        <path fill="#FFF" d="M10 8h18v24H10z"/>
        <path fill="#000" fill-rule="nonzero" d="M27.896 19.878V7.429a.43.43 0 0 0-.43-.429H9.438a.43.43 0 0 0-.429.43v24.897c0 .237.192.43.43.43h18.029a.43.43 0 0 0 .429-.43v-4.293h-.859v3.864H9.867V7.858h17.17v12.02h.859z"/>
        <path fill="#000" fill-rule="nonzero" d="M10.725 19.449h1v1h-1zM12.442 19.449h13.737v1H12.442zM10.725 15.156h1v1h-1zM12.442 15.156h13.737v1H12.442zM10.725 23.741h1v1h-1zM12.442 23.741h11.59v1h-11.59zM30.866 22.163l-1.82-1.821a.43.43 0 0 0-.608 0l-6.374 6.374c-.005.004-.006.01-.01.014a.42.42 0 0 0-.071.107l-.015.03c-.003.01-.006.01-.008.016l-.91 2.733a.43.43 0 0 0 .542.542l2.733-.91c.006 0 .01-.006.016-.008l.03-.015a.42.42 0 0 0 .107-.07c.004-.005.01-.006.014-.01l6.374-6.375a.43.43 0 0 0 0-.607zm-8.73 6.91l.42-1.258.838.839-1.259.42zm2.053-.838l-1.215-1.214 5.768-5.77 1.214 1.215-5.767 5.769z"/>
        <g transform="translate(14 6)">
            <use fill="#F66" xlink:href="#a"/>
        </g>
    </g>
</svg>
