<svg xmlns="http://www.w3.org/2000/svg" width="31" height="32" viewBox="0 0 31 32">
    <g fill="none" fill-rule="evenodd">
        <g>
            <rect width="9" height="9" fill="#DCDCDC" rx="1"/>
            <rect width="9" height="9" y="11" fill="#DCDCDC" rx="1"/>
            <rect width="9" height="9" x="11" y="11" fill="#DCDCDC" rx="1"/>
            <rect width="9" height="9" x="22" y="11" fill="#DCDCDC" rx="1"/>
            <rect width="9" height="9" x="22" fill="#DCDCDC" rx="1"/>
            <rect width="9" height="9" x="11" fill="#FFF" rx="1"/>
        </g>
        <path fill="#FFF" d="M16.661 31.569l-4.56-7.18-1.323-6.567 1.323-1.684h1.619l2.513 4.19V9l.726-2.188H19.364v5.904h3.015l.831.726h2.57l.987 1.407 3.084.644v10.679l-1.343 5.397z"/>
        <path fill="#000" fill-rule="nonzero" d="M12.064 17.2a1.108 1.108 0 0 1 1.482.465l2.049 3.793a.726.726 0 0 0 1.364-.344v-5.54a.726.726 0 0 0-1.451 0v2.67l-.685-1.268a2.552 2.552 0 0 0-3.412-1.072 2.555 2.555 0 0 0-1.338 2.892L11.4 24.3a9.936 9.936 0 0 0 1.645 3.55l2.601 3.56a.724.724 0 1 0 1.172-.856l-2.602-3.56a8.49 8.49 0 0 1-1.406-3.035l-1.328-5.504a1.11 1.11 0 0 1 .581-1.256zM28.443 14.108c-.428 0-.83.11-1.182.302a2.473 2.473 0 0 0-2.306-1.588c-.454 0-.879.124-1.244.338a2.473 2.473 0 0 0-3.264-1.222V8.47A2.473 2.473 0 0 0 17.977 6a2.473 2.473 0 0 0-2.47 2.47v1.257a.725.725 0 0 0 1.451 0V8.47a1.02 1.02 0 0 1 2.038 0v10.236a.725.725 0 0 0 1.451 0v-4.519a1.02 1.02 0 0 1 2.038 0v4.52a.725.725 0 0 0 1.45 0v-3.415a1.02 1.02 0 0 1 2.038 0v3.414a.725.725 0 0 0 1.451 0v-2.129a1.02 1.02 0 0 1 2.038 0V22.7c0 1.63-.247 3.247-.735 4.803l-1.024 3.264a.725.725 0 0 0 1.385.434l1.023-3.264c.532-1.697.802-3.459.802-5.237v-6.122a2.472 2.472 0 0 0-2.47-2.47z"/>
        <path fill="#000" fill-rule="nonzero" d="M16.746 12.203a.73.73 0 0 0-.513-.212.73.73 0 0 0-.513.212.73.73 0 0 0-.212.513c0 .191.077.378.212.513a.731.731 0 0 0 .513.213.73.73 0 0 0 .513-.213.73.73 0 0 0 .212-.513.73.73 0 0 0-.212-.513z"/>
    </g>
</svg>
