<svg xmlns="http://www.w3.org/2000/svg" width="40" height="40" fill="none" viewBox="0 0 40 40">
    <path fill="#FFCDAC" d="M30.401 18.57c-1.165 0-2.11.945-2.11 2.11v-1.678c0-1.165-.944-2.109-2.109-2.109s-2.109.944-2.109 2.11c0-1.166-.944-2.11-2.11-2.11-1.164 0-2.109.944-2.109 2.11v-7.968c0-1.165-.944-2.109-2.11-2.109-1.164 0-2.108.944-2.108 2.11v16.933l-2.546-4.176c-.625-1.027-1.956-1.367-2.997-.765-1.004.58-1.391 1.836-.887 2.88l3.599 7.451c1.73 3.583 5.358 5.86 9.337 5.86 5.726 0 10.369-4.642 10.369-10.369v-8.17c0-1.165-.945-2.11-2.11-2.11z"/>
    <path fill="#35477D" d="M17.745 6.38c.432 0 .781-.35.781-.781V.781c0-.431-.35-.781-.78-.781-.432 0-.782.35-.782.781V5.6c0 .431.35.781.781.781zM22.398 11.036c0 .432.35.782.782.782h4.817c.432 0 .782-.35.782-.782 0-.431-.35-.78-.782-.78H23.18c-.432 0-.782.349-.782.78zM13.088 11.034c0-.431-.35-.781-.781-.781H7.489c-.431 0-.781.35-.781.781 0 .432.35.781.781.781h4.818c.431 0 .781-.35.781-.78zM12.775 7.17c.153.153.352.229.552.229.2 0 .4-.076.553-.229.305-.305.305-.8 0-1.105l-2.275-2.274c-.305-.305-.8-.305-1.105 0-.305.305-.305.8 0 1.105l2.275 2.274zM22.161 7.4c.2 0 .4-.076.553-.228l2.274-2.275c.305-.305.305-.8 0-1.105-.305-.305-.8-.305-1.105 0L21.61 6.067c-.305.305-.305.8 0 1.105.152.152.352.228.552.228z"/>
    <path fill="#35477D" d="M30.401 17.79c-.527 0-1.021.142-1.448.39-.355-1.194-1.462-2.068-2.77-2.068-.832 0-1.582.353-2.11.917-.528-.564-1.278-.917-2.11-.917-.478 0-.93.118-1.327.324v-5.4c0-1.595-1.297-2.891-2.89-2.891-1.595 0-2.891 1.296-2.891 2.89v4.12c0 .431.35.78.78.78.432 0 .782-.349.782-.78v-4.12c0-.732.596-1.328 1.328-1.328.732 0 1.328.596 1.328 1.328v13.08c0 .43.35.78.782.78.431 0 .78-.35.78-.78v-5.113c0-.732.596-1.328 1.329-1.328.732 0 1.328.596 1.328 1.328v5.112c0 .432.35.781.781.781.432 0 .782-.35.782-.78V19.001c0-.732.595-1.328 1.328-1.328.732 0 1.328.596 1.328 1.328v5.112c0 .432.35.781.781.781.431 0 .781-.35.781-.78V20.68c0-.733.596-1.329 1.328-1.329.733 0 1.329.596 1.329 1.328v8.17c0 .582-.053 1.165-.156 1.732-.078.424.203.831.628.909.047.008.094.012.141.012.37 0 .699-.264.768-.64.12-.66.181-1.337.181-2.013v-8.17c0-1.594-1.297-2.89-2.89-2.89z"/>
    <path fill="#35477D" d="M28.68 35.862c-1.78 1.66-4.102 2.575-6.538 2.575-3.655 0-7.044-2.126-8.634-5.418L9.91 25.568c-.325-.672-.073-1.49.573-1.864.669-.386 1.539-.164 1.94.495l2.546 4.176c.182.3.54.44.878.346.337-.095.57-.402.57-.752v-7.657c0-.431-.35-.78-.781-.78-.432 0-.782.349-.782.78v4.874l-1.096-1.8c-.854-1.4-2.635-1.855-4.056-1.035-1.351.78-1.878 2.492-1.2 3.896l3.6 7.452c.912 1.89 2.335 3.48 4.113 4.595C17.993 39.41 20.043 40 22.142 40c2.833 0 5.534-1.064 7.604-2.995.316-.295.333-.79.039-1.105-.295-.315-.79-.332-1.105-.038zM31.253 33.021c-.206 0-.407.084-.552.229-.146.145-.23.347-.23.552 0 .206.084.407.23.553.145.145.346.229.552.229.205 0 .407-.084.552-.23.146-.145.23-.346.23-.552 0-.205-.084-.407-.23-.552-.145-.145-.347-.229-.552-.229zM15.635 18.594c.205 0 .407-.084.552-.23.145-.145.229-.346.229-.552 0-.205-.084-.407-.229-.552-.145-.145-.347-.229-.552-.229-.206 0-.407.084-.553.23-.145.145-.229.346-.229.552 0 .205.084.407.23.552.145.145.346.229.552.229z"/>
</svg>
