<?xml version="1.0" encoding="utf-8"?>
<!-- Generator: Adobe Illustrator 23.0.1, SVG Export Plug-In . SVG Version: 6.00 Build 0)  -->
<svg version="1.1" id="Layer_1" xmlns="http://www.w3.org/2000/svg" xmlns:xlink="http://www.w3.org/1999/xlink" x="0px" y="0px"
	 width="40px" height="40px" viewBox="0 0 40 40" enable-background="new 0 0 40 40" xml:space="preserve">
<linearGradient id="SVGID_1_" gradientUnits="userSpaceOnUse" x1="20" y1="39.89" x2="20" y2="-0.11" gradientTransform="matrix(1 0 0 -1 0 39.89)">
	<stop  offset="0" style="stop-color:#FAF6FF"/>
	<stop  offset="1" style="stop-color:#DEC7FF"/>
</linearGradient>
<path fill="url(#SVGID_1_)" d="M20,40c11,0,20-9,20-20S31,0,20,0S0,9,0,20S9,40,20,40z"/>
<linearGradient id="SVGID_2_" gradientUnits="userSpaceOnUse" x1="28.592" y1="29.455" x2="28.592" y2="23.662" gradientTransform="matrix(1 0 0 -1 0 39.89)">
	<stop  offset="0" style="stop-color:#725EF6"/>
	<stop  offset="1" style="stop-color:#6001D1"/>
</linearGradient>
<path fill="url(#SVGID_2_)" d="M25.2,10.4l5.6,5.6l-0.2,0.2H32v-5.8H25.2z"/>
<linearGradient id="SVGID_3_" gradientUnits="userSpaceOnUse" x1="13.0015" y1="29.456" x2="13.0015" y2="23.663" gradientTransform="matrix(1 0 0 -1 0 39.89)">
	<stop  offset="0" style="stop-color:#725EF6"/>
	<stop  offset="1" style="stop-color:#6001D1"/>
</linearGradient>
<path fill="url(#SVGID_3_)" d="M18,10.4h-7.1c-1.6,0-2.9,1.3-2.9,2.9c0,1.6,1.3,2.9,2.9,2.9h1.8L12.4,16L18,10.4L18,10.4z"/>
<path fill="#FFFFFF" d="M14.8,11.5c-0.3,0-0.5,0-0.8,0c-0.2,0-0.4,0.2-0.4,0.4c0,0.2,0.2,0.4,0.4,0.4l0,0c0.3,0,0.6,0,0.8,0
	c0.2,0,0.4-0.2,0.4-0.4C15.3,11.6,15.1,11.4,14.8,11.5z M12.4,11.5c-0.3,0-0.6,0-0.8,0c-0.2,0-0.4,0.2-0.4,0.4
	c0,0.2,0.2,0.4,0.4,0.4h0c0.3,0,0.5,0,0.8,0c0.2,0,0.4-0.2,0.4-0.4C12.8,11.7,12.6,11.6,12.4,11.5z M9.8,11.9
	c-0.4,0.1-0.7,0.3-0.9,0.5c-0.2,0.2-0.2,0.4,0,0.6C9,13,9.1,13.1,9.2,13.1s0.2,0,0.3-0.1c0.1-0.1,0.3-0.2,0.6-0.3
	c0.2-0.1,0.3-0.3,0.3-0.5C10.3,11.9,10,11.8,9.8,11.9z M28.7,11.7h-0.8c-0.2,0-0.4,0.2-0.4,0.4c0,0.2,0.2,0.4,0.4,0.4h0.8
	c0.2,0,0.4-0.2,0.4-0.4C29.1,11.9,28.9,11.7,28.7,11.7z M31.2,11.7h-0.8c-0.2,0-0.4,0.2-0.4,0.4c0,0.2,0.2,0.4,0.4,0.4h0.8
	c0.2,0,0.4-0.2,0.4-0.4C31.6,11.9,31.4,11.7,31.2,11.7L31.2,11.7z"/>
<path fill="#00AA7D" d="M31,16.2l-8.2-8.2c0,0-0.1,0-0.1,0l-8.2,8.2H31L31,16.2z"/>
<path fill="#23C99D" d="M14.6,16.2l7-7l-1.1-1.1c0,0-0.1,0-0.1,0l-8.2,8.2H14.6L14.6,16.2z"/>
<path fill="#BCEEE1" d="M27.6,16.5l0.1-0.1l-4.9-4.9c0,0,0,0,0,0l-4.9,4.9l0.1,0.1H27.6z"/>
<linearGradient id="SVGID_4_" gradientUnits="userSpaceOnUse" x1="20" y1="26.56" x2="20" y2="7.938" gradientTransform="matrix(1 0 0 -1 0 39.89)">
	<stop  offset="0" style="stop-color:#725EF6"/>
	<stop  offset="1" style="stop-color:#6001D1"/>
</linearGradient>
<path fill="url(#SVGID_4_)" d="M8,13.3v16.1c0,1.4,1.1,2.5,2.5,2.5H32V16.2H10.9C9.3,16.2,8,14.9,8,13.3L8,13.3z"/>
<path fill-rule="evenodd" clip-rule="evenodd" fill="#FFFFFF" d="M9.5,30.4c0.1,0,0.1,0,0.2,0c0.2,0,0.3-0.1,0.4-0.2
	c0.1-0.2,0-0.5-0.2-0.5c-0.2-0.1-0.4-0.2-0.6-0.4c-0.2-0.1-0.4-0.1-0.6,0c-0.1,0.2-0.1,0.4,0,0.6C9,30.1,9.2,30.3,9.5,30.4L9.5,30.4
	z M12.1,30.7h-0.8c-0.2,0-0.4-0.2-0.4-0.4s0.2-0.4,0.4-0.4h0.8c0.2,0,0.4,0.2,0.4,0.4S12.4,30.7,12.1,30.7z M13.8,30.7h0.8
	c0.2,0,0.4-0.2,0.4-0.4s-0.2-0.4-0.4-0.4h-0.8c-0.2,0-0.4,0.2-0.4,0.4S13.6,30.7,13.8,30.7z M17.1,30.7h-0.8c-0.2,0-0.4-0.2-0.4-0.4
	s0.2-0.4,0.4-0.4h0.8c0.2,0,0.4,0.2,0.4,0.4S17.3,30.7,17.1,30.7L17.1,30.7z M18.8,30.7h0.8c0.2,0,0.4-0.2,0.4-0.4s-0.2-0.4-0.4-0.4
	h-0.8c-0.2,0-0.4,0.2-0.4,0.4S18.5,30.7,18.8,30.7z M22.1,30.7h-0.8c-0.2,0-0.4-0.2-0.4-0.4s0.2-0.4,0.4-0.4h0.8
	c0.2,0,0.4,0.2,0.4,0.4S22.3,30.7,22.1,30.7z M23.7,30.7h0.8c0.2,0,0.4-0.2,0.4-0.4s-0.2-0.4-0.4-0.4h-0.8c-0.2,0-0.4,0.2-0.4,0.4
	S23.5,30.7,23.7,30.7z M27,30.7h-0.8c-0.2,0-0.4-0.2-0.4-0.4s0.2-0.4,0.4-0.4H27c0.2,0,0.4,0.2,0.4,0.4S27.3,30.7,27,30.7L27,30.7z
	 M29.5,30.7h-0.8c-0.2,0-0.4-0.2-0.4-0.4s0.2-0.4,0.4-0.4h0.8c0.2,0,0.4,0.2,0.4,0.4S29.7,30.7,29.5,30.7z"/>
<path fill="#FFFFFF" d="M32,26.6h-5c-1.4,0-2.5-1.1-2.5-2.5s1.1-2.5,2.5-2.5h5V26.6z"/>
<path fill="#DAC0FF" d="M32,26.2h-5c-1.4,0-2.5-1.1-2.5-2.5s1.1-2.5,2.5-2.5h5V26.2z"/>
<path fill="#5B00E4" d="M27.4,24.9c0.7,0,1.2-0.6,1.2-1.2c0-0.7-0.6-1.2-1.2-1.2c-0.7,0-1.2,0.6-1.2,1.2
	C26.2,24.4,26.8,24.9,27.4,24.9z"/>
</svg>
