<svg xmlns="http://www.w3.org/2000/svg" width="32" height="32" fill="none" viewBox="0 0 32 32">
    <path fill="#fff" d="M7.853 31.53c2.807 0 5.082-.925 5.082-2.068s-2.275-2.07-5.082-2.07c-2.806 0-5.082.927-5.082 2.07 0 1.143 2.276 2.069 5.082 2.069z"/>
    <path fill="#fff" fill-rule="evenodd" d="M.47 17.465c0-4.074 3.305-7.377 7.383-7.377 4.077 0 7.383 3.303 7.383 7.377 0 6.204-7.383 11.912-7.383 11.912S.469 23.669.469 17.465zm4.438 0c0 1.625 1.319 2.942 2.945 2.942 1.627 0 2.945-1.317 2.945-2.942 0-1.625-1.319-2.942-2.945-2.942s-2.945 1.317-2.945 2.942z" clip-rule="evenodd"/>
    <path fill="#FEBC02" d="M7.853 10.088c-.286 0-.568.017-.845.049 3.68.419 6.538 3.54 6.538 7.328 0 4.897-4.6 9.485-6.538 11.2.517.458.845.712.845.712s7.383-5.708 7.383-11.912c0-4.074-3.305-7.377-7.383-7.377z"/>
    <path fill="#fff" d="M25.855 16.95c2.157 0 3.906-.713 3.906-1.59 0-.88-1.749-1.591-3.906-1.591s-3.905.712-3.905 1.59c0 .878 1.748 1.59 3.905 1.59z"/>
    <path fill="#fff" fill-rule="evenodd" d="M20.181 6.139c0-3.131 2.54-5.67 5.675-5.67 3.134 0 5.674 2.539 5.674 5.67 0 4.768-5.674 9.155-5.674 9.155S20.18 10.907 20.18 6.14zm3.412 0c0 1.249 1.013 2.261 2.263 2.261s2.263-1.012 2.263-2.261c0-1.25-1.013-2.261-2.263-2.261s-2.264 1.012-2.264 2.26z" clip-rule="evenodd"/>
    <path fill="#FEBC02" d="M25.856.47c-.288 0-.57.02-.846.062 2.733.408 4.83 2.763 4.83 5.607 0 3.607-3.248 6.996-4.83 8.432.509.463.846.723.846.723s5.674-4.387 5.674-9.155c0-3.131-2.54-5.67-5.674-5.67z"/>
    <path fill="#000" fill-rule="evenodd" d="M0 17.465c0-4.326 3.523-7.846 7.853-7.846s7.853 3.52 7.853 7.846c0 1.834-.611 3.792-1.818 5.819-.132.222-.42.296-.643.163-.223-.132-.297-.42-.164-.643 1.119-1.88 1.686-3.676 1.686-5.339 0-3.809-3.102-6.908-6.914-6.908S.94 13.657.94 17.465c0 3.83 3 7.524 5.127 9.662.103.046.188.128.236.234.67.657 1.231 1.144 1.551 1.411.324-.27.895-.764 1.573-1.43.045-.088.118-.158.205-.202.757-.759 1.624-1.714 2.426-2.8.154-.21.448-.254.656-.1.21.154.254.447.1.656-.664.9-1.364 1.707-2.014 2.393 1.628.444 2.605 1.242 2.605 2.173 0 1.648-2.86 2.538-5.551 2.538-2.691 0-5.551-.89-5.551-2.538 0-.932.977-1.73 2.606-2.174-.358-.378-.732-.792-1.107-1.24C1.28 23.039 0 20.152 0 17.466zm8.14 12.283c-.084.066-.185.098-.287.098-.101 0-.203-.032-.287-.098-.05-.039-.836-.65-1.888-1.678-1.585.323-2.437.944-2.437 1.392 0 .652 1.797 1.6 4.612 1.6 1.298 0 2.511-.203 3.416-.572.738-.3 1.196-.694 1.196-1.028 0-.448-.852-1.07-2.436-1.392-1.046 1.022-1.83 1.634-1.888 1.678z" clip-rule="evenodd"/>
    <path fill="#000" d="M5.152 16.2c-.25-.07-.51.073-.581.322-.088.306-.132.623-.132.943 0 1.88 1.531 3.411 3.414 3.411 1.883 0 3.415-1.53 3.415-3.411s-1.532-3.412-3.415-3.412c-.743 0-1.45.235-2.043.678-.207.155-.25.45-.095.657.156.207.45.25.658.095.43-.321.941-.491 1.48-.491 1.365 0 2.475 1.11 2.475 2.473 0 1.363-1.11 2.473-2.475 2.473s-2.475-1.11-2.475-2.473c0-.233.032-.463.096-.684.071-.249-.073-.509-.322-.58z"/>
    <path fill="#000" fill-rule="evenodd" d="M28.321 13.633c1.21.364 1.91.983 1.91 1.726 0 .628-.51 1.182-1.436 1.56-.793.322-1.837.5-2.94.5-1.102 0-2.146-.178-2.938-.5-.927-.378-1.437-.931-1.437-1.56 0-.745.7-1.363 1.91-1.727-.239-.256-.485-.532-.732-.826-1.955-2.333-2.947-4.577-2.947-6.667 0-.26.21-.47.47-.47s.47.21.47.47c0 2.9 2.273 5.705 3.895 7.336.088.045.163.117.209.207.46.45.851.795 1.1 1.005 1.13-.955 5.206-4.67 5.206-8.548 0-2.868-2.335-5.2-5.205-5.2-2.097 0-3.98 1.246-4.797 3.176-.1.238-.376.35-.615.25-.239-.102-.35-.377-.25-.616C21.16 1.472 23.381 0 25.856 0 29.244 0 32 2.754 32 6.139c0 2.09-.991 4.333-2.947 6.667-.247.294-.493.57-.732.827zm-5.902 1.726c0 .38 1.213 1.121 3.436 1.121 2.224 0 3.436-.74 3.437-1.12 0-.138-.162-.319-.432-.483-.319-.194-.773-.358-1.298-.47-.793.771-1.38 1.229-1.419 1.258-.085.066-.186.098-.287.098-.102 0-.203-.032-.288-.098-.038-.03-.626-.487-1.419-1.258-1.178.25-1.73.704-1.73.952z" clip-rule="evenodd"/>
    <path fill="#000" fill-rule="evenodd" d="M25.856 3.408c1.507 0 2.733 1.225 2.733 2.73 0 1.506-1.226 2.731-2.733 2.731-1.507 0-2.733-1.225-2.733-2.73 0-1.506 1.226-2.73 2.733-2.73zm0 .939c-.99 0-1.794.804-1.794 1.792s.805 1.792 1.794 1.792 1.793-.804 1.793-1.792-.804-1.792-1.793-1.792z" clip-rule="evenodd"/>
    <path fill="#000" d="M19.763 15.828c.26 0 .47-.21.47-.469 0-.26-.21-.47-.47-.47h-.214c-.156 0-.313.011-.467.032-.257.034-.438.27-.403.527.031.236.233.407.465.407.02 0 .041-.001.062-.004.113-.015.228-.022.343-.022h.214zM18.21 28.969h-.002l-.62.002c-.26.002-.469.213-.468.472.002.258.212.467.47.467h.002l.62-.003c.26-.001.47-.212.468-.471-.001-.259-.211-.467-.47-.467zM20.32 21.907c.26 0 .47-.21.47-.47 0-.259-.21-.469-.47-.469h-.62c-.259 0-.47.21-.47.47 0 .259.211.469.47.469h.62zM16.802 17.009c.083.06.18.088.274.088.146 0 .29-.068.382-.196.102-.142.219-.274.347-.392.19-.176.203-.473.027-.663-.176-.19-.473-.202-.664-.027-.175.161-.334.341-.473.535-.151.21-.103.504.107.655zM20.692 28.957h-.002l-.62.003c-.26.001-.47.212-.468.471.001.259.211.467.47.467h.002l.62-.002c.26-.002.469-.213.468-.472-.002-.258-.212-.467-.47-.467zM15.73 28.98h-.003l-.62.003c-.26 0-.469.212-.468.47.001.26.211.468.47.468h.002l.62-.003c.26-.001.469-.212.468-.471-.001-.259-.211-.467-.47-.467zM17.928 21.44c.156 0 .308-.078.398-.22.138-.218.072-.508-.147-.646-.148-.093-.287-.202-.413-.323-.187-.18-.484-.174-.664.013-.18.187-.174.484.013.663.172.165.361.313.563.44.078.05.164.073.25.073zM17.024 18.893c-.031-.162-.047-.328-.047-.495v-.026c.003-.259-.205-.471-.464-.474h-.006c-.257 0-.466.206-.47.463v.037c0 .227.022.454.065.675.044.224.24.379.46.379.03 0 .06-.003.091-.009.255-.05.42-.296.371-.55zM22.802 21.907c.26 0 .47-.21.47-.47 0-.259-.21-.469-.47-.469h-.62c-.26 0-.47.21-.47.47 0 .259.21.469.47.469h.62zM30.051 22.761c.14 0 .277-.061.37-.178.16-.204.125-.499-.078-.66-.181-.142-.375-.272-.575-.385-.226-.127-.513-.047-.64.179-.127.226-.047.512.179.639.158.089.31.191.454.304.086.068.188.101.29.101zM28.07 28.893c-.154.021-.311.032-.468.033h-.088c-.26.002-.47.213-.468.472.001.258.212.467.47.467h.09c.198-.002.398-.015.592-.042.257-.036.437-.273.401-.53-.035-.256-.273-.436-.53-.4zM30.008 27.958c-.132.125-.274.241-.424.345-.213.148-.266.44-.118.653.091.131.237.202.386.202.093 0 .186-.027.267-.084.19-.13.37-.278.537-.437.188-.178.195-.476.016-.663-.179-.188-.476-.195-.664-.016zM31.586 25.695c-.254-.048-.5.12-.548.374-.034.179-.082.356-.143.527-.087.244.04.512.285.6.052.018.105.027.158.027.192 0 .373-.12.442-.312.077-.217.138-.442.181-.668.048-.255-.12-.5-.375-.548zM30.998 23.31c-.235.11-.337.39-.227.624.077.165.141.337.191.511.06.206.247.34.451.34.043 0 .087-.006.13-.018.25-.072.394-.331.322-.58-.064-.222-.145-.44-.243-.65-.11-.234-.389-.336-.624-.226zM25.284 21.907c.259 0 .47-.21.47-.47 0-.259-.211-.469-.47-.469h-.62c-.26 0-.47.21-.47.47 0 .259.21.469.47.469h.62zM23.173 28.946h-.002l-.62.003c-.26 0-.469.212-.468.471.001.258.211.467.47.467h.002l.62-.003c.26 0 .469-.212.468-.471-.001-.258-.211-.467-.47-.467zM27.585 21.907c.054 0 .106 0 .159.003h.021c.25 0 .458-.196.469-.448.011-.259-.19-.478-.449-.49-.066-.002-.133-.004-.2-.004h-.44c-.26 0-.47.21-.47.47 0 .259.21.469.47.469h.44zM25.655 28.935h-.003l-.62.003c-.26 0-.469.212-.467.47 0 .26.21.468.47.468h.001l.62-.003c.26 0 .47-.212.468-.471 0-.259-.211-.467-.47-.467z"/>
</svg>
