<?xml version="1.0" encoding="utf-8"?>
<!-- Generator: Adobe Illustrator 23.0.1, SVG Export Plug-In . SVG Version: 6.00 Build 0)  -->
<svg version="1.1" id="Layer_1" xmlns="http://www.w3.org/2000/svg" xmlns:xlink="http://www.w3.org/1999/xlink" x="0px" y="0px"
	 viewBox="0 0 36 36" style="enable-background:new 0 0 36 36;" xml:space="preserve">
<linearGradient id="SVGID_1_" gradientUnits="userSpaceOnUse" x1="18" y1="38" x2="18" y2="2" gradientTransform="matrix(1 0 0 -1 0 38)">
	<stop  offset="0" style="stop-color:#725EF6"/>
	<stop  offset="1" style="stop-color:#6001D1"/>
</linearGradient>
<path style="fill:url(#SVGID_1_);" d="M18,0L18,0c9.9,0,18,8.1,18,18l0,0c0,9.9-8.1,18-18,18l0,0C8.1,36,0,27.9,0,18l0,0
	C0,8.1,8.1,0,18,0z"/>
<path d="M33.3,7.2H1.6C0.7,7.2,0,8,0,8.9v4.9c0,0.5,0.2,0.9,0.6,1.1c1,0.6,1.6,1.7,1.6,2.9s-0.6,2.3-1.6,2.9C0.2,21,0,21.4,0,21.9
	v4.9c0,0.9,0.7,1.6,1.6,1.6h31.7c0.9,0,1.6-0.7,1.6-1.6V8.9C34.9,8,34.2,7.2,33.3,7.2z"/>
<path style="fill:#FFFFFF;" d="M33.9,26.8c0,0.3-0.3,0.6-0.6,0.6H8.1v0c0-0.3-0.2-0.5-0.5-0.5c-0.3,0-0.5,0.2-0.5,0.5v0H1.6
	c-0.3,0-0.6-0.3-0.6-0.6v-4.9c0-0.1,0-0.2,0.1-0.3c1.3-0.8,2.1-2.2,2.1-3.8s-0.8-3-2.1-3.8C1.1,14,1,13.9,1,13.8V8.9
	c0-0.3,0.3-0.6,0.6-0.6h5.5v0c0,0.3,0.2,0.5,0.5,0.5c0.3,0,0.5-0.2,0.5-0.5v0h25.2c0.3,0,0.6,0.3,0.6,0.6L33.9,26.8L33.9,26.8z"/>
<path d="M7.6,16.7c-0.3,0-0.5,0.2-0.5,0.5v1.1c0,0.3,0.2,0.5,0.5,0.5c0.3,0,0.5-0.2,0.5-0.5v-1.1C8.1,17,7.9,16.7,7.6,16.7z M7.6,10
	c-0.3,0-0.5,0.2-0.5,0.5v1.1c0,0.3,0.2,0.5,0.5,0.5c0.3,0,0.5-0.2,0.5-0.5v-1.1C8.1,10.3,7.9,10,7.6,10z M7.6,13.4
	c-0.3,0-0.5,0.2-0.5,0.5V15c0,0.3,0.2,0.5,0.5,0.5c0.3,0,0.5-0.2,0.5-0.5v-1.1C8.1,13.6,7.9,13.4,7.6,13.4z M7.6,20.1
	c-0.3,0-0.5,0.2-0.5,0.5v1.1c0,0.3,0.2,0.5,0.5,0.5c0.3,0,0.5-0.2,0.5-0.5v-1.1C8.1,20.3,7.9,20.1,7.6,20.1z M7.6,23.5
	c-0.3,0-0.5,0.2-0.5,0.5v1.1c0,0.3,0.2,0.5,0.5,0.5c0.3,0,0.5-0.2,0.5-0.5V24C8.1,23.7,7.9,23.5,7.6,23.5L7.6,23.5z M27.4,16
	c-0.2-0.5-0.6-0.9-1.2-0.9l-3-0.2L22.1,12c-0.2-0.5-0.7-0.9-1.2-0.9c-0.5,0-1,0.3-1.2,0.9l-1.1,2.9l-3,0.2c-0.5,0-1,0.4-1.2,0.9
	c-0.2,0.5,0,1.1,0.4,1.5l2.3,2l-0.7,3c-0.1,0.5,0.1,1.1,0.5,1.4s1,0.3,1.5,0.1l2.6-1.6l2.6,1.6c0.2,0.1,0.5,0.2,0.7,0.2
	c0.3,0,0.5-0.1,0.8-0.3c0.4-0.3,0.6-0.9,0.5-1.4l-0.7-3l2.3-2C27.4,17.1,27.6,16.6,27.4,16z"/>
<path style="fill:#DAC0FF;" d="M26.3,16.7l-2.6,2.2c-0.2,0.1-0.2,0.3-0.2,0.5l0.8,3.3c0,0.2-0.1,0.3-0.1,0.3c0,0-0.2,0.1-0.3,0
	l-2.8-1.8c-0.2-0.1-0.4-0.1-0.5,0l-2.8,1.8c-0.2,0.1-0.3,0-0.3,0c0,0-0.2-0.1-0.1-0.3l0.8-3.3c0-0.2,0-0.4-0.2-0.5l-2.6-2.2
	c-0.1-0.1-0.1-0.3-0.1-0.3c0-0.1,0.1-0.2,0.3-0.2l3.3-0.2c0.2,0,0.4-0.1,0.4-0.3l1.2-3.2c0.1-0.2,0.2-0.2,0.3-0.2
	c0.1,0,0.2,0,0.3,0.2l1.2,3.2c0.1,0.2,0.2,0.3,0.4,0.3l3.3,0.2c0.2,0,0.3,0.2,0.3,0.2C26.4,16.4,26.5,16.6,26.3,16.7z"/>
</svg>
