<svg xmlns="http://www.w3.org/2000/svg" width="36" height="18" fill="none" viewBox="0 0 36 18">
    <path fill="#fff" d="M11.814 3.489c1.665 1.64.223 4.19-.296 4.984-.107.165-.249.305-.416.41-.807.512-3.397 1.931-5.062.292-4.017-3.956-2.972-7.33-2.663-8.083.042-.103.124-.184.229-.225.764-.304 4.19-1.334 8.208 2.622z"/>
    <path fill="#fff" d="M3.606.867c-.105.041-.187.122-.23.225-.074.182-.192.518-.27.978 1.464-.243 4.17-.11 7.215 2.89 1.33 1.308.678 3.198.098 4.311.285-.144.52-.284.683-.387.167-.106.309-.246.416-.41.52-.795 1.961-3.345.296-4.985C7.797-.467 4.37.563 3.606.867z"/>
    <path fill="#7A1DFF" d="M9.522 13.354c-.362.14-.746.267-1.021.539-.344.34-.62 1.23.666 1.338 2.977.249 8.803.302 11.877-1.716 2.003-1.315 3.1-2.666 7.084-6.75 2.427-2.486-.147-2.93-.89-2.95-1.415-.037-5.835-.48-8.146 2.039-3.007 3.276-7.313 6.631-9.57 7.5z"/>
    <path fill="#DAC0FF" d="M6.202 13.354c-.362.14-.747.267-1.021.539-.344.34-.62 1.23.666 1.338 2.977.249 8.803.302 11.877-1.716 2.003-1.315 3.099-2.666 7.084-6.75 2.427-2.486-.147-2.93-.89-2.95-1.416-.037-5.835-.48-8.146 2.039-3.008 3.276-7.314 6.631-9.57 7.5z"/>
    <path fill="#DAC0FF" stroke="#000" d="M3.1 13.354c-.363.14-.747.267-1.022.539-.344.34-.62 1.23.666 1.338 2.977.249 8.803.302 11.877-1.716 2.003-1.315 3.1-2.666 7.084-6.75 2.427-2.486-.147-2.93-.89-2.95-1.416-.037-5.835-.48-8.146 2.039-3.007 3.276-7.314 6.631-9.57 7.5z"/>
    <path fill="#fff" d="M26.55 10.765c1.203 0 2.179-.96 2.179-2.146 0-1.185-.976-2.146-2.18-2.146-1.204 0-2.18.96-2.18 2.146 0 1.185.976 2.146 2.18 2.146z"/>
    <path fill="#fff" d="M28.729 12.911c1.204 0 2.18-.96 2.18-2.146 0-1.185-.976-2.146-2.18-2.146-1.204 0-2.18.96-2.18 2.146 0 1.185.976 2.146 2.18 2.146z"/>
    <path fill="#fff" d="M24.37 12.911c1.203 0 2.18-.96 2.18-2.146 0-1.185-.977-2.146-2.18-2.146-1.204 0-2.18.96-2.18 2.146 0 1.185.976 2.146 2.18 2.146z"/>
    <path fill="gray" d="M31.43 17.48H4.57c-1.165 0-2.11-.93-2.11-2.076v-.416h31.08v.416c0 1.147-.945 2.077-2.11 2.077z"/>
    <path fill="#000" d="M31.43 14.988v.416c0 1.147-.945 2.077-2.11 2.077h2.11c1.165 0 2.11-.93 2.11-2.077v-.416h-2.11z"/>
    <path fill="gray" d="M34.066 14.988H1.934c-.777 0-1.407-.62-1.407-1.384v-.416c0-.153.126-.277.282-.277H35.19c.156 0 .282.124.282.277v.416c0 .764-.63 1.384-1.407 1.384z"/>
    <path fill="#000" d="M35.191 12.911h-2.109c.155 0 .281.124.281.277v.416c0 .764-.63 1.384-1.406 1.384h2.11c.776 0 1.406-.62 1.406-1.384v-.416c0-.153-.126-.277-.282-.277z"/>
    <path fill="#000" fill-rule="evenodd" d="M33.799 12.392h1.392c.446 0 .809.357.809.796v.416c0 1.05-.867 1.904-1.934 1.904h-.002C34.01 16.89 32.848 18 31.43 18H9.04c-.29 0-.527-.233-.527-.52 0-.286.236-.519.527-.519H31.43c.837 0 1.524-.643 1.578-1.453H2.992c.054.81.741 1.453 1.578 1.453h2.193c.29 0 .527.233.527.52 0 .286-.236.519-.527.519H4.57c-1.418 0-2.579-1.109-2.634-2.492h-.002C.867 15.508 0 14.652 0 13.604v-.416c0-.439.363-.796.809-.796h3.1c.907-.497 1.97-1.217 3.077-2.067-.496-.145-.937-.406-1.319-.783-1.789-1.761-2.833-3.625-3.103-5.538-.22-1.554.153-2.69.324-3.106.096-.234.28-.416.518-.512.49-.194 1.82-.605 3.624-.24.286.057.47.332.411.613-.058.28-.337.462-.622.404-1.47-.297-2.54.004-2.971.168-.144.37-.416 1.276-.24 2.53.239 1.684 1.182 3.349 2.805 4.947.45.443 1.01.644 1.709.612.57-.471 1.14-.967 1.697-1.475l-.227-.225-.991.3c-.052.016-.104.024-.155.024-.226 0-.434-.144-.504-.367-.086-.274.07-.565.349-.649l.457-.139-.998-.982-.99.3c-.277.084-.574-.068-.66-.344-.086-.274.07-.564.349-.649l.457-.138-.725-.714c-.206-.202-.206-.531 0-.734.206-.203.54-.203.746 0l.725.714.14-.45c.086-.274.381-.428.66-.344.278.084.434.375.349.649l-.305.976.998.982.14-.45c.086-.274.38-.428.66-.344.278.085.434.375.348.65l-.305.975.248.243c.51-.488 1.001-.983 1.461-1.474.091-.787-.107-1.41-.604-1.899-.861-.848-1.754-1.515-2.655-1.983-.257-.134-.356-.449-.22-.702.136-.254.456-.35.713-.217.994.517 1.972 1.247 2.908 2.168.47.464.767 1.03.88 1.673 2.337-1.731 5.77-1.583 7.332-1.515H20.413c.133.006.252.012.357.015 1.09-.086 2.082-.043 2.74-.015.161.007.303.014.423.017l.084.003c1.116-.093 2.132-.049 2.808-.02h.015c.157.008.295.014.413.017.188.005 1.86.08 2.317 1.175.291.7-.005 1.514-.904 2.488.274.337.466.741.547 1.183 1.262.225 2.223 1.315 2.223 2.622 0 .612-.21 1.177-.564 1.627h.633c.292 0 .528.233.528.52 0 .286-.236.519-.528.519H1.055v.173c0 .477.394.865.879.865h32.132c.485 0 .88-.388.88-.865v-.173h-1.147c-.292 0-.528-.233-.528-.52 0-.286.236-.519.528-.519zm-7.25-3.206c.381-.508.94-.879 1.587-1.022-.2-.676-.836-1.172-1.587-1.172-.75 0-1.386.496-1.586 1.172.646.143 1.205.514 1.586 1.022zm-2.18 3.206c-.91 0-1.652-.73-1.652-1.627s.741-1.627 1.652-1.627c.912 0 1.653.73 1.653 1.627s-.741 1.627-1.653 1.627zm-2.326-.265c-.24-.397-.38-.86-.38-1.356-.63.645-1.156 1.167-1.654 1.621h1.706c.11-.085.218-.174.328-.265zm8.338-1.362c0 .897-.741 1.627-1.652 1.627-.911 0-1.653-.73-1.653-1.627s.742-1.627 1.653-1.627c.91 0 1.652.73 1.652 1.627zm-1.787-5.899c-.143-.342-.902-.519-1.37-.531l-.445-.017h-.009c-.18-.009-.386-.017-.61-.024.033.056.063.115.09.178.189.455.13.959-.182 1.524.156-.028.317-.042.481-.042.476 0 .923.121 1.312.334.576-.618.849-1.144.733-1.422zm-4.69-.53c.468.011 1.227.189 1.37.53.123.296-.193.871-.846 1.54-.867.888-1.597 1.647-2.228 2.303-1.748 1.817-2.742 2.85-3.805 3.683h-1.49c.808-.736 1.686-1.647 2.956-2.967.631-.656 1.36-1.413 2.225-2.3 1.021-1.046 1.368-1.914 1.06-2.653-.025-.06-.053-.117-.085-.17.131.004.263.01.389.015.17.008.328.015.454.018zM13.06 6.2l-.112.122c-1.146 1.319-4.264 4.204-7.048 6.07h9.391c1.064-.835 2.06-1.87 3.809-3.687.63-.656 1.36-1.413 2.225-2.3.653-.669.969-1.245.846-1.54-.21-.502-1.3-.533-1.719-.545l-.097-.003c-1.603-.07-5.353-.233-7.295 1.883z" clip-rule="evenodd"/>
</svg>
