<svg xmlns="http://www.w3.org/2000/svg" width="32" height="32" fill="none" viewBox="0 0 32 32">
    <path fill="#fff" d="M29.69 11.054l-27.439-.025-.001.034v20.312h27.5V11.063l-.06-.01z"/>
    <path fill="#DAC0FF" d="M6 18.125v13.25h7.5v-13.25H6z"/>
    <path fill="#838383" d="M27.25 1.875v1.25H4.75v-1.25c0-.69.56-1.25 1.25-1.25h20c.69 0 1.25.56 1.25 1.25z"/>
    <path fill="#DAC0FF" d="M26 18.125h-7.5v6.625H26v-6.625z"/>
    <path fill="#838383" d="M27.25 3.125H23.5l2.5 7.5v1.25c0 1.38 1.307 2.5 2.688 2.5 1.38 0 2.687-1.12 2.687-2.5v-1.25l-4.125-7.5zM16 3.125v8.75c0 1.38 1.12 2.5 2.5 2.5s2.5-1.12 2.5-2.5v-1.25l-1.25-7.5H16zM6 10.625v1.25c0 1.38 1.12 2.5 2.5 2.5s2.5-1.12 2.5-2.5v-1.25l1.25-7.5H8.5l-2.5 7.5z"/>
    <path fill="#838383" d="M23.5 3.125h-3.75l1.25 7.5v1.25c0 1.38 1.12 2.5 2.5 2.5s2.5-1.12 2.5-2.5v-1.25l-2.5-7.5zM11 10.625v1.25c0 1.38 1.12 2.5 2.5 2.5s2.5-1.12 2.5-2.5v-8.75h-3.75l-1.25 7.5zM.625 10.625v1.25c0 1.378 1.305 2.5 2.688 2.5 1.38 0 2.687-1.12 2.687-2.5v-1.25l2.5-7.5H4.75l-4.125 7.5z"/>
    <path fill="#000" d="M27.875 2.965v-1.09C27.875.841 27.034 0 26 0H6C4.966 0 4.125.841 4.125 1.875v1.09C.048 10.492 0 10.27 0 10.625v1.25c0 1.083.626 2.09 1.625 2.664v16.836c0 .345.28.625.625.625h27.5c.345 0 .625-.28.625-.625V14.539c.989-.573 1.625-1.592 1.625-2.664v-1.25c0-.359-.088-.205-4.125-7.66zM5.12 3.75h2.513L5.55 10H1.682L5.12 3.75zm6.392 0L10.47 10H6.867L8.95 3.75h2.562zm7.709 0L20.262 10h-3.637V3.75h2.596zm3.828 0L25.133 10h-3.604l-1.041-6.25h2.561zM15.375 10h-3.637l1.042-6.25h2.595V10zm-8.75 1.25h3.75v.625c0 1.034-.841 1.875-1.875 1.875s-1.875-.841-1.875-1.875v-.625zm5 0h3.75v.625c0 1.034-.841 1.875-1.875 1.875s-1.875-.841-1.875-1.875v-.625zm5 0h3.75v.625c0 1.034-.841 1.875-1.875 1.875s-1.875-.841-1.875-1.875v-.625zm5 0h3.75v.625c0 1.034-.841 1.875-1.875 1.875s-1.875-.841-1.875-1.875v-.625zM26.451 10l-2.084-6.25h2.514L30.318 10h-3.867zM5.375 1.875c0-.345.28-.625.625-.625h20c.345 0 .625.28.625.625V2.5H5.375v-.625zM1.25 11.25h4.125v.625c0 .981-.983 1.875-2.063 1.875-.272 0-.554-.06-.816-.171-.745-.317-1.246-1.002-1.246-1.704v-.625zm11.625 12.875h-6.25V18.75h6.25v5.375zm-6.25 1.25h6.25v5.375h-6.25v-5.375zm7.5 5.375V18.125c0-.345-.28-.625-.625-.625H6c-.345 0-.625.28-.625.625V30.75h-2.5V14.97c.145.02.29.03.438.03.822 0 1.654-.326 2.28-.894.14-.126.264-.26.376-.4C6.538 14.488 7.46 15 8.5 15c1.021 0 1.93-.492 2.5-1.252.57.76 1.479 1.252 2.5 1.252s1.93-.492 2.5-1.252c.57.76 1.479 1.252 2.5 1.252s1.93-.492 2.5-1.252c.57.76 1.479 1.252 2.5 1.252 1.04 0 1.962-.511 2.53-1.295.113.14.238.275.376.4.627.57 1.459.895 2.282.895.146 0 .292-.01.437-.03v15.78h-15zM30.75 11.875c0 .722-.52 1.414-1.292 1.723-.253.101-.512.152-.77.152-1.08 0-2.063-.894-2.063-1.875v-.625h4.125v.625z"/>
    <path fill="#000" d="M27.25 24.125h-.625v-6c0-.345-.28-.625-.625-.625h-7.5c-.345 0-.625.28-.625.625v6h-.625c-.345 0-.625.28-.625.625s.28.625.625.625h10c.345 0 .625-.28.625-.625s-.28-.625-.625-.625zm-8.125-5.375h6.25v5.375h-6.25V18.75z"/>
</svg>
