<svg xmlns="http://www.w3.org/2000/svg" width="32" height="24" fill="none" viewBox="0 0 32 24">
    <path fill="#DAC0FF" d="M.62 3.051h2.723v16.177c1.323-.2 2.658-.303 3.995-.31 1.867-.03 3.727.25 5.502.831l1.507 1.203c-.887-.099-3.56-.149-4.435-.149-2.89-.024-5.754.532-8.423 1.638l-.869.372V3.051zM30.505 22.441c-2.67-1.106-5.534-1.662-8.423-1.637-.881 0-3.4.099-4.28.198l1.352-1.24c1.782-.588 3.65-.873 5.527-.844 1.337.007 2.672.11 3.994.31V3.051h2.723V22.82l-.893-.378z"/>
    <path fill="#fff" d="M15.036 20.797c-1.31-.855-3.722-1.86-7.704-1.86-1.102.004-2.202.076-3.294.217l-.695.087V1.705l.484-.111c1.253-.278 2.532-.42 3.815-.422 2.431 0 5.824.564 8.2 3.244l.155.155v16.86l-.961-.634zM15.997 4.571l.155-.174c2.376-2.685 5.775-3.244 8.2-3.244 1.283.003 2.562.145 3.815.422l.483.112v17.535l-.694-.087c-1.086-.14-2.18-.212-3.275-.217-4.001 0-6.395 1.024-7.704 1.86l-.962.621-.018-16.828z"/>
    <path fill="#000" d="M31.373 2.431h-2.102v-.72c.011-.284-.173-.54-.447-.62-1.46-.382-2.963-.574-4.472-.57-2.481 0-5.862.558-8.361 3.1-2.481-2.567-5.887-3.1-8.362-3.1-1.509-.004-3.012.188-4.472.57-.273.08-.458.336-.446.62v.714H.62c-.343 0-.621.278-.621.62v19.812c0 .342.278.62.62.62.107 0 .211-.028.304-.08.062-.032 6.265-3.425 14.924-1.241h.149c.05.006.1.006.149 0 8.684-2.202 14.886 1.184 14.924 1.24.192.111.428.111.62 0 .19-.11.309-.313.31-.533V3.05c0-.342-.278-.62-.62-.62h-.006zM1.241 21.871V3.67h1.482v15.557c-.004.343.27.623.613.627.034 0 .067-.002.1-.007 1.284-.196 2.579-.3 3.877-.31 1.798-.031 3.589.24 5.297.8-3.858-.466-7.772.061-11.37 1.532zm14.136-1.588c-1.29-.844-3.809-1.98-8.064-1.98-1.128.003-2.255.076-3.374.218V2.2c1.207-.269 2.44-.406 3.678-.409 2.32 0 5.52.534 7.741 3.04l.019 15.45zm1.24-15.452c2.22-2.48 5.421-3.039 7.741-3.039 1.237.004 2.47.141 3.678.41V18.52c-1.113-.143-2.233-.218-3.355-.223-4.23 0-6.755 1.135-8.064 1.978V4.831zm14.136 17.04c-3.605-1.476-7.528-2.003-11.394-1.533 1.716-.563 3.515-.833 5.322-.8 1.306.008 2.61.11 3.901.304.339.052.655-.181.707-.52.005-.033.007-.067.007-.1V3.672h1.482l-.025 18.198z"/>
</svg>
