<svg xmlns="http://www.w3.org/2000/svg" width="100" height="100" fill="none" viewBox="0 0 100 100">
    <circle cx="50" cy="50" r="50" fill="#F5F5F5"/>
    <path fill="#fff" d="M36.422 75.885c4.678 0 8.47-1.544 8.47-3.448 0-1.905-3.792-3.449-8.47-3.449-4.677 0-8.47 1.544-8.47 3.449 0 1.904 3.792 3.448 8.47 3.448z"/>
    <path fill="#fff" fill-rule="evenodd" d="M24.116 52.441c0-6.79 5.509-12.294 12.305-12.294 6.797 0 12.306 5.504 12.306 12.294 0 10.34-12.306 19.854-12.306 19.854s-12.305-9.514-12.305-19.854zm7.398 0c0 2.709 2.197 4.904 4.908 4.904 2.71 0 4.908-2.195 4.908-4.904 0-2.708-2.197-4.903-4.908-4.903-2.71 0-4.908 2.195-4.908 4.904z" clip-rule="evenodd"/>
    <path fill="#DCDCDC" d="M36.422 40.147c-.477 0-.947.028-1.41.08 6.133.7 10.898 5.9 10.898 12.214 0 8.163-7.667 15.808-10.897 18.668.862.763 1.409 1.186 1.409 1.186s12.306-9.514 12.306-19.853c0-6.79-5.51-12.295-12.306-12.295z"/>
    <path fill="#fff" d="M66.426 51.582c3.595 0 6.51-1.187 6.51-2.65 0-1.464-2.915-2.65-6.51-2.65-3.596 0-6.51 1.186-6.51 2.65 0 1.463 2.915 2.65 6.51 2.65z"/>
    <path fill="#fff" fill-rule="evenodd" d="M56.969 33.565c0-5.219 4.234-9.45 9.457-9.45 5.224 0 9.458 4.231 9.458 9.45 0 7.947-9.458 15.259-9.458 15.259s-9.457-7.312-9.457-15.26zm5.685 0c0 2.081 1.69 3.769 3.773 3.769s3.772-1.688 3.772-3.77c0-2.08-1.69-3.768-3.772-3.768-2.084 0-3.773 1.687-3.773 3.769z" clip-rule="evenodd"/>
    <path fill="#DCDCDC" d="M66.426 24.116c-.478 0-.949.035-1.409.104 4.555.68 8.049 4.604 8.049 9.345 0 6.012-5.413 11.66-8.049 14.054.848.77 1.41 1.205 1.41 1.205s9.457-7.312 9.457-15.26c0-5.218-4.234-9.448-9.458-9.448z"/>
    <path fill="#000" fill-rule="evenodd" d="M23.333 52.441c0-7.21 5.872-13.076 13.089-13.076 7.217 0 13.088 5.866 13.089 13.077 0 3.057-1.02 6.32-3.03 9.697-.221.372-.702.493-1.074.273-.371-.22-.493-.7-.272-1.072 1.864-3.132 2.81-6.126 2.81-8.898 0-6.348-5.17-11.513-11.523-11.513-6.354 0-11.523 5.165-11.523 11.513 0 6.384 5 12.54 8.545 16.103.172.077.312.214.392.39 1.116 1.095 2.053 1.907 2.586 2.352.54-.45 1.491-1.273 2.621-2.383.076-.147.197-.264.342-.338 1.261-1.264 2.707-2.856 4.043-4.667.256-.348.747-.422 1.095-.166.347.256.422.746.165 1.094-1.106 1.5-2.272 2.844-3.356 3.987 2.713.741 4.342 2.071 4.342 3.622 0 2.748-4.767 4.23-9.252 4.23-4.486 0-9.253-1.482-9.253-4.23 0-1.552 1.63-2.882 4.344-3.622-.597-.63-1.22-1.32-1.844-2.066-4.204-5.016-6.336-9.83-6.336-14.307zm13.568 20.473c-.141.109-.31.163-.48.163-.168 0-.337-.054-.478-.163-.083-.065-1.393-1.084-3.147-2.798-2.641.538-4.061 1.574-4.061 2.32 0 1.087 2.994 2.667 7.687 2.667 2.163 0 4.185-.339 5.693-.953 1.23-.5 1.993-1.157 1.993-1.714 0-.745-1.42-1.781-4.06-2.319-1.743 1.703-3.05 2.722-3.147 2.797z" clip-rule="evenodd"/>
    <path fill="#000" d="M31.92 50.334c-.416-.118-.85.121-.969.536-.146.51-.22 1.038-.22 1.572 0 3.135 2.553 5.685 5.69 5.685 3.139 0 5.692-2.55 5.692-5.686 0-3.135-2.553-5.685-5.691-5.685-1.238 0-2.415.39-3.405 1.13-.346.258-.417.748-.158 1.094.259.346.75.416 1.096.158.716-.535 1.57-.818 2.467-.818 2.275 0 4.125 1.849 4.125 4.121 0 2.273-1.85 4.122-4.125 4.122s-4.125-1.849-4.125-4.122c0-.387.053-.77.16-1.139.118-.415-.122-.848-.537-.968z"/>
    <path fill="#000" fill-rule="evenodd" d="M70.535 46.054c2.017.607 3.183 1.639 3.183 2.878 0 1.047-.85 1.97-2.394 2.599-1.32.537-3.06.834-4.898.834-1.838 0-3.577-.297-4.898-.834-1.544-.629-2.394-1.552-2.394-2.599 0-1.241 1.165-2.272 3.182-2.878-.398-.427-.808-.887-1.219-1.378-3.259-3.888-4.912-7.627-4.912-11.111 0-.432.351-.782.783-.782.433 0 .783.35.783.782 0 4.834 3.789 9.508 6.492 12.227.148.074.272.194.348.345.766.75 1.42 1.324 1.835 1.675C68.31 46.22 75.1 40.028 75.1 33.565c0-4.78-3.891-8.668-8.675-8.668-3.494 0-6.632 2.079-7.994 5.294-.168.398-.627.584-1.025.416-.398-.168-.585-.627-.416-1.025 1.606-3.796 5.31-6.249 9.435-6.249 5.647 0 10.24 4.59 10.24 10.232 0 3.484-1.652 7.223-4.91 11.111-.412.491-.822.951-1.22 1.378zM60.7 48.932c0 .634 2.022 1.868 5.727 1.868 3.705 0 5.727-1.234 5.727-1.868 0-.229-.27-.53-.72-.804-.53-.323-1.288-.596-2.163-.782-1.321 1.284-2.301 2.047-2.365 2.096-.14.11-.31.164-.479.164-.169 0-.338-.055-.479-.164-.063-.049-1.044-.812-2.365-2.096-1.963.417-2.883 1.173-2.883 1.586z" clip-rule="evenodd"/>
    <path fill="#000" fill-rule="evenodd" d="M66.426 29.014c2.512 0 4.555 2.041 4.555 4.55 0 2.51-2.043 4.551-4.555 4.551-2.512 0-4.555-2.041-4.555-4.55 0-2.51 2.044-4.551 4.555-4.551zm0 1.564c-1.648 0-2.99 1.34-2.99 2.987 0 1.646 1.342 2.986 2.99 2.986 1.649 0 2.99-1.34 2.99-2.986 0-1.647-1.341-2.987-2.99-2.987z" clip-rule="evenodd"/>
    <path fill="#000" d="M56.272 49.714c.433 0 .783-.35.783-.782 0-.432-.35-.782-.783-.782h-.357c-.26 0-.522.017-.778.051-.428.057-.73.45-.672.879.052.393.388.679.774.679.035 0 .07-.002.105-.007.187-.025.38-.038.57-.038h.358zM53.684 71.614h-.003l-1.034.005c-.432.002-.781.354-.78.786.003.43.353.778.783.778h.004l1.034-.005c.432-.001.78-.353.779-.785-.002-.43-.352-.779-.783-.779zM57.201 59.844c.433 0 .783-.35.783-.782 0-.432-.35-.782-.783-.782h-1.034c-.432 0-.782.35-.782.782 0 .432.35.782.782.782h1.034zM51.337 51.681c.139.1.298.147.457.147.243 0 .483-.113.636-.326.17-.236.365-.456.579-.654.318-.292.337-.787.044-1.105-.293-.317-.788-.337-1.106-.044-.292.269-.557.568-.789.89-.252.352-.172.84.18 1.092zM57.82 71.595h-.004l-1.034.005c-.432.002-.78.354-.779.786.002.43.352.778.783.778h.003l1.034-.005c.432-.001.781-.353.78-.785-.002-.43-.353-.779-.783-.779zM49.549 71.633h-.004l-1.034.005c-.432.001-.78.353-.78.785.003.431.353.779.784.779h.003l1.034-.005c.432-.002.781-.354.78-.785-.002-.431-.352-.78-.783-.78zM53.213 59.066c.26 0 .514-.129.663-.365.23-.365.121-.848-.245-1.078-.245-.155-.477-.336-.687-.538-.312-.3-.807-.29-1.107.021-.3.311-.29.807.022 1.106.286.275.602.522.937.734.13.081.274.12.417.12zM51.707 54.822c-.053-.27-.08-.547-.08-.825l.001-.043c.005-.432-.341-.786-.774-.791h-.009c-.428 0-.777.344-.782.773v.061c0 .378.036.756.107 1.124.073.373.4.633.768.633.05 0 .1-.005.15-.015.425-.083.702-.493.62-.917zM61.337 59.844c.432 0 .783-.35.783-.782 0-.432-.35-.782-.783-.782h-1.034c-.432 0-.783.35-.783.782 0 .432.35.782.783.782h1.034zM73.419 61.268c.231 0 .46-.102.615-.297.268-.34.21-.831-.13-1.099-.301-.237-.623-.454-.958-.642-.376-.212-.854-.078-1.066.298-.212.376-.079.853.298 1.065.264.149.518.32.757.507.143.114.314.168.484.168zM70.117 71.488c-.257.036-.52.054-.781.055l-.147.001c-.432.002-.78.354-.779.786.002.43.353.778.783.778h.15c.33-.002.663-.026.988-.07.428-.06.727-.454.668-.882-.06-.428-.455-.727-.882-.668zM73.347 69.93c-.22.209-.457.402-.707.575-.355.246-.443.733-.197 1.088.152.22.396.337.644.337.154 0 .31-.045.445-.14.316-.218.617-.463.895-.728.313-.298.325-.793.026-1.105-.298-.313-.793-.325-1.106-.027zM75.977 66.158c-.424-.08-.834.2-.914.624-.056.297-.136.593-.238.878-.145.407.067.854.475 1 .087.03.175.045.263.045.321 0 .623-.2.737-.52.129-.361.23-.736.302-1.114.08-.424-.2-.833-.625-.913zM74.996 62.185c-.391.182-.56.648-.378 1.039.128.275.236.561.32.852.098.343.411.566.751.566.072 0 .144-.01.217-.03.415-.12.655-.553.536-.968-.106-.369-.242-.733-.405-1.081-.183-.392-.648-.56-1.04-.378zM65.472 59.844c.433 0 .783-.35.783-.782 0-.432-.35-.782-.782-.782h-1.034c-.433 0-.783.35-.783.782 0 .432.35.782.783.782h1.034zM61.956 71.577h-.004l-1.034.004c-.432.002-.781.354-.78.786.003.43.353.778.784.778h.003l1.034-.004c.432-.002.781-.354.78-.786-.003-.43-.353-.778-.783-.778zM69.31 59.844c.088 0 .176.002.263.006l.036.001c.416 0 .762-.328.78-.747.02-.432-.315-.797-.746-.816-.111-.005-.223-.008-.334-.008h-.735c-.432 0-.783.35-.783.782 0 .433.35.783.783.783h.735zM66.091 71.558h-.003l-1.034.004c-.433.002-.782.354-.78.786.002.43.352.779.783.779h.004l1.033-.005c.433-.002.782-.354.78-.786-.002-.43-.352-.778-.783-.778z"/>
</svg>
