<svg xmlns="http://www.w3.org/2000/svg" width="100" height="100" fill="none" viewBox="0 0 100 100">
    <circle cx="50" cy="50" r="50" fill="#F5F5F5"/>
    <path fill="#00C" d="M59.654 31.748c-1.74.67-3.678.67-5.417 0-.472-.183-1.009-.06-1.367.298L24.363 60.553c-.358.358-.48.894-.298 1.367.671 1.74.671 3.677 0 5.416-.182.473-.06 1.01.298 1.368l12.543 12.542c.358.358.894.48 1.367.298 1.739-.67 3.677-.67 5.416 0 .473.182 1.01.06 1.367-.298l28.507-28.507c.358-.358.48-.894.298-1.367-.67-1.74-.67-3.677 0-5.416.183-.473.06-1.01-.298-1.368L61.021 32.046c-.358-.358-.894-.48-1.367-.298z" opacity=".1"/>
    <path fill="#DCDCDC" d="M59.654 29.026c-1.74.67-3.678.67-5.417 0-.472-.182-1.009-.06-1.367.298L24.363 57.831c-.358.358-.48.894-.298 1.367.671 1.74.671 3.678 0 5.417-.182.472-.06 1.009.298 1.367l12.543 12.542c.358.358.894.48 1.367.298 1.739-.67 3.677-.67 5.416 0 .473.182 1.01.06 1.367-.298l28.507-28.507c.358-.358.48-.894.298-1.367-.67-1.74-.67-3.677 0-5.416.183-.473.06-1.01-.298-1.368L61.021 29.324c-.358-.358-.894-.48-1.367-.298z"/>
    <path fill="#fff" d="M43.07 74.623c-1.38-.256-2.798-.256-4.177 0-.208.038-.42-.03-.57-.18l-9.879-9.88c-.149-.148-.218-.361-.18-.569.257-1.38.257-2.797 0-4.176-.038-.207.031-.42.18-.57l25.844-25.843c.149-.15.362-.218.57-.18 1.379.256 2.796.256 4.176 0 .207-.038.42.03.57.18l9.878 9.879c.15.15.219.362.18.57-.256 1.379-.256 2.796 0 4.176.039.207-.03.42-.18.57L43.64 74.442c-.15.15-.362.219-.57.18z"/>
    <path fill="#F5F5F5" d="M54.288 33.405L41.365 46.327 56.56 61.52 69.482 48.6c.15-.149.219-.361.18-.569-.256-1.38-.256-2.797 0-4.177.038-.207-.03-.42-.18-.569l-9.879-9.88c-.15-.148-.362-.218-.57-.179-1.379.256-2.796.256-4.176 0-.207-.038-.42.03-.57.18z"/>
    <path fill="#000" d="M48.17 76.058c-.165 0-.33-.064-.457-.19-.253-.253-.253-.663 0-.916L73.105 49.56c.181-.181.24-.447.152-.677-.732-1.896-.732-3.986 0-5.882.089-.23.03-.496-.152-.676l-9.428-9.428c-.253-.253-.253-.663 0-.916s.663-.253.916 0l9.428 9.428c.543.542.717 1.35.444 2.058-.615 1.596-.615 3.354 0 4.95.273.708.099 1.516-.444 2.059L48.629 75.868c-.127.126-.293.19-.458.19zM44.14 79.554c-.23 0-.462-.042-.684-.127-1.596-.616-3.354-.616-4.95 0-.708.272-1.516.098-2.059-.445L23.905 66.44c-.543-.543-.717-1.35-.444-2.058.615-1.597.615-3.355 0-4.95-.273-.708-.099-1.516.444-2.06l28.507-28.506c.543-.543 1.35-.717 2.058-.444 1.596.615 3.355.616 4.95 0 .708-.273 1.516-.099 2.059.444.253.253.253.663 0 .916s-.663.253-.916 0c-.18-.18-.446-.24-.676-.152-1.897.732-3.986.732-5.883 0-.23-.088-.495-.029-.676.152L24.82 58.29c-.18.18-.24.446-.152.676.732 1.897.732 3.986 0 5.883-.088.23-.029.495.152.676l12.542 12.542c.181.181.447.241.677.152 1.896-.731 3.985-.732 5.882 0 .23.089.496.03.676-.152.253-.253.663-.253.916 0s.253.663 0 .916c-.372.373-.87.572-1.374.572z"/>
    <path fill="#B5B5B5" d="M34.504 63.492h-2.017c-.357 0-.647-.29-.647-.648v-2.016c0-.357.29-.647.647-.647h2.017c.357 0 .647.29.647.647v2.016c0 .358-.29.648-.647.648zm-1.369-1.295h.721v-.721h-.72v.72zM42.039 63.492h-2.016c-.358 0-.648-.29-.648-.648v-2.016c0-.357.29-.647.648-.647h2.016c.357 0 .647.29.647.647v2.016c0 .358-.29.648-.647.648zm-1.369-1.295h.721v-.721h-.72v.72zM37.263 66.842c-.357 0-.647-.29-.647-.648v-8.716c0-.358.29-.648.647-.648.358 0 .648.29.648.648v8.716c0 .358-.29.648-.648.648zM39.434 69.51l3.894-3.895c.253-.253.664-.253.917 0 .253.254.253.664 0 .917l-3.895 3.895c-.253.253-.663.253-.916 0-.254-.253-.254-.664 0-.917zM41.205 71.282l9.394-9.394c.253-.253.663-.253.916 0 .253.254.253.664 0 .917l-9.393 9.393c-.253.254-.664.254-.917 0-.253-.253-.253-.663 0-.916"/>
    <path fill="#fff" d="M57.034 53.276c4.099 0 7.422-3.323 7.422-7.422 0-4.1-3.323-7.423-7.422-7.423-4.1 0-7.423 3.323-7.423 7.423s3.323 7.422 7.423 7.422z"/>
    <path fill="#000" d="M57.558 49.675c-.166 0-.331-.063-.458-.19-.253-.252-.253-.662 0-.915l1.922-1.922c.125-.125.193-.29.193-.467 0-.176-.068-.342-.193-.466-.257-.258-.676-.258-.933 0l-1.195 1.194c-.762.762-2.003.762-2.765 0s-.762-2.003 0-2.765l1.922-1.922c.253-.253.663-.253.916 0 .252.253.252.663 0 .916l-1.922 1.922c-.258.257-.258.675 0 .933.257.257.676.257.933 0l1.194-1.194c.763-.763 2.003-.763 2.766 0 .37.37.572.86.572 1.382 0 .523-.203 1.014-.572 1.383l-1.922 1.922c-.126.126-.292.19-.458.19z"/>
    <path fill="#000" d="M59.571 49.04c-.165 0-.331-.064-.458-.19l-5.076-5.076c-.253-.253-.253-.663 0-.916s.663-.253.916 0l5.076 5.076c.253.253.253.663 0 .916-.126.126-.292.19-.458.19zM41.394 51.112c.4 0 .724-.324.724-.724 0-.4-.324-.724-.724-.724-.4 0-.725.324-.725.724 0 .4.325.724.725.724zM42.943 52.662c.4 0 .725-.324.725-.724 0-.4-.325-.725-.725-.725-.4 0-.724.325-.724.725 0 .4.324.724.724.724zM44.493 54.212c.4 0 .724-.324.724-.725 0-.4-.324-.724-.724-.724-.4 0-.724.324-.724.724 0 .4.324.725.724.725z"/>
</svg>
