<svg width="50" height="50" fill="none" xmlns="http://www.w3.org/2000/svg">
    <defs>
        <linearGradient id="a" x1="25" y1="0" x2="25" y2="50" gradientUnits="userSpaceOnUse">
            <stop stop-color="#FAF6FF"/>
            <stop offset="1" stop-color="#DEC7FF"/>
        </linearGradient>
        <linearGradient id="c" x1="25" y1="11.439" x2="25" y2="38.561" gradientUnits="userSpaceOnUse">
            <stop stop-color="#725EF6"/>
            <stop offset="1" stop-color="#6001D1"/>
        </linearGradient>
        <clipPath id="b">
            <path fill="#fff" transform="translate(5.357 5.357)" d="M0 0h39.286v39.286H0z"/>
        </clipPath>
    </defs>
    <rect width="50" height="50" rx="10" fill="url(#a)"/>
    <g clip-path="url(#b)">
        <path d="M42.275 11.439H7.725a2.368 2.368 0 0 0-2.368 2.367v22.387a2.368 2.368 0 0 0 2.368 2.368h34.55a2.368 2.368 0 0 0 2.368-2.368V13.807a2.368 2.368 0 0 0-2.368-2.368z" fill="url(#c)"/>
        <path d="M32.598 15.697v3.856c0 .606.49 1.096 1.096 1.096h6.05c.605 0 1.095-.49 1.095-1.096v-3.856c0-.605-.49-1.096-1.096-1.096h-6.049c-.605 0-1.096.49-1.096 1.096z" fill="#FC4"/>
        <path d="M9.241 15.33h1.704c.338 0 .59.014.755.043.166.028.314.086.445.176.13.089.24.207.327.356.087.148.13.314.13.499a1 1 0 0 1-.6.925c.262.075.461.204.6.386.14.182.21.397.21.643 0 .194-.045.382-.135.566a1.14 1.14 0 0 1-.37.439 1.22 1.22 0 0 1-.577.202c-.143.015-.49.025-1.038.029H9.241V15.33zm.86.71v.986h.565c.335 0 .544-.005.625-.015a.57.57 0 0 0 .348-.152.45.45 0 0 0 .126-.333.468.468 0 0 0-.109-.322.494.494 0 0 0-.324-.15c-.085-.01-.33-.014-.736-.014h-.494zm0 1.695v1.14h.798c.31 0 .507-.008.59-.026a.533.533 0 0 0 .313-.17c.08-.09.12-.21.12-.362a.557.557 0 0 0-.093-.326.526.526 0 0 0-.269-.194c-.117-.041-.372-.062-.763-.062h-.695zM17.384 19.594h-.937l-.372-.969h-1.704l-.352.969h-.913l1.66-4.264h.91l1.708 4.264zm-1.585-1.687-.588-1.582-.576 1.582H15.8zM17.85 19.594V15.33h.837l1.745 2.847V15.33h.8v4.264h-.864l-1.72-2.78v2.78h-.799zM22.153 19.594V15.33h.861v1.894l1.74-1.894h1.157l-1.606 1.661 1.693 2.603h-1.114l-1.172-2.001-.698.712v1.289h-.86zM10.837 32.59H7.501v2.08h3.336v-2.08zM18.809 32.59h-5.26v2.08h5.26v-2.08zM26.34 32.59h-5.939v2.08h5.94v-2.08zM35.227 32.59h-6.922v2.08h6.922v-2.08zM42.5 32.59h-5.005v2.08H42.5v-2.08z" fill="#EBF0F3"/>
    </g>
</svg>
