<svg xmlns="http://www.w3.org/2000/svg" xmlns:xlink="http://www.w3.org/1999/xlink" width="8" height="14" viewBox="0 0 8 14">
    <defs>
        <path id="a" d="M4.218 5.745c-1.65-.429-2.182-.872-2.182-1.563 0-.793.735-1.346 1.964-1.346 1.295 0 1.775.619 1.818 1.528h1.607c-.05-1.251-.814-2.4-2.334-2.771V0H2.909v1.57C1.5 1.877.364 2.794.364 4.197c0 1.68 1.389 2.517 3.418 3.004 1.818.436 2.182 1.076 2.182 1.753 0 .502-.357 1.302-1.964 1.302-1.498 0-2.087-.67-2.167-1.528h-1.6c.087 1.593 1.28 2.488 2.676 2.786v1.578h2.182v-1.564c1.418-.269 2.545-1.09 2.545-2.582 0-2.065-1.767-2.77-3.418-3.2z"/>
    </defs>
    <use fill="#000" fill-rule="evenodd" xlink:href="#a"/>
</svg>
