<svg xmlns="http://www.w3.org/2000/svg" width="80" height="80" fill="none" viewBox="0 0 80 80">
     <defs>
        <linearGradient id="paint0_linear" x1="40" x2="40" y1="0" y2="80" gradientUnits="userSpaceOnUse">
            <stop stop-color="#FAF6FF"/>
            <stop offset="1" stop-color="#DEC7FF"/>
        </linearGradient>
        <linearGradient id="paint1_linear" x1="40" x2="40" y1="22.591" y2="57.41" gradientUnits="userSpaceOnUse">
            <stop stop-color="#725EF6"/>
            <stop offset="1" stop-color="#6001D1"/>
        </linearGradient>
        <clipPath id="clip0">
            <path fill="#fff" d="M0 0H80V80H0z"/>
        </clipPath>
    </defs>
    <rect width="80" height="80" fill="url(#paint0_linear)" rx="19.2"/>
    <g clip-path="url(#clip0)">
        <path fill="#DAC0FF" d="M80 58c0-1.56-.09-21.1-.263-22.615L68.733 24.38 11.64 56.015l23.719 23.719C36.88 79.91 56.93 80 58.5 80c10 0 21.5-4.5 21.5-22z"/>
        <path fill="url(#paint1_linear)" d="M69.908 27.605v24.79c0 2.77-2.246 5.014-5.015 5.014H15.107c-2.77 0-5.015-2.245-5.015-5.014v-24.79c0-2.77 2.245-5.014 5.015-5.014h49.786c2.77 0 5.015 2.245 5.015 5.014z"/>
        <path fill="#5B00E4" d="M10.092 40.087v12.308c0 2.77 2.245 5.014 5.015 5.014h49.786c2.77 0 5.014-2.245 5.014-5.014V40.087H10.092z"/>
        <path fill="#fff" d="M15.198 53.44V26.56h46.896V53.44H15.198z"/>
        <path fill="#DAC0FF" d="M19.732 44.198l1.762-2.498c.929.93 2.361 1.704 4.123 1.704 1.142 0 1.84-.446 1.84-1.065 0-1.762-7.318-.348-7.318-5.324 0-2.168 1.839-4.104 5.15-4.104 2.07 0 3.871.62 5.246 1.8l-1.82 2.382c-1.084-.89-2.497-1.336-3.775-1.336-.968 0-1.394.387-1.394.93 0 1.645 7.299.445 7.299 5.246 0 2.594-1.917 4.317-5.382 4.317-2.614 0-4.434-.813-5.731-2.052zM31.734 39.57c0-3.93 2.962-6.678 6.912-6.678 3.95 0 6.892 2.748 6.892 6.678 0 3.93-2.943 6.68-6.892 6.68-3.95 0-6.912-2.75-6.912-6.68zm10.416 0c0-2.11-1.375-3.736-3.504-3.736-2.15 0-3.524 1.626-3.524 3.736 0 2.091 1.375 3.737 3.524 3.737 2.13 0 3.504-1.646 3.504-3.736zM46.292 44.198l1.762-2.498c.93.93 2.362 1.704 4.124 1.704 1.142 0 1.839-.446 1.839-1.065 0-1.762-7.318-.348-7.318-5.324 0-2.168 1.84-4.104 5.15-4.104 2.071 0 3.872.62 5.246 1.8l-1.82 2.382c-1.084-.89-2.497-1.336-3.774-1.336-.968 0-1.395.387-1.395.93 0 1.645 7.299.445 7.299 5.246 0 2.594-1.917 4.317-5.382 4.317-2.614 0-4.434-.813-5.73-2.052z"/>
        <path fill="#5B00E4" d="M65.988 42.393c1.322 0 2.393-1.072 2.393-2.393 0-1.321-1.072-2.392-2.393-2.392-1.321 0-2.392 1.07-2.392 2.392 0 1.322 1.07 2.393 2.392 2.393z"/>
    </g>
</svg>
