<svg xmlns="http://www.w3.org/2000/svg" width="48" height="46" fill="none" viewBox="0 0 48 46">
    <path fill="#FC4" d="M46.867 16.536L31.32 15.094 25.144.754c-.432-1.005-1.856-1.005-2.288 0l-6.176 14.34-15.547 1.442c-1.09.1-1.53 1.455-.708 2.176l11.73 10.306L8.724 44.25c-.24 1.066.911 1.903 1.851 1.345L24 37.623l13.426 7.972c.94.558 2.092-.279 1.851-1.345l-3.433-15.232 11.73-10.306c.822-.721.382-2.075-.706-2.176z"/>
    <path fill="#FFBD0C" d="M25.144.753c-.432-1.004-1.856-1.004-2.288 0L16.68 15.094 1.133 16.536c-1.09.1-1.53 1.455-.708 2.176l11.73 10.306L8.724 44.25c-.24 1.066.911 1.903 1.851 1.345l2.997-1.78c.415-17.071 8.347-29.094 14.627-35.971L25.144.754z"/>
</svg>
