<svg xmlns="http://www.w3.org/2000/svg" xmlns:xlink="http://www.w3.org/1999/xlink" width="100" height="100" viewBox="0 0 100 100">
    <defs>
        <path id="prefix__a" d="M10 18.617L3.05 11.667 0.683 14.017 10 23.333 30 3.333 27.65 0.983z"/>
    </defs>
    <g fill="none" fill-rule="evenodd">
        <circle cx="50" cy="50" r="50" fill="#F5F7F8" fill-rule="nonzero"/>
        <g>
            <path fill="#FFF" d="M50 62.5H7.54c-2.783 0-5.038-2.293-5.038-5.122V2.502L2.5 2.5l4.246 4.317L10.992 2.5l4.247 4.317L19.485 2.5l4.246 4.317L27.977 2.5l4.247 4.317L36.47 2.5l4.246 4.317L44.962 2.5v30" transform="translate(22.5 20)"/>
            <path fill="#000" fill-rule="nonzero" d="M53.8 30.03H44.91V1.22c0-.493-.293-.938-.741-1.127-.45-.19-.966-.084-1.31.265L39.46 3.816 36.057.358c-.469-.477-1.23-.477-1.698 0l-3.402 3.458L27.555.358c-.469-.477-1.23-.477-1.698 0l-3.402 3.458L19.053.358c-.47-.477-1.23-.477-1.698 0l-3.402 3.458L10.55.358c-.469-.477-1.23-.477-1.699 0L5.451 3.816 2.049.358C1.583-.116.829-.118.359.35.112.598-.008.926 0 1.253v54.9c0 3.5 2.802 6.347 6.245 6.347h42.511c3.443 0 6.244-2.847 6.244-6.347V31.25c0-.674-.538-1.22-1.2-1.22zM2.401 56.151V4.17l2.2 2.235c.468.477 1.229.477 1.698 0l3.402-3.458 3.402 3.458c.469.477 1.229.477 1.698 0l3.402-3.458 3.402 3.458c.469.477 1.23.477 1.698 0l3.402-3.458 3.402 3.458c.47.477 1.23.477 1.699 0l3.402-3.458 3.401 3.458c.47.477 1.23.477 1.699 0l2.2-2.237V31.25l.003.033v24.87c0 1.472.497 2.828 1.327 3.906H6.245c-2.12 0-3.843-1.753-3.843-3.907zm50.196 0c0 2.154-1.724 3.907-3.843 3.907-2.118 0-3.842-1.753-3.842-3.907V32.471h7.685v23.681z" transform="translate(22.5 20)"/>
            <path fill="#000" d="M22.5 25.21c-1.306 0-2.368-.898-2.368-2.001 0-.717-.59-1.298-1.316-1.298-.727 0-1.316.58-1.316 1.298 0 2.116 1.564 3.901 3.684 4.434v1.059c0 .717.59 1.298 1.316 1.298.727 0 1.316-.581 1.316-1.298v-1.06c2.12-.532 3.684-2.317 3.684-4.433 0-2.535-2.243-4.597-5-4.597-1.306 0-2.368-.898-2.368-2 0-1.104 1.062-2.001 2.368-2.001 1.306 0 2.368.897 2.368 2 0 .717.59 1.299 1.316 1.299.727 0 1.316-.582 1.316-1.299 0-2.116-1.564-3.901-3.684-4.434v-.879c0-.717-.59-1.298-1.316-1.298-.727 0-1.316.581-1.316 1.298v.88c-2.12.532-3.684 2.317-3.684 4.433 0 2.535 2.243 4.597 5 4.597 1.306 0 2.368.898 2.368 2 0 1.104-1.062 2.001-2.368 2.001zM31.266 22.5h2.468c.7 0 1.266-.56 1.266-1.25S34.433 20 33.734 20h-2.468c-.7 0-1.266.56-1.266 1.25s.567 1.25 1.266 1.25zM13.734 20h-2.468c-.7 0-1.266.56-1.266 1.25s.567 1.25 1.266 1.25h2.468c.7 0 1.266-.56 1.266-1.25S14.433 20 13.734 20zM36.239 32.5H16.261c-.696 0-1.261.56-1.261 1.25S15.565 35 16.261 35h19.978c.696 0 1.261-.56 1.261-1.25s-.565-1.25-1.261-1.25zM8.75 32.5c-.329 0-.651.134-.884.366-.232.233-.366.555-.366.884 0 .329.134.651.366.884.233.232.555.366.884.366.329 0 .651-.134.884-.366.232-.233.366-.555.366-.884 0-.329-.134-.651-.366-.884-.233-.232-.555-.366-.884-.366zM36.239 42.5H16.261c-.696 0-1.261.56-1.261 1.25S15.565 45 16.261 45h19.978c.696 0 1.261-.56 1.261-1.25s-.565-1.25-1.261-1.25zM8.75 42.5c-.329 0-.651.134-.884.366-.232.233-.366.555-.366.884 0 .329.134.651.366.884.233.232.555.366.884.366.329 0 .651-.134.884-.366.232-.233.366-.555.366-.884 0-.329-.134-.651-.366-.884-.233-.232-.555-.366-.884-.366zM36.239 50H16.261c-.696 0-1.261.56-1.261 1.25s.565 1.25 1.261 1.25h19.978c.696 0 1.261-.56 1.261-1.25S36.935 50 36.239 50zM8.75 50c-.329 0-.651.134-.884.366-.232.233-.366.555-.366.884 0 .329.134.651.366.884.233.232.555.366.884.366.329 0 .651-.134.884-.366.232-.233.366-.555.366-.884 0-.329-.134-.651-.366-.884C9.4 50.134 9.079 50 8.75 50z" transform="translate(22.5 20)"/>
        </g>
        <circle cx="72.5" cy="72.5" r="18.75" fill="#38D6AC"/>
        <g transform="translate(57.5 61.25)">
            <use fill="#FFF" xlink:href="#prefix__a"/>
        </g>
    </g>
</svg>
