<svg xmlns="http://www.w3.org/2000/svg" width="120" height="144" viewBox="0 0 120 144">
    <g fill="none" fill-rule="evenodd">
        <circle cx="60" cy="60" r="60" fill="#F5F5F5"/>
        <path fill="#D0D0D0" d="M69 71.735H47.71v70.311h1.759v-11.718h11.718v11.718H69zM108.063 45.953h-21.29v96.093h1.758v-11.718h11.718v11.718h7.814z"/>
        <path fill="gray" d="M94 130.328h6.25v11.718H94zM54.938 130.328h6.25v11.718h-6.25z"/>
        <g fill-rule="nonzero">
            <path fill="gray" d="M37.75 84.43h2.93a1.953 1.953 0 0 0 1.953-1.953v-2.93a1.953 1.953 0 0 0-1.953-1.953h-2.93a1.953 1.953 0 0 0-1.953 1.953v2.93c0 1.078.874 1.953 1.953 1.953zM37.75 96.148h2.93a1.953 1.953 0 0 0 1.953-1.953v-2.93a1.953 1.953 0 0 0-1.953-1.953h-2.93a1.953 1.953 0 0 0-1.953 1.954v2.93c0 1.078.874 1.952 1.953 1.952z"/>
            <path fill="#DCDCDC" d="M37.75 107.866h2.93a1.953 1.953 0 0 0 1.953-1.953v-2.929a1.953 1.953 0 0 0-1.953-1.953h-2.93a1.953 1.953 0 0 0-1.953 1.953v2.93c0 1.078.874 1.952 1.953 1.952zM42.633 117.632v-2.93a1.953 1.953 0 0 0-1.953-1.953h-2.93a1.953 1.953 0 0 0-1.953 1.953v2.93c0 1.078.874 1.953 1.953 1.953h2.93a1.953 1.953 0 0 0 1.953-1.953z"/>
            <path fill="gray" d="M48.004 84.43h2.93a1.953 1.953 0 0 0 1.953-1.953v-2.93a1.953 1.953 0 0 0-1.953-1.953h-2.93a1.953 1.953 0 0 0-1.953 1.953v2.93c0 1.078.874 1.953 1.953 1.953zM48.004 96.148h2.93a1.953 1.953 0 0 0 1.953-1.953v-2.93a1.953 1.953 0 0 0-1.953-1.953h-2.93a1.953 1.953 0 0 0-1.953 1.954v2.93c0 1.078.874 1.952 1.953 1.952zM48.004 107.866h2.93a1.953 1.953 0 0 0 1.953-1.953v-2.929a1.953 1.953 0 0 0-1.953-1.953h-2.93a1.953 1.953 0 0 0-1.953 1.953v2.93c0 1.078.874 1.952 1.953 1.952zM48.004 119.585h2.93a1.953 1.953 0 0 0 1.953-1.953v-2.93a1.953 1.953 0 0 0-1.953-1.953h-2.93a1.953 1.953 0 0 0-1.953 1.953v2.93c0 1.078.874 1.953 1.953 1.953zM58.258 84.43h2.93a1.953 1.953 0 0 0 1.953-1.953v-2.93a1.953 1.953 0 0 0-1.953-1.953h-2.93a1.953 1.953 0 0 0-1.953 1.953v2.93c0 1.078.874 1.953 1.953 1.953z"/>
            <path fill="#FFF" d="M58.258 96.148h2.93a1.953 1.953 0 0 0 1.953-1.953v-2.93a1.953 1.953 0 0 0-1.953-1.953h-2.93a1.953 1.953 0 0 0-1.953 1.954v2.93c0 1.078.874 1.952 1.953 1.952zM58.258 107.866h2.93a1.953 1.953 0 0 0 1.953-1.953v-2.929a1.953 1.953 0 0 0-1.953-1.953h-2.93a1.953 1.953 0 0 0-1.953 1.953v2.93c0 1.078.874 1.952 1.953 1.952z"/>
            <path fill="gray" d="M58.258 119.585h2.93a1.953 1.953 0 0 0 1.953-1.953v-2.93a1.953 1.953 0 0 0-1.953-1.953h-2.93a1.953 1.953 0 0 0-1.953 1.953v2.93c0 1.078.874 1.953 1.953 1.953z"/>
            <path fill="#DCDCDC" d="M76.813 84.43h2.93a1.953 1.953 0 0 0 1.952-1.953v-2.93a1.953 1.953 0 0 0-1.953-1.953h-2.93a1.953 1.953 0 0 0-1.953 1.953v2.93c0 1.078.875 1.953 1.954 1.953zM76.813 72.71h2.93a1.953 1.953 0 0 0 1.952-1.952v-2.93a1.953 1.953 0 0 0-1.953-1.952h-2.93a1.953 1.953 0 0 0-1.953 1.953v2.929c0 1.079.875 1.953 1.954 1.953z"/>
            <path fill="gray" d="M76.813 60.993h2.93a1.953 1.953 0 0 0 1.952-1.953v-2.93a1.953 1.953 0 0 0-1.953-1.954h-2.93a1.953 1.953 0 0 0-1.953 1.953v2.93c0 1.08.875 1.954 1.954 1.954zM76.813 96.148h2.93a1.953 1.953 0 0 0 1.952-1.953v-2.93a1.953 1.953 0 0 0-1.953-1.953h-2.93a1.953 1.953 0 0 0-1.953 1.954v2.93c0 1.078.875 1.952 1.954 1.952zM76.813 107.866h2.93a1.953 1.953 0 0 0 1.952-1.953v-2.929a1.953 1.953 0 0 0-1.953-1.953h-2.93a1.953 1.953 0 0 0-1.953 1.953v2.93c0 1.078.875 1.952 1.954 1.952zM76.813 119.585h2.93a1.953 1.953 0 0 0 1.952-1.953v-2.93a1.953 1.953 0 0 0-1.953-1.953h-2.93a1.953 1.953 0 0 0-1.953 1.953v2.93c0 1.078.875 1.953 1.954 1.953zM87.066 84.43h2.93a1.953 1.953 0 0 0 1.953-1.953v-2.93a1.953 1.953 0 0 0-1.953-1.953h-2.93a1.953 1.953 0 0 0-1.953 1.953v2.93c0 1.078.875 1.953 1.953 1.953zM87.066 72.71h2.93a1.953 1.953 0 0 0 1.953-1.952v-2.93a1.953 1.953 0 0 0-1.953-1.952h-2.93a1.953 1.953 0 0 0-1.953 1.953v2.929c0 1.079.875 1.953 1.953 1.953zM87.066 60.993h2.93a1.953 1.953 0 0 0 1.953-1.953v-2.93a1.953 1.953 0 0 0-1.953-1.954h-2.93a1.953 1.953 0 0 0-1.953 1.953v2.93c0 1.08.875 1.954 1.953 1.954zM87.066 96.148h2.93a1.953 1.953 0 0 0 1.953-1.953v-2.93a1.953 1.953 0 0 0-1.953-1.953h-2.93a1.953 1.953 0 0 0-1.953 1.954v2.93c0 1.078.875 1.952 1.953 1.952zM87.066 107.866h2.93a1.953 1.953 0 0 0 1.953-1.953v-2.929a1.953 1.953 0 0 0-1.953-1.953h-2.93a1.953 1.953 0 0 0-1.953 1.953v2.93c0 1.078.875 1.952 1.953 1.952zM87.066 119.585h2.93a1.953 1.953 0 0 0 1.953-1.953v-2.93a1.953 1.953 0 0 0-1.953-1.953h-2.93a1.953 1.953 0 0 0-1.953 1.953v2.93c0 1.078.875 1.953 1.953 1.953z"/>
            <path fill="#FFF" d="M97.32 84.43h2.93a1.953 1.953 0 0 0 1.952-1.953v-2.93a1.953 1.953 0 0 0-1.953-1.953H97.32a1.953 1.953 0 0 0-1.953 1.953v2.93c0 1.078.875 1.953 1.953 1.953z"/>
            <path fill="gray" d="M97.32 72.71h2.93a1.953 1.953 0 0 0 1.952-1.952v-2.93a1.953 1.953 0 0 0-1.953-1.952H97.32a1.953 1.953 0 0 0-1.953 1.953v2.929c0 1.079.875 1.953 1.953 1.953zM97.32 60.993h2.93a1.953 1.953 0 0 0 1.952-1.953v-2.93a1.953 1.953 0 0 0-1.953-1.954H97.32a1.953 1.953 0 0 0-1.953 1.953v2.93c0 1.08.875 1.954 1.953 1.954z"/>
            <path fill="#FFF" d="M97.32 96.148h2.93a1.953 1.953 0 0 0 1.952-1.953v-2.93a1.953 1.953 0 0 0-1.953-1.953H97.32a1.953 1.953 0 0 0-1.953 1.954v2.93c0 1.078.875 1.952 1.953 1.952zM97.32 107.866h2.93a1.953 1.953 0 0 0 1.952-1.953v-2.929a1.953 1.953 0 0 0-1.953-1.953H97.32a1.953 1.953 0 0 0-1.953 1.953v2.93c0 1.078.875 1.952 1.953 1.952z"/>
            <path fill="gray" d="M97.32 119.585h2.93a1.953 1.953 0 0 0 1.952-1.953v-2.93a1.953 1.953 0 0 0-1.953-1.953H97.32a1.953 1.953 0 0 0-1.953 1.953v2.93c0 1.078.875 1.953 1.953 1.953zM41.656 132.281h-.046a1.953 1.953 0 1 0 0 3.906h.046a1.953 1.953 0 1 0 0-3.906zM80.672 132.281a1.953 1.953 0 1 0 0 3.906h.046a1.953 1.953 0 1 0 0-3.906h-.046zM20.999 140.094h-.046a1.953 1.953 0 1 0 0 3.905H21a1.953 1.953 0 1 0 0-3.905zM117.047 140.094H117a1.953 1.953 0 1 0 0 3.905h.047a1.953 1.953 0 1 0 0-3.905z"/>
            <path fill="gray" d="M111.389 140.094h-1.374v-94.14A1.953 1.953 0 0 0 108.062 44H69a1.953 1.953 0 0 0-1.953 1.953v23.829h-37.11a1.953 1.953 0 0 0-1.953 1.953v68.359h-1.373a1.953 1.953 0 1 0 0 3.905h84.778a1.953 1.953 0 1 0 0-3.905zm-79.498-3.906h4.108a1.953 1.953 0 0 0 0-3.907h-4.108V73.688h35.156v66.406H63.14v-9.766a1.953 1.953 0 0 0-1.953-1.953h-11.72a1.953 1.953 0 0 0-1.952 1.953v9.766H31.89v-3.906zm19.53 3.906v-7.813h7.813v7.813h-7.812zm39.063 0v-7.813h7.812v7.813h-7.812zm15.625 0h-3.907v-9.766a1.953 1.953 0 0 0-1.953-1.953H88.531a1.953 1.953 0 0 0-1.953 1.953v9.766H70.953v-3.906h4.108a1.953 1.953 0 1 0 0-3.907h-4.108V47.906h35.156v92.188z"/>
        </g>
    </g>
</svg>
