<svg xmlns="http://www.w3.org/2000/svg" width="24" height="20" fill="none" viewBox="0 0 24 20">
    <path fill="#000" fill-rule="evenodd" d="M22.78 9.883h-6.116c.023-.153.002-.313-.078-.452-.126-.219-.36-.355-.614-.355H.706c-.254 0-.489.136-.614.355-.125.22-.122.491.008.708l.663 1.103c.145.24.22.515.22.795v.187c0 1.38 1.127 2.503 2.512 2.503h9.687c1.357 0 2.463-1.08 2.507-2.422h7.09c.673 0 1.221-.543 1.221-1.21 0-.668-.547-1.212-1.22-1.212zm-9.597 4.037H3.495c-.415 0-.79-.156-1.086-.404h4.506c.224 0 .407-.18.407-.403 0-.224-.183-.404-.407-.404H1.877c-.039-.13-.064-.264-.071-.404h3.598c.224 0 .407-.18.407-.403 0-.224-.183-.404-.407-.404H1.73c-.055-.235-.142-.461-.268-.67l-.568-.945h14.89l-.568.945c-.05.083-.093.17-.132.258-.02.046-.037.093-.054.14l-.007.022-.012.034-.023.064c-.022.072-.04.146-.054.22l-.003.015-.007.032c-.015.08-.025.161-.031.244l-.002.008v.008l-.03.432h.011c-.043.897-.781 1.615-1.69 1.615zm2.611-2.422h6.986c.225 0 .407-.18.407-.403 0-.223-.183-.404-.407-.404h-6.534l-.332.552-.002.005c-.045.074-.082.153-.113.236l-.002.007-.003.007zM13.463 19.167h1.995c.225 0 .407.18.407.403 0 .224-.182.404-.407.404H1.627c-.225 0-.407-.18-.407-.404 0-.223.182-.403.407-.403h1.59l-.033-.042c-.117-.155-.227-.295-.328-.424l-.015-.02c-.541-.691-.867-1.109-.798-1.627.065-.488.48-.883 1.22-1.438l.325-.244.245.322c.122.16.235.304.339.437l.005.007c.54.691.867 1.108.798 1.627-.064.477-.463.866-1.173 1.402h4.296l-.032-.042c-.123-.162-.238-.31-.344-.444-.54-.691-.867-1.108-.798-1.627.065-.488.48-.883 1.221-1.438l.325-.244.245.322c.123.162.238.309.343.443h.001c.54.692.867 1.11.798 1.628-.064.477-.463.866-1.173 1.402h4.193l-.032-.042c-.117-.154-.227-.294-.328-.423l-.015-.02c-.541-.692-.867-1.11-.798-1.628.065-.488.479-.883 1.22-1.438l.325-.244.245.322c.124.163.239.31.344.444.54.691.867 1.109.798 1.627-.064.477-.463.866-1.173 1.402zm-.367-2.66c-.3.241-.564.491-.586.653-.025.184.251.538.634 1.026l.028.035.071.092c.301-.242.565-.492.587-.654.024-.184-.252-.537-.635-1.026l-.099-.127zm-5.366.653c.022-.162.286-.412.586-.654l.1.127c.382.489.658.842.634 1.026-.022.162-.286.412-.586.654l-.076-.097-.024-.03c-.382-.488-.658-.841-.634-1.026zm-4.295-.654c-.3.242-.565.492-.586.654-.025.184.251.538.634 1.026l.023.03.076.097c.3-.242.565-.492.586-.654.025-.184-.252-.537-.634-1.026l-.1-.127z" clip-rule="evenodd"/>
    <path fill="#000" d="M3.759 5.541c0 .754.297 1.464.835 1.998.08.079.183.118.287.118.104 0 .209-.04.288-.118.16-.158.16-.413 0-.57-.384-.382-.596-.89-.596-1.428 0-.538.212-1.046.596-1.427.538-.534.835-1.244.835-1.998S5.707.652 5.169.118c-.159-.157-.416-.157-.575 0-.16.158-.16.413 0 .571.384.381.596.889.596 1.427 0 .539-.212 1.046-.596 1.427-.539.534-.835 1.244-.835 1.998zM8.739 5.541c0 .754.296 1.464.834 1.998.08.079.184.118.288.118.104 0 .208-.04.288-.118.159-.158.159-.413 0-.57-.385-.382-.597-.89-.597-1.428 0-.538.212-1.046.597-1.427.538-.534.835-1.244.835-1.998S10.686.652 10.148.118c-.16-.157-.417-.157-.575 0-.16.158-.16.413 0 .571.384.381.596.889.596 1.427 0 .539-.212 1.046-.596 1.427-.539.534-.835 1.244-.835 1.998z"/>
</svg>
