<svg xmlns="http://www.w3.org/2000/svg" width="24" height="24" fill="none" viewBox="0 0 24 24">
    <path fill="#fff" d="M.986.99h14.892c.622 0 1.126.504 1.126 1.126v14.766c0 .622-.504 1.127-1.126 1.127H.986V.989z"/>
    <path fill="#DCDCDC" d="M.986.99l8.009 5.005v17.02L.986 18.008V.989z"/>
    <path fill="#000" fill-rule="evenodd" d="M16.018 12.002c0-.544.442-.986.986-.986s.985.442.985.986v4.88c0 1.165-.947 2.112-2.111 2.112H9.98v4.02c0 .777-.857 1.242-1.507.836l-8.01-5.006c-.287-.18-.462-.496-.462-.835C0 .915-.003.895.006.884L.008.877C.053.485.324.17.678.054L.714.04C.86-.018 1.039.004 15.878.004c1.164 0 2.111.948 2.111 2.112v1.877c0 .544-.44.985-.985.985-.544 0-.986-.44-.986-.985V2.116c0-.078-.063-.14-.14-.14H4.422L9.517 5.16c.288.18.463.495.463.835v11.028h5.898c.077 0 .14-.063.14-.14v-4.881zm-14.046 5.46l6.038 3.774V6.541L1.972 2.768v14.694z" clip-rule="evenodd"/>
    <path fill="#000" d="M5.992 10.516c-.544 0-.986.441-.986.986v1c0 .545.442.986.986.986s.985-.441.985-.985v-1.001c0-.545-.441-.986-.985-.986zM19.992 7.998c0-.545-.442-.986-.986-.986h-5.005c-.545 0-.986.441-.986.986 0 .544.441.985.986.985h5.005c.544 0 .986-.441.986-.985zM20.918 10.788c.433.325 1.051.24 1.38-.197l1.501-2.002c.263-.35.263-.832 0-1.183l-1.502-2.002c-.326-.435-.944-.524-1.38-.197-.435.326-.523.944-.196 1.38l1.058 1.41-1.058 1.411c-.327.436-.239 1.053.197 1.38z"/>
</svg>
