<svg xmlns="http://www.w3.org/2000/svg" width="40" height="40" fill="none" viewBox="0 0 40 40">
    <defs>
        <linearGradient id="paint0_linear" x1="20" x2="20" y1="0" y2="40" gradientUnits="userSpaceOnUse">
            <stop stop-color="#FAF6FF"/>
            <stop offset="1" stop-color="#DEC7FF"/>
        </linearGradient>
        <linearGradient id="paint1_linear" x1="20" x2="20" y1="6" y2="34" gradientUnits="userSpaceOnUse">
            <stop stop-color="#725EF6"/>
            <stop offset="1" stop-color="#6001D1"/>
        </linearGradient>
    </defs>
    <path fill="url(#paint0_linear)" d="M20 40c11.046 0 20-8.954 20-20S31.046 0 20 0 0 8.954 0 20s8.954 20 20 20z"/>
    <path fill="url(#paint1_linear)" fill-rule="evenodd" d="M20 34c7.732 0 14-6.268 14-14S27.732 6 20 6 6 12.268 6 20s6.268 14 14 14z" clip-rule="evenodd"/>
    <path fill="#5B00E4" fill-rule="evenodd" d="M13.42 11.59c-1.62.845-2.3 2.8-1.558 4.471 1.069 2.405 2.504 4.605 4.237 6.531l1.309 1.31 8.699 8.699c2.178-1.058 4.04-2.663 5.407-4.637l-3.21-3.21c-.123-.182-.282-.345-.474-.475L15.72 12.17c-.508-.749-1.497-1-2.3-.58z" clip-rule="evenodd"/>
    <path fill="#fff" fill-rule="evenodd" d="M25.118 22.44c-.448-.305-1.036-.303-1.483.003l-.642.441c-.716.492-1.668.465-2.356-.064-.649-.5-1.268-1.035-1.855-1.602-.568-.588-1.103-1.206-1.602-1.855-.53-.688-.556-1.64-.065-2.356l.441-.643c.307-.446.308-1.035.004-1.483l-1.84-2.71c-.508-.75-1.497-1-2.3-.582-1.62.846-2.3 2.801-1.558 4.472 1.069 2.405 2.504 4.605 4.237 6.531l1.309 1.31c1.926 1.731 4.126 3.167 6.53 4.236 1.671.742 3.627.062 4.472-1.559.42-.802.168-1.792-.58-2.3l-2.712-1.84z" clip-rule="evenodd"/>
</svg>
