<svg xmlns="http://www.w3.org/2000/svg" width="21" height="20" fill="none" viewBox="0 0 21 20">
    <path fill="#000" fill-rule="evenodd" d="M1.672 17.737h.63v-1.305h-.63v1.305zm17.83 0h.646v-1.3h-.646v1.3zm-.358-15.103c.074-.445-.025-.65-.518-.649-5.156.008-10.313.005-15.469.005-.07 0-.143-.003-.213.008-.158.025-.26.119-.281.276-.015.115-.003.233-.003.36h16.484zM14.21 7.89v-.188-2.637c0-.332-.115-.448-.45-.448H8.063c-.337 0-.453.113-.453.44v2.655c0 .057.006.114.01.178h6.59zm5.947 1.972v-.815c0-.398-.103-.499-.51-.499L2.163 8.55c-.077 0-.154.007-.23.017-.148.022-.25.122-.256.257-.017.345-.006.69-.006 1.04h18.486zM6.942 7.891v-.213c0-.873.012-1.747-.004-2.62-.01-.6.419-1.104 1.099-1.098 1.912.02 3.825.006 5.739.008.112 0 .227.002.335.028.473.11.756.5.758 1.04.004.88.001 1.76.001 2.639v.215h4.285V3.318H2.668v4.573h4.274zm-5.273 7.87h18.476v-5.225H1.67v5.224zm.318-7.876v-.208V2.47c0-.745.393-1.137 1.144-1.137H18.69c.586 0 .952.237 1.091.722.039.133.043.28.043.42.003 1.723.002 3.447.002 5.17v.24c.3.037.58.12.745.372.108.166.165.368.234.559.02.058.007.128.007.193v9.031c-.012.227-.129.351-.357.354-.422.006-.844.006-1.266 0-.24-.004-.347-.121-.35-.374-.004-.46 0-.92 0-1.381v-.203H2.98v1.555c-.002.289-.112.402-.396.404-.398.003-.796.004-1.194 0-.261-.002-.375-.117-.39-.379v-.07l.001-8.978c0-.54.263-.9.743-1.037.073-.02.15-.029.243-.047z" clip-rule="evenodd"/>
    <path fill="#000" d="M1.672 17.737h-.05v.05h.05v-.05zm.63 0v.05h.05v-.05h-.05zm0-1.305h.05v-.05h-.05v.05zm-.63 0v-.05h-.05v.05h.05zm17.83 1.305h-.05v.05h.05v-.05zm.646 0v.05h.05v-.05h-.05zm0-1.3h.05v-.05h-.05v.05zm-.646 0v-.05h-.05v.05h.05zm-.358-13.803v.05h.043l.007-.042-.05-.008zm-.518-.649v-.05.05zM3.156 1.99v.05-.05zm-.213.008l-.007-.05.007.05zm-.281.276l.05.007-.05-.007zm-.003.36h-.05v.05h.05v-.05zM14.21 7.89v.05h.05v-.05h-.05zm0-2.825h.05-.05zm-.45-.448v.05-.05zm-5.698 0v-.05.05zm-.453.44h.05-.05zm0 2.655h.05-.05zm.01.178l-.05.003.003.047h.047v-.05zm12.538 1.972v.05h.05v-.05h-.05zm0-.815h-.05.05zM2.163 8.55v.05-.05zm-.23.017l-.007-.05v.001l.007.05zm-.256.257l.05.002-.05-.002zm-.006 1.04h-.05v.05h.05v-.05zM6.942 7.89v.05h.05v-.05h-.05zm-.004-2.833h-.05.05zM8.037 3.96v-.05.05zm5.739.008v.05-.05zm.335.028l-.011.048.011-.048zm.758 1.04h-.05.05zm.001 2.639h.05-.05zm0 .215h-.05v.05h.05v-.05zm4.285 0v.05h.05v-.05h-.05zm0-4.572h.05v-.05h-.05v.05zm-16.487 0v-.05h-.05v.05h.05zm0 4.573h-.05v.05h.05v-.05zm-.999 7.87h-.05v.05h.05v-.05zm18.476 0v.05h.05v-.05h-.05zm0-5.225h.05v-.05h-.05v.05zm-18.476 0v-.05h-.05v.05h.05zm.318-8.065h.05-.05zm1.144-1.137v.05-.05zm15.559 0v.05-.05zm1.091.722l-.048.014.048-.014zm.043.42h-.05.05zm.002 5.17h.05-.05zm0 .24h-.05v.043l.044.006.006-.05zm.745.372l.041-.028-.041.028zm.234.559l.047-.017-.047.017zm.007.193h-.05.05zm0 9.031l-.05-.002.05.002zm-.357.354v.05-.05zm-1.266 0l.001-.05v.05zm-.35-.374h-.05.05zm0-1.584h.05v-.05h-.05v.05zm-15.859 0v-.05h-.05v.05h.05zm0 1.555h.05-.05zm-.396.404v-.05.05zm-1.194 0v-.05.05zM1 18.017l-.05.003.05-.003zm.001-9.048h-.05.05zm.743-1.037l-.013-.048.013.048zm-.072 9.855h.63v-.1h-.63v.1zm.68-.05v-1.305h-.1v1.305h.1zm-.05-1.355h-.63v.1h.63v-.1zm-.68.05v1.305h.1v-1.305h-.1zm17.88 1.355h.646v-.1h-.646v.1zm.696-.05v-1.3h-.1v1.3h.1zm-.05-1.35h-.646v.1h.646v-.1zm-.696.05v1.3h.1v-1.3h-.1zm-.258-13.795c.037-.223.035-.405-.056-.53-.092-.126-.263-.177-.513-.177v.1c.244 0 .37.05.432.137.064.088.075.232.038.453l.099.017zm-.569-.707c-5.155.008-10.311.005-15.468.005v.1c5.156 0 10.313.003 15.469-.005v-.1zM3.157 1.94c-.068 0-.146-.003-.22.009l.015.098c.065-.01.131-.007.205-.007v-.1zm-.22.009c-.087.013-.163.046-.22.101-.057.055-.092.13-.104.218l.1.013c.008-.07.035-.121.074-.159.039-.037.094-.064.165-.075l-.015-.098zm-.324.319c-.016.118-.003.246-.003.366h.1c0-.135-.012-.243.002-.353l-.099-.013zm.047.416h16.484v-.1H2.66v.1zm11.6 5.207v-.188h-.1v.188h.1zm0-.188V5.066h-.1v2.637h.1zm0-2.637c0-.17-.03-.299-.114-.384-.085-.085-.215-.114-.385-.114v.1c.164 0 .258.029.314.085.056.055.084.15.085.313h.1zm-.5-.498H8.063v.1h5.699v-.1zm-5.698 0c-.172 0-.302.028-.388.112-.086.083-.115.211-.115.379h.1c0-.16.029-.253.085-.308.056-.055.152-.083.318-.083v-.1zm-.503.49v2.655h.1V5.06h-.1zm0 2.655c0 .059.007.12.01.18l.1-.005c-.004-.068-.01-.12-.01-.175h-.1zm.06.228h6.59v-.1H7.62v.1zm12.588 1.922v-.815h-.1v.815h.1zm0-.815c0-.199-.024-.343-.117-.434-.093-.09-.24-.115-.443-.115v.1c.204 0 .312.027.373.086.06.06.087.164.087.363h.1zm-.56-.549L2.163 8.5v.1h17.484v-.1zM2.163 8.5c-.08 0-.159.007-.237.018l.014.099c.074-.01.15-.017.223-.017v-.1zm-.237.018c-.168.024-.292.14-.3.304l.1.004c.005-.107.085-.19.214-.21l-.014-.098zm-.3.304c-.016.346-.005.694-.005 1.041h.1c0-.35-.01-.694.005-1.037l-.1-.004zm.045 1.091h18.486v-.1H1.671v.1zm5.321-2.022v-.213h-.1v.213h.1zm0-.213c0-.872.012-1.747-.004-2.621l-.1.001c.016.873.004 1.746.004 2.62h.1zm-.004-2.621c-.01-.573.398-1.053 1.048-1.047l.001-.1c-.71-.007-1.16.523-1.149 1.148l.1-.001zM8.036 4.01c1.913.02 3.827.006 5.74.008v-.1c-1.914-.002-3.826.011-5.739-.008l-.001.1zm5.74.008c.112 0 .222.002.324.026l.023-.097c-.115-.027-.236-.029-.347-.029v.1zm.324.026c.446.105.718.471.72.993h.1c-.003-.56-.3-.973-.797-1.09l-.023.097zm.72.993c.002.879 0 1.758 0 2.638h.1c0-.88.002-1.76 0-2.639h-.1zm0 2.638v.215h.1v-.215h-.1zm.05.265h4.285v-.1H14.87v.1zm4.335-.05V3.318h-.1V7.89h.1zm-.05-4.622H2.668v.1h16.487v-.1zm-16.537.05v4.573h.1V3.318h-.1zm.05 4.623h4.274v-.1H2.668v.1zm-.999 7.87h18.476v-.1H1.67v.1zm18.526-.05v-5.225h-.1v5.224h.1zm-.05-5.275H1.67v.1h18.476v-.1zm-18.526.05v5.224h.1v-5.224h-.1zm.418-2.65v-.21h-.1v.21h.1zm0-.21V2.472h-.1v5.206h.1zm0-5.205c0-.364.096-.634.276-.813.18-.178.45-.274.818-.274v-.1c-.384 0-.684.1-.889.303-.204.204-.305.503-.305.884h.1zm1.094-1.087H18.69v-.1H3.13v.1zm15.559 0c.286 0 .514.058.685.17.171.113.291.283.358.516l.096-.028c-.072-.252-.205-.443-.399-.57-.192-.128-.441-.188-.74-.188v.1zm1.043.686c.037.126.04.266.04.406h.1c0-.14-.003-.293-.044-.434l-.096.028zm.04.406c.004 1.723.003 3.447.003 5.17h.1c0-1.723 0-3.447-.002-5.17h-.1zm.003 5.17v.24h.1v-.24h-.1zm.044.289c.297.037.557.117.709.35l.084-.055c-.178-.271-.478-.356-.78-.394l-.013.099zm.709.35c.104.16.158.353.229.549l.094-.034c-.067-.185-.127-.397-.24-.57l-.083.055zm.229.549c.007.02.009.044.008.076l-.002.048-.002.052h.1c0-.014 0-.03.002-.046l.002-.052c0-.035 0-.074-.014-.112l-.094.034zm.004.176v8.907h.1V9.01h-.1zm0 8.907v.122l.1.005v-.127h-.1zm0 .122c-.006.106-.035.18-.083.228-.047.048-.12.077-.225.078l.001.1c.123-.002.224-.036.295-.108.07-.07.105-.172.111-.293l-.1-.005zm-.308.306c-.421.006-.843.006-1.264 0l-.001.1c.422.006.844.006 1.266 0l-.001-.1zm-1.264 0c-.112-.002-.184-.03-.228-.078-.045-.048-.071-.126-.073-.247l-.1.001c.002.133.03.24.1.314.07.075.172.108.3.11l.001-.1zm-.3-.325c-.005-.46-.002-.92-.002-1.38h-.1c0 .46-.003.92.001 1.381h.1zm-.002-1.38v-.203h-.1v.203h.1zm-.05-.253H2.98v.1h15.858v-.1zm-15.908.05v.192h.1v-.192h-.1zm0 .192v1.363h.1V16.63h-.1zm0 1.363c-.001.14-.029.224-.078.275-.05.05-.132.078-.269.08l.001.1c.147-.002.262-.031.34-.11.076-.079.105-.196.105-.344h-.1zm-.347.354c-.397.003-.795.004-1.193 0v.1c.398.004.796.003 1.194 0v-.1zm-1.193 0c-.124-.001-.203-.029-.252-.078-.05-.049-.08-.128-.087-.253l-.1.005c.007.136.04.245.117.32.076.074.185.105.321.106l.001-.1zm-.34-.331v-.068h-.1v.073l.1-.005zm0-.068l.001-8.978h-.1c-.002 2.992 0 5.985 0 8.978h.1zm.001-8.978c0-.262.064-.476.182-.64.118-.164.294-.282.525-.349l-.027-.096c-.25.072-.446.202-.579.387-.133.184-.2.42-.2.698h.1zm.707-.989c.07-.02.14-.027.238-.046l-.019-.098c-.088.017-.171.027-.246.048l.027.096z"/>
</svg>
