<svg xmlns="http://www.w3.org/2000/svg" width="20" height="20" fill="none" viewBox="0 0 20 20">
    <path fill="#000" fill-rule="evenodd" d="M1.64 3.029c-.174-.002-.314.13-.318.3-.004.18.13.327.305.334.17.007.323-.139.329-.313.007-.174-.136-.32-.316-.321zm5.491-.64v.619c.696.083.812.052 1.293-.343l.332-.276H7.131zM1.33 6.854h.62V4.283h-.62v2.571zm13.94 2.262h-9.2l-.09.631h9.386l-.096-.631zM5.2 1.725h10.945v-.618H5.2v.618zM7.778 8.45h5.783V6.877H7.778V8.45zm-6.45 9.302h16.747v-.611H1.327v.611zM5.842 2.388c-.006.044-.013.077-.013.11 0 .802-.003 1.604.001 2.405 0 .12.016.243.047.359.167.62.654.966 1.353.967 2.293 0 4.586.001 6.879-.002.144 0 .292-.012.43-.048.598-.155.963-.637.966-1.276.005-.79.002-1.58.001-2.37 0-.045-.005-.09-.009-.144-.058-.005-.109-.011-.159-.011-1.794 0-3.588-.002-5.382.004-.088 0-.192.042-.263.097-.439.341-.866.696-1.306 1.036-.095.073-.223.142-.34.147-.399.018-.8.012-1.2.005-.251-.004-.366-.129-.368-.382-.003-.247 0-.496-.002-.744 0-.05-.006-.099-.01-.153h-.625zm6.436 14.087c0-.51.004-1-.002-1.489-.002-.199.067-.336.25-.433.22-.116.432-.248.637-.389 1.026-.706 1.77-1.619 2.073-2.843.073-.297.105-.604.157-.913H5.97c0 .048-.002.082 0 .116.108 1.307.673 2.386 1.676 3.226.352.295.748.543 1.142.785.197.122.284.257.276.487-.014.403-.004.807-.004 1.21v.243h3.22zm.65.01h5.313c.4 0 .496.093.496.484v.97c0 .37-.103.473-.475.473H1.16c-.397 0-.492-.094-.492-.49v-1.056c.003-.253.115-.367.37-.381.052-.003.105 0 .157 0h7.214v-.803c0-.196.057-.423-.022-.579-.075-.146-.298-.219-.455-.324-1.09-.729-1.93-1.66-2.326-2.926-.145-.464-.214-.952-.324-1.457h-.41v-.634h.45c.062-.334.117-.65.182-.966.056-.268.129-.326.403-.328.394-.004.788-.001 1.197-.001V6.89C5.59 6.688 5.072 5.74 5.197 4.317H3.91c-.003.069-.009.14-.009.213v10.226c0 .46-.114.868-.51 1.152-.411.293-.86.345-1.318.144-.455-.2-.713-.556-.746-1.058-.007-.104-.01-.207-.01-.311V7.51c-.103 0-.193.004-.282 0C.795 7.496.67 7.372.67 7.135.668 5.874.663 4.611.672 3.347c.003-.536.417-.948.94-.966.502-.017.923.36.983.881.01.075.013.15.013.224v3.548c0 .374-.1.474-.473.476H1.97c-.004.063-.01.113-.01.163v7.164c0 .463.292.726.74.678.31-.033.53-.264.547-.574.004-.075.002-.15.002-.225V4.18c0-.058-.004-.116.002-.173.021-.222.137-.334.362-.336.453-.005.906-.002 1.359-.002h.203V2.376c-.098 0-.195.005-.29 0-.22-.013-.337-.117-.342-.334-.01-.42-.008-.842 0-1.263.003-.187.133-.304.323-.321.046-.005.093-.002.14-.002h11.32c.058 0 .117-.003.173.005.18.024.296.143.297.325.005.415.006.83 0 1.245-.002.228-.112.332-.345.345-.09.004-.182 0-.293 0v.226c0 .755.004 1.51 0 2.267-.006 1.022-.647 1.797-1.626 1.972-.096.017-.194.021-.301.032v1.594h.798c.157 0 .313 0 .47.003.18.003.293.09.327.271l.195 1.016h.447v.631h-.445c-.04.286-.063.554-.114.817-.261 1.339-.968 2.405-2.042 3.236-.255.198-.53.374-.804.545-.103.064-.137.13-.136.246.007.41.003.818.003 1.252z" clip-rule="evenodd"/>
    <path fill="#000" d="M1.322 3.328l.05.002-.05-.002zm.305.335l-.002.05.002-.05zm.329-.313l-.05-.002.05.002zm5.175-.961v-.05h-.05v.05h.05zm0 .619h-.05v.044l.045.005.005-.05zm1.293-.343l-.032-.039.032.039zm.332-.276l.032.038.107-.088h-.139v.05zM1.33 6.854h-.05v.05h.05v-.05zm.62 0v.05h.05v-.05h-.05zm0-2.571h.05v-.05h-.05v.05zm-.62 0v-.05h-.05v.05h.05zm4.74 4.833v-.05h-.043l-.006.043.05.007zm-.09.631L5.93 9.74l-.008.057h.057v-.05zm9.386 0v.05h.058l-.009-.057-.05.007zM5.2 1.725h-.05v.05h.05v-.05zm10.945 0v.05h.05v-.05h-.05zm0-.618h.05v-.05h-.05v.05zm-10.945 0v-.05h-.05v.05h.05zM7.778 8.45h-.05v.05h.05v-.05zm5.783 0v.05h.05v-.05h-.05zm0-1.573h.05v-.05h-.05v.05zm-5.783 0v-.05h-.05v.05h.05zm-6.45 10.875h-.05v.05h.05v-.05zm16.747 0v.05h.05v-.05h-.05zm0-.611h.05v-.05h-.05v.05zm-16.748 0v-.05h-.05v.05h.05zM5.843 2.388v-.05h-.044l-.006.044.05.006zm-.013.11h.05-.05zm.001 2.405h.05-.05zm.047.359l-.048.012.048-.012zm1.353.967v.05-.05zm6.879-.002v-.05.05zm.43-.048l-.013-.048.013.048zm.966-1.276h-.05.05zm.001-2.37h-.05.05zm-.009-.144l.05-.004-.003-.043-.043-.003-.004.05zm-.159-.011v.05-.05zm-5.382.004v.05-.05zm-.263.097l-.03-.04.03.04zM8.388 3.515l.031.04-.03-.04zm-.34.147l.003.05-.002-.05zm-1.2.005v-.05.05zm-.368-.382h.05-.05zm-.002-.744h.05-.05zm-.01-.153l.05-.003-.004-.047h-.047v.05zm5.811 14.087v.05h.05v-.05h-.05zm-.002-1.489h.05-.05zm.25-.433l.024.044-.023-.044zm.637-.389l-.029-.04.029.04zm2.073-2.843l-.049-.012.049.012zm.157-.913l.05.008.01-.058h-.06v.05zm-9.424 0v-.05h-.05v.05h.05zm0 .116l-.05.004.05-.004zm1.676 3.226l-.032.039.032-.039zm1.142.785l.026-.042-.026.042zm.276.487l-.05-.002.05.002zm-.004 1.453h-.05v.05h.05v-.05zm9.182.01v.05-.05zm.496.484h-.05.05zm0 .97l-.05-.001h.05zM.668 16.865h-.05.05zm.37-.381l-.002-.05.002.05zm7.37 0v.05h.05v-.05h-.05zm0-.803h-.05.05zm-.021-.579l.044-.023-.044.023zm-.455-.324l-.028.042.028-.042zm-2.326-2.926l-.048.015.048-.015zm-.324-1.457l.05-.01-.01-.04h-.04v.05zm-.41 0h-.05v.05h.05v-.05zm0-.634v-.05h-.05v.05h.05zm.45 0v.05h.04l.009-.041-.05-.01zm.182-.966l.05.01-.05-.01zm.403-.328v-.05.05zm1.197-.001v.05h.05v-.05h-.05zm0-1.577h.05v-.044l-.043-.005-.007.05zM5.197 4.317l.05.004.005-.054h-.055v.05zm-1.288 0v-.05h-.048l-.002.048.05.002zM3.9 4.53h.05-.05zm0 10.226h.05-.05zm-.51 1.152l.029.04-.03-.04zm-1.318.144l.02-.046-.02.046zm-.746-1.058l.05-.003-.05.003zm-.01-.311h.05-.05zm0-7.173h.05v-.05h-.05v.05zm-.282 0l.002-.05-.002.05zM.67 7.135H.62h.05zm.002-3.789h.05-.05zm.94-.966l-.002-.05.002.05zm.983.881l-.05.006.05-.006zm.013.224h-.05.05zm0 3.548h-.05.05zm-.473.476v-.05.05zm-.166 0v-.05h-.046l-.003.047.05.004zm-.01.163h.05-.05zm0 7.164h.05-.05zm.74.678l.006.05-.005-.05zm.547-.574l-.05-.002.05.002zM3.25 4.006l.05.005-.05-.005zm.362-.336v.05-.05zm1.562-.002v.05h.05v-.05h-.05zm0-1.292h.05v-.05h-.05v.05zm-.29 0l.002-.05-.003.05zm-.342-.334h.05-.05zm0-1.263h-.05.05zm.323-.321l.005.05-.005-.05zm11.46-.002v.05-.05zm.173.005l-.006.05.006-.05zm.297.325h-.05.05zm0 1.245h-.05.05zm-.345.345l.002.05-.002-.05zm-.293 0v-.05h-.05v.05h.05zm0 2.493h.05-.05zM14.53 6.84l.009.05-.009-.05zm-.301.032l-.006-.05-.044.005v.045h.05zm0 1.594h-.05v.05h.05v-.05zm.798 0v.05-.05zm.47.003l-.001.05.001-.05zm.327.271l.05-.009-.05.01zm.195 1.016l-.05.01.008.04h.042v-.05zm.447 0h.05v-.05h-.05v.05zm0 .631v.05h.05v-.05h-.05zm-.445 0v-.05h-.044l-.006.043.05.007zm-.114.817l.049.01-.05-.01zm-2.042 3.236l.03.04-.03-.04zm-.804.545l.026.043-.026-.043zm-.136.246l-.05.001h.05zM1.641 2.98c-.2-.003-.364.15-.369.348l.1.003c.004-.142.12-.253.267-.251l.002-.1zm-.369.348c-.005.207.149.378.353.386l.004-.1c-.147-.006-.26-.129-.257-.283l-.1-.003zm.353.386c.198.008.374-.16.38-.361l-.1-.004c-.004.148-.135.27-.276.265l-.004.1zm.38-.361c.009-.204-.158-.371-.365-.373v.1c.153.001.271.124.266.269l.1.004zm5.076-.963v.619h.1v-.62h-.1zm.045.668c.346.042.558.056.745.007.188-.05.345-.164.585-.36l-.064-.078c-.24.198-.382.298-.547.341-.165.044-.359.033-.708-.01l-.011.1zm1.33-.354l.332-.276-.064-.077-.332.276.064.077zm.3-.364H7.131v.1h1.625v-.1zM1.33 6.904h.62v-.1h-.62v.1zm.67-.05V4.283h-.1v2.571h.1zm-.05-2.621h-.62v.1h.62v-.1zm-.67.05v2.571h.1V4.283h-.1zm13.99 4.783h-9.2v.1h9.2v-.1zm-9.249.043l-.045.314-.045.317.099.014.045-.317.045-.314-.099-.014zm-.04.688h9.385v-.1H5.979v.1zm9.434-.057l-.096-.632-.098.015.095.632.1-.015zM5.2 1.775h10.945v-.1H5.2v.1zm10.995-.05v-.618h-.1v.618h.1zm-.05-.668H5.2v.1h10.945v-.1zm-10.995.05v.618h.1v-.618h-.1zM7.778 8.5h5.783v-.1H7.778v.1zm5.833-.05V6.877h-.1V8.45h.1zm-.05-1.623H7.778v.1h5.783v-.1zm-5.833.05V8.45h.1V6.877h-.1zm-6.4 10.925h16.747v-.1H1.327v.1zm16.797-.05v-.611h-.1v.611h.1zm-.05-.661H1.327v.1h16.748v-.1zm-16.798.05v.611h.1v-.611h-.1zM5.793 2.382l-.008.058c-.003.018-.005.038-.005.058h.1c0-.013.001-.027.004-.044l.009-.06-.1-.012zm-.013.116c0 .802-.003 1.604.001 2.406h.1c-.004-.802-.002-1.604-.001-2.406h-.1zm.001 2.406c0 .123.017.25.049.37l.097-.025c-.03-.112-.046-.23-.046-.346h-.1zm.049.37c.086.32.255.573.496.744.24.172.547.26.905.26v-.1c-.341 0-.627-.084-.847-.241-.22-.157-.377-.388-.458-.688l-.096.026zm1.4 1.005c2.294 0 4.587.001 6.88-.002v-.1c-2.293.003-4.586.003-6.88.002v.1zm6.88-.002c.146 0 .299-.012.443-.05l-.026-.096c-.132.035-.276.046-.417.046v.1zm.442-.05c.622-.16 1-.664 1.004-1.324h-.1c-.003.617-.354 1.079-.929 1.228l.025.097zm1.004-1.324c.005-.79.002-1.58.001-2.37h-.1c0 .79.004 1.58 0 2.37h.1zm.001-2.37c0-.048-.006-.097-.01-.148l-.099.007c.004.058.01.098.01.14h.1zm-.055-.194c-.055-.004-.11-.011-.163-.011v.1c.048 0 .094.006.155.01l.008-.1zm-.163-.011c-1.794 0-3.588-.002-5.382.004v.1c1.794-.006 3.588-.005 5.382-.004v-.1zm-5.382.004c-.101 0-.216.047-.294.107l.062.08c.064-.05.157-.087.232-.087v-.1zm-.294.107c-.22.171-.436.346-.653.52-.216.173-.433.347-.652.516l.061.08c.22-.17.437-.345.654-.518.217-.174.433-.348.652-.519l-.062-.079zM8.358 3.475c-.093.071-.21.133-.311.137l.004.1c.131-.006.27-.082.368-.158l-.061-.079zm-.311.137c-.398.018-.798.012-1.198.005l-.002.1c.4.007.803.013 1.204-.005l-.004-.1zm-1.198.005c-.118-.002-.195-.032-.242-.082-.048-.05-.076-.13-.077-.25h-.1c.001.134.032.243.104.32.073.076.18.11.313.112l.002-.1zm-.32-.332c-.002-.248 0-.495 0-.744h-.1c0 .247-.002.497 0 .745l.1-.001zm0-.744c-.001-.052-.008-.106-.012-.156l-.1.007c.005.057.011.102.011.15l.1-.001zm-.062-.203h-.624v.1h.624v-.1zm5.862 14.137c0-.51.004-1-.002-1.49l-.1.002c.006.489.002.978.002 1.488h.1zm-.002-1.49c0-.093.015-.168.05-.23.034-.06.089-.113.174-.158l-.047-.088c-.098.052-.169.117-.215.198-.045.081-.063.175-.062.28l.1-.002zm.224-.388c.221-.117.435-.25.641-.392l-.057-.082c-.203.14-.414.27-.63.386l.046.088zm.641-.391c1.034-.712 1.787-1.634 2.093-2.873l-.097-.024c-.299 1.21-1.034 2.113-2.053 2.814l.057.083zm2.093-2.873c.074-.3.107-.612.158-.917l-.098-.016c-.053.313-.084.614-.157.909l.097.024zm.109-.975H5.97v.1h9.424v-.1zm-9.474.05c0 .042-.002.084 0 .12l.1-.008c-.002-.031 0-.06 0-.112h-.1zm0 .12c.11 1.32.68 2.412 1.694 3.26l.064-.076c-.993-.832-1.551-1.899-1.658-3.192l-.1.008zm1.694 3.26c.356.298.754.547 1.147.79l.053-.085c-.394-.243-.787-.489-1.136-.78l-.064.076zm1.147.79c.095.058.159.117.199.185.04.068.058.149.054.257l.1.004c.004-.122-.017-.223-.068-.311-.051-.087-.13-.157-.232-.22l-.053.085zm.253.442c-.014.404-.004.81-.004 1.212h.1c0-.405-.01-.806.004-1.208l-.1-.004zm-.004 1.212v.243h.1v-.243h-.1zm.05.293h3.22v-.1H9.06v.1zm3.87.01h.227v-.1h-.228v.1zm.227 0h5.085v-.1h-5.085v.1zm5.085 0c.201 0 .305.024.363.08.058.057.083.158.083.354h.1c0-.195-.022-.337-.113-.425-.09-.088-.233-.11-.433-.11v.1zm.446.434v.969h.1v-.97h-.1zm0 .97c0 .184-.026.283-.083.34-.057.056-.157.083-.342.083v.1c.187 0 .324-.025.412-.113.088-.087.113-.225.113-.41h-.1zm-.425.423H7.186v.1H18.263v-.1zm-11.077 0H1.16v.1h6.026v-.1zm-6.026 0c-.2 0-.302-.025-.36-.082-.057-.057-.082-.16-.082-.359h-.1c0 .198.023.34.112.43.09.089.232.11.43.11v-.1zm-.442-.44v-1.056h-.1v1.055h.1zm0-1.056c.002-.12.029-.197.076-.245.048-.05.125-.08.247-.086l-.005-.1c-.134.007-.24.041-.313.116-.073.075-.103.182-.104.315h.1zm.323-.331c.05-.003.099 0 .154 0v-.1c-.05 0-.105-.003-.16 0l.006.1zm.154 0h6.984v-.1H1.195v.1zm6.984 0h.23v-.1h-.23v.1zm.28-.05v-.803h-.1v.802h.1zm0-.803c0-.047.003-.096.007-.147.004-.05.009-.104.011-.155.005-.102 0-.21-.046-.3l-.089.046c.033.066.04.15.035.25-.002.049-.007.099-.01.15-.005.052-.009.105-.008.156h.1zm-.028-.602c-.044-.087-.13-.148-.216-.197-.043-.026-.09-.05-.132-.073-.044-.024-.086-.047-.123-.072l-.056.083c.042.028.087.053.131.077l.13.07c.084.05.147.098.177.158l.09-.046zm-.471-.342c-1.083-.725-1.914-1.648-2.306-2.9l-.096.03c.401 1.28 1.25 2.22 2.346 2.953l.056-.083zm-2.306-2.9c-.145-.461-.212-.942-.323-1.453l-.097.021c.108.5.178.995.324 1.462l.096-.03zm-.372-1.492h-.41v.1h.41v-.1zm-.36.05v-.634h-.1v.634h.1zm-.05-.584h.45v-.1h-.45v.1zm.499-.041c.063-.334.117-.65.182-.964l-.098-.02c-.065.314-.12.633-.183.965l.099.019zm.182-.964c.028-.134.058-.2.102-.236.045-.036.115-.052.253-.053l-.001-.1c-.138.001-.24.015-.315.076-.074.06-.109.158-.137.292l.098.02zm.355-.29c.393-.003.787 0 1.196 0v-.1c-.408 0-.803-.003-1.197 0v.1zm1.246-.05V6.89h-.1v1.577h.1zM7.111 6.84c-.748-.1-1.241-.383-1.534-.808-.294-.427-.392-1.006-.33-1.712l-.1-.008c-.063.717.035 1.323.348 1.777.313.455.836.747 1.602.85l.014-.1zM5.197 4.267H3.91v.1h1.288v-.1zm-1.338.048c-.003.066-.009.141-.009.215h.1c0-.07.006-.14.01-.21l-.1-.005zm-.009.215v10.226h.1V4.53h-.1zm0 10.226c0 .452-.111.84-.49 1.11l.059.082c.415-.296.531-.723.531-1.192h-.1zm-.49 1.11c-.396.284-.826.334-1.268.14l-.04.092c.475.208.942.153 1.367-.15l-.059-.081zm-1.268.14c-.438-.192-.685-.532-.717-1.015l-.1.006c.035.522.306.894.777 1.1l.04-.09zm-.717-1.015c-.006-.102-.009-.205-.009-.308h-.1c0 .104.003.21.01.314l.1-.006zm-.009-.308V7.762h-.1v6.92h.1zm0-6.921V7.51h-.1v.252h.1zm-.05-.302c-.106 0-.192.004-.28 0l-.005.1c.091.004.185 0 .285 0v-.1zm-.28 0c-.111-.007-.188-.038-.238-.088C.75 7.322.72 7.246.72 7.136h-.1c0 .128.034.232.107.306.073.074.177.11.304.117l.005-.1zM.72 7.135C.718 5.873.713 4.611.722 3.347h-.1C.613 4.61.618 5.874.62 7.137h.1zm.002-3.789c.003-.509.395-.9.891-.916l-.003-.1c-.55.019-.985.452-.988 1.016h.1zm.891-.916c.475-.016.875.34.933.837l.099-.011c-.063-.546-.505-.944-1.035-.926l.003.1zm.933.837c.008.072.012.145.012.218h.1c0-.076-.004-.153-.013-.23l-.1.012zm.012.219v3.547h.1V3.486h-.1zm0 3.547c0 .187-.026.286-.082.342-.056.057-.155.083-.341.084v.1c.188-.001.325-.026.412-.113.087-.088.111-.226.111-.413h-.1zm-.423.426h-.166v.1h.167l-.001-.1zm-.215.047c-.004.059-.01.114-.01.166h.1c0-.048.005-.094.01-.159l-.1-.007zm-.01.166c-.001 2.388-.002 4.776 0 7.164h.1c-.002-2.388-.001-4.776 0-7.164h-.1zm0 7.164c0 .242.076.438.217.568.142.13.343.185.578.16l-.01-.1c-.214.023-.384-.028-.5-.134-.116-.106-.186-.273-.186-.494h-.1zm.795.728c.333-.036.573-.287.59-.621l-.1-.005c-.014.285-.216.496-.5.526l.01.1zm.59-.62c.005-.078.003-.155.003-.229h-.1c0 .077.002.15-.002.223l.1.005zm.003-.229V4.18h-.1v10.537h.1zm0-10.537c0-.063-.004-.114.002-.168l-.1-.01c-.006.06-.002.124-.002.178h.1zM3.3 4.01c.01-.104.041-.174.089-.22.047-.044.119-.07.224-.071l-.001-.1c-.12 0-.22.032-.292.099-.071.067-.108.164-.12.282l.1.01zm.313-.291c.452-.005.904-.002 1.358-.002v-.1c-.453 0-.906-.003-1.36.002l.002.1zm1.358-.002H5.175v-.1H5.17 5.17h-.001-.002-.001-.001-.003-.001-.002-.001-.001-.002-.001-.001-.002-.001-.002-.001-.002-.001-.001-.002-.001-.002-.001-.002-.001-.002-.002-.001-.002-.001-.002-.001-.001-.001-.002-.001-.001-.001-.002-.002-.001-.002-.002-.002-.001-.001-.001H5.1h-.002-.002-.002-.002-.002-.002-.002-.002-.002-.002-.002-.002-.002-.001-.001-.001-.002-.002-.002-.001-.001-.001-.002-.002-.001-.002-.002-.001-.002-.002-.001-.002-.001-.001-.001-.002-.001-.002-.001-.002-.002-.001-.002-.001-.002-.001-.002-.001-.002-.001-.002-.001-.002-.001-.002-.001-.001-.002-.001-.002-.001H5 5h-.001-.002-.001-.002-.001-.002-.001-.001-.002-.001-.002-.001-.001-.002-.001-.002-.001-.001-.002-.001-.001v.1zm.253-.05V2.376h-.1v1.292h.1zm-.05-1.342c-.101 0-.194.005-.288 0l-.005.1c.097.005.198 0 .293 0v-.1zm-.288 0c-.103-.006-.173-.033-.22-.077-.044-.042-.072-.108-.074-.208l-.1.002c.002.118.036.213.106.279.07.066.167.097.283.103l.005-.1zm-.294-.285c-.01-.42-.008-.84 0-1.26l-.1-.003c-.008.422-.01.844 0 1.265l.1-.002zm0-1.26c.001-.082.03-.145.076-.19.047-.045.115-.075.202-.083l-.01-.1c-.104.01-.195.047-.261.111-.067.065-.105.154-.107.26l.1.001zM4.87.507c.043-.005.085-.002.134-.002v-.1c-.043 0-.094-.003-.144.002l.01.1zm.134-.002h11.32v-.1H5.005v.1zm11.32 0c.062 0 .115-.003.168.004l.013-.099c-.061-.008-.126-.005-.18-.005v.1zm.168.004c.08.011.143.043.185.088.042.045.067.108.068.188h.1c0-.102-.034-.19-.094-.256-.061-.065-.146-.106-.246-.119l-.013.1zm.253.276c.005.415.006.83 0 1.245l.1.001c.006-.416.005-.831 0-1.247l-.1.001zm0 1.245c0 .106-.027.174-.07.218-.046.044-.117.07-.228.077l.005.1c.123-.007.223-.038.292-.106.07-.069.1-.167.102-.288l-.1-.001zm-.298.295c-.089.004-.176 0-.29 0v.1c.108 0 .203.004.295 0l-.005-.1zm-.34.05v.226h.1v-.226h-.1zm0 .226c0 .755.004 1.51 0 2.266l.1.001c.004-.756 0-1.512 0-2.267h-.1zm0 2.266c-.006 1-.63 1.753-1.585 1.924l.018.099c1.003-.18 1.66-.977 1.666-2.022h-.1zm-1.584 1.924c-.094.017-.187.02-.299.032l.01.1c.103-.012.208-.016.306-.033l-.017-.099zm-.343.081v1.594h.1V6.873h-.1zm.05 1.644h.798v-.1h-.798v.1zm.798 0c.157 0 .313 0 .469.003l.002-.1c-.157-.004-.315-.003-.471-.003v.1zm.469.003c.083.001.144.022.188.058.043.035.075.09.091.173l.098-.019c-.018-.099-.06-.178-.126-.232-.066-.054-.151-.078-.249-.08l-.002.1zm.28.23c.062.334.126.666.193 1.016l.099-.019-.195-1.015-.098.019zm.243 1.057h.447v-.1h-.447v.1zm.397-.05v.631h.1v-.631h-.1zm.05.581h-.445v.1h.445v-.1zm-.495.043c-.04.289-.063.553-.113.815l.098.019c.051-.265.076-.538.114-.82l-.099-.014zm-.113.815c-.259 1.325-.959 2.38-2.023 3.206l.06.08c1.083-.84 1.797-1.915 2.06-3.267l-.097-.02zm-2.023 3.206c-.254.196-.526.371-.8.542l.052.084c.275-.17.551-.348.809-.547l-.061-.079zm-.8.542c-.056.034-.098.072-.125.122-.027.05-.036.104-.035.167l.1-.001c0-.054.007-.09.023-.118.015-.03.042-.056.09-.085l-.053-.085zm-.16.29c.007.408.003.815.003 1.25h.1c0-.434.004-.843-.003-1.253l-.1.002z"/>
    <path fill="#000" fill-rule="evenodd" d="M7.161 11.47l.6-.234c.504 1.247 1.437 2.088 2.605 2.722l-.306.565c-1.303-.704-2.326-1.647-2.899-3.052z" clip-rule="evenodd"/>
    <path stroke="#000" stroke-width=".1" d="M7.161 11.47l.6-.234c.504 1.247 1.437 2.088 2.605 2.722l-.306.565c-1.303-.704-2.326-1.647-2.899-3.052"/>
    <path fill="#000" fill-rule="evenodd" stroke="#000" stroke-width=".1" d="M14.215 3.355h.64c.003.056.01.11.01.165.002.541.002 1.082 0 1.624 0 .34-.102.44-.445.44-.48 0-.961-.002-1.443-.004-.01 0-.02-.008-.04-.016v-.613h1.278V3.355zM11.647 5.573h.627v-.615h-.627v.615z" clip-rule="evenodd"/>
</svg>
