<svg xmlns="http://www.w3.org/2000/svg" width="36" height="36" fill="none" viewBox="0 0 36 36">
<defs>
        <linearGradient id="paint0_linear" x1="18" x2="18" y1="0" y2="36" gradientUnits="userSpaceOnUse">
            <stop stop-color="#FAF6FF"/>
            <stop offset="1" stop-color="#DEC7FF"/>
        </linearGradient>
        <linearGradient id="paint1_linear" x1="17.999" x2="17.999" y1="12.544" y2="23.121" gradientUnits="userSpaceOnUse">
            <stop stop-color="#725EF6"/>
            <stop offset="1" stop-color="#6001D1"/>
        </linearGradient>
        <linearGradient id="paint2_linear" x1="27.955" x2="27.955" y1="12.544" y2="23.121" gradientUnits="userSpaceOnUse">
            <stop stop-color="#725EF6"/>
            <stop offset="1" stop-color="#6001D1"/>
        </linearGradient>
        <linearGradient id="paint3_linear" x1="22" x2="22" y1="7" y2="19" gradientUnits="userSpaceOnUse">
            <stop stop-color="#fff"/>
            <stop offset="1" stop-color="#FFD964"/>
        </linearGradient>
        <clipPath id="clip0">
            <path fill="#fff" d="M0 0H25.2V25.2H0z" transform="translate(5.4 7.2)"/>
        </clipPath>
    </defs>
    <rect width="36" height="36" fill="url(#paint0_linear)" rx="18"/>
    <g clip-path="url(#clip0)">
        <path fill="#fff" d="M30.23 27.056h-4.427c-.098 0-.192-.039-.261-.108l-.231-.23-.231.23c-.07.07-.163.108-.261.108H5.769c-.204 0-.37-.165-.37-.369v-9.839c0-.203.166-.368.37-.368h19.05c.098 0 .192.038.26.108l.232.23.231-.23c.07-.07.163-.108.26-.108h4.428c.204 0 .37.165.37.368v9.84c0 .203-.166.368-.37.368z"/>
        <path fill="#fff" d="M30.23 16.48h-4.427c-.098 0-.192.038-.26.108l-.232.23v9.9l.231.23c.07.07.163.108.261.108h4.427c.204 0 .37-.165.37-.369v-9.839c0-.203-.166-.368-.37-.368z"/>
        <path fill="url(#paint1_linear)" d="M30.23 23.12h-4.427c-.098 0-.192-.038-.261-.107l-.231-.231-.231.23c-.07.07-.163.109-.261.109H5.769c-.204 0-.37-.165-.37-.37v-9.838c0-.204.166-.37.37-.37h19.05c.098 0 .192.04.26.109l.232.231.231-.231c.07-.07.163-.108.26-.108h4.428c.204 0 .37.165.37.369v9.839c0 .204-.166.369-.37.369z"/>
        <path fill="url(#paint2_linear)" d="M30.23 12.544h-4.427c-.098 0-.192.039-.26.108l-.232.231v9.899l.231.23c.07.07.163.109.261.109h4.427c.204 0 .37-.165.37-.37v-9.838c0-.204-.166-.37-.37-.37z"/>
        <path fill="#F2E8FF" d="M25.31 21.153c-.203 0-.368-.165-.368-.369V19.8c0-.204.165-.369.369-.369s.369.165.369.37v.983c0 .204-.165.369-.37.369zM25.31 18.693c-.203 0-.368-.165-.368-.369v-.983c0-.204.165-.37.369-.37s.369.166.369.37v.983c0 .204-.165.37-.37.37zM25.31 16.234c-.203 0-.368-.166-.368-.37v-.983c0-.204.165-.37.369-.37s.369.166.369.37v.984c0 .203-.165.369-.37.369z"/>
        <path fill="#DAC0FF" d="M28.262 21.153c-.203 0-.368-.165-.368-.369v-5.903c0-.204.165-.37.369-.37.203 0 .368.166.368.37v5.903c0 .204-.165.369-.369.369z"/>
        <path fill="#F2E8FF" d="M8.72 17.465c-.746 0-1.353-.607-1.353-1.353s.607-1.353 1.353-1.353c.745 0 1.352.607 1.352 1.353s-.607 1.353-1.352 1.353zm0-1.968c-.34 0-.615.276-.615.615 0 .34.275.615.615.615.339 0 .614-.276.614-.615 0-.339-.275-.615-.614-.615zM12.163 20.907c-.746 0-1.353-.607-1.353-1.353s.607-1.353 1.353-1.353 1.353.607 1.353 1.353-.607 1.353-1.353 1.353zm0-1.968c-.339 0-.615.276-.615.615 0 .34.276.615.615.615.34 0 .615-.276.615-.615 0-.339-.276-.615-.615-.615zM7.736 20.907c-.095 0-.19-.036-.261-.108-.144-.144-.144-.378 0-.522l5.411-5.411c.144-.144.378-.144.522 0 .144.144.144.377 0 .521L7.997 20.8c-.073.072-.167.108-.261.108z"/>
        <path fill="#DAC0FF" d="M13.644 24.714H7.57c-.204 0-.37-.165-.37-.37 0-.203.166-.368.37-.368h6.075c.204 0 .369.165.369.369s-.165.369-.369.369zM28.944 24.714H22.87c-.204 0-.369-.165-.369-.37 0-.203.165-.368.369-.368h6.075c.204 0 .37.165.37.369s-.166.369-.37.369zM10.692 26.19H7.57c-.204 0-.37-.166-.37-.37 0-.203.166-.368.37-.368h3.123c.204 0 .37.165.37.369 0 .203-.166.368-.37.368z"/>
    </g>
    <path fill="url(#paint3_linear)" d="M22 19c3.314 0 6-2.686 6-6s-2.686-6-6-6-6 2.686-6 6 2.686 6 6 6z"/>
    <path fill="#FC4" d="M22 7c-.159 0-.316.006-.47.018 3.093.24 5.528 2.827 5.528 5.982 0 3.155-2.435 5.742-5.529 5.982.155.012.313.018.471.018 3.314 0 6-2.686 6-6s-2.686-6-6-6z"/>
    <path fill="#FC4" d="M22 17.238c2.34 0 4.238-1.897 4.238-4.238 0-2.34-1.898-4.238-4.238-4.238-2.34 0-4.238 1.897-4.238 4.238 0 2.34 1.897 4.238 4.238 4.238z"/>
    <path fill="#fff" d="M22.006 14.329h-.749l2.518-2.11v-1.362h-3.981v1.157h2.314l-2.382 2.042v1.43h2.28v-1.158zM23.88 14.329h-1.124v1.123h1.124v-1.123z"/>
    
</svg>
