<svg xmlns="http://www.w3.org/2000/svg" width="40" height="40" fill="none" viewBox="0 0 40 40">
    <path fill="#FFEFC6" d="M20 40c11.046 0 20-8.954 20-20S31.046 0 20 0 0 8.954 0 20s8.954 20 20 20z"/>
    <path fill="#D0D0D0" d="M24.055 26.77L20 25.598l-4.055 1.172c-.035.07-.047.14-.047.222v2.422h8.204v-2.422c0-.082-.012-.152-.047-.223z"/>
    <path fill="#FC4" d="M29.414 11.172H26.42c.005-.198.025-.385.025-.586 0-.328-.258-.586-.586-.586H14.141c-.329 0-.586.258-.586.586 0 .201.02.388.025.586h-2.994c-.324 0-.586.262-.586.586v1.484c0 3.272 2.62 5.93 5.85 6.1.673.927 1.472 1.614 2.38 2.002-.14 2.847-1.77 4.828-2.156 5.238-.058.047-.105.117-.129.188h8.11c-.024-.07-.07-.141-.13-.188-.398-.41-2.015-2.379-2.155-5.238.908-.388 1.712-1.075 2.385-2.002 3.227-.174 5.845-2.83 5.845-6.1v-1.484c0-.324-.262-.586-.586-.586zm-18.242 2.07v-.898h2.458c.152 1.936.572 3.987 1.455 5.73-2.213-.498-3.913-2.47-3.913-4.832zm17.656 0c0 2.36-1.699 4.332-3.91 4.831.876-1.742 1.298-3.774 1.452-5.73h2.458v.9z"/>
    <path fill="#838383" d="M24.688 30h-9.375c-.324 0-.586-.262-.586-.586 0-.324.262-.586.585-.586h9.376c.323 0 .585.262.585.586 0 .324-.262.586-.585.586z"/>
</svg>
