<svg width="40" height="40" fill="none" xmlns="http://www.w3.org/2000/svg">
    <path d="M20 40c11.046 0 20-8.954 20-20S31.046 0 20 0 0 8.954 0 20s8.954 20 20 20z" fill="#FFEFC6"/>
    <g clip-path="url(#a)">
        <path d="M26.247 25.786v3.888c0 .262.198.48.458.509a27.79 27.79 0 0 1 3.196.522c.32.073.625-.17.625-.499v-3.3a.513.513 0 0 0-.394-.497 28.05 28.05 0 0 0-3.885-.623z" fill="#D68100"/>
        <path d="M30.132 26.409c-.34-.082-.695-.159-1.064-.229v4.351c.286.055.564.113.833.174.32.073.624-.17.624-.499v-3.3a.513.513 0 0 0-.393-.497zM13.753 25.786v3.888c0 .262-.197.48-.458.509a27.79 27.79 0 0 0-3.196.522.511.511 0 0 1-.624-.499v-3.3c0-.237.163-.442.393-.497a28.051 28.051 0 0 1 3.885-.623z" fill="#FF9A00"/>
        <path d="M12.119 25.981v4.351c.381-.056.773-.106 1.176-.15a.512.512 0 0 0 .458-.508v-3.888c-.564.053-1.11.119-1.634.195z" fill="#D68100"/>
        <path d="M12.066 27.996c0 .328.305.572.626.498 2.013-.46 4.55-.736 7.308-.736s5.295.275 7.308.736c.32.074.626-.17.626-.498v-3.3a.512.512 0 0 0-.393-.498c-2.049-.494-4.676-.79-7.541-.79s-5.492.296-7.54.79a.512.512 0 0 0-.394.498v3.3z" fill="#FF9A00"/>
        <path d="M27.54 24.199c-.407-.099-.84-.19-1.29-.271v4.35c.366.067.72.14 1.058.217.32.073.626-.17.626-.499v-3.3a.512.512 0 0 0-.393-.497z" fill="#FF9A00"/>
        <path d="m12.662 20.137-.703.936a.242.242 0 0 0-.048.148l.019 1.17a.29.29 0 0 1-.385.28l-1.107-.38a.241.241 0 0 0-.156 0l-1.107.38a.29.29 0 0 1-.384-.28l.018-1.17a.242.242 0 0 0-.048-.148l-.703-.936a.29.29 0 0 1 .147-.452l1.118-.344a.242.242 0 0 0 .127-.091l.673-.958a.29.29 0 0 1 .475 0l.672.957c.031.044.076.077.127.092l1.118.344a.29.29 0 0 1 .147.452zM16.287 11.25l-.703.936a.242.242 0 0 0-.048.148l.018 1.17a.29.29 0 0 1-.384.28l-1.107-.38a.241.241 0 0 0-.156 0l-1.107.38a.29.29 0 0 1-.385-.28l.019-1.17a.241.241 0 0 0-.048-.149l-.703-.935a.29.29 0 0 1 .147-.452l1.118-.344a.242.242 0 0 0 .127-.092l.672-.957a.29.29 0 0 1 .475 0l.673.957c.03.044.075.077.127.092l1.118.344a.29.29 0 0 1 .146.452zM31.942 20.137l-.703.936a.241.241 0 0 0-.048.148l.018 1.17a.29.29 0 0 1-.384.28l-1.107-.38a.241.241 0 0 0-.156 0l-1.107.38a.29.29 0 0 1-.384-.28l.018-1.17a.242.242 0 0 0-.048-.148l-.703-.936a.29.29 0 0 1 .147-.452l1.118-.344a.241.241 0 0 0 .127-.091l.672-.958a.29.29 0 0 1 .476 0l.672.957c.031.044.076.077.127.092l1.118.344a.29.29 0 0 1 .147.452zM28.317 11.25l-.702.936a.24.24 0 0 0-.049.148l.019 1.17a.29.29 0 0 1-.384.28l-1.107-.38a.24.24 0 0 0-.157 0l-1.107.38a.29.29 0 0 1-.384-.28l.019-1.17a.242.242 0 0 0-.049-.149l-.702-.935a.29.29 0 0 1 .147-.452l1.118-.344a.242.242 0 0 0 .126-.092l.673-.957a.29.29 0 0 1 .475 0l.673.957c.03.044.075.077.126.092l1.119.344a.29.29 0 0 1 .146.452zM26.906 17.823l-2.18 2.9a.24.24 0 0 0-.048.15l.057 3.628a.925.925 0 0 1-1.224.89l-3.433-1.176a.242.242 0 0 0-.156 0l-3.433 1.175a.925.925 0 0 1-1.225-.89l.058-3.627a.24.24 0 0 0-.049-.15l-2.179-2.9a.925.925 0 0 1 .468-1.44l3.468-1.067a.242.242 0 0 0 .127-.092l2.086-2.969a.924.924 0 0 1 1.514 0l2.086 2.97c.03.043.075.075.127.091l3.468 1.067a.925.925 0 0 1 .468 1.44z" fill="#FC4"/>
        <path d="m22.827 20.271.041 2.61a.241.241 0 0 1-.32.233l-2.47-.846a.242.242 0 0 0-.156 0l-2.47.846a.241.241 0 0 1-.32-.232l.04-2.61a.241.241 0 0 0-.047-.15l-1.569-2.088a.242.242 0 0 1 .122-.376l2.497-.767a.24.24 0 0 0 .126-.092l1.502-2.137a.241.241 0 0 1 .395 0l1.5 2.137a.24.24 0 0 0 .127.092l2.496.767c.16.05.223.242.122.376l-1.567 2.088a.24.24 0 0 0-.049.15z" fill="#fff"/>
    </g>
    <defs>
        <clipPath id="a">
            <path fill="#fff" transform="translate(8 8)" d="M0 0h24v24H0z"/>
        </clipPath>
    </defs>
</svg>
