<svg width="40" height="40" fill="none" xmlns="http://www.w3.org/2000/svg">
    <path d="M20 40c11.046 0 20-8.954 20-20S31.046 0 20 0 0 8.954 0 20s8.954 20 20 20z" fill="#F2E8FF"/>
    <g clip-path="url(#a)">
        <path d="M29.972 16.917a.703.703 0 0 0-.269-.376l-3.151-2.172H13.448l-3.151 2.172a.702.702 0 0 0-.297.57v12.2a.662.662 0 0 0 .138.41c.129.176.334.28.552.279h18.62a.682.682 0 0 0 .552-.28.661.661 0 0 0 .138-.41v-12.2a.72.72 0 0 0-.028-.193z" fill="#DAC0FF"/>
        <path d="m29.972 16.917-3.42 2.597v-5.145l3.151 2.172c.13.092.225.224.27.376zM13.448 14.369v5.145l-3.42-2.597a.703.703 0 0 1 .269-.376l3.151-2.172z" fill="#5B00E4"/>
        <path d="M29.862 29.72a.683.683 0 0 1-.552.28H10.69a.683.683 0 0 1-.552-.28l8.383-6.358 1.062-.807a.683.683 0 0 1 .834 0l1.062.807 8.383 6.359z" fill="#DAC0FF"/>
        <path d="M26.552 10.345v9.169l-5.073 3.848-1.062-.807a.683.683 0 0 0-.834 0l-1.062.807-5.073-3.848v-9.17c0-.19.155-.344.345-.344h12.414c.19 0 .345.154.345.345z" fill="#fff"/>
    </g>
    <defs>
        <clipPath id="a">
            <path fill="#fff" transform="translate(10 10)" d="M0 0h20v20H0z"/>
        </clipPath>
    </defs>
</svg>
