<svg width="40" height="40" fill="none" xmlns="http://www.w3.org/2000/svg">
    <path d="M20 40c11.046 0 20-8.954 20-20S31.046 0 20 0 0 8.954 0 20s8.954 20 20 20z" fill="#F5F7F8"/>
    <path d="M20 34c7.732 0 14-6.268 14-14S27.732 6 20 6 6 12.268 6 20s6.268 14 14 14z" fill="#fff"/>
    <path d="M20 6c-.37 0-.736.015-1.099.043 7.219.56 12.902 6.595 12.902 13.957 0 7.362-5.683 13.397-12.902 13.957.363.028.73.043 1.1.043 7.731 0 14-6.268 14-14S27.731 6 20 6z" fill="#DCDCDC"/>
    <path d="M20 29.889c5.461 0 9.889-4.428 9.889-9.889 0-5.461-4.428-9.888-9.889-9.888-5.461 0-9.888 4.427-9.888 9.888S14.539 29.89 20 29.89z" fill="#DCDCDC"/>
    <path d="M20.013 23.1h-1.747l5.877-4.924V15h-9.291v2.7h5.4l-5.56 4.765V25.8h5.321v-2.7zM24.387 23.1h-2.623v2.62h2.623V23.1z" fill="#fff"/>
</svg>
