<svg xmlns="http://www.w3.org/2000/svg" width="300" height="165" fill="none" viewBox="0 0 300 165">
    <defs>
        <linearGradient id="paint0_linear" x1="167.629" x2="167.629" y1="32" y2="66" gradientUnits="userSpaceOnUse">
            <stop stop-color="#FFFBEF"/>
            <stop offset="1" stop-color="#FFD964"/>
        </linearGradient>
        <linearGradient id="paint1_linear" x1="221.674" x2="221.674" y1="40.927" y2="48.07" gradientUnits="userSpaceOnUse">
            <stop stop-color="#725EF6"/>
            <stop offset="1" stop-color="#6001D1"/>
        </linearGradient>
        <linearGradient id="paint2_linear" x1="253.504" x2="248.815" y1="31.086" y2="37.689" gradientUnits="userSpaceOnUse">
            <stop stop-color="#FE8045"/>
            <stop offset="1" stop-color="#FFB140"/>
        </linearGradient>
        <linearGradient id="paint3_linear" x1="141.896" x2="138.387" y1="14.122" y2="19.078" gradientUnits="userSpaceOnUse">
            <stop stop-color="#FE8045"/>
            <stop offset="1" stop-color="#FFB140"/>
        </linearGradient>
        <linearGradient id="paint4_linear" x1="164.864" x2="164.864" y1="1.625" y2="14.057" gradientUnits="userSpaceOnUse">
            <stop stop-color="#725EF6"/>
            <stop offset="1" stop-color="#6001D1"/>
        </linearGradient>
        <linearGradient id="paint5_linear" x1="87.282" x2="87.282" y1="0" y2="162.298" gradientUnits="userSpaceOnUse">
            <stop stop-color="#725EF6"/>
            <stop offset="1" stop-color="#6001D1"/>
        </linearGradient>
        <linearGradient id="paint6_linear" x1="64.429" x2="56.645" y1="28.504" y2="35.606" gradientUnits="userSpaceOnUse">
            <stop stop-color="#FE8045"/>
            <stop offset="1" stop-color="#FFB140"/>
        </linearGradient>
        <linearGradient id="paint7_linear" x1="105.385" x2="105.385" y1="123.426" y2="138.789" gradientUnits="userSpaceOnUse">
            <stop stop-color="#725EF6"/>
            <stop offset="1" stop-color="#6001D1"/>
        </linearGradient>
        <linearGradient id="paint8_linear" x1="221.657" x2="221.657" y1="74.833" y2="94.444" gradientUnits="userSpaceOnUse">
            <stop stop-color="#725EF6"/>
            <stop offset="1" stop-color="#6001D1"/>
        </linearGradient>
        <linearGradient id="paint9_linear" x1="250.528" x2="250.528" y1="90.27" y2="119.268" gradientUnits="userSpaceOnUse">
            <stop stop-color="#725EF6"/>
            <stop offset="1" stop-color="#6001D1"/>
        </linearGradient>
        <linearGradient id="paint10_linear" x1="136.765" x2="137.412" y1="108.047" y2="109.169" gradientUnits="userSpaceOnUse">
            <stop stop-color="#725EF6"/>
            <stop offset="1" stop-color="#6001D1"/>
        </linearGradient>
        <linearGradient id="paint11_linear" x1="136.969" x2="141.132" y1="95.673" y2="102.884" gradientUnits="userSpaceOnUse">
            <stop stop-color="#725EF6"/>
            <stop offset="1" stop-color="#6001D1"/>
        </linearGradient>
        <filter id="filter0_d" width="63.578" height="63.578" x="129" y="24" color-interpolation-filters="sRGB" filterUnits="userSpaceOnUse">
            <feFlood flood-opacity="0" result="BackgroundImageFix"/>
            <feColorMatrix in="SourceAlpha" values="0 0 0 0 0 0 0 0 0 0 0 0 0 0 0 0 0 0 127 0"/>
            <feOffset dy="2"/>
            <feGaussianBlur stdDeviation="5"/>
            <feColorMatrix values="0 0 0 0 0 0 0 0 0 0 0 0 0 0 0 0 0 0 0.1 0"/>
            <feBlend in2="BackgroundImageFix" result="effect1_dropShadow"/>
            <feBlend in="SourceGraphic" in2="effect1_dropShadow" result="shape"/>
        </filter>
        <filter id="filter1_d" width="66.445" height="66.445" x="101" y="71" color-interpolation-filters="sRGB" filterUnits="userSpaceOnUse">
            <feFlood flood-opacity="0" result="BackgroundImageFix"/>
            <feColorMatrix in="SourceAlpha" values="0 0 0 0 0 0 0 0 0 0 0 0 0 0 0 0 0 0 127 0"/>
            <feOffset dy="2"/>
            <feGaussianBlur stdDeviation="5"/>
            <feColorMatrix values="0 0 0 0 0 0 0 0 0 0 0 0 0 0 0 0 0 0 0.1 0"/>
            <feBlend in2="BackgroundImageFix" result="effect1_dropShadow"/>
            <feBlend in="SourceGraphic" in2="effect1_dropShadow" result="shape"/>
        </filter>
        <clipPath id="clip0">
            <path fill="#fff" d="M0 0H25.5V25.5H0z" transform="rotate(20 -29.603 453.056)"/>
        </clipPath>
    </defs>
        <g filter="url(#filter0_d)">
        <rect width="34" height="34" x="150.629" y="32" fill="url(#paint0_linear)" rx="16" transform="rotate(20 150.629 32)"/>
        <g clip-path="url(#clip0)">
            <path fill="#D68100" d="M164.923 61.836l-1.413 3.882c-.095.261.023.552.273.674 1.114.548 2.125 1.116 3.001 1.683.293.19.686.057.805-.271l1.199-3.294c.086-.237-.002-.501-.212-.64-1.035-.687-2.27-1.378-3.653-2.034z"/>
            <path fill="#FF9A00" d="M168.576 63.87c-.309-.205-.636-.41-.979-.615l-1.581 4.344c.265.158.522.317.768.476.293.19.686.057.805-.271l1.199-3.294c.086-.237-.002-.501-.212-.64zM152.45 57.296l-1.413 3.882c-.095.261-.372.408-.642.341-1.206-.297-2.345-.51-3.381-.64-.346-.043-.562-.397-.443-.725l1.199-3.294c.087-.237.324-.383.574-.354 1.234.14 2.624.404 4.106.79z"/>
            <path fill="#D68100" d="M150.747 56.897l-1.581 4.344c.401.083.81.175 1.229.278.27.067.547-.08.642-.341l1.413-3.883c-.583-.151-1.152-.284-1.703-.398z"/>
            <path fill="#FF9A00" d="M149.962 58.89c-.119.327.097.681.443.724 2.178.272 4.811.919 7.565 1.921 2.753 1.002 5.186 2.199 7.029 3.391.293.19.686.058.805-.27l1.199-3.295c.087-.236-.001-.5-.211-.64-1.866-1.237-4.381-2.489-7.241-3.53-2.861-1.04-5.592-1.7-7.817-1.95-.25-.029-.487.117-.573.354l-1.199 3.294z"/>
            <path fill="#FF9A00" d="M166.792 60.721c-.372-.246-.77-.493-1.191-.74l-1.581 4.344c.342.2.669.4.979.601.293.19.686.058.805-.27l1.199-3.295c.087-.236-.001-.5-.211-.64z"/>
            <path fill="#FC4" d="M153.413 51.26l-1.042.678c-.047.031-.083.077-.102.131l-.407 1.175c-.07.202-.319.273-.485.139l-.967-.78c-.044-.037-.099-.056-.156-.058l-1.243-.023c-.214-.004-.359-.22-.283-.419l.444-1.161c.02-.053.023-.112.006-.166l-.362-1.19c-.062-.204.098-.408.311-.397l1.241.063c.057.003.114-.014.16-.046l1.02-.712c.175-.122.419-.033.474.173l.324 1.2c.015.055.047.104.093.138l.991.75c.171.129.162.388-.017.505zM160.261 43.704l-1.041.678c-.048.031-.084.078-.102.131l-.407 1.175c-.07.202-.319.273-.485.14l-.968-.782c-.044-.035-.099-.055-.156-.056l-1.243-.024c-.213-.004-.358-.22-.282-.419l.444-1.16c.02-.054.022-.112.005-.167l-.361-1.19c-.062-.204.097-.408.311-.397l1.241.063c.057.003.113-.013.16-.046l1.019-.711c.176-.123.419-.034.475.172l.323 1.2c.015.056.048.104.093.138l.992.75c.17.129.161.388-.018.505zM172.662 58.266l-1.041.678c-.048.031-.084.078-.102.131l-.407 1.175c-.07.202-.319.273-.485.14l-.968-.782c-.044-.035-.099-.055-.156-.056l-1.243-.024c-.213-.004-.358-.22-.282-.419l.444-1.16c.02-.054.022-.112.006-.167l-.362-1.19c-.062-.204.098-.408.311-.397l1.241.063c.057.003.113-.013.16-.046l1.019-.711c.176-.122.419-.034.475.172l.323 1.2c.015.056.048.104.093.138l.992.75c.17.129.161.388-.018.505zM172.273 48.075l-1.042.68c-.047.03-.083.076-.102.13l-.407 1.175c-.07.202-.319.273-.485.139l-.967-.78c-.045-.036-.099-.056-.156-.057l-1.243-.024c-.214-.004-.359-.22-.283-.419l.444-1.161c.02-.053.023-.112.006-.166l-.362-1.19c-.062-.204.098-.408.311-.397l1.242.063c.056.003.113-.014.159-.046l1.02-.712c.175-.122.419-.033.474.173l.324 1.2c.015.055.047.104.093.138l.991.75c.171.129.161.388-.017.505zM168.475 54.124l-3.23 2.105c-.048.031-.084.078-.102.131l-1.262 3.644c-.222.643-1.016.87-1.545.443l-3.001-2.421c-.044-.036-.099-.056-.156-.057l-3.854-.074c-.681-.013-1.143-.698-.9-1.333l1.376-3.602c.02-.053.022-.111.006-.166l-1.122-3.688c-.197-.652.311-1.302.991-1.268l3.85.195c.057.003.113-.013.16-.046l3.162-2.205c.558-.39 1.334-.108 1.511.55l1.004 3.722c.015.055.048.103.093.138l3.075 2.325c.543.41.514 1.235-.056 1.607z"/>
            <path fill="#fff" d="M163.513 55.087l-.908 2.622c-.058.168-.265.227-.403.115l-2.159-1.742c-.045-.036-.1-.056-.157-.057l-2.774-.053c-.177-.003-.298-.182-.234-.348l.99-2.592c.02-.053.022-.111.005-.166l-.806-2.655c-.052-.17.081-.34.258-.33l2.771.14c.057.003.113-.013.16-.046l2.275-1.587c.146-.102.349-.028.395.143l.722 2.68c.015.054.048.103.093.137l2.213 1.673c.142.108.134.323-.014.42l-2.325 1.515c-.047.031-.083.077-.102.131z"/>
        </g>
    </g>
    <path fill="#F2E8FF" d="M296.667 162.189v-39.73h-13.54V93.148h-13.023v13.05h-10.775V76.129H241.68v27.497l-5.283.169V76.07h-6.159V64.255h-3.691V56.32h-14.436v7.936h-3.691V76.07h-6.158v15.024l-2.846.18-.845-44.496h-19.013v23.669l-6.685.169V33.628h-2.289v-7.806h-20.057v7.806h-2.288v49.85h-4.218V67.933h-3.522v-7.597h-5.104V38.144h-7.392v22.193h-5.104v7.597h-3.512v26.3h-2.467l-1.94-.03V63.738l-52.083.498v68.612H58.5v-8.992H42.66v17.287h-4.576v-6.35H28.056v12.871H18.028v14.526h278.639z"/>
    <path fill="#00AA7D" d="M66.837 161.311s-6.597-38.154-9.263-42.092c-3.69-5.444-8.267 11.266-8.496 9.79-2.11-13.868-1.672-31.365-11.55-34.007-5.612-1.505.367 13.06-.33 16.819-.696 3.759-10.038-9.651-15.788-16.74-5.75-7.088-9.273-3.18-5.94 5.424 3.224 8.315 14.904 18.066 12.287 18.903-2.616.838-17.271-10.757-19.48-6.48-2.706 5.234 19.878 14.476 17.61 15.523-2.268 1.047-13.023-3.859-13.023.309 0 4.167 14.863 5.214 14.475 7.018-.626 2.922-9.968-4.556-10.695-.508-.746 4.147 12.675 4.457 12.208 7.697-.269 1.864-3.652-.09-4.259 2.472-1.392 5.842 19.76 14.028 19.76 14.028l22.484 1.844z"/>
    <path fill="#D3FFF3" d="M77.363 162.298c-2.686-3.499-18.545-23.07-28.136-26.2-10.595-3.45-.607 10.249-.607 10.249s-18.793-20.668-25.688-18.803c-6.317 1.704 0 14.516 0 14.516s-7.123-7.089-15.759-7.089c-8.407 0 6.099 25.981 6.875 27.327h63.315z"/>
    <path fill="#23C99D" d="M11.67 148.4c-.05.319-.388 1.266-.179 2.194.12.917.786 1.814.796 1.774.06 0-1.035-.299-1.771-1.236-.786-.867-1.224-2.373-1.055-3.031.19-1.376 1.324-2.044 1.791-1.645.478.389.488 1.226.418 1.944zM18.575 150.883c-.05.319-.388 1.266-.18 2.193.12.917.787 1.815.796 1.775.06 0-1.034-.299-1.77-1.237-.787-.867-1.224-2.372-1.055-3.03.189-1.376 1.323-2.044 1.79-1.645.478.398.498 1.236.419 1.944zM25.599 154.033c-.05.319-.389 1.266-.18 2.193.12.918.786 1.815.796 1.775.06 0-1.034-.299-1.77-1.236-.787-.868-1.224-2.373-1.055-3.031.189-1.376 1.323-2.044 1.79-1.645.478.389.488 1.226.419 1.944z"/>
    <path fill="#23C99D" d="M9.61 154.891c.14-.27.418-1.147 1.085-1.715.597-.608 1.592-.898 1.572-.868.04.03-.925-.359-2-.079-1.064.189-2.218 1.056-2.457 1.645-.627 1.116-.16 2.243.408 2.213.577-.02 1.044-.628 1.393-1.196zM16.794 157.443c.139-.269.418-1.147 1.084-1.715.597-.608 1.592-.897 1.572-.867.04.03-.925-.359-2-.08-1.064.189-2.218 1.057-2.457 1.645-.627 1.116-.16 2.243.408 2.213.577-.02 1.044-.628 1.393-1.196zM4.964 148.859c.03.189.01.787.289 1.276.229.498.766.887.766.857.03-.01-.637.02-1.224-.379-.597-.349-1.114-1.126-1.134-1.525-.14-.808.388-1.396.726-1.246.339.129.488.598.577 1.017z"/>
    <path fill="#23C99D" d="M3.84 152.109c.12-.149.408-.668.906-.937.457-.299 1.114-.349 1.094-.329.02.03-.537-.349-1.244-.319-.696-.02-1.532.369-1.76.708-.538.618-.399 1.386-.03 1.445.368.06.746-.259 1.034-.568zM19.798 121.542c7.68 12.063 13.371 26.529 16.575 40.756h.826c-3.194-13.938-9.143-28.523-16.814-40.567-1.78-2.801-3.701-6.121-7.044-7.208-.06-.02-.09.08-.03.1 3.055 1.146 4.826 4.297 6.487 6.919zM34.821 162.298c-8.586-11.734-19.39-23.15-31.797-32.581-.119-.09-.288.119-.169.219 11.77 9.093 22.375 20.229 31.14 32.362h.826z"/>
    <path fill="#23C99D" d="M19.102 114.063c-.2.29-.955 1.057-1.174 2.054-.299.947-.06 2.144-.04 2.094.06.02-.876-.768-1.164-2.034-.378-1.206-.11-2.891.358-3.44.806-1.256 2.229-1.385 2.497-.777.289.608-.08 1.435-.477 2.103zM17.261 124.822c.289-.21 1.035-.977 2.02-1.227.935-.319 2.129-.109 2.09-.079.02.059-.787-.868-2.04-1.137-1.214-.359-2.876-.06-3.413.429-1.233.837-1.333 2.263-.716 2.532.597.289 1.403-.1 2.06-.518zM20.037 129.537c.288-.209 1.035-.977 2.02-1.226.935-.319 2.129-.11 2.089-.08.02.06-.786-.867-2.04-1.136-1.214-.359-2.875-.06-3.412.428-1.234.838-1.333 2.264-.716 2.533.586.289 1.402-.1 2.059-.519zM10.148 140.484c.288-.209 1.034-.977 2.02-1.226.935-.319 2.129-.11 2.089-.08.02.06-.786-.867-2.04-1.136-1.214-.359-2.875-.06-3.412.428-1.234.838-1.333 2.263-.717 2.533.587.279 1.403-.11 2.06-.519zM5.094 136.008c.288-.21 1.034-.977 2.02-1.227.935-.319 2.129-.109 2.089-.079.02.06-.786-.868-2.04-1.137-1.214-.359-2.875-.06-3.412.429-1.234.837-1.333 2.263-.717 2.532.597.279 1.403-.109 2.06-.518z"/>
    <path fill="#23C99D" d="M22.982 119.398c-.239.259-1.104.887-1.483 1.845-.447.887-.397 2.103-.368 2.063.05.03-.746-.897-.835-2.193-.18-1.256.338-2.871.895-3.34.995-1.117 2.418-1.017 2.587-.369.189.648-.309 1.396-.796 1.994zM27.05 124.752c-.337.179-1.541.518-2.148 1.416-.687.797-.766 2.173-.726 2.143.06.06-.856-1.326-.816-2.801-.09-1.476.786-3.051 1.562-3.35 1.422-.808 3.253-.09 3.402.708.18.807-.557 1.435-1.273 1.884zM31.349 132.847c-.368.12-1.602.25-2.348 1.037-.806.678-1.124 2.014-1.075 1.994.05.07-.616-1.445-.338-2.901.16-1.476 1.284-2.881 2.1-3.031 1.541-.558 3.213.459 3.233 1.276.03.818-.796 1.306-1.572 1.625zM18.644 138.5c-.268.17-1.224.509-1.661 1.276-.508.688-.498 1.815-.468 1.785.06.04-.766-1.027-.826-2.233-.149-1.197.468-2.533 1.075-2.812 1.114-.738 2.636-.259 2.805.379.19.638-.368 1.196-.925 1.605zM12.038 115.959c.16-.13.567-.629 1.144-.818.537-.229 1.254-.159 1.234-.14.02.03-.498-.478-1.254-.578-.736-.159-1.7.09-2 .399-.696.548-.686 1.396-.318 1.525.358.15.826-.119 1.194-.388z"/>
    <path fill="#23C99D" d="M13.58 112.509c-.01.209-.149.837.06 1.406.15.568.647 1.096.647 1.067.04-.01-.677-.11-1.224-.649-.567-.488-.965-1.415-.905-1.844.01-.887.676-1.406 1.014-1.186.319.219.398.747.408 1.206zM1.452 131.452c.16-.13.567-.628 1.145-.818.537-.229 1.253-.159 1.233-.139.02.029-.497-.479-1.253-.579-.737-.159-1.702.09-2 .399-.697.548-.687 1.396-.318 1.525.368.15.825-.119 1.193-.388z"/>
    <path fill="#23C99D" d="M3.313 127.972c-.02.21-.209.818-.06 1.406.1.578.547 1.146.557 1.116.04 0-.666-.159-1.164-.747-.527-.529-.845-1.486-.756-1.904.08-.888.796-1.346 1.105-1.097.318.239.348.768.318 1.226zM4.606 150.783c2.209.199 4.398.608 6.547 1.176 3.92 1.037 7.69 2.553 11.401 4.178 1.82.797 3.661 1.585 5.452 2.452.836.409 1.681.818 2.447 1.346 1.035.708 2.657 2.124 2.856 2.343l-.856.03c-.587-.479-2.716-2.283-5.69-3.719-7.034-3.389-14.337-6.879-22.177-7.736-.02-.01-.02-.08.02-.07z"/>
    <path fill="#D3FFF3" d="M90.008 161.53c2.08-1.784 3.343-3.678 3.015-5.573-.578-3.359-5.343-1.206-5.522-3.629-.319-4.227 17.868-3.24 17.271-8.653-.587-5.294-13.958 3.369-14.515-.459-.349-2.363 19.868-2.163 20.276-7.537.408-5.374-14.625-.18-17.59-1.755s28.494-11.146 25.35-18.175c-2.567-5.732-23.54 7.677-26.992 6.331-3.452-1.346 13.302-12.692 18.485-23.08 5.353-10.737.975-16.141-7.501-7.607-8.477 8.534-22.435 24.845-23.002 19.93-.577-4.906 8.954-23.06 1.214-21.705-13.62 2.393-14.745 24.975-18.963 42.621-.447 1.865-5.004-20.139-10.526-13.499-2.845 3.41 2.428 28.534 5.71 42.78h33.29v.01z"/>
    <path fill="url(#paint1_linear)" d="M218.17 44.944c-.229 1.804 1.642 3.23 3.313 3.12 1.841-.12 3.403-1.635 3.671-3.45.289-1.963-.885-3.529-2.706-3.678-1.771-.14-2.905 1.435-2.398 3.03.368 1.147 1.413 1.566 1.93 1.257.408-.25.388-.867-.109-.977-.199-.04-.398.07-.507.22-.438-.17-.846-.968-.567-1.815.358-1.087 1.731-1.157 2.586-.648 1.085.648 1.254 2.044.856 3.15-.418 1.167-1.562 2.084-2.806 2.174-1.413.1-2.646-.987-2.766-2.393-.01-.32-.457-.31-.497.01z"/>
    <path fill="url(#paint2_linear)" d="M249.728 38.922l1.184-2.672-1.532-2.492c-.169-.28.05-.648.378-.608l2.905.299 1.89-2.224c.219-.249.627-.15.697.18l.607 2.861 2.696 1.117c.308.13.338.548.05.718l-2.528 1.465-.228 2.911c-.03.33-.418.489-.667.27l-2.169-1.955-2.835.688c-.309.07-.587-.259-.448-.558z"/>
    <path fill="url(#paint3_linear)" d="M139.056 19.99l.886-2.005-1.144-1.864c-.13-.21.039-.478.288-.458l2.179.229 1.423-1.665c.159-.19.467-.11.527.13l.457 2.143 2.02.837c.229.1.249.42.04.539l-1.89 1.097-.17 2.183c-.019.25-.318.369-.497.2l-1.632-1.466-2.129.518c-.248.06-.457-.19-.358-.419z"/>
    <path fill="#FC4" d="M269.576 62.062l1.254-2.293 3.89 1.625 2.248-3.12 3.104.737.378-1.575-4.158-.987-2.129 2.951-4.05-1.685-1.89 3.44 1.353.907z"/>
    <path fill="url(#paint4_linear)" d="M167.48 12.751l-2.208-1.375 1.82-3.809-2.984-2.413.895-3.07-1.552-.459-1.204 4.108 2.826 2.293-1.891 3.958 3.323 2.073.975-1.306z"/>
    <path fill="#FC4" d="M196.541 28.364l1.632-2.662-1.314-.538c-.288-.12-.427-.449-.308-.738.119-.29.448-.429.736-.309l1.512.618 1.463-2.393-1.403-.568c-.288-.12-.428-.449-.308-.738.119-.289.447-.428.736-.309l1.602.648 1.701-2.741c.149-.23.438-.33.686-.23l.249.1c.318.13.448.518.269.817l-1.582 2.583 2.328.947 1.701-2.742c.149-.23.438-.329.687-.23l.268.11c.319.13.448.519.269.818l-1.582 2.582 1.313.538c.289.12.428.45.309.738-.12.29-.448.429-.737.31l-1.512-.619-1.442 2.403 1.402.568c.289.12.428.449.309.738-.12.29-.448.429-.736.31l-1.602-.649-1.731 2.822c-.14.229-.438.329-.687.229l-.288-.12c-.319-.13-.448-.518-.269-.817l1.632-2.662-2.328-.947-1.731 2.821c-.14.23-.438.329-.687.23l-.288-.12c-.329-.11-.448-.499-.269-.798zm5.93-2.133l1.462-2.393-2.328-.947-1.463 2.392 2.329.948z"/>
    <path fill="url(#paint5_linear)" d="M125.367.558c-.01 0-.01 0-.02-.01-.189-.07-.378-.13-.577-.19-.07-.019-.13-.039-.199-.059-.07-.02-.14-.04-.209-.05-.07-.02-.14-.03-.219-.05-.07-.01-.139-.03-.209-.04-.08-.01-.159-.03-.229-.04l-.199-.03-.259-.03c-.059-.01-.119-.01-.189-.02-.099-.01-.199-.02-.288-.02-.05 0-.1-.009-.159-.009-.15-.01-.299-.01-.458-.01H52.391c-.159 0-.328 0-.487.01-.319.02-.637.05-.946.1-.159.02-.308.05-.467.08-3.98.817-7.044 4.167-7.462 8.304-.03.32-.05.638-.05.967v143.386c0 4.097 2.587 7.577 6.209 8.893.02.01.03.01.05.02.178.06.358.119.547.179.07.02.129.04.199.06.07.02.139.04.209.05.07.02.139.03.218.05.07.01.14.03.21.04.079.01.158.03.228.04l.2.029.258.03c.06.01.12.01.189.02.1.01.199.02.288.02.05 0 .1.01.16.01.149.01.298.01.457.01h69.772c.328 0 .647-.02.965-.05 4.427-.448 7.949-3.988 8.397-8.444.03-.319.05-.638.05-.967V9.461c-.01-4.097-2.597-7.577-6.218-8.903z"/>
    <path fill="#F5F5F5" d="M127.287 12.891h-79.74v136.516h79.74V12.891z"/>
    <path fill="#fff" d="M127.287 70.397l-23.012-1.895-.657-13.519-5.65-.239v-9.212l29.329 12.602v-2.582l-9.73-4.178-1.841-38.483h-2.378l1.791 37.447-17.172-7.378v-.26h-.607l-3.91-1.674-.03-28.135h-2.367l.02 27.098-23.798-10.22V12.892h-4.746v14.835l-14.983-6.44v2.582l14.983 6.44v15.035l-14.983-7.01v2.623l14.983 7.009v8.883L49 74.056l-1.453.03v2.372l11.909-.239V92.42l12.436 6.919-13.043 5.753-11.302-8.076v2.921l10.675 7.627.01-.01-2.567 41.853h4.756l1.602-26.011 20.047 7.348-2.298 18.663h2.388l2.188-17.826 19.57 7.169-3.423 10.657h2.488l3.163-9.84 21.152 7.747v-2.533l-20.415-7.477 5.78-17.986-7.402-4.117c2.567-3.121 8.118-9.86 13.66-16.64 3.532-4.317 6.258-7.676 8.377-10.298v-3.789c-2.627 3.27-6.009 7.438-9.651 11.894l-12.396-7.946-.846-17.517 22.903 1.885v-2.393h-.02zM99.091 59.56l1.304 26.878-14.287-12.432V59.02l12.983.539zM67.275 32.352l28.314 12.173v10.13l-28.314-1.177V32.352zM52.073 74.006l12.486-15.882 19.171.797v14.457l-31.657.628zm9.76 17.018V76.19l22.654-.448 13.769 11.993-23.629 10.409-12.794-7.119zm47.964 29.421l-5.154 16.041-42.482-15.562.766-12.433 14.177-6.251 32.693 18.205zm6.327-22.233c-4.358 5.324-8.954 10.927-12.983 15.813l-23.31-12.981 24.126-10.628 12.167 7.796z"/>
    <path fill="#DAC0FF" d="M105.131 138.789L58.609 122.13l.806-15.194 40.821-18.075-16.147-13.868V57.466l-20.028-.598V40.896h1.692v14.317l20.027.608v18.394l17.6 15.104-42.323 18.754-.697 12.881 45.348 16.24-.577 1.595z"/>
    <path fill="url(#paint6_linear)" d="M60.52 35.233l4.347 8.634 4.557-8.524c1.353-3.13-.816-6.69-4.209-6.84h-.299c-3.412.06-5.66 3.57-4.397 6.73zm2.228-1.794c.02-1.246 1.035-2.244 2.278-2.224 1.244.02 2.239 1.037 2.219 2.284-.02 1.246-1.035 2.243-2.279 2.223-1.243-.02-2.238-1.037-2.218-2.283z"/>
    <path fill="url(#paint7_linear)" d="M100.912 130.156l4.338 8.633 4.557-8.524c1.353-3.13-.816-6.689-4.209-6.839h-.298c-3.403.06-5.651 3.569-4.388 6.73zm2.229-1.795c.02-1.246 1.034-2.243 2.278-2.223 1.244.02 2.239 1.037 2.219 2.283-.02 1.246-1.035 2.243-2.279 2.223-1.243-.01-2.238-1.037-2.218-2.283z"/>
    <path fill="#fff" d="M104.265 8.604H70.429c-.05 0-.09-.04-.09-.09V6.98c0-.05.04-.09.09-.09h33.836c.05 0 .09.04.09.09v1.535c-.01.05-.04.09-.09.09z"/>
    <path fill="#DAC0FF" d="M91.142 155.987c0 2.164-1.75 3.928-3.9 3.928-2.159 0-3.9-1.754-3.9-3.928 0-2.163 1.751-3.928 3.9-3.928 2.15 0 3.9 1.755 3.9 3.928z" opacity=".3"/>
    <path fill="#5B00E4" d="M127.018 143.685H47.546v5.732h79.472v-5.732zM127.287 12.891h-79.74v7.248h79.74v-7.248z" opacity=".2"/>
    <path fill="url(#paint8_linear)" d="M236.387 74.833h-29.459c-1.015 0-1.841.828-1.841 1.855V88.91c0 1.026.826 1.854 1.841 1.854h23.191c.935 1.316 2.636 3.679 2.785 3.679.14 0-.129-2.224-.318-3.679h3.801c1.014 0 1.84-.828 1.84-1.854V76.678c0-1.017-.826-1.845-1.84-1.845z"/>
    <path fill="#fff" d="M217.613 79.988h-8.486c-.14 0-.259-.12-.259-.26v-.279c0-.14.119-.259.259-.259h8.486c.139 0 .259.12.259.26v.278c0 .14-.11.26-.259.26zM214.688 83.507h-5.561c-.14 0-.259-.12-.259-.26v-.278c0-.14.119-.26.259-.26h5.561c.139 0 .259.12.259.26v.279c.01.14-.11.259-.259.259zM222.916 83.507h-6.069c-.139 0-.259-.12-.259-.26v-.278c0-.14.12-.26.259-.26h6.069c.139 0 .258.12.258.26v.279c0 .14-.119.259-.258.259zM234.317 83.507h-8.994c-.139 0-.259-.12-.259-.26v-.278c0-.14.12-.26.259-.26h8.994c.139 0 .259.12.259.26v.279c.01.14-.11.259-.259.259zM234.317 79.988H220.07c-.139 0-.258-.12-.258-.26v-.279c0-.14.119-.259.258-.259h14.247c.139 0 .259.12.259.26v.278c.01.14-.11.26-.259.26zM220.667 87.096h-11.54c-.14 0-.259-.12-.259-.26v-.278c0-.14.119-.26.259-.26h11.54c.14 0 .259.12.259.26v.279c.01.14-.109.26-.259.26zM234.317 87.096h-11.541c-.139 0-.258-.12-.258-.26v-.278c0-.14.119-.26.258-.26h11.541c.139 0 .259.12.259.26v.279c.01.14-.11.26-.259.26z"/>
    <path fill="#000" d="M234.775 100.306l-.239.219c-.119.11-.308.11-.418-.01l-4.248-4.695c-.109-.12-.09-.3.03-.41l.239-.218c.119-.11.308-.11.417.01l4.249 4.695c.109.12.099.299-.03.409z"/>
    <path fill="#F8A492" d="M249.181 96.498c-.567-.469-4.955 1.475-4.905 2.143.06.678-3.064 7.208-3.064 7.208l-5.392-4.327c-.05-.159-.558-1.834-.587-2.133-.03-.32-.936-.867-1.363-.788-.428.08.358.618.417.718.14.27-.398.369-.398.369s-1.561-.858-1.591-1.366c-.03-.508-.358-1.565-.687-1.346-.169.11-.169.868-.119 1.226-.1-.408-.239-.857-.378-.907-.249-.08-.378.24-.329.399.05.16.448 1.874.577 2.074.12.19 2.637 2.223 2.995 2.672 0 0 6.974 8.015 7.472 8.225.438.179 1.99-2.583 3.452-4.417 1.463-1.834 5.671-8.305 3.9-9.75zM263.249 155.429s.955.937.985 1.286c.02.349.089 4.038-.309 4.387-.388.349-1.542.588-1.174.977.279.289 2.428.229 3.851.149.418-.02.935-3.359 1.104-3.848.239-.708.816-2.313.607-2.811-.11-.24-.617-.738-1.323-1.207-.746-.488-1.473-1.575-1.473-1.575l-2.268 2.642zM253.319 157.622s.856 2.433.856 2.443c.06.389.318 1.336.318 1.695 0 1.316-5.909-1.117-4.586-1.705.119-.05.497-.479.537-.927.06-.688-.497-1.555-.497-1.555l3.372.049z"/>
    <path fill="#0044C2" d="M244.047 112.26s-.427 4.367-.427 4.436c0 7.059-1.393 20.857-1.125 22.193.647 3.24 7.601 19.76 7.601 19.76l3.761-.448-4.895-19.781 1.801-7.965 2.547-15.743-9.263-2.452z"/>
    <path fill="#276EF1" d="M256.663 116.128l.716 4.138 1.93 17.028 7.352 16.65s-1.034 2.422-2.556 2.761l-11.7-17.088-7.263-21.874.259-4.855 11.262 3.24z"/>
    <path fill="#5B00E4" d="M242.555 101.871l5.213.539s.239-4.297.239-6.341c0-2.483-.209-5.693-.507-5.623-.836.19-1.97.658-2.637 1.585-2.328 3.21-2.308 9.84-2.308 9.84z"/>
    <path fill="url(#paint9_linear)" d="M245.112 95.62c-.11.758-2.11 21.365-2.11 21.365 9.492 4.607 14.725.818 14.725.818s-.309-14.466.06-16.44c.248-1.306.557-9.96-.289-10.21-1.074-.308-2.318-.637-3.661-.777-1.154-.12-5.611-.19-6.417.08.01 0-1.851 1.974-2.308 5.164z"/>
    <path fill="#000" d="M266.94 154.352s-2.209 6.251-3.075 6.55c-.228.08-1.333.28-1.542.778-.059.15 0 .638 0 .638h4.607s.587-2.751.816-3.968c0 0 1.213-2.961 1.084-3.23-.139-.259-1.89-.768-1.89-.768zM254.832 162.189l-.676-2.154s-1.423.608-2.13.509c-.706-.1-2.099-.509-2.099-.509-2.835.937-5.163 1.396-4.735 2.154h9.64z"/>
    <path fill="#F47458" d="M241.819 110.655c-.02-.01-.1-.07-.139-.11.169-2.014.139-3.978-.488-4.636.02-.03.149-.329.299-.628.726.568 1.074 2.074.945 4.526-.01.17-.06.299-.1.509-.219.229-.408.388-.517.339z"/>
    <path fill="#F8A492" d="M267.119 117.205c.01-.04.01-.09 0-.13-.14-1.425-1.314-13.409-1.513-13.918-.179-.458-5.461-8.055-5.461-8.055l-2.597 3.559 5.084 6.819c.109.429 1.95 8.525 1.95 8.525s.378 1.475.547 2.352c-.08.21-.149.409-.219.579-.169.349-.368.638-.547.887-.229.309-.607.977-.647 1.156-.05.21-.149.639-.209.898-.059.259-.129.568-.139.708-.01.089-.1.259-.169.378-.1.18.069.399.268.329.189-.059.329-.299.418-.448.249-.419.388-1.197.448-1.157.06.04.279 1.346.318 1.496.03.149.299 1.665.448 1.944.149.279.348.229.398.06.05-.15-.159-2.273-.159-2.273s-.03-.27.089-.19c.12.09.309 2.014.398 2.303.08.279.269.429.428.21.189-.28-.139-2.323-.139-2.323s-.04-.26.07-.23c.109.02.248 1.675.328 1.815.089.139.298.189.398-.04.119-.279-.189-2.104-.189-2.104s.02-.149.079-.099c.07.049.289 1.445.428 1.575.12.11.219 0 .219 0 .259-.18-.139-1.506-.129-2.164 0-.658-.299-1.405-.209-2.183-.01-.09 0-.209.01-.279z"/>
    <path fill="#5B00E4" d="M264.273 99.897l-4.516 3.051s-2.547-3.808-3.91-5.164c-1.712-1.695.626-6.9 1.721-6.6 2.467.658 6.705 8.713 6.705 8.713z"/>
    <path fill="#F8A492" d="M253.509 85.92l.676 4.476s-2.467 5.324-3.94 4.865c-1.233-.388-.477-5.104-.477-5.104s.676-2.532.467-3.799c-.198-1.266 3.274-.438 3.274-.438z"/>
    <path fill="#F47458" d="M250.245 86.358c-.199-1.266 3.264-.438 3.264-.438l.059.369c-.099.249-.229.458-.378.628-.776.837-1.99 1.346-3.034 1.376.099-.678.169-1.406.089-1.935z"/>
    <path fill="#F8A492" d="M254.076 79.589c.099-.04.786 5.094-.518 6.51-1.303 1.416-3.85 1.874-4.755.758-1.005-1.227-.955-6.75 1.074-8.195 2.02-1.456 4.199.927 4.199.927z"/>
    <path fill="#000" d="M250.643 75.92c1.572.319 2.587 1.286 2.955 1.695.717.08 1.682.478 2.676 2.143 1.234 2.044.319 4.317-1.114 5.424-1.432 1.117-1.413 2.393-1.413 2.393l-.228-.668c-.17-.499-.239-1.037-.179-1.566.029-.319.099-.658.228-.937.349-.748-.736-1.236-1.044-1.854-.239-.479-.249-1.565-.617-2.353l-.438-.598s-1.015-.798-2.01-.569c-.975.23-.835-3.529 1.184-3.11z"/>
    <path fill="#F8A492" d="M252.604 83.467c-.01.628.268 1.137.636 1.147.358.01.657-.499.667-1.127.01-.628-.269-1.137-.637-1.146-.348 0-.647.498-.666 1.126z"/>
    <path fill="#fff" d="M250.484 84.913l-1.97-.1s.01.758.876.828c1.054.08 1.094-.728 1.094-.728z"/>
    <g filter="url(#filter1_d)">
        <rect width="34" height="34" x="111" y="96" fill="#fff" rx="12" transform="rotate(-30 111 96)"/>
    </g>
    <path fill="#fff" d="M134.645 92.723l-2.803 1.619-1.619-2.804c-.181-.314-.57-.418-.884-.237l-8.954 5.17c-.931.537-1.248 1.722-.711 2.653l9.108 15.775c.537.93 1.722 1.248 2.653.711l11.197-6.465c.93-.537 1.248-1.722.711-2.653L135.53 92.96c-.181-.314-.571-.418-.885-.237z"/>
    <path fill="#fff" d="M135.53 92.96l7.813 13.532c.537.931.22 2.116-.711 2.653l-5.607 3.238-11.05-19.14 3.364-1.942c.314-.181.703-.077.884.237l1.619 2.804 2.804-1.619c.314-.181.703-.077.884.237z"/>
    <path fill="#fff" d="M135.854 93.52l-3.925 2.267c-.31.179-.706.073-.885-.237l-2.266-3.925 1.222-.706c.441-.254.975-.325 1.466-.193l2.51.673c.492.133.919.46 1.172.9l.706 1.222z"/>
    <path fill="#5B00E4" d="M140.817 92.69c-.997-.277-2.119.37-2.378 1.372l-.235.913-.177.626c-.101.342.106.701.453.785l1.256.336 1.256.337c.331.108.713-.113.785-.453l.177-.626.235-.913c.299-1.01-.348-2.132-1.372-2.378z"/>
    <path fill="#DAC0FF" d="M138.115 102.772l-1.822-.488c-.036-.01-.058.003-.068.039l-.02.041c-.029.107-.028.211-.005.303l.582 2.848c.051.269.242.444.465.494l.007.011c.241.055.486-.012.643-.207l1.929-2.175c.065-.068.118-.158.146-.264l.01-.035c.009-.036-.004-.058-.039-.068-.59-.167-1.227-.338-1.828-.499zM133.224 98.03l-7.833 4.522c-.74.427-1.387-.695-.647-1.122l7.832-4.522c.74-.427 1.388.694.648 1.122zM132.276 101.567l-5.59 3.228c-.74.427-1.387-.695-.647-1.122l5.589-3.227c.74-.427 1.388.694.648 1.121zM133.571 103.81l-5.59 3.227c-.74.428-1.387-.694-.647-1.121l5.589-3.227c.74-.427 1.388.694.648 1.121zM134.866 106.053l-5.59 3.227c-.74.428-1.387-.694-.647-1.121l5.589-3.227c.74-.427 1.388.694.648 1.121z"/>
    <path fill="url(#paint10_linear)" d="M139.094 108.197l-3.364 1.943c-.74.427-1.388-.694-.648-1.122l3.365-1.942c.74-.427 1.387.694.647 1.121z"/>
    <path fill="url(#paint11_linear)" d="M141.954 95.98l-.178.626c-.944 3.491-.632 2.324-1.475 5.472.012.023-.324 1.279-.329 1.296-.028.106-.081.196-.146.264l-3.627-.971c-.022-.092-.023-.196.006-.302.004-.018.341-1.274.363-1.287.616-2.3.32-1.156 1.458-5.477l.16-.63 3.768 1.01z"/>
    <path fill="#DCDCDC" d="M298.746 165H10.078c-.686 0-1.244-.558-1.244-1.246v-.309c0-.688.558-1.247 1.244-1.247h288.678c.687 0 1.244.559 1.244 1.247v.309c0 .688-.567 1.246-1.254 1.246z"/>
    
</svg>
