<svg xmlns="http://www.w3.org/2000/svg" width="14" height="20" viewBox="0 0 14 20">
    <g fill="#000" fill-rule="nonzero">
        <path d="M1.352 0h11.297v1H1.352z"/>
        <path d="M1.799.878v.612h.579v3.112h.61V1.49h3.707v8.592h.61V1.49h3.708v8.592h.61V1.49h.578V.878zM13.061 17.875v-2.462a.907.907 0 0 0 0-1.705v-1.871h-.61v1.87a.907.907 0 0 0 0 1.706v2.462h-2.268v-2.462a.907.907 0 0 0 0-1.705v-2.462h3.786v-.612H.03v.612H.94v2.462a.907.907 0 0 0 0 1.705v2.462H.03v.306C.031 19.184.843 20 1.841 20h10.317c.999 0 1.81-.816 1.81-1.819v-.306h-.907zm-.304-3.608a.294.294 0 0 1 0 .587.294.294 0 0 1 0-.587zm-2.879 0a.294.294 0 0 1 0 .587.294.294 0 0 1 0-.587zm-2.573 1.146a.907.907 0 0 0 0-1.705v-2.462h2.269v2.462a.907.907 0 0 0 0 1.705v2.462h-2.27v-2.462zM7 14.267a.294.294 0 0 1 0 .587.294.294 0 0 1 0-.587zm-2.574 1.146a.907.907 0 0 0 0-1.705v-2.462h2.27v2.462a.907.907 0 0 0 0 1.705v2.462h-2.27v-2.462zm-.304-1.146a.294.294 0 0 1 0 .587.294.294 0 0 1 0-.587zm-2.574 1.146a.907.907 0 0 0 0-1.705v-2.462h2.269v2.462a.907.907 0 0 0 0 1.705v2.462H1.548v-2.462zm-.305-1.146a.294.294 0 0 1 0 .587.294.294 0 0 1 0-.587zm10.915 5.12H1.842a1.204 1.204 0 0 1-1.162-.9h12.64c-.135.518-.605.9-1.162.9z"/>
        <path d="M2.378 5.316h1v1h-1zM2.378 6.663h1v3.418h-1zM3.512 6l1.515-2.173.5.351-1.515 2.174zM4.098 7.087l1.515-2.173.5.35-1.516 2.174zM7.888 6l1.515-2.173.5.35-1.516 2.174zM8.475 7.087L9.99 4.914l.5.35-1.516 2.174z"/>
    </g>
</svg>
