<svg xmlns="http://www.w3.org/2000/svg" width="40" height="40" fill="none" viewBox="0 0 40 40">
    <defs>
        <linearGradient id="paint0_linear" x1="20" x2="20" y1="6" y2="34" gradientUnits="userSpaceOnUse">
            <stop stop-color="#fff"/>
            <stop offset="1" stop-color="#FFD964"/>
        </linearGradient>
    </defs>
    <path fill="#FFEFC6" d="M20 40c11.046 0 20-8.954 20-20S31.046 0 20 0 0 8.954 0 20s8.954 20 20 20z"/>
    <path fill="url(#paint0_linear)" d="M20 34c7.732 0 14-6.268 14-14S27.732 6 20 6 6 12.268 6 20s6.268 14 14 14z"/>
    <path fill="#FC4" d="M20 6c-.37 0-.736.015-1.099.043 7.219.56 12.902 6.595 12.902 13.957 0 7.362-5.683 13.397-12.902 13.957.363.028.73.043 1.099.043 7.732 0 14-6.268 14-14S27.732 6 20 6z"/>
    <path fill="#FC4" d="M20 29.889c5.461 0 9.888-4.428 9.888-9.889 0-5.461-4.427-9.888-9.888-9.888S10.112 14.539 10.112 20 14.539 29.89 20 29.89z"/>
    <path fill="#fff" d="M20.014 23.1h-1.748l5.877-4.924V15h-9.291v2.7h5.4l-5.56 4.765V25.8h5.322v-2.7zM24.387 23.1h-2.623v2.62h2.623V23.1z"/>
</svg>
