<svg xmlns="http://www.w3.org/2000/svg" width="24" height="24" fill="none" viewBox="0 0 24 24">
<defs>
        <linearGradient id="paint0_linear" x1="12" x2="12" y1="1.031" y2="24" gradientUnits="userSpaceOnUse">
            <stop stop-color="#725EF6"/>
            <stop offset="1" stop-color="#6001D1"/>
        </linearGradient>
        <linearGradient id="paint1_linear" x1="11.485" x2="11.485" y1="4.8" y2="7.2" gradientUnits="userSpaceOnUse">
            <stop stop-color="#725EF6"/>
            <stop offset="1" stop-color="#6001D1"/>
        </linearGradient>
    </defs>
    <path fill="url(#paint0_linear)" d="M20.244 20.86C22.557 18.767 24 15.803 24 12.516 24 6.173 18.627 1.03 12 1.03S0 6.173 0 12.516C0 18.858 5.373 24 12 24c.52 0 1.031-.032 1.533-.093l6.711-3.047z"/>
    <path fill="#F9BA8F" d="M18.898 17.136c-.105-.37-.142-.756-.11-1.138l.196-1.767c.096-1.108-.08-2.219-.593-3.216-1.325-2.58-1.021-2.766-1.062-5.326 0-.523-.443-.946-.99-.946-.546 0-.988.423-.988.946 0 10.408.02 9.644-.047 9.95V17c0 1.148-.976 2.083-2.176 2.083H7.713c.832 1.107 1.97 1.974 3.29 2.499l.025.01c1.02.412 2.16 1.235 2.35 2.256l.019.073c2.687-.298 5.103-1.445 6.948-3.154l-1.447-3.632zM4.039 4.776l-.301-.267c-.465-.412-1.197-.386-1.627.059-.43.444-.403 1.145.062 1.557L4.039 7.78V4.776z"/>
    <path fill="#FCAD6D" d="M2.785 5.297c-.285-.253-.405-.614-.356-.958-.116.057-.225.132-.318.229-.43.444-.403 1.145.062 1.557L4.039 7.78V6.409L2.785 5.297z"/>
    <path fill="#F9BA8F" d="M18.988 17.362c-.408 2.697-2.833 4.768-5.764 4.768-.506 0-.997-.062-1.465-.178.776.454 1.474 1.118 1.62 1.897l.018.073c2.687-.298 5.103-1.445 6.948-3.154l-1.357-3.406z"/>
    <path fill="#000" d="M13.646 19.128H5.7c-.94 0-1.704-.731-1.704-1.63V1.63C3.996.73 4.761 0 5.7 0h7.946c.94 0 1.704.732 1.704 1.63v15.868c0 .899-.764 1.63-1.704 1.63z"/>
    <path fill="#838383" d="M8.418 1.169h-.17c-.163 0-.295-.126-.295-.282 0-.156.132-.282.295-.282h.17c.163 0 .295.126.295.282 0 .156-.132.282-.295.282zM11.058 1.169H9.423c-.162 0-.294-.126-.294-.282 0-.156.132-.282.294-.282h1.635c.163 0 .295.126.295.282 0 .156-.132.282-.295.282z"/>
    <path fill="#fff" d="M13.646 1.015h-1.194c-.223 0-.403.172-.403.385 0 .248-.212.451-.471.451h-3.81c-.258 0-.47-.202-.47-.45 0-.214-.18-.386-.403-.386H5.7c-.355 0-.644.276-.644.616v15.867c0 .34.289.616.644.616h7.946c.356 0 .644-.276.644-.616V1.63c0-.34-.288-.616-.644-.616z"/>
    <rect width="2.508" height="2.4" x="6.931" y="8.4" fill="#F5F5F5" rx=".4"/>
    <rect width="2.508" height="2.4" x="6.931" y="12" fill="#F5F5F5" rx=".4"/>
    <rect width="2.508" height="2.4" x="10.284" y="8.4" fill="#F5F5F5" rx=".4"/>
    <rect width="2.508" height="2.4" x="10.284" y="12" fill="#F5F5F5" rx=".4"/>
    <path fill="#F5F5F5" d="M7.278 3.994h4.79c.302 0 .546-.234.546-.523 0-.288-.244-.522-.545-.522H7.278c-.302 0-.546.234-.546.522 0 .289.244.523.546.523z"/>
    <path fill="#F9BA8F" d="M5.714 10.586c-.378.391-1.016.415-1.425.052L2.599 9.14c-.408-.362-.433-.973-.054-1.364.379-.391 1.017-.415 1.425-.052l1.69 1.498c.409.362.433.973.054 1.364z"/>
    <path fill="#FCAD6D" d="M4.984 9.957L3.294 8.46c-.282-.25-.38-.62-.29-.953-.17.047-.33.136-.459.27-.379.39-.354 1.002.054 1.364l1.69 1.498c.409.363 1.047.34 1.425-.052.117-.12.195-.262.236-.41-.328.09-.697.02-.966-.219z"/>
    <path fill="#F9BA8F" d="M5.714 15.853c-.378.39-1.016.414-1.425.052l-1.69-1.499c-.408-.362-.433-.973-.054-1.364.379-.391 1.017-.414 1.425-.052l1.69 1.498c.409.363.433.974.054 1.365z"/>
    <path fill="#FCAD6D" d="M4.984 15.224l-1.69-1.499c-.282-.25-.38-.62-.29-.953-.17.047-.33.137-.459.27-.379.391-.354 1.002.054 1.364l1.69 1.499c.409.362 1.047.339 1.425-.052.117-.12.195-.262.236-.411-.328.09-.697.02-.966-.218z"/>
    <path fill="#F9BA8F" d="M5.714 13.22c-.378.39-1.016.414-1.425.051l-1.69-1.498c-.408-.362-.433-.973-.054-1.364.379-.391 1.017-.414 1.425-.052l1.69 1.498c.409.363.433.973.054 1.365z"/>
    <path fill="#FCAD6D" d="M4.984 12.59l-1.69-1.498c-.282-.25-.38-.62-.29-.953-.17.047-.33.136-.459.27-.379.391-.354 1.002.054 1.364l1.69 1.498c.409.363 1.047.34 1.425-.052.117-.12.195-.262.236-.41-.328.09-.697.02-.966-.219z"/>
    <path fill="#6001D2" d="M20.134 4.073c-.651.793-1.24 1.932-.77 3.175.882 2.332 2.286 4.312 1.633 7.76-.296 1.564.676 2.22 1.827 2.47.753-1.502 1.176-3.185 1.176-4.962 0-3.34-1.49-6.345-3.866-8.443z"/>
    <rect width="2.4" height="2.4" x="6.684" y="4.8" fill="#F5F5F5" rx=".4"/>
    <rect width="2.4" height="2.4" x="10.284" y="4.8" fill="url(#paint1_linear)" rx=".4"/>   
</svg>
