<svg xmlns="http://www.w3.org/2000/svg" width="20" height="20" viewBox="0 0 20 20">
    <g fill="none" fill-rule="evenodd">
        <circle cx="10" cy="10" r="10" fill="#FFF2D1" fill-rule="nonzero"/>
        <path fill="#FFF" d="M5 4h9v12H5z"/>
        <path fill="#000" fill-rule="nonzero" d="M13.948 9.939V3.715a.215.215 0 0 0-.215-.215H4.72a.215.215 0 0 0-.215.215v12.448c0 .119.096.215.215.215h9.014a.215.215 0 0 0 .215-.215v-2.146h-.43v1.932H4.934V3.929h8.586v6.01h.429z"/>
        <path fill="#000" fill-rule="nonzero" d="M5.363 9.724h1v1h-1z"/>
        <path fill="#000" fill-rule="nonzero" d="M6.221 9.724h6.868v1H6.221zM5.363 7.578h1v1h-1z"/>
        <path fill="#000" fill-rule="nonzero" d="M6.221 7.578h6.868v1H6.221zM5.363 11.871h1v1h-1z"/>
        <path fill="#000" fill-rule="nonzero" d="M6.221 11.871h5.795v1H6.221z"/>
        <path fill="#000" fill-rule="nonzero" d="M15.433 11.081l-.91-.91a.215.215 0 0 0-.304 0l-3.187 3.187-.005.007a.21.21 0 0 0-.036.054l-.007.014-.004.009-.455 1.366a.215.215 0 0 0 .271.271l1.366-.455c.003 0 .006-.003.009-.004l.014-.007a.21.21 0 0 0 .054-.036l.007-.005 3.187-3.187a.215.215 0 0 0 0-.304zm-4.365 3.456l.21-.63.419.42-.63.21zm1.026-.42l-.607-.607 2.884-2.884.607.607-2.884 2.885z"/>
    </g>
</svg>
