<svg xmlns="http://www.w3.org/2000/svg" width="40" height="40" fill="none" viewBox="0 0 40 40">
    <rect width="40" height="40" fill="#F5F5F5" rx="20"/>
    <path fill="#9C9C9C" d="M32 11.452v3.552h-4.454v-3.552c-.002-1.228.991-2.225 2.22-2.227h.01c1.227 0 2.221.993 2.224 2.22v.007z"/>
    <path fill="#DCDCDC" d="M13.753 9.225h16.012c-1.227.002-2.221 1-2.219 2.227v16.317c-.002 1.651-1.341 2.989-2.993 2.989h-.009c-.069 0-.137-.003-.205-.008-1.57-.11-2.786-1.415-2.784-2.988v-1.935h-10.03v-.026l.107-14.481c0-1.167.954-2.095 2.12-2.095zm8.726 7.08v-2.861l-3.156-1.55-3.155 1.545v2.867c0 .733.475 1.632 1.081 2.046l2.074 1.414 2.074-1.414c.606-.414 1.082-1.313 1.082-2.046z"/>
    <path fill="#9C9C9C" d="M24.339 30.75v.008H10.992c-1.652 0-2.991-1.338-2.993-2.99v-1.94h13.555v1.934c-.002 1.573 1.215 2.879 2.784 2.988zM22.48 13.443v2.863c0 .733-.476 1.632-1.083 2.045l-2.074 1.415-2.073-1.415c-.607-.413-1.082-1.312-1.082-2.045v-2.867l3.155-1.546 3.156 1.55z"/>
    <path fill="#fff" d="M18.929 17.03h-.001c-.107-.001-.21-.044-.285-.12l-.807-.815c-.103-.102-.143-.25-.105-.39.037-.14.147-.248.287-.284.14-.036.288.005.388.109l.524.529 1.312-1.311c.156-.157.41-.157.567 0 .157.157.157.41 0 .567l-1.597 1.597c-.075.075-.177.117-.283.117z"/>
    <path fill="#9C9C9C" d="M24.314 22.048h-9.631c-.222 0-.402-.18-.402-.401 0-.222.18-.401.402-.401h9.631c.222 0 .402.18.402.4 0 .223-.18.402-.402.402zM24.314 23.905h-9.631c-.222 0-.402-.18-.402-.402 0-.221.18-.4.402-.4h9.631c.222 0 .402.179.402.4 0 .222-.18.402-.402.402z"/>
</svg>
