<svg width="40" height="40" fill="none" xmlns="http://www.w3.org/2000/svg">
    <path d="M20 40c11.046 0 20-8.954 20-20S31.046 0 20 0 0 8.954 0 20s8.954 20 20 20z" fill="#F2E8FF"/>
    <path d="M24.158 14.664c1.329 0 2.405-1.044 2.405-2.332 0-1.288-1.076-2.332-2.405-2.332-1.329 0-2.406 1.044-2.406 2.332 0 1.288 1.078 2.332 2.406 2.332z" fill="#6001D2"/>
    <path d="M28.115 13.993c-1.381 1.875-3.23 2.093-5.22.947-.136-.078-.737-.399-.87-.476-3.202-1.842-6.4-1.12-8.545 1.792-.911 1.239 1.197 2.413 2.098 1.189 1.108-1.505 2.517-1.94 4.058-1.464-.79 1.328-1.479 2.648-2.453 4.523-.973 1.875-3.123 3.373-5.188 2.201-1.49-.844-2.835 1.232-1.349 2.074 2.82 1.598 6.127.616 7.814-1.46.06.03.12.057.189.08 1.379.466 3.186 1.706 3.737 2.145.55.44 1.497 2.679 2.059 3.804.681 1.365 2.882.37 2.198-1-.637-1.276-1.706-3.824-2.54-4.468-.668-.517-1.967-1.48-3.068-2.025.745-1.4 1.52-2.783 2.337-4.143 2.604.773 5.078-.138 6.84-2.531.912-1.238-1.195-2.412-2.097-1.188z" fill="#6001D2"/>
</svg>
