<svg xmlns="http://www.w3.org/2000/svg" width="50" height="50" fill="none" viewBox="0 0 50 50">
    <path fill="#fff" d="M50 25c0 13.807-11.193 25-25 25-3.107 0-6.082-.566-8.826-1.603-.915-.345-1.805-.743-2.666-1.189-.552-.286-1.092-.593-1.62-.918-4.394-2.712-7.886-6.746-9.92-11.548C.721 31.795.022 28.558.001 25.162L0 25l.001-.161c.01-1.46.143-2.89.393-4.28C2.489 8.87 12.709 0 25 0c13.807 0 25 11.193 25 25z"/>
    <path fill="#FE525B" d="M32.756 3.061H41.94V16.456H32.756z"/>
    <path fill="#F6479D" d="M35.664 5.663H41.939V16.456H35.664z"/>
    <path fill="#E0E2E2" d="M41.94 17.92v25.467c-4.055 3.736-9.348 6.15-15.195 6.553-.505.034-1.017.055-1.53.058C25.143 50 25.071 50 25 50c-.442 0-.88-.011-1.318-.035-3.384-.175-6.591-1.024-9.489-2.415-.52-.25-1.03-.517-1.53-.802-.522-.296-1.033-.611-1.53-.944-1.087-.725-2.115-1.535-3.072-2.417V17.919l10.089-9.015L25 2.783l6.853 6.124L41.94 17.92z"/>
    <path fill="#CCC" d="M41.94 17.92v8.397L25 12.54 8.063 26.317V17.92l10.089-9.015L25 3.333l6.853 5.574L41.94 17.92z"/>
    <path fill="gray" d="M5.675 24.925l-4.507-5.541L25 0l23.833 19.384-4.507 5.541L25 9.207 5.675 24.925z"/>
    <path fill="#E0E2E2" d="M31.608 0H43.087V4.038H31.608z"/>
    <path fill="#CCC" d="M31.608 0H34.168V4.038H31.608z"/>
    <path fill="#fff" d="M17.157 24.7H32.845V40.388H17.157z"/>
    <path fill="#BFBFBF" fill-rule="evenodd" d="M15.626 41.919v-18.75h18.75v18.75h-18.75zm12.436-12.27h3.252V26.23h-3.252v3.418zm-9.375-3.418h6.314v12.627h-6.314V26.23zm9.375 6.479v6.148h3.252V32.71h-3.252z" clip-rule="evenodd"/>
    <path fill="#FE525B" d="M16.174 31.418v16.979c-.915-.345-1.805-.743-2.666-1.189-.552-.286-1.092-.593-1.62-.918V31.418h4.286z"/>
    <path fill="#F6479D" d="M16.175 36.364v12.033c-.916-.345-1.806-.743-2.667-1.189V36.364h2.667z"/>
    <path fill="#000" d="M28.062 22.007V32.02c0 1.583-1.284 2.866-2.866 2.866H2.866c-.313 0-.615-.05-.898-.144C.721 31.795.022 28.558.001 25.162v-3.155c0-.529.143-1.024.393-1.449.497-.848 1.418-1.417 2.472-1.417h22.33c1.582 0 2.866 1.283 2.866 2.866z"/>
    <path fill="#fff" fill-rule="evenodd" d="M9.17 29.51c.191.05.382.045.575.04.05-.002.1-.004.15-.004l.186.004c.06.007.125.004.188.002l.091-.002.34-.02c.017 0 .033-.003.049-.006.024-.005.047-.01.071-.004l.03.02c.11.01.21 0 .33-.02.04-.01.07-.06.08-.11l-.011-.09c-.002-.013-.002-.027.002-.04l-.002-.636.031-.804c0-.07.02-.16.09-.17.22-.02.43-.02.66-.01.05 0 .12.05.13.11.051.21.037.413.023.618l-.01.156-.002.196c.005.011.001.025-.003.042-.003.014-.007.03-.007.048.033.113.03.222.028.332 0 .056-.002.111.002.168l.04.12c.04.07.12.07.2.05.012-.006.04.003.063.01.015.005.029.01.037.01.046 0 .09.004.135.008.098.008.194.017.304-.018.021-.005.044 0 .066.005.02.005.04.01.055.005.232-.016.464-.006.696.003l.173.007c.05-.039.104-.032.156-.024.043.006.085.012.125-.006.03-.01.04-.04.05-.07.01-.11.02-.22.02-.33-.006-.206 0-.406.005-.606.004-.198.01-.395.004-.594-.02-.4 0-.81.03-1.21-.01-.06-.02-.12-.04-.18l.02-.21.01-.74c-.011-.132-.01-.26-.008-.387.002-.095.003-.189-.002-.283 0-.07.01-.14.02-.21l-.01-.39.001-.014c.01-.215.02-.421.01-.646l-.01-.22c.006-.108 0-.216-.004-.324-.003-.072-.006-.144-.006-.216l.008-.193c0-.031-.002-.064-.008-.097-.01-.02-.03-.05-.07-.06l-.024-.002c-.111-.01-.215-.018-.337-.018-.02 0-.04.01-.06.02-.047.006-.095.001-.143-.004-.032-.003-.064-.006-.096-.006l-1.15.01-.47-.01-.202-.001c-.2-.002-.396-.004-.598.011-.04.01-.11.01-.15 0-.27-.03-.53 0-.8.05l-.21.06c-.16.07-.31.15-.44.26-.12.1-.22.22-.29.36-.16.29-.19.61-.15.94l-.012.084.001.036c.014.107.01.204.005.302-.002.05-.005.098-.005.148 0 .14 0 .3-.02.44l.002.066.008.074c.03.17.02.33 0 .49 0 .02.004.04.007.06.005.03.01.06.003.09-.008.12-.006.237-.004.353.002.174.004.347-.026.527-.006.057.008.11.022.162.007.03.015.059.018.088 0 .03-.01.06-.02.09-.017.064-.01.125-.004.186.004.044.009.088.004.134-.03.203-.026.41-.01.616l.023.225.007.019c.006.016-.003.035-.012.055-.009.018-.018.036-.018.055-.009.065-.005.131-.002.198.004.078.009.157-.008.232l-.001.227c.001.039.005.076.011.113.012.034.012.074.012.113 0 .062-.001.118.048.137zm-2.847-6.97h.37c.11-.007.222-.009.336-.009l.684.009h.026c.06-.003.138-.006.164.08.021.1.017.188.013.282-.001.038-.003.077-.003.118-.004.014-.01.028-.018.043-.014.026-.029.055-.022.087.03.03.04.07.04.11.005.023-.004.042-.01.058-.01.02-.016.036 0 .052l.014.057c.006.036.006.07.006.103-.004.081-.003.163-.002.244.002.109.003.217-.008.326v.026c.001.065.003.14-.05.184-.016.016-.038.01-.06.002-.018-.006-.036-.011-.05-.002-.02.02-.06.02-.09.02-.08.02-.14.01-.22-.03-.031-.005-.057.006-.081.016-.023.01-.045.019-.069.014-.047-.01-.092-.003-.136.003-.049.006-.096.013-.144-.003h-.012c-.019.002-.04.004-.048-.02-.022.016-.044.015-.065.013-.019 0-.037-.002-.055.007 0-.03-.03-.02-.03-.02-.05 0-.102.005-.154.01-.122.013-.247.026-.366-.03-.033.014-.067.025-.101.035-.088.028-.174.056-.239.135l-.01.023c-.007.02-.016.043-.03.057 0 .032-.003.065-.006.1-.01.106-.02.22.056.31.08.09.22.12.33.12l.1.002c.43.008.87.016 1.26.248.16.11.23.28.28.45.09.419.08.818.07 1.227V27c0 .006 0 .014.002.024.002.023.005.052-.002.066l-.002.07c-.003.046-.005.09.002.13l.004.044-.014.136c.007.047.01.091.011.135l-.001.265c0 .053-.003.109-.009.166l-.057.494-.024.15c-.03.11-.09.19-.15.27l-.085.123c-.123.151-.281.255-.465.327-.037.013-.074.024-.113.034l-.437.096c-.07.021-.144.02-.22.018-.064 0-.13-.002-.19.012l-.14.01c-.043-.007-.086-.01-.128-.012l-.262.002-.13.01c-.11-.02-.21-.02-.33-.02l-.78.003-.39-.023c-.024 0-.051.003-.08.006-.087.01-.185.02-.23-.056-.013-.023-.02-.049-.023-.076l.004-.24.008-.05c.005-.031.011-.064.011-.094-.01-.09-.013-.181-.013-.273l.013-.547-.003-.06c-.003-.056-.007-.11.023-.17l.02-.22c.01-.02.03-.03.05-.04.06-.007.13-.004.197-.002l.093.002.355.008.355-.008c.085-.004.169 0 .252.004.152.008.303.015.458-.024.27-.07.35-.44.22-.67-.04-.07-.11-.09-.18-.11-.128-.032-.256-.038-.384-.045l-.096-.005c-.033 0-.066.002-.1.004-.067.005-.136.01-.21-.004-.13-.02-.24-.04-.35-.07-.027-.007-.051-.016-.075-.026l-.145-.074-.065-.046c-.057-.039-.111-.076-.155-.134-.019-.042-.052-.07-.086-.1-.039-.033-.078-.066-.094-.12-.003-.033-.009-.064-.016-.094l-.044-.176-.024-.324.024-.066-.01-.024c-.018-.044-.038-.092-.03-.126l.08-.11c.006-.017-.005-.037-.015-.057-.007-.015-.015-.03-.015-.043l.02-.07c.01-.035-.003-.065-.015-.095-.013-.03-.025-.06-.015-.095l-.005-.298-.007-.112c-.01-.16-.019-.323-.008-.49 0-.006.002-.013.004-.022.004-.02.01-.047-.004-.068 0-.163.016-.31.034-.471l.006-.049c.01-.07.03-.13.05-.18l.06-.15c.07-.18.23-.29.39-.4.064-.046.137-.067.203-.085l.017-.005c.27-.12.56-.16.85-.14l.1-.02c.08.02.14.02.22 0 .017 0 .032-.004.047-.007.019-.005.036-.009.053-.003.018.004.031.01.044.016.015.008.03.014.046.014.05-.007.098-.009.145-.009l.285.009zm-1.19 6.38l-.02-.02c-.019.027-.04.052-.063.078-.062.073-.127.149-.127.252 0 .003.004 0 .011-.007l.049-.053c.02 0 .03-.01.03-.01.005-.05.032-.085.06-.12.027-.035.055-.07.06-.12zm6.278-4.51c-.06.04-.11.12-.11.19-.04.4-.04.76 0 1.16 0 .02.02.04.05.05.055.03.11.031.166.032.034 0 .069 0 .104.008l.153.013c.104.004.213-.003.327-.023.08-.03.11-.12.1-.18 0-.042-.006-.084-.011-.127-.008-.059-.015-.12-.01-.183.015-.1.009-.199.003-.298-.007-.11-.014-.221.008-.332.003-.037.003-.071 0-.105l-.02-.205c-.02-.03-.05-.05-.07-.06-.118-.025-.23-.008-.345.01l-.066.01-.07-.02c-.023.007-.047.012-.072.018-.049.01-.098.022-.137.042zm-1.12 1.72l-.008-.024c-.003-.004-.007-.006-.012-.006v.04c-.01.009-.01.007-.01 0-.04-.04-.07-.08-.06-.13.012 0 .027-.006.04-.01.016-.006.03-.011.03 0 .009.005.01.013.01.024.002.013.003.03.02.046 0 .02 0 .03-.01.06zm-.13 2.07v-.03c-.03-.005-.053.01-.072.031l-.049.069-.01.06c.017-.016.027-.034.036-.053.014-.026.029-.053.064-.077h.03zm8.787.62c-.015-.135-.012-.268-.01-.4.003-.133.005-.265-.01-.4-.004-.028.002-.058.007-.087.01-.053.018-.104-.027-.143-.103-.078-.222-.066-.335-.055l-.055.005c-.081.01-.162.004-.245-.003-.07-.006-.142-.012-.215-.007l-.026.01c-.022.01-.046.02-.074.02-.048-.018-.094-.016-.138-.014-.057.002-.111.004-.162-.036-.082-.055-.085-.146-.088-.24-.001-.044-.003-.088-.012-.13 0-.03.01-.07.02-.1.004-.077.003-.154.002-.231-.002-.103-.003-.206.008-.309v-.1l-.002-.05c-.002-.038-.005-.08.002-.12l.009-.03-.009-.07c-.015-.075-.013-.156-.011-.234l.001-.076-.005-.028.005-.062c0-.045.003-.09.005-.133.007-.103.013-.205-.015-.317 0-.04.01-.08.02-.12.01-.077.008-.153.007-.227-.002-.089-.003-.176.013-.263 0-.025-.008-.047-.017-.069-.004-.013-.01-.026-.013-.041 0-.07 0-.15.01-.23.016-.07.015-.142.013-.213 0-.059-.002-.118.007-.177l-.02-.12c-.007-.16-.013-.324-.011-.484l.011-.236c.015-.095.012-.195.01-.294-.002-.099-.005-.196.01-.286.01-.09-.07-.15-.15-.16l-.733-.004c-.112-.002-.224-.006-.337-.016-.04 0-.09.01-.13.02l-.68-.01c-.02 0-.04.03-.05.05-.02.16-.02.3-.02.46-.009.213-.01.427-.01.64-.002.267-.003.533-.02.8 0 .02.01.05.02.08.005.015 0 .031-.005.05l-.005.02v.04c.004.044-.002.087-.007.129-.009.063-.017.125.007.191.01.06 0 .13-.02.18-.012.037-.005.075.002.112.004.023.008.046.008.068 0 .4 0 .82-.03 1.22l.02.36-.013 1.673c0 .278.003.557.013.837 0 .02.02.04.04.05.07.04.153.035.23.032l.06-.002c.127 0 .255.004.382.008.1.004.199.007.298.008l1.15-.026c.063-.013.13-.005.195.002.04.004.078.008.115.008h.1l.268-.002c.177-.003.352-.005.532.002.02 0 .07-.01.08-.04v-.06c-.01-.06-.01-.12.01-.17l.004-.065-.004-.065c-.01-.06-.001-.115.008-.172.008-.048.017-.097.012-.148zm5.14-.314c.004.098.008.195-.003.294-.006.023-.01.049-.011.076l.002.164c.01.03.02.07.02.09-.007.036-.01.071-.012.106-.004.07-.008.137-.049.204-.024.035-.06.05-.096.059l-.104.021c-.15.04-.33.04-.48.01-.033-.007-.067-.008-.102-.006l-.218.016c-.132.011-.262.007-.394.003-.106-.004-.214-.008-.325-.003-.07.003-.143.004-.216.004l-.445-.004c-.013.003-.03.004-.048.004l-.111-.004c-.12.01-.26.01-.38.01l-.1-.02-.12.01c-.085 0-.17.007-.254.015-.136.012-.271.023-.407.005l-.021-.003c-.063-.008-.12-.015-.138-.087-.022-.09-.02-.178-.019-.268.001-.078.003-.158-.011-.242 0-.03.01-.08.02-.11.003-.017.003-.031 0-.045l-.02-.085.02-.23c-.01-.17-.01-.34 0-.49-.007-.186-.005-.368-.003-.552.001-.092.003-.184.003-.278.01-.13.02-.26 0-.39l-.002-.051c-.002-.046-.003-.087.012-.139 0-.017-.002-.03-.003-.041l-.018-.059.01-.14v-.61c0-.133.007-.264.013-.395.01-.193.02-.384.008-.575 0-.027-.003-.054-.005-.082-.004-.056-.009-.111.005-.158l.015-.153c0-.035-.002-.071-.005-.107-.005-.07-.01-.14 0-.21l.02-.45-.003-.05c-.002-.034-.004-.07.003-.11l.003-.137c-.002-.036-.006-.072-.01-.107-.007-.055-.014-.11-.014-.166l.04-.09c.01-.04.01-.1 0-.14l-.01-.069c-.007-.044-.01-.084.01-.111.062-.053.146-.051.22-.05h.03c.05-.01.098-.007.145-.005.046.003.09.005.136-.005.097-.01.197-.003.298.002.116.007.234.014.352-.002l.04-.001.112-.018.128.009c.023.016.047.006.072-.003l.018-.007c.07-.01.15-.01.22 0 .01.01.02.01.03.01l.087.013.163-.023c.09-.01.18.01.27.03 0 0 .03 0 .04.01l.1-.03c.05 0 .093-.008.137-.016l.082-.014c.11-.006.219.007.328.02.09.01.182.02.273.02.006 0 .018-.015.028-.027l.012-.013.023-.001c.029-.002.063-.004.087.011.034.017.072.005.108-.007.026-.009.05-.017.072-.013.053.027.103.028.155.029.046.001.093.002.145.021.033.008.031.038.03.065v.015l.006.411.014.419-.01.66c0 .05-.04.11-.1.13-.06.01-.11 0-.15-.03-.03-.006-.062.009-.096.024-.024.01-.05.022-.074.026l-.06-.001c-.065-.002-.133-.004-.2.011-.023.005-.046-.008-.068-.02-.026-.013-.05-.026-.073-.01-.033.01-.067.014-.103.016l-.276-.006c-.08.01-.17.02-.25.02l-.063.004-.027-.004c-.04-.025-.083-.03-.127-.027l-.134.017c-.06 0-.08.07-.08.11-.03.095-.037.19-.037.285l.008.285c.01.07.04.14.12.14.247.013.495.007.743.001.322-.007.644-.015.966.019.07 0 .07.1.06.17-.01.12.01.24.04.38l-.03.11.01.19c-.003.083 0 .167.002.252.004.172.009.348-.032.528-.09.063-.196.057-.303.052-.046-.003-.091-.005-.136-.002l-.436.006-.224-.016c-.05-.01-.12-.02-.16-.01l-.138.012-.084-.004c-.064-.004-.129-.007-.199.002-.08.02-.15.06-.17.14-.059.218-.04.435-.02.663v.007l.008.055c.014.054.047.105.092.105.255.034.505.022.75.011.122-.005.242-.011.36-.011h.09c.18-.002.36-.003.54.04.07.13.08.3.06.45-.004.085 0 .166.003.246zm-.283-5.516c0-.04.02-.08.03-.07.017.027.012.056.008.087-.003.027-.007.055.003.083 0 .006-.008.005-.02.003-.008-.001-.018-.003-.03-.003.01-.04.01-.07.01-.1zm-3.17.3c.016.02.032.039.04.06.01.02.04.04.05.04l-.01-.06c-.006-.012-.015-.024-.024-.036-.02-.026-.042-.053-.035-.094-.004-.004-.007-.01-.01-.018-.004-.012-.008-.026-.02-.032-.01-.01-.02 0-.03.01 0 .01.01.02.02.02.003.007.002.011-.002.014l-.029.006c.006.035.029.063.05.09zm2.64 2.3l.01-.01c.03-.024.054-.052.076-.08l.044-.05c.038.052.003.077-.034.102-.013.009-.025.018-.035.028l-.024.022c-.008.005-.017.008-.027.008-.006-.007-.013-.013-.01-.02zm-1.439 2.633c.012.002.02.003.02-.003-.01-.028-.006-.056-.003-.083.005-.03.008-.06-.008-.087-.01-.01-.03.03-.03.07 0 .03 0 .06-.01.1.013 0 .023.002.031.003z" clip-rule="evenodd"/>
</svg>
