<svg xmlns="http://www.w3.org/2000/svg" width="160" height="74" fill="none" viewBox="0 0 160 74">
    <defs>
        <linearGradient id="paint0_linear" x1="0" x2="160" y1="74" y2="74" gradientUnits="userSpaceOnUse">
            <stop stop-color="#F342BB"/>
            <stop offset="1" stop-color="#FF5454"/>
        </linearGradient>
        <clipPath id="clip0">
            <path fill="#fff" d="M0 0H160V74H0z"/>
        </clipPath>
    </defs>
    <g clip-path="url(#clip0)">
        <path fill="url(#paint0_linear)" fill-rule="evenodd" d="M0 10C0 4.477 4.477 0 10 0h140c5.523 0 10 4.477 10 10v54c0 5.523-4.477 10-10 10H10C4.477 74 0 69.523 0 64V10z" clip-rule="evenodd"/>
        <path fill="#fff" fill-rule="evenodd" d="M31 0l29 74h34L65 0H31zM12 0l29 74h14L26 0H12z" clip-rule="evenodd" opacity=".256"/>
        <path fill="#fff" d="M71.022 37.444h.857V42h4.036c3.17 0 5.039-1.97 5.039-5.325 0-3.354-1.868-5.244-5.04-5.244H71.88v4.387h-.857v1.626zm3.069-4.19h1.56c1.948 0 3.047 1.217 3.047 3.429 0 2.285-1.07 3.486-3.047 3.486h-1.56v-2.725h1.926v-1.626h-1.926v-2.563zm9.16-2.467c.023 1.325.945 2.365 2.593 2.365 1.648 0 2.564-1.04 2.586-2.365h-1.34c-.015.761-.462 1.274-1.246 1.274-.783 0-1.23-.513-1.245-1.274h-1.347zm1.473 11.337c.981 0 1.956-.49 2.395-1.325h.044V42h2.065v-5.398c0-1.582-1.31-2.622-3.325-2.622-2.08 0-3.376 1.047-3.457 2.57h1.956c.102-.578.608-.973 1.406-.973.805 0 1.318.425 1.318 1.157v.52l-1.977.117c-1.956.117-3.055.945-3.055 2.373 0 1.414 1.136 2.38 2.63 2.38zm.703-1.545c-.725 0-1.209-.366-1.209-.952 0-.557.455-.916 1.253-.974l1.655-.103v.572c0 .85-.769 1.457-1.699 1.457zM90.853 42h2.138v-4.504c0-1.019.608-1.722 1.568-1.722.96 0 1.442.586 1.442 1.612V42h2.14v-5.061c0-1.838-.982-2.937-2.726-2.937-1.208 0-2.036.571-2.453 1.545h-.044v-1.399h-2.065V42zm12.471 2.959c2.351 0 3.918-1.201 3.918-3.069v-7.742h-2.109v1.37h-.037c-.41-.9-1.296-1.494-2.424-1.494-1.992 0-3.222 1.53-3.222 4.02 0 2.455 1.267 3.934 3.186 3.934 1.135 0 2.058-.571 2.424-1.406h.044v1.377c0 .908-.615 1.516-1.721 1.516-.813 0-1.429-.366-1.597-.908h-2.095c.169 1.399 1.568 2.402 3.633 2.402zm.037-4.629c-1.062 0-1.722-.835-1.722-2.27 0-1.429.667-2.322 1.722-2.322 1.069 0 1.75.908 1.75 2.322 0 1.42-.681 2.27-1.75 2.27zm13.4 1.794c1.977 0 3.186-1.523 3.186-4.05 0-2.534-1.216-4.05-3.194-4.05-1.12 0-1.992.557-2.424 1.487h-.044v-4.08h-2.139V42h2.11v-1.348h.044c.432.916 1.311 1.472 2.461 1.472zm-.74-6.386c1.062 0 1.736.908 1.736 2.336 0 1.436-.667 2.33-1.736 2.33-1.04 0-1.743-.909-1.743-2.33 0-1.406.71-2.336 1.743-2.336zm9.454-2.659l1.648-2.292h-1.934l-1.172 2.292h1.458zm-1.846 9.045c.981 0 1.956-.49 2.395-1.325h.044V42h2.065v-5.398c0-1.582-1.311-2.622-3.325-2.622-2.08 0-3.376 1.047-3.457 2.57h1.956c.102-.578.608-.973 1.406-.973.806 0 1.318.425 1.318 1.157v.52l-1.977.117c-1.956.117-3.054.945-3.054 2.373 0 1.414 1.135 2.38 2.629 2.38zm.703-1.545c-.725 0-1.208-.366-1.208-.952 0-.557.454-.916 1.252-.974l1.655-.103v.572c0 .85-.769 1.457-1.699 1.457zM129.758 42h2.138v-4.504c0-1.019.608-1.722 1.568-1.722.959 0 1.443.586 1.443 1.612V42h2.138v-5.061c0-1.838-.981-2.937-2.724-2.937-1.209 0-2.037.571-2.454 1.545h-.044v-1.399h-2.065V42zM62 37c0 13.807-11.193 25-25 25-3.107 0-6.082-.566-8.826-1.603-.915-.345-1.805-.743-2.666-1.189-.552-.286-1.092-.593-1.62-.918-4.394-2.712-7.886-6.746-9.92-11.548-1.247-2.947-1.946-6.184-1.967-9.58L12 37l.001-.161c.01-1.46.143-2.89.393-4.28C14.489 20.87 24.709 12 37 12c13.807 0 25 11.193 25 25z"/>
        <path fill="#FE525B" d="M44.756 15.061H53.94V28.456H44.756z"/>
        <path fill="#F6479D" d="M47.664 17.663H53.939V28.456H47.664z"/>
        <path fill="#E0E2E2" d="M53.94 29.92v25.467c-4.055 3.736-9.348 6.15-15.195 6.553-.505.034-1.017.055-1.53.058C37.143 62 37.071 62 37 62c-.442 0-.88-.011-1.318-.035-3.384-.175-6.591-1.024-9.488-2.415-.52-.25-1.031-.517-1.531-.802-.523-.296-1.033-.611-1.53-.944-1.087-.725-2.115-1.535-3.072-2.417V29.919l10.089-9.015L37 14.783l6.853 6.124L53.94 29.92z"/>
        <path fill="#CCC" d="M53.94 29.92v8.397L37 24.54 20.063 38.317V29.92l10.089-9.015L37 15.333l6.853 5.574L53.94 29.92z"/>
        <path fill="gray" d="M17.675 36.925l-4.507-5.541L37 12l23.833 19.384-4.507 5.541L37 21.207 17.675 36.925z"/>
        <path fill="#E0E2E2" d="M43.608 12H55.086999999999996V16.038H43.608z"/>
        <path fill="#CCC" d="M43.608 12H46.168V16.038H43.608z"/>
        <path fill="#fff" d="M29.157 36.7H44.845V52.388000000000005H29.157z"/>
        <path fill="#BFBFBF" fill-rule="evenodd" d="M27.626 53.919v-18.75h18.75v18.75h-18.75zm12.436-12.27h3.252V38.23h-3.252v3.418zm-9.375-3.418h6.314v12.627h-6.314V38.23zm9.375 6.479v6.148h3.252V44.71h-3.252z" clip-rule="evenodd"/>
        <path fill="#FE525B" d="M28.174 43.418v16.979c-.915-.345-1.805-.743-2.666-1.189-.552-.286-1.092-.593-1.62-.918V43.418h4.286z"/>
        <path fill="#F6479D" d="M28.175 48.364v12.033c-.916-.345-1.806-.743-2.667-1.189V48.364h2.667z"/>
        <path fill="#000" d="M40.062 34.007V44.02c0 1.583-1.284 2.866-2.866 2.866h-22.33c-.313 0-.615-.05-.898-.144-1.247-2.947-1.946-6.184-1.967-9.58v-3.155c0-.529.143-1.024.393-1.449.497-.848 1.418-1.417 2.472-1.417h22.33c1.582 0 2.866 1.283 2.866 2.866z"/>
        <path fill="#fff" fill-rule="evenodd" d="M21.17 41.51c.191.05.382.045.575.04.05-.002.1-.004.15-.004l.186.004c.06.007.125.004.188.002l.091-.002.34-.02c.017 0 .033-.003.049-.006.024-.005.048-.01.072-.004l.03.02c.11.01.21 0 .33-.02.04-.01.07-.06.08-.11l-.012-.09c-.002-.013-.002-.027.002-.04l-.002-.636.032-.804c0-.07.02-.16.09-.17.22-.02.43-.02.66-.01.05 0 .12.05.13.11.05.21.036.413.022.618l-.01.156-.002.196c.005.011.001.025-.003.042-.003.014-.008.03-.008.048.034.113.032.222.03.332-.002.056-.003.111 0 .168l.04.12c.04.07.12.07.2.05.013-.006.04.003.064.01.015.006.029.01.037.01.046 0 .09.004.135.008.098.008.194.017.305-.018.02-.005.043 0 .065.006.02.004.04.009.054.004.233-.016.465-.006.697.003l.174.007c.05-.039.103-.032.155-.024.043.006.085.012.125-.006.03-.01.04-.04.05-.07.01-.11.02-.22.02-.33-.006-.206 0-.406.005-.605.005-.199.01-.396.005-.595-.02-.4 0-.81.03-1.21-.01-.06-.02-.12-.04-.18l.02-.21.01-.74c-.012-.132-.01-.26-.009-.387.002-.095.003-.189-.002-.283 0-.07.01-.14.02-.21l-.01-.39.001-.014c.01-.215.02-.421.01-.646l-.01-.22c.005-.108 0-.216-.004-.324-.003-.072-.006-.144-.006-.216l.008-.193c0-.031-.002-.064-.008-.097-.01-.02-.03-.05-.07-.06l-.024-.002c-.111-.01-.215-.018-.336-.018-.02 0-.04.01-.06.02-.049.006-.097.001-.145-.004-.032-.003-.064-.006-.096-.006l-1.15.01-.47-.01-.201-.001c-.2-.002-.396-.004-.599.011-.04.01-.11.01-.15 0-.27-.03-.53 0-.8.05l-.21.06c-.16.07-.31.15-.44.26-.12.1-.22.22-.29.36-.16.29-.19.61-.15.94l-.011.084.002.036c.013.107.008.204.004.302-.002.05-.005.098-.005.148 0 .14 0 .3-.02.44l.002.066.009.074c.03.17.02.33 0 .49 0 .02.003.04.006.06.005.03.01.06.004.09-.009.12-.007.237-.005.353.002.174.004.347-.026.527-.006.057.008.11.021.162.008.03.016.059.02.088 0 .03-.01.06-.02.09-.018.064-.012.125-.005.186.004.044.009.088.005.134-.03.202-.027.41-.01.616l.022.225.008.019c.005.016-.004.035-.013.055-.009.017-.018.036-.018.055-.009.065-.005.131-.002.198.005.078.009.157-.008.232l-.001.227c.002.039.005.076.011.113.012.034.012.074.012.113 0 .062-.001.118.049.137zm-2.847-6.97h.37c.11-.007.222-.009.335-.009l.685.009h.026c.06-.003.138-.007.164.08.021.1.017.189.013.282-.001.038-.003.077-.003.118-.004.014-.01.028-.018.043-.014.026-.029.055-.022.087.03.03.04.07.04.11.005.023-.004.042-.01.059-.01.019-.016.035 0 .051l.014.057c.006.036.006.07.006.103-.004.081-.003.163-.002.244.002.109.003.217-.008.326v.026c.001.065.003.14-.05.184-.016.016-.038.01-.06.002-.018-.005-.036-.011-.05-.002-.02.02-.06.02-.09.02-.08.02-.14.01-.22-.03-.031-.005-.057.006-.081.016-.023.01-.045.019-.069.014-.047-.01-.092-.003-.136.003-.049.006-.096.013-.144-.003H19c-.018.002-.039.004-.047-.02-.022.016-.044.015-.066.013-.018 0-.036-.002-.054.007 0-.03-.03-.02-.03-.02-.05 0-.102.005-.154.01-.122.013-.247.026-.366-.03-.033.014-.067.025-.101.035-.088.028-.174.055-.239.135l-.01.023c-.007.02-.016.043-.03.057 0 .032-.003.065-.006.1-.01.106-.02.22.056.31.08.09.22.12.33.12l.1.002c.43.008.87.016 1.26.248.16.11.23.28.28.45.09.419.08.818.07 1.227V39c0 .006 0 .014.002.024.002.023.005.052-.002.066l-.002.07c-.003.046-.005.09.002.13l.004.044-.014.136c.007.047.01.091.011.135l-.001.265c0 .053-.003.109-.009.166l-.057.494-.024.15c-.03.11-.09.19-.15.27l-.085.123c-.123.151-.281.255-.465.327-.037.013-.075.024-.113.034l-.437.096c-.07.021-.144.02-.22.018-.064 0-.13-.002-.19.012l-.14.01c-.043-.007-.086-.01-.128-.011l-.262.001-.13.01c-.11-.02-.21-.02-.33-.02l-.78.003-.39-.023c-.024 0-.051.003-.08.006-.087.01-.184.02-.23-.056-.013-.023-.02-.049-.023-.076l.004-.24.008-.05c.005-.031.011-.063.011-.094-.01-.09-.013-.181-.013-.273l.013-.547-.003-.06c-.003-.056-.007-.11.023-.17l.02-.22c.01-.02.03-.03.05-.04.06-.007.13-.004.197-.002l.093.002.355.008.355-.008c.085-.004.169 0 .252.004.152.008.303.015.458-.024.27-.07.35-.44.22-.67-.04-.07-.11-.09-.18-.11-.128-.032-.256-.038-.384-.045l-.096-.005c-.033 0-.066.002-.1.004-.067.005-.136.01-.21-.004-.13-.02-.24-.04-.35-.07-.027-.007-.051-.016-.075-.026l-.145-.074-.065-.046c-.057-.039-.111-.076-.155-.134-.019-.042-.052-.07-.086-.1-.039-.033-.078-.066-.094-.12-.003-.033-.009-.064-.016-.094l-.044-.176-.024-.324.024-.066-.01-.024c-.018-.044-.038-.092-.03-.126l.08-.11c.006-.017-.005-.037-.015-.057-.007-.015-.015-.03-.015-.043l.02-.07c.01-.035-.003-.065-.015-.095s-.025-.06-.015-.095l-.005-.298-.007-.112c-.01-.16-.019-.322-.008-.49 0-.006.002-.013.004-.022.004-.02.01-.047-.004-.068 0-.164.017-.31.034-.471l.006-.049c.01-.07.03-.13.05-.18l.06-.15c.07-.18.23-.29.39-.4.064-.046.137-.067.203-.085l.017-.005c.27-.12.56-.16.85-.14l.1-.02c.08.02.14.02.22 0 .017 0 .032-.004.047-.007.019-.005.036-.009.053-.003.017.004.031.01.044.016.015.008.03.014.046.014.05-.007.098-.009.145-.009l.285.009zm-1.19 6.38l-.02-.02c-.019.026-.04.052-.063.078-.062.073-.127.149-.127.252 0 .003.004 0 .011-.007l.049-.053c.02 0 .03-.01.03-.01.005-.05.032-.085.06-.12.027-.035.055-.07.06-.12zm6.277-4.51c-.06.04-.11.12-.11.19-.04.4-.04.76 0 1.16 0 .02.02.04.05.05.056.03.111.031.167.032.034 0 .069 0 .104.008l.153.013c.104.004.213-.003.326-.023.08-.03.11-.12.1-.18 0-.042-.005-.084-.01-.127-.008-.059-.015-.12-.01-.183.015-.1.009-.199.003-.298-.007-.11-.014-.221.008-.332.003-.037.003-.071 0-.105l-.02-.205c-.02-.03-.05-.05-.07-.06-.118-.025-.23-.008-.345.01l-.066.01-.07-.02c-.023.007-.047.012-.072.018-.049.01-.097.022-.137.042zm-1.12 1.72l-.007-.024c-.003-.004-.007-.006-.013-.006v.04c-.008.009-.01.007-.01 0-.04-.04-.07-.08-.06-.13.013 0 .028-.005.04-.01.017-.007.03-.011.03 0 .01.005.01.013.011.024.002.013.003.03.02.046 0 .02 0 .03-.01.06zm-.13 2.07v-.03c-.03-.005-.052.01-.07.031l-.05.069-.01.06c.017-.016.026-.035.036-.053.015-.026.029-.053.065-.077h.03zm8.788.62c-.015-.135-.012-.267-.01-.4.003-.133.005-.265-.01-.4-.004-.028.002-.058.007-.087.01-.053.018-.104-.027-.143-.103-.078-.222-.066-.335-.055l-.055.005c-.081.01-.162.004-.245-.003-.07-.006-.142-.012-.215-.007l-.026.01c-.022.01-.046.02-.074.02-.048-.017-.094-.016-.138-.014-.057.002-.111.003-.162-.036-.082-.054-.085-.146-.088-.24-.001-.044-.003-.088-.012-.13 0-.03.01-.07.02-.1.004-.077.003-.154.002-.231-.002-.103-.003-.206.008-.309v-.1l-.002-.05c-.002-.038-.005-.08.002-.12l.009-.03-.009-.07c-.015-.075-.013-.156-.011-.234l.001-.076-.005-.028.005-.062c0-.045.003-.09.005-.133.007-.103.013-.205-.015-.317 0-.04.01-.08.02-.12.01-.077.008-.153.007-.227-.002-.089-.003-.176.013-.263 0-.025-.008-.047-.017-.069-.004-.013-.01-.026-.013-.041 0-.07 0-.15.01-.23.016-.07.015-.142.013-.213 0-.059-.002-.118.007-.177l-.02-.12c-.007-.16-.013-.324-.011-.484l.011-.236c.015-.095.012-.195.01-.294-.002-.099-.005-.196.01-.286.01-.09-.07-.15-.15-.16l-.733-.004c-.112-.002-.224-.006-.337-.016-.04 0-.09.01-.13.02l-.68-.01c-.02 0-.04.03-.05.05-.02.16-.02.3-.02.46-.009.213-.01.427-.01.64-.002.267-.003.533-.02.8 0 .02.01.05.02.08.005.014 0 .031-.005.05l-.005.02v.04c.004.044-.002.087-.007.129-.009.063-.017.125.007.191.01.06 0 .13-.02.18-.012.038-.006.075.002.113.004.022.008.044.008.067 0 .4 0 .82-.03 1.22l.02.36-.013 1.673c0 .278.003.557.013.837 0 .02.02.04.04.05.07.04.153.035.23.032l.06-.002c.127 0 .255.004.382.008.1.004.199.007.298.008l1.15-.026c.063-.013.13-.005.195.002.04.004.078.008.115.008h.1l.268-.002c.177-.002.352-.005.532.002.02 0 .07-.01.08-.04v-.06c-.01-.06-.01-.12.01-.17l.004-.065-.004-.065c-.01-.06-.001-.115.008-.172.008-.048.017-.097.012-.148zm5.14-.314c.004.098.008.195-.002.294-.007.023-.01.049-.012.076l.002.164c.01.03.02.07.02.09-.007.036-.01.071-.012.106-.004.07-.008.137-.049.204-.024.035-.06.05-.096.059l-.103.021c-.15.04-.33.04-.48.01-.034-.007-.068-.008-.104-.006l-.217.016c-.132.011-.262.007-.394.002-.106-.003-.214-.007-.325-.002-.07.003-.143.004-.216.004l-.444-.004c-.014.003-.03.004-.049.004l-.111-.004c-.12.01-.26.01-.38.01l-.1-.02-.12.01c-.085 0-.17.007-.254.015-.136.012-.271.023-.407.005l-.021-.003c-.063-.008-.12-.015-.139-.087-.02-.09-.02-.178-.018-.268.001-.078.002-.158-.012-.242 0-.03.01-.08.02-.11.004-.017.004-.031.002-.045l-.022-.085.02-.23c-.01-.17-.01-.34 0-.49-.006-.186-.004-.368-.002-.551l.002-.279c.01-.13.02-.26 0-.39v-.051c-.003-.046-.004-.087.01-.139 0-.017 0-.03-.003-.042l-.017-.058.01-.14v-.61c0-.133.007-.264.013-.395.01-.193.02-.384.008-.575 0-.027-.003-.054-.005-.082-.004-.056-.009-.111.005-.158l.015-.153c0-.035-.002-.071-.005-.107-.005-.07-.01-.14 0-.21l.02-.45-.003-.05c-.002-.034-.004-.07.002-.11l.004-.137c-.002-.036-.006-.072-.01-.107-.007-.055-.014-.11-.014-.166l.04-.09c.01-.04.01-.1 0-.14l-.01-.069c-.007-.044-.01-.084.01-.111.062-.053.146-.051.22-.05h.03c.05-.01.099-.008.145-.005.046.002.09.005.136-.005.097-.01.197-.004.298.002.116.007.234.014.352-.002l.04-.001.112-.018.127.009c.025.016.049.006.072-.003l.018-.007c.07-.01.15-.01.22 0 .01.01.02.01.03.01l.087.013.163-.023c.09-.01.18.01.27.03 0 0 .03 0 .04.01l.1-.03c.051 0 .094-.008.139-.016l.081-.014c.11-.005.219.007.328.02.09.01.182.02.273.02.006 0 .018-.014.028-.027l.011-.013.024-.001c.029-.002.063-.004.087.011.034.017.072.005.108-.007.026-.009.05-.017.072-.013.052.026.103.028.155.029.045.001.093.002.144.021.034.008.032.038.031.065v.015l.006.411.014.419-.01.66c0 .05-.04.11-.1.13-.06.01-.11 0-.15-.03-.03-.006-.062.009-.096.024-.024.01-.05.022-.075.026l-.06-.001c-.063-.002-.131-.004-.2.011-.022.005-.045-.008-.067-.02-.026-.013-.05-.026-.072-.01-.034.01-.068.014-.104.016l-.276-.006c-.08.01-.17.02-.25.02l-.063.004-.028-.004c-.04-.025-.082-.03-.126-.027l-.133.017c-.06 0-.08.07-.08.11-.03.095-.038.19-.038.285l.008.285c.01.07.04.14.12.14.247.013.495.007.743.001.322-.007.644-.015.966.019.07 0 .07.1.06.17-.01.12.01.24.04.38l-.03.11.01.19c-.003.083 0 .167.002.252.004.172.009.348-.032.528-.09.063-.196.057-.303.052-.046-.003-.092-.005-.137-.002l-.435.006-.224-.016c-.05-.01-.12-.02-.16-.01l-.138.011-.084-.003c-.064-.004-.129-.007-.198.002-.08.02-.15.06-.17.14-.06.218-.041.435-.021.663v.007l.008.054c.014.055.047.106.093.106.254.033.504.022.75.011.12-.005.24-.011.36-.011h.09c.18-.002.36-.003.54.04.07.13.08.3.06.45-.005.085-.002.166.002.246zm-.282-5.516c0-.04.02-.08.03-.07.016.027.011.056.007.087-.003.027-.007.055.002.083 0 .006-.007.005-.019.003-.008-.001-.018-.003-.03-.003.01-.04.01-.07.01-.1zm-3.17.3c.015.02.031.039.04.06.01.02.04.04.05.04l-.01-.06c-.007-.012-.016-.024-.025-.036-.02-.026-.042-.053-.035-.094-.004-.004-.007-.01-.01-.018-.004-.012-.008-.026-.02-.032-.01-.01-.02 0-.03.01 0 .01.01.02.02.02.003.007.002.011-.002.014l-.028.006c.005.035.028.063.05.09zm2.638 2.3l.011-.01c.03-.024.054-.052.076-.08.015-.017.029-.034.045-.05.037.052.002.077-.035.102-.013.009-.025.018-.035.028l-.024.022c-.008.005-.017.008-.026.008-.007-.007-.014-.013-.012-.02zm-1.438 2.633c.012.002.02.003.02-.003-.01-.028-.006-.056-.003-.083.005-.03.008-.06-.008-.087-.01-.01-.03.03-.03.07 0 .03 0 .06-.01.1.013 0 .023.002.031.003z" clip-rule="evenodd"/>
    </g>
</svg>
