<svg xmlns="http://www.w3.org/2000/svg" width="80" height="80" viewBox="0 0 80 80">
    <g fill="none" fill-rule="evenodd">
        <circle cx="40" cy="40" r="40" fill="#F5F7F8" fill-rule="nonzero"/>
        <path fill="#FFF" d="M20 16h36v48H20z"/>
        <path fill="#000" fill-rule="nonzero" d="M55.792 39.756V14.86a.859.859 0 0 0-.859-.859H18.875a.859.859 0 0 0-.859.859v49.795c0 .474.384.858.859.858h36.058a.859.859 0 0 0 .859-.858v-8.586h-1.717v7.727H19.733V15.717h34.342v24.04h1.717z"/>
        <path fill="#000" fill-rule="nonzero" d="M21.45 38.898h1.717v1.717H21.45zM24.884 38.898h27.473v1.717H24.884zM21.45 30.312h1.717v1.717H21.45zM24.884 30.312h27.473v1.717H24.884zM21.45 47.483h1.717V49.2H21.45zM24.884 47.483h23.18V49.2h-23.18zM61.733 44.325l-3.642-3.642a.859.859 0 0 0-1.214 0l-12.75 12.749c-.008.008-.01.02-.02.029a.838.838 0 0 0-.142.214c-.01.02-.02.037-.028.058-.008.02-.012.022-.016.034L42.1 59.23a.859.859 0 0 0 1.085 1.085l5.464-1.82c.012 0 .022-.013.034-.017.012-.004.039-.019.058-.028a.838.838 0 0 0 .214-.143c.009-.008.02-.01.03-.02L61.732 45.54a.859.859 0 0 0 0-1.214zM44.27 58.148l.84-2.518 1.677 1.678-2.517.84zm4.106-1.678l-2.429-2.429 11.536-11.538 2.429 2.43L48.377 56.47z"/>
    </g>
</svg>
