<svg xmlns="http://www.w3.org/2000/svg" width="80" height="80" viewBox="0 0 80 80">
    <g fill="none" fill-rule="evenodd">
        <rect width="80" height="80" fill="#F5F7F8" rx="40"/>
        <g fill-rule="nonzero">
            <path fill="#000" d="M53.035 57.698V47.439c0-1.585-1.213-2.798-2.798-2.798h-.467c-.466 0-.839-.28-.932-.653l-3.264-11.377v-.094a4.712 4.712 0 0 0-4.29-2.797H23.75a4.712 4.712 0 0 0-4.29 2.797v.094l-3.264 11.377c-.187.373-.56.653-.933.653h-.466c-1.586 0-2.798 1.213-2.798 2.798v10.259c0 1.585 1.212 2.797 2.798 2.797v4.663c0 1.586 1.212 2.798 2.798 2.798h1.865c1.585 0 2.798-1.212 2.798-2.798v-4.663h20.517v4.663c0 1.586 1.212 2.798 2.798 2.798h1.865c1.585 0 2.798-1.212 2.798-2.798v-4.663c1.585 0 2.798-1.212 2.798-2.797z"/>
            <path fill="#FFF" d="M20.393 65.158c0 .56-.373.933-.932.933h-1.865c-.56 0-.933-.373-.933-.933v-4.663h3.73v4.663zM48.372 65.158c0 .56-.373.933-.933.933h-1.865c-.56 0-.933-.373-.933-.933v-4.663h3.73v4.663zM51.17 57.698c0 .56-.374.932-.933.932H14.798c-.56 0-.933-.373-.933-.932V47.439c0-.56.373-.933.933-.933h.466c1.212 0 2.332-.839 2.705-2.051l3.264-11.285c.466-.932 1.399-1.585 2.518-1.585h17.533c1.026 0 2.052.56 2.518 1.585l3.264 11.285c.373 1.212 1.492 2.051 2.704 2.051h.467c.56 0 .932.373.932.933v10.259z"/>
            <path fill="#000" d="M20.393 48.372a3.741 3.741 0 0 0-3.73 3.73 3.741 3.741 0 0 0 3.73 3.73 3.741 3.741 0 0 0 3.73-3.73 3.741 3.741 0 0 0-3.73-3.73z"/>
            <path fill="#F5F7F8" d="M20.393 53.967a1.87 1.87 0 0 1-1.865-1.865 1.87 1.87 0 0 1 1.865-1.865 1.87 1.87 0 0 1 1.866 1.865 1.87 1.87 0 0 1-1.866 1.865z"/>
            <path fill="#000" d="M44.641 48.372a3.741 3.741 0 0 0-3.73 3.73 3.741 3.741 0 0 0 3.73 3.73 3.741 3.741 0 0 0 3.73-3.73 3.741 3.741 0 0 0-3.73-3.73z"/>
            <path fill="#F5F7F8" d="M44.641 53.967a1.87 1.87 0 0 1-1.865-1.865 1.87 1.87 0 0 1 1.865-1.865 1.87 1.87 0 0 1 1.865 1.865 1.87 1.87 0 0 1-1.865 1.865z"/>
            <path fill="#000" d="M34.383 53.035h-3.73c-.56 0-.933.373-.933.932 0 .56.373.933.932.933h3.73c.56 0 .933-.373.933-.933s-.373-.932-.932-.932zM36.248 49.304h-7.461c-.56 0-.933.373-.933.933s.373.932.933.932h7.46c.56 0 .933-.373.933-.932 0-.56-.373-.933-.932-.933zM23.564 44.641h18c.56 0 1.119-.28 1.492-.746.373-.466.466-1.119.28-1.679l-2.239-7.46c-.186-.747-.932-1.306-1.772-1.306H25.803c-.84 0-1.493.466-1.772 1.306l-2.239 7.46c-.186.56-.093 1.213.28 1.68.373.465.933.745 1.492.745zM67.024 12H51.169c-.56 0-.932.373-.932.933v15.854c0 .56.373.932.932.932h6.529V58.63h-1.866c-.56 0-.932.373-.932.933v2.798h-1.865c-.56 0-.933.373-.933.932v3.73c0 .56.373.933.933.933h11.19c.56 0 .933-.373.933-.932v-3.73c0-.56-.373-.933-.932-.933H62.36v-2.798c0-.56-.373-.933-.933-.933h-1.865V29.72h7.46c.56 0 .933-.374.933-.933V12.933c0-.56-.373-.933-.932-.933zm-3.73 54.091h-9.327v-1.865h9.326v1.865zm-2.799-3.73h-3.73v-1.866h3.73v1.866z"/>
            <path fill="#FFF" d="M66.091 27.854H52.102V13.865h13.99z"/>
            <path fill="#000" d="M57.698 25.99c.56 0 .932-.374.932-.933V23.19h.933a3.741 3.741 0 0 0 3.73-3.73 3.741 3.741 0 0 0-3.73-3.73h-1.865c-.56 0-.933.372-.933.932v8.393c0 .56.373.933.933.933zm3.73-6.53a1.87 1.87 0 0 1-1.865 1.866h-.933v-3.73h.933a1.87 1.87 0 0 1 1.865 1.865z"/>
            <path fill="#F5F7F8" d="M25.803 35.315h13.522l2.239 7.461h-18z"/>
        </g>
    </g>
</svg>
