<svg xmlns="http://www.w3.org/2000/svg" width="27" height="24" fill="none" viewBox="0 0 27 24">
    <path fill="#fff" d="M26 3.5L5 1 3.5 17 24 19.5l2-16z"/>
    <path fill="#fff" d="M1 6H22V23H1z"/>
    <path fill="#7A1DFF" d="M13.673 8.47c-1.52 0-2.754 1.251-2.754 2.794 0 1.543 1.233 2.793 2.754 2.793s2.754-1.25 2.754-2.793c0-1.543-1.233-2.793-2.754-2.793zm0 4.257c-.797 0-1.443-.655-1.443-1.463S12.876 9.8 13.673 9.8s1.443.655 1.443 1.463-.646 1.463-1.443 1.463z"/>
    <path fill="#7A1DFF" d="M24.657 2.086L6.755.025C6.06-.075 5.356.13 4.821.59c-.536.421-.88 1.046-.951 1.73l-.328 2.726H2.526C1.083 5.046 0 6.343 0 7.806v13.6C-.035 22.801 1.05 23.962 2.426 24h18.1c1.442 0 2.754-1.13 2.754-2.593v-.532c.447-.088.871-.269 1.246-.532.531-.454.871-1.096.95-1.796l1.509-13.5c.154-1.467-.884-2.786-2.328-2.96zm-2.689 19.32c0 .732-.72 1.264-1.442 1.264h-18c-.652.02-1.196-.5-1.215-1.162l.001-.102v-2.46l5.082-3.791c.61-.476 1.47-.433 2.033.1l3.574 3.192c.543.462 1.226.72 1.935.731.554.007 1.098-.143 1.573-.432l6.46-3.79v6.45zm0-8.014l-7.147 4.223c-.614.37-1.39.302-1.935-.166L9.28 14.224c-1.034-.901-2.545-.957-3.64-.133l-4.328 3.192V7.806c0-.732.492-1.43 1.214-1.43h18c.77.032 1.393.65 1.442 1.43v5.586zm3.707-8.526l-.002.014-1.54 13.5c.002.35-.155.682-.427.898-.131.133-.426.2-.426.266V7.806c-.052-1.515-1.26-2.726-2.754-2.76H4.853l.296-2.594c.064-.336.237-.64.491-.864.288-.202.636-.296.984-.266l17.87 2.095c.72.069 1.25.718 1.18 1.45z"/>
</svg>
