<svg xmlns="http://www.w3.org/2000/svg" width="24" height="24" fill="none" viewBox="0 0 24 24">
    <defs>
        <linearGradient id="paint0_linear" x1="11.031" x2="-1.173" y1="0" y2="11.835" gradientUnits="userSpaceOnUse">
            <stop stop-color="#FE8045"/>
            <stop offset="1" stop-color="#FFB140"/>
        </linearGradient>
    </defs>
    <path fill="url(#paint0_linear)" d="M8.124 24c-2.668-8.791 2.969-12.001 2.969-12.001-.394 4.69 2.271 8.345 2.271 8.345.98-.295 2.852-1.678 2.852-1.678 0 1.678-.987 5.332-.987 5.332s3.456-2.673 4.544-7.112c1.087-4.44-2.07-8.896-2.07-8.896.19 3.142-.872 6.232-2.955 8.593.104-.12.192-.254.259-.399.374-.748.975-2.693.623-7.196C15.135 2.666 9.407 0 9.407 0 9.9 3.852 8.42 4.74 4.952 12.05 1.484 19.36 8.124 24 8.124 24z"/>
</svg>
