<svg width="24" height="21" fill="none" xmlns="http://www.w3.org/2000/svg">
    <path d="M12.154 7.412a2.446 2.446 0 0 0-2.448 2.444 2.446 2.446 0 0 0 2.448 2.444 2.446 2.446 0 0 0 2.448-2.444 2.446 2.446 0 0 0-2.448-2.444zm0 3.724a1.281 1.281 0 1 1-.002-2.562 1.281 1.281 0 0 1 .002 2.562z" fill="#fff"/>
    <path d="M21.917 1.826 6.005.022a2.188 2.188 0 0 0-1.72.494A2.21 2.21 0 0 0 3.44 2.03l-.292 2.386h-.903C.963 4.415 0 5.55 0 6.83v11.9A2.213 2.213 0 0 0 2.245 21h16c1.282 0 2.448-.99 2.448-2.27v-.465a2.917 2.917 0 0 0 1.108-.466c.472-.397.774-.959.845-1.57l1.34-11.814a2.358 2.358 0 0 0-2.069-2.59zm-2.39 16.904c0 .64-.64 1.106-1.282 1.106h-16a1.048 1.048 0 0 1-1.078-1.106v-2.153l4.517-3.317a1.4 1.4 0 0 1 1.807.088l3.177 2.793c.482.404 1.09.63 1.72.64.492.006.976-.125 1.398-.378l5.742-3.317v5.644zm0-7.012-6.353 3.695a1.488 1.488 0 0 1-1.72-.145L8.25 12.446a2.597 2.597 0 0 0-3.235-.117l-3.847 2.793V6.83c0-.64.437-1.251 1.078-1.251h16a1.34 1.34 0 0 1 1.282 1.251v4.888zm3.295-7.46-.001.012-1.37 11.813a.989.989 0 0 1-.379.785c-.116.117-.379.175-.379.233V6.831a2.504 2.504 0 0 0-2.448-2.416H4.315l.261-2.27c.057-.293.211-.56.438-.756.255-.176.564-.258.874-.233L21.772 2.99c.64.061 1.11.63 1.05 1.27z" fill="#fff"/>
</svg>
