<svg xmlns="http://www.w3.org/2000/svg" width="60" height="60" fill="none" viewBox="0 0 60 60">
    <path fill="#D0D0D0" d="M7.487 18.559c0-.6.32-1.156.839-1.456l20.4-11.824c.521-.303 1.165-.302 1.686.002l20.262 11.82c.517.302.834.856.834 1.454v23.52c0 .6-.317 1.153-.834 1.454L30.412 55.35c-.52.304-1.165.305-1.686.003l-20.4-11.824c-.52-.301-.839-.856-.839-1.456V18.559z"/>
    <path fill="#fff" d="M49.07 19.314v22.722l-19.644 11.36-19.501-11.36V19.314l19.644-11.36 19.502 11.36zM10.786 41.461l18.641 10.785 18.64-10.785V19.746L29.427 8.96l-18.64 10.785v21.716z"/>
    <path fill="#fff" d="M30.86 19.314l-1.29-.718-1.434.718.287-1.581-1.004-1.007 1.434-.288.717-1.294.573 1.294 1.578.288-1.147 1.007.286 1.581zM23.404 20.465l-1.004-.432-1.004.432.144-1.15-.717-.72 1.003-.143.574-1.007.574 1.006 1.003.144-.717.72.144 1.15zM37.6 20.465l-1.004-.432-1.004.432.144-1.15-.717-.72 1.147-.143.43-1.007.573 1.006 1.148.144-.86.72.143 1.15zM42.33 21.471l-.716-.287-.717.287.143-.719-.573-.575.717-.144.43-.719.287.72.86.143-.574.575.144.72zM18.099 21.471l-.718-.287-.716.287.143-.719-.574-.575.86-.144.287-.719.43.72.718.143-.574.575.144.72z"/>
    <path fill="#D0D0D0" d="M10.318 52.834c.02.231-.15.436-.38.457-1.439.13-2.876.262-4.314.393-1.324.12-2.648.241-3.971.447-.329.051-.593-.278-.465-.585L2.952 49.3c.056-.135.038-.29-.048-.408-.937-1.284-1.875-2.475-2.812-3.652-.21-.263-.041-.655.293-.691 1.425-.154 2.778-.378 4.235-.5 1.581-.132 3.041-.264 4.603-.397.23-.02.432.151.453.381.13 1.465.262 3.03.393 4.474 0 1.312.12 2.864.249 4.327zM49.682 52.834c-.02.231.15.436.38.457 1.439.13 2.877.262 4.315.393 1.323.12 2.647.241 3.97.447.33.051.593-.278.465-.585L57.048 49.3c-.056-.135-.038-.29.048-.408.938-1.284 1.875-2.475 2.812-3.652.21-.263.041-.655-.293-.691-1.424-.154-2.778-.378-4.235-.5-1.58-.132-3.041-.264-4.603-.397-.23-.02-.432.151-.453.381-.13 1.465-.261 3.03-.392 4.474 0 1.312-.12 2.864-.25 4.327z"/>
    <path fill="#B5B5B5" d="M49.692 52.814l3.653-2.23-2.266-2.077-1.219 1.867-.168 2.44zM10.308 52.855L6.32 50.537l2.645-2.013 1.134 1.808.21 2.523z" opacity=".6"/>
    <path fill="#D0D0D0" d="M54.36 49.01c-.093.938-.944 1.61-1.88 1.497-15.06-1.811-30.352-1.814-45.413-.007-.959.114-1.823-.593-1.901-1.556-.232-2.86-.517-5.654-.747-8.516-.071-.892.575-1.68 1.463-1.782 15.868-1.844 31.854-1.844 47.722 0 .888.103 1.534.89 1.469 1.783-.21 2.883-.43 5.699-.714 8.58z"/>
    <path fill="#fff" d="M32.364 30.914V22h-4.728c0 1.857-1.763 1.857-3.636 1.857v4.086c1.327 0 2.31 0 3.69-1.244l-.036 4.215H24V35h12v-4.086h-3.636zM14.725 43.257c0 1.54.833 2.28 2.779 2.28 1.774 0 2.69-.625 2.76-2.027h-1.68c-.064.423-.386.637-1.08.637-.967 0-1.137-.416-1.137-.89 0-.468.164-.878 1.137-.878.694 0 1.016.208 1.08.625h1.68c-.07-1.396-.992-2.014-2.76-2.014-1.946 0-2.78.732-2.78 2.267zM22.985 41.621c-.7 0-1.522.139-2.28.385l.493 1.074c.695-.152 1.25-.196 1.737-.196.505 0 .985.02.985.474-.347-.126-.752-.196-1.282-.196-1.105 0-2.242.26-2.242 1.244 0 .821.758 1.13 1.623 1.13.657 0 1.314-.094 1.901-.523v.46h1.516v-1.875c-.013-1.446-.897-1.977-2.45-1.977zm.935 2.615c-.379.164-.935.29-1.446.29-.386 0-.563-.031-.563-.24 0-.24.304-.303 1.005-.303.436 0 .764.032 1.004.095v.158zm.29-2.81v-.885l-1.307-.505-1.307.505v.884l1.307-.505 1.308.505zM29.042 41.684l-1.054 2.634-1.1-2.634h-1.641l1.579 3.79h.694l-.631 1.579h1.642l2.154-5.369h-1.643zM33.591 43.914c0 1.313 1.01 1.623 2.823 1.623s2.824-.31 2.824-1.529c0-1.155-1.08-1.275-2.824-1.345-.96-.038-1.117-.031-1.117-.202 0-.17.158-.208.928-.208.802 0 1.181.05 1.181.284h1.642c0-1.13-.973-1.547-2.697-1.547-1.743 0-2.697.416-2.697 1.389 0 1.03.765 1.358 2.76 1.421 1.036.032 1.181.057 1.181.246 0 .165-.145.228-1.117.228-1.043 0-1.245-.146-1.245-.36h-1.642zM42.8 40.099l1.308-.505v-.885l-1.308.506v.884zm.575 1.326v-.884l-1.307-.505-1.308.505v.884l1.308-.505 1.307.505zm-1.307.196c-1.611 0-2.577.556-2.577 1.958s.966 1.958 2.577 1.958c1.61 0 2.576-.556 2.576-1.958s-.966-1.958-2.576-1.958zm0 2.653c-.676 0-1.062-.14-1.062-.695 0-.556.386-.695 1.062-.695.675 0 1.06.14 1.06.695 0 .556-.385.695-1.06.695z"/>
</svg>
