<svg xmlns="http://www.w3.org/2000/svg" width="36" height="36" fill="none" viewBox="0 0 36 36">
    <path fill="#6001D2" d="M18 36c9.941 0 18-8.059 18-18S27.941 0 18 0 0 8.059 0 18s8.059 18 18 18z"/>
    <path fill="#fff" d="M18 27.577c1.356 0 2.454-1.099 2.454-2.455 0-1.355-1.098-2.454-2.454-2.454s-2.455 1.099-2.455 2.454c0 1.356 1.1 2.455 2.455 2.455z"/>
    <path fill="#6001D2" d="M18 27c.904 0 1.636-.733 1.636-1.636 0-.904-.732-1.637-1.636-1.637-.904 0-1.636.733-1.636 1.637 0 .903.732 1.636 1.636 1.636z"/>
    <path fill="#fff" fill-rule="evenodd" d="M14.931 11.792c.288-.254.6-.472.932-.654-.132-.85.168-1.747.872-2.346 1.077-.916 2.693-.786 3.61.292.503.592.69 1.347.579 2.059.328.18.638.397.923.649.932.821 1.533 1.953 1.693 3.185.392 2.874 1.25 5.52 2.866 7.794v.002h.135c.328 0 .642.13.874.361.231.232.361.546.361.874 0 .327-.13.642-.361.873-.232.232-.546.362-.874.362H10.235c-.327 0-.642-.13-.873-.362C9.13 24.65 9 24.335 9 24.008c0-.328.13-.642.362-.874.231-.231.546-.361.873-.361h.137v-.002c1.616-2.274 2.474-4.92 2.866-7.794.16-1.232.762-2.364 1.693-3.185z" clip-rule="evenodd"/>
    <path fill="#fff" fill-rule="evenodd" d="M27.808 7.553c.222.186.284.477.139.65l-17.881 21.31c-.145.173-.443.162-.665-.024-.221-.186-.283-.477-.138-.65L27.144 7.53c.145-.173.443-.162.665.024z" clip-rule="evenodd"/>
    <path fill="#6001D2" fill-rule="evenodd" d="M27.897 5.99c.173.145.195.404.05.577l-17.881 21.31c-.145.173-.403.195-.577.05-.173-.145-.195-.403-.05-.576L27.32 6.04c.145-.173.404-.196.577-.05z" clip-rule="evenodd"/>
</svg>
