<svg xmlns="http://www.w3.org/2000/svg" width="36" height="36" fill="none" viewBox="0 0 36 36">
    <path fill="#F5F5F5" d="M18 36c9.941 0 18-8.059 18-18S27.941 0 18 0 0 8.059 0 18s8.059 18 18 18z"/>
    <path fill="#000" d="M18 27.577c1.356 0 2.455-1.099 2.455-2.455 0-1.355-1.1-2.454-2.455-2.454-1.356 0-2.454 1.099-2.454 2.454 0 1.356 1.098 2.455 2.454 2.455z"/>
    <path fill="#000" fill-rule="evenodd" d="M14.931 11.792c.288-.254.6-.472.932-.654-.132-.85.168-1.747.872-2.346 1.077-.916 2.694-.786 3.61.292.503.592.69 1.347.579 2.059.328.18.638.397.923.649.932.821 1.534 1.953 1.693 3.185.392 2.874 1.25 5.52 2.866 7.794v.002h.135c.328 0 .642.13.874.361.231.232.361.546.361.874 0 .327-.13.642-.361.873-.232.232-.546.362-.874.362H10.235c-.327 0-.642-.13-.873-.362C9.13 24.65 9 24.335 9 24.008c0-.328.13-.642.362-.874.231-.231.546-.361.873-.361h.137v-.002c1.616-2.274 2.474-4.92 2.866-7.794.16-1.232.762-2.364 1.693-3.185z" clip-rule="evenodd"/>
</svg>
