<svg xmlns="http://www.w3.org/2000/svg" width="80" height="80" fill="none" viewBox="0 0 80 80">
    <rect width="80" height="80" fill="#F5F5F5" rx="20"/>
    <path fill="#D0D0D0" d="M30.422 23.975H45.85c.406 0 .734-.383.734-.854 0-.472-.328-.854-.733-.854H30.421c-.405 0-.733.382-.733.854 0 .471.328.854.733.854zM16.625 32.324h15.427c.405 0 .734-.382.734-.854 0-.471-.329-.854-.734-.854H16.625c-.406 0-.734.383-.734.854 0 .472.328.854.734.854zM20.766 41.11c0 .472.328.854.734.854h15.427c.405 0 .734-.382.734-.854 0-.471-.329-.854-.734-.854H21.5c-.406 0-.734.383-.734.854zM29.595 51.035H15.734c-.405 0-.734.382-.734.854s.329.854.734.854h13.861c.406 0 .734-.382.734-.854s-.328-.854-.734-.854zM54.536 29.329c2.214 0 4.009-2.089 4.009-4.665S56.75 20 54.536 20c-2.215 0-4.01 2.088-4.01 4.664 0 2.576 1.795 4.665 4.01 4.665z"/>
    <path fill="#D0D0D0" d="M61.132 27.986c-2.302 3.751-5.385 4.186-8.702 1.895-.225-.156-1.227-.798-1.45-.952-5.335-3.685-10.665-2.24-14.24 3.584-1.518 2.477 1.995 4.825 3.496 2.376 2.266-3.69 5.128.471 3.403 4.443l-.726 1.676c-1.623 3.75-5.206 6.745-8.648 4.403-2.484-1.689-4.724 2.463-2.248 4.147 4.59 3.12 9.952 1.323 12.821-2.632.116-.16.334-.202.517-.128 2.298.932 5.31 3.412 6.229 4.291.917.88 2.494 5.357 3.43 7.607 1.136 2.73 4.804.742 3.664-2-1.06-2.553-2.842-7.648-4.232-8.936-.38-.353-.882-.809-1.452-1.3-1.98-1.709-2.868-4.56-1.756-6.928 1.109-2.363 3.929-3.216 6.49-3.718 2.62-.513 5.006-2.367 6.899-5.452 1.52-2.477-1.992-4.825-3.495-2.376z"/>
</svg>
