<svg xmlns="http://www.w3.org/2000/svg" width="80" height="80" fill="none" viewBox="0 0 80 80">
    <defs>
        <linearGradient id="paint0_linear" x1="40" x2="40" y1="0" y2="80" gradientUnits="userSpaceOnUse">
            <stop stop-color="#FAF6FF"/>
            <stop offset="1" stop-color="#DEC7FF"/>
        </linearGradient>
        <linearGradient id="paint1_linear" x1="54.922" x2="54.922" y1="38.047" y2="49.375" gradientUnits="userSpaceOnUse">
            <stop stop-color="#725EF6"/>
            <stop offset="1" stop-color="#6001D1"/>
        </linearGradient>
        <linearGradient id="paint2_linear" x1="38.232" x2="38.232" y1="22.422" y2="49.378" gradientUnits="userSpaceOnUse">
            <stop stop-color="#725EF6"/>
            <stop offset="1" stop-color="#6001D1"/>
        </linearGradient>
        <linearGradient id="paint3_linear" x1="46.31" x2="46.31" y1="28.679" y2="49.375" gradientUnits="userSpaceOnUse">
            <stop stop-color="#725EF6"/>
            <stop offset="1" stop-color="#6001D1"/>
        </linearGradient>
        <linearGradient id="paint4_linear" x1="25.35" x2="25.35" y1="29.134" y2="41.586" gradientUnits="userSpaceOnUse">
            <stop stop-color="#725EF6"/>
            <stop offset="1" stop-color="#6001D1"/>
        </linearGradient>
        <clipPath id="clip0">
            <path fill="#fff" d="M0 0H40V40H0z" transform="translate(20 20)"/>
        </clipPath>
    </defs>
    <rect width="80" height="80" fill="url(#paint0_linear)" rx="20"/>
    <g clip-path="url(#clip0)">
        <path fill="url(#paint1_linear)" d="M51.016 38.047c-.648 0-1.172.525-1.172 1.172v10.156h8.984c.647 0 1.172-.525 1.172-1.172v-1.172c0-4.962-4.022-8.984-8.984-8.984z"/>
        <path fill="url(#paint2_linear)" d="M45.092 35.453l-.909-2.182-1.214-.38.305-1.801-.707-1.697c-.2-.48-.693-.772-1.21-.714-1.568.174-3.109-.272-4.34-1.257-1.223-.979-1.995-2.373-2.176-3.928-.041-.358-.229-.691-.533-.886-.436-.279-.99-.238-1.377.079l-5.87 4.803c-.6.49-1.139 1.04-1.613 1.644l2.037 12.452 12.947 7.475c.367.372.966.314 1.172.314h9.412V38.047h-3.54c-.498 0-.961-.186-1.313-.506l-1.554-.51.483-1.578z"/>
        <path fill="url(#paint3_linear)" d="M47.475 38.047c-.497 0-.96-.186-1.312-.506l-1.554-.51.483-1.578-.909-2.181-1.214-.381.305-1.8-.707-1.698c-.168-.403-.542-.672-.964-.714v20.696h9.413V38.047h-3.54z"/>
        <path fill="#F2E8FF" d="M45.672 36.845l-.58-1.392-2.396 1.383c-.561.324-.753 1.04-.43 1.601.324.56 1.04.753 1.601.43l2.296-1.326c-.209-.189-.378-.425-.491-.696zM43.275 31.09l-2.922 1.687c-.56.324-.753 1.04-.43 1.6.324.561 1.041.753 1.602.43l2.66-1.536-.91-2.181z"/>
        <path fill="url(#paint4_linear)" d="M28.696 40.481c1.104-1.912 1.391-4.146.803-6.279-.571-2.075-1.958-3.83-3.81-4.926l-.24-.142c-.31.393-.591.808-.844 1.245l-3.546 6.144c-.324.56-.132 1.277.428 1.6l5.998 3.463.625-.09.586-1.015z"/>
        <path fill="#F5F5F5" d="M41.018 48.046l-19.96-11.523-.585 1.015c-.47.813-.595 1.76-.352 2.668.243.907.825 1.665 1.638 2.134l16.915 9.766c.89.513 1.902.785 2.93.785h14.88c1.939 0 3.516-1.577 3.516-3.516v-1.172H41.603c-.205 0-.407-.054-.585-.157z"/>
        <path fill="#fff" d="M26.64 57.578h-5.468c-.647 0-1.172-.525-1.172-1.172 0-.647.525-1.172 1.172-1.172h5.469c.647 0 1.172.525 1.172 1.172 0 .647-.525 1.172-1.172 1.172zM51.016 57.578H32.89c-.648 0-1.172-.525-1.172-1.172 0-.647.524-1.172 1.172-1.172h18.125c.647 0 1.172.525 1.172 1.172 0 .647-.525 1.172-1.172 1.172zM29.766 52.89h-8.594c-.647 0-1.172-.524-1.172-1.171s.525-1.172 1.172-1.172h8.594c.647 0 1.172.525 1.172 1.172 0 .647-.525 1.172-1.172 1.172z"/>
    </g>
</svg>
