<svg xmlns="http://www.w3.org/2000/svg" width="16" height="16" fill="none" viewBox="0 0 16 16">
    <path fill="#00AA7D" d="M11.471 5.862c-.26-.26-.682-.26-.942 0L7.667 8.724 6.47 7.529c-.26-.26-.682-.26-.942 0-.26.26-.26.682 0 .942l1.666 1.667c.13.13.301.195.472.195.17 0 .341-.065.471-.195l3.333-3.333c.26-.26.26-.683 0-.943z"/>
    <path fill="#00AA7D" d="M15.333 7.333c-.368 0-.666.299-.666.667 0 3.676-2.991 6.667-6.667 6.667-3.676 0-6.667-2.991-6.667-6.667 0-3.676 2.991-6.667 6.667-6.667 1.79 0 3.47.7 4.731 1.97.259.261.681.263.943.003.261-.26.262-.681.003-.943C12.164.84 10.147 0 8 0 3.589 0 0 3.589 0 8s3.589 8 8 8 8-3.589 8-8c0-.368-.299-.667-.667-.667z"/>
</svg>
