<svg xmlns="http://www.w3.org/2000/svg" width="40" height="40" fill="none" viewBox="0 0 40 40">
     <defs>
        <linearGradient id="paint0_linear" x1="18.232" x2="18.232" y1="2.422" y2="29.378" gradientUnits="userSpaceOnUse">
            <stop stop-color="#725EF6"/>
            <stop offset="1" stop-color="#6001D1"/>
        </linearGradient>
        <linearGradient id="paint1_linear" x1="26.309" x2="26.309" y1="8.679" y2="29.375" gradientUnits="userSpaceOnUse">
            <stop stop-color="#725EF6"/>
            <stop offset="1" stop-color="#6001D1"/>
        </linearGradient>
        <clipPath id="clip0">
            <path fill="#fff" d="M0 0H40V40H0z"/>
        </clipPath>
    </defs>
    <g clip-path="url(#clip0)">
        <path fill="#F2E8FF" d="M31.016 18.047c-.648 0-1.172.525-1.172 1.172v10.156h8.984c.647 0 1.172-.525 1.172-1.172v-1.172c0-4.962-4.022-8.984-8.984-8.984z"/>
        <path fill="url(#paint0_linear)" d="M25.092 15.453l-.909-2.181-1.214-.381.305-1.801-.707-1.697c-.2-.48-.693-.772-1.21-.714-1.568.174-3.109-.272-4.34-1.257-1.223-.979-1.995-2.373-2.176-3.928-.041-.358-.229-.691-.533-.886-.436-.279-.99-.238-1.377.079L7.061 7.49c-.6.49-1.139 1.04-1.613 1.644l2.037 12.452 12.947 7.475c.367.372.966.314 1.172.314h9.412V18.047h-3.54c-.498 0-.961-.187-1.313-.506l-1.554-.51.483-1.578z"/>
        <path fill="url(#paint1_linear)" d="M27.475 18.047c-.497 0-.961-.186-1.313-.506l-1.553-.51.483-1.578-.91-2.181-1.214-.381.306-1.8-.707-1.698c-.168-.403-.542-.672-.964-.714v20.696h9.412V18.047h-3.54z"/>
        <path fill="#F2E8FF" d="M25.672 16.845l-.58-1.392-2.396 1.384c-.561.323-.753 1.04-.43 1.6.324.56 1.04.753 1.601.43l2.296-1.326c-.209-.189-.378-.425-.491-.696zM23.275 11.09l-2.923 1.687c-.56.324-.752 1.04-.429 1.6.324.561 1.04.753 1.601.43l2.66-1.536-.91-2.181zM8.696 20.481c1.105-1.912 1.391-4.146.803-6.279-.571-2.075-1.958-3.83-3.81-4.926l-.24-.142c-.31.393-.591.808-.843 1.245l-3.547 6.144c-.324.56-.132 1.277.428 1.6l5.998 3.463.625-.09.586-1.015z"/>
        <path fill="#DAC0FF" d="M21.018 28.046L1.058 16.523l-.585 1.015c-.47.813-.595 1.76-.352 2.668.243.907.825 1.665 1.638 2.134l16.915 9.766c.89.513 1.902.785 2.93.785h14.88c1.939 0 3.516-1.577 3.516-3.516v-1.172H21.604c-.206 0-.408-.054-.586-.157z"/>
        <path fill="#DCDCDC" d="M6.64 37.578H1.173C.525 37.578 0 37.053 0 36.406c0-.647.525-1.172 1.172-1.172H6.64c.647 0 1.171.525 1.171 1.172 0 .647-.524 1.172-1.171 1.172zM31.016 37.578H12.89c-.648 0-1.172-.525-1.172-1.172 0-.647.524-1.172 1.172-1.172h18.125c.647 0 1.172.525 1.172 1.172 0 .647-.525 1.172-1.172 1.172zM9.766 32.89H1.172C.525 32.89 0 32.367 0 31.72s.525-1.172 1.172-1.172h8.594c.647 0 1.171.525 1.171 1.172 0 .647-.524 1.172-1.171 1.172z"/>
    </g>
</svg>
