<svg xmlns="http://www.w3.org/2000/svg" width="28" height="28" fill="none" viewBox="0 0 28 28">
    <rect width="28" height="28" fill="url(#paint0_linear)" rx="14"/>
    <g clip-path="url(#clip0)">
        <path fill="#fff" stroke="#6001D2" d="M4.333 19.833v.5H17V17.75c0-.67-.34-1.218-.8-1.643-.456-.42-1.064-.752-1.703-1.008-1.275-.51-2.797-.766-3.83-.766-1.034 0-2.555.256-3.83.766-.64.256-1.247.587-1.704 1.008-.46.425-.8.974-.8 1.643v2.083zm12.15-5.456l-1.34.114 1.089.789c.884.64 1.435 1.448 1.435 2.47v2.583h6V17.75c0-.67-.34-1.218-.8-1.643-.457-.42-1.065-.752-1.703-1.008-1.276-.51-2.797-.766-3.83-.766-.263 0-.554.018-.852.044zm.85-.71c1.662 0 2.992-1.343 2.992-3 0-1.658-1.33-3-2.992-3-1.66 0-3 1.34-3 3 0 1.659 1.34 3 3 3zm-6.666 0c1.661 0 2.991-1.343 2.991-3 0-1.658-1.33-3-2.991-3-1.66 0-3 1.34-3 3 0 1.659 1.34 3 3 3z"/>
    </g>
    <defs>
        <linearGradient id="paint0_linear" x1="14" x2="14" y1="0" y2="28" gradientUnits="userSpaceOnUse">
            <stop stop-color="#725EF6"/>
            <stop offset="1" stop-color="#6001D1"/>
        </linearGradient>
        <clipPath id="clip0">
            <path fill="#fff" d="M0 0H20V20H0z" transform="translate(4 4)"/>
        </clipPath>
    </defs>
</svg>
