<svg xmlns="http://www.w3.org/2000/svg" width="50" height="50" fill="none" viewBox="0 0 50 50">
    <path fill="#fff" d="M50 25c0 13.807-11.193 25-25 25-3.107 0-6.082-.566-8.826-1.603-.915-.345-1.805-.743-2.666-1.189-.552-.286-1.092-.593-1.62-.918-4.394-2.712-7.886-6.746-9.92-11.548C.721 31.795.022 28.558.001 25.162L0 25l.001-.161c.01-1.46.143-2.89.393-4.28C2.489 8.87 12.709 0 25 0c13.807 0 25 11.193 25 25z"/>
    <path fill="#FFA93E" d="M32.756 3.061H41.94V16.456H32.756z"/>
    <path fill="#FEBC02" d="M35.664 5.663H41.939V16.456H35.664z"/>
    <path fill="#E0E2E2" d="M41.94 17.92v25.467c-4.055 3.736-9.348 6.15-15.195 6.553-.505.034-1.017.055-1.53.058C25.143 50 25.071 50 25 50c-.442 0-.88-.011-1.318-.035-3.384-.175-6.591-1.024-9.489-2.415-.52-.25-1.03-.517-1.53-.802-.522-.296-1.033-.611-1.53-.944-1.087-.725-2.115-1.535-3.072-2.417V17.919l10.089-9.015L25 2.783l6.853 6.124L41.94 17.92z"/>
    <path fill="#CCC" d="M41.94 17.92v8.397L25 12.54 8.063 26.317V17.92l10.089-9.015L25 3.333l6.853 5.574L41.94 17.92z"/>
    <path fill="gray" d="M5.675 24.925l-4.507-5.541L25 0l23.833 19.384-4.507 5.541L25 9.207 5.675 24.925z"/>
    <path fill="#E0E2E2" d="M31.608 0H43.087V4.038H31.608z"/>
    <path fill="#CCC" d="M31.608 0H34.168V4.038H31.608z"/>
    <path fill="#fff" d="M17.157 24.7H32.845V40.388H17.157z"/>
    <path fill="#BFBFBF" fill-rule="evenodd" d="M15.626 41.919v-18.75h18.75v18.75h-18.75zm12.436-12.27h3.252V26.23h-3.252v3.418zm-9.375-3.418h6.314v12.627h-6.314V26.23zm9.375 6.479v6.148h3.252V32.71h-3.252z" clip-rule="evenodd"/>
    <path fill="#FFA93E" d="M16.174 31.418v16.979c-.915-.345-1.805-.743-2.666-1.189-.552-.286-1.092-.593-1.62-.918V31.418h4.286z"/>
    <path fill="#FEBC02" d="M16.175 36.364v12.033c-.916-.345-1.806-.743-2.667-1.189V36.364h2.667z"/>
    <path fill="#000" d="M28.062 22.007V32.02c0 1.583-1.284 2.866-2.866 2.866H2.866c-.313 0-.615-.05-.898-.144C.721 31.795.022 28.558.001 25.162v-3.155c0-.529.143-1.024.393-1.449.497-.848 1.418-1.417 2.472-1.417h22.33c1.582 0 2.866 1.283 2.866 2.866z"/>
    <path fill="#fff" fill-rule="evenodd" d="M5.919 22.532c-.043.006-.086 0-.127-.004-.025-.003-.05-.006-.073-.006l-.54-.02-.09.01h-.62l-.213-.01c-.035 0-.07.003-.107.01-.012.003-.024.009-.035.014-.017.008-.033.016-.045.016-.049 0-.101-.012-.153-.023-.033-.006-.066-.013-.097-.017-.064-.004-.129.001-.195.007-.1.008-.203.017-.305-.007-.042-.006-.083.005-.12.016-.026.007-.05.014-.07.014l-.073-.005c-.146-.01-.291-.02-.437.015-.056.008-.06.06-.066.112 0 .013-.002.026-.004.038-.03.14-.04.29-.01.44l-.02.12c-.01.045-.005.09 0 .135.005.045.01.09 0 .135l.009.722c0 .12-.002.24-.01.358l.02.14-.002.845-.017.845c-.01.18 0 .37.02.55 0 .108-.007.217-.013.325-.004.07-.008.142-.01.212l.003.433c.026.11.014.215.002.32-.006.056-.012.113-.012.17l-.009.677c0 .111.002.223.009.333 0 .072.09.092.166.098l.644.012c.043 0 .087.002.131.004.09.005.182.009.269-.004.037-.005.075 0 .112.005.053.006.105.012.158-.005l.07-.03.26-.04c.013-.013.03.007.045.025.01.011.018.021.025.025.041.027.087.017.128.008.019-.005.036-.008.052-.008.027-.007.04-.027.046-.052l.004-.038c.04-.21.04-.41.03-.61v-.19c-.025-.206-.016-.398-.006-.6l.006-.13c0-.028.003-.057.006-.087.005-.045.01-.091.004-.133-.02-.06-.01-.13 0-.2l.005-.174c.007-.056.03-.101.095-.106l.214-.025c.255-.02.518.001.666.235l.03.33c.002.056 0 .113-.01.17l.001.085.009.085c.013.046.013.093.009.137l-.01.073-.01.02c-.01.048 0 .096.01.145.007.041.016.083.01.125l-.02.09c0 .14.01.273.02.413v.027l.01.27c0 .05.03.11.06.14.037.024.074.019.113.013.025-.004.05-.007.078-.003.054.016.105.012.156.008.044-.004.088-.008.134.002l.023-.001c.026-.002.043-.003.067.02.011.006.026-.004.04-.014.01-.008.021-.015.03-.015.31.03.62.03.93 0l.11.01c.11.03.21 0 .31-.03.062-.18.055-.376.047-.57-.004-.119-.008-.237.003-.35 0-.025.005-.052.01-.079.008-.04.016-.08.01-.121-.02-.08-.036-.16-.035-.243l.027-.252-.012-.616c-.005-.083-.013-.166-.03-.25l-.03-.09c-.007-.106-.06-.188-.115-.273-.022-.034-.045-.069-.065-.106-.05-.074-.12-.118-.194-.165-.056-.036-.114-.073-.166-.125-.01-.02 0-.04.02-.05.121-.122.242-.226.372-.336l.028-.024c.068-.085.1-.185.132-.286l.018-.054c.018-.049.025-.094.033-.14.004-.029.009-.059.017-.09v-.11c-.006-.043-.001-.089.004-.134.003-.03.006-.059.006-.086 0-.117-.003-.231-.007-.346-.004-.17-.01-.34-.003-.514.01-.23.01-.48-.06-.72-.037-.137-.114-.249-.196-.366l-.024-.034c-.1-.119-.234-.204-.363-.286l-.037-.024-.1-.048-.1-.032c-.039-.009-.077-.023-.116-.037-.051-.019-.103-.038-.154-.043l-.16-.01c-.054 0-.108-.002-.162-.004-.137-.004-.275-.008-.418.014zm-.33 2.75c-.047.083-.153.106-.24.125l-.02.005c-.065.01-.125.007-.185.005-.06-.003-.12-.005-.185.005-.07.02-.15 0-.23-.03-.03-.02-.07-.07-.06-.1.01-.135.005-.27 0-.405-.005-.137-.01-.275 0-.415.015-.031.025-.062.033-.088l.007-.022c.022-.053.073-.066.126-.07h.054c.02-.01.05 0 .07.01.081.015.16.008.236.001.12-.01.234-.02.344.059.088.056.112.17.118.279l.006.304c0 .113-.014.229-.074.337zm7.36 3.255c.004.099.008.195-.003.295-.006.023-.01.049-.011.075l.001.165c.01.03.02.07.02.09-.006.036-.008.071-.01.105-.005.07-.01.138-.05.205-.025.035-.06.05-.096.058l-.104.022c-.15.04-.33.04-.48.01-.033-.007-.067-.008-.103-.007l-.217.017c-.132.01-.262.006-.394.002-.106-.003-.214-.007-.326-.002-.07.003-.142.004-.215.004l-.445-.004c-.013.003-.03.004-.048.004l-.112-.004c-.12.01-.26.01-.38.01l-.1-.02-.12.01c-.084 0-.169.007-.253.014-.136.012-.271.024-.407.006l-.021-.003c-.063-.008-.12-.016-.139-.087-.02-.091-.02-.179-.018-.268.001-.079.002-.158-.012-.242 0-.03.01-.08.02-.11.004-.017.004-.032.002-.045l-.022-.085.02-.23c-.01-.17-.01-.34 0-.49-.006-.187-.004-.369-.002-.552l.002-.278c.01-.13.02-.26 0-.39v-.052c-.003-.046-.004-.087.01-.138 0-.017 0-.03-.003-.042l-.017-.058.01-.14v-.61c0-.133.007-.265.013-.395.01-.193.02-.384.007-.575 0-.027-.002-.055-.004-.083-.005-.055-.009-.11.004-.157.023-.085.017-.172.011-.26-.005-.07-.01-.14 0-.21l.02-.45c0-.017-.002-.033-.003-.05-.002-.034-.004-.07.002-.11.012-.084.003-.164-.007-.245-.006-.054-.013-.11-.013-.165l.04-.09c.01-.04.01-.1 0-.14-.001-.013-.004-.026-.006-.038-.01-.057-.018-.11.006-.142.062-.053.146-.052.22-.05h.03c.05-.01.098-.008.145-.005.046.002.09.005.135-.005.098-.01.198-.004.299.002.116.007.234.014.351-.002l.042-.002.111-.017.127.009c.024.016.048.006.072-.004l.018-.006c.07-.01.15-.01.22 0 .01.01.02.01.03.01l.087.013.163-.023c.09-.01.18.01.27.03 0 0 .03 0 .04.01l.1-.03c.051 0 .094-.008.139-.017.025-.005.052-.01.081-.013.11-.006.219.006.328.019.09.01.181.02.272.02.007 0 .02-.014.03-.026l.01-.013c.007 0 .015 0 .024-.002.028-.001.063-.004.086.012.035.017.073.004.109-.008.026-.008.05-.017.071-.012.053.026.104.027.155.029.046 0 .094.002.145.02.034.009.032.038.03.065v.016l.007.41.013.42-.01.66c0 .05-.04.11-.1.13-.06.01-.11 0-.15-.03-.029-.006-.061.008-.095.023-.024.011-.05.022-.075.027l-.06-.002c-.064-.002-.132-.003-.2.012-.023.004-.045-.008-.067-.02-.026-.014-.05-.027-.073-.01-.033.01-.067.014-.103.015l-.277-.005c-.08.01-.17.02-.25.02l-.062.004-.028-.004c-.04-.025-.082-.03-.126-.028l-.134.018c-.06 0-.08.07-.08.11-.03.095-.037.19-.037.285l.007.285c.01.07.04.14.12.14.248.013.496.007.744 0 .322-.007.644-.014.966.02.07 0 .07.1.06.17-.01.12.01.24.04.38l-.03.11.01.19c-.003.082 0 .166.002.252.004.171.008.347-.032.528-.09.063-.196.057-.303.051-.045-.002-.091-.004-.137-.001l-.435.006-.225-.016c-.05-.01-.12-.02-.16-.01l-.137.011-.084-.003c-.064-.004-.129-.008-.199.002-.08.02-.15.06-.17.14-.059.217-.04.435-.02.662v.008l.008.054c.014.055.047.106.092.106.255.033.505.022.75.01.121-.005.241-.01.36-.01h.09c.18-.002.36-.003.54.04.07.13.08.3.06.45-.004.085 0 .166.003.245zm-.283-5.515c0-.04.02-.08.03-.07.016.026.013.056.008.087-.003.027-.007.055.002.083 0 .006-.007.004-.019.003-.008-.002-.018-.003-.03-.003.01-.04.01-.07.01-.1zm-3.17.3c.016.02.032.039.04.06.01.02.04.04.05.04l-.01-.06c-.006-.013-.015-.024-.024-.036-.02-.026-.043-.053-.036-.094-.003-.004-.006-.011-.008-.019-.005-.012-.01-.025-.022-.031-.01-.01-.02 0-.03.01 0 .01.01.02.02.02.004.006.003.01 0 .014l-.03.006c.006.034.029.062.05.09zm2.64 2.3l.01-.01c.03-.025.054-.053.076-.08.014-.017.029-.035.044-.05.038.052.003.076-.034.102-.013.009-.025.017-.036.028l-.023.022c-.008.004-.017.008-.027.008-.006-.007-.013-.014-.01-.02zm-1.439 2.633c.012.001.02.003.02-.003-.01-.028-.006-.056-.003-.083.005-.031.008-.06-.008-.087-.01-.01-.03.03-.03.07 0 .03 0 .06-.01.1.013 0 .023.001.031.003zm6.631 1.328c-.015-.007-.031-.014-.054-.031l-.007.016-.013.014c-.07 0-.12-.05-.12-.11-.02-.12-.03-.23-.03-.35v-.06c.01-.11.01-.21.01-.33 0-.067-.002-.134-.005-.2-.004-.134-.008-.267.005-.4.02-.17.02-.32.02-.49l.009-.845v-.705l-.001-.08c-.003-.054-.005-.107.002-.16l.009-.395-.01-.195v-.022c-.003-.02-.006-.047 0-.068.01-.18.01-.34 0-.52 0-.04-.01-.08-.04-.13l-.03-.062c-.068-.09-.214-.118-.34-.118l-.04-.02c-.06.02-.11.02-.17.02-.06-.01-.11 0-.17.02l-.032.007c-.033.013-.067.045-.067.083-.025.16-.028.317-.024.476l.014.484v.37l-.01.21c.01.2.01.39.01.59-.01.07-.02.14-.02.21.018.192.014.384.01.576-.002.128-.004.256 0 .384l-.02.08c.016.074.01.149.002.224-.006.065-.011.13-.002.196v.453c.004.272.008.542-.04.817-.01.03-.04.06-.07.06-.035.002-.07.007-.105.012-.084.01-.167.022-.245.008h-.37l-.033-.01c-.02-.006-.037-.01-.057-.01-.15.02-.28.02-.43.02l-.073.002-.06-.006c-.032-.003-.065-.006-.097-.006-.18.01-.35.01-.53 0-.006 0-.011-.014-.017-.026-.005-.01-.009-.02-.013-.024-.025-.182-.015-.358-.006-.537l.006-.113.007-.056.003-.134c-.01-.13-.02-.27-.01-.4v-.44l.008-.087c.01-.094.02-.192.012-.283l-.005-.165.015-.295v-.83l.02-2.38v-.85l.007-.063c.005-.044.01-.086.023-.127.005-.025 0-.045-.005-.065-.005-.02-.01-.04-.005-.065.01-.02.03-.04.05-.05.022 0 .04.005.058.011.022.007.044.014.072.009.19-.048.375-.04.563-.03.13.006.262.012.397 0 .31-.04.62-.02.93 0 .015 0 .03.005.048.012l.022.008c.013.003.028.003.042.002l.078-.012.196-.005c.382-.01.76-.02 1.144.015l.07.04c.032.005.061-.004.092-.014.027-.008.055-.016.088-.016.077.005.148.026.218.046.067.02.134.039.202.044.052.039.106.077.16.115.21.147.427.299.53.545l.014.045c.013.045.026.09.056.135.004.008.001.023-.002.038-.005.02-.01.04.002.052.02.05.04.1.05.14.04.17.04.33.04.5 0 .015.002.033.004.052.005.04.01.086-.004.128-.007.013-.009.027-.009.042l.009.088c.007.013.009.026.009.04l-.01.09c-.006.013-.008.027-.008.043l.009.097c.02.22.02.46 0 .68 0 .013.002.027.004.041.005.03.01.062-.004.089.007.003.009.008.009.015l-.01.035c0 .096.003.193.005.291.005.197.01.395-.004.589v.86l-.02.3c0 .134.002.268.003.401.004.333.008.663-.013.999l-.018.152v.066c.002.086.004.168-.082.202-.03.01-.08.01-.11.01h-.088c-.13.004-.26.007-.382-.05-.033.06-.093.057-.153.055-.03-.001-.06-.002-.087.005l-.075.008c-.03 0-.06-.005-.092-.01l-.053-.008c-.04 0-.08 0-.12.002-.08.002-.16.004-.24-.002-.015 0-.033.002-.052.005-.031.005-.067.01-.098.005l-.083.001-.047-.011c-.015-.005-.027 0-.04.004-.014.005-.03.01-.05.006-.013-.009-.024-.014-.036-.019zm5.579-7.032c-.345-.01-.68-.02-1.026-.01-.05 0-.1.002-.148.003-.097.002-.192.004-.292-.002l-.14.01c-.01.006-.02.009-.03.009l-.05-.01c-.065 0-.13 0-.194-.002-.192-.004-.38-.007-.576.023-.02.02-.04.05-.05.07-.02.22-.02.42-.01.63l-.01.36.003.223c0 .034-.003.067-.006.1-.008.118-.017.234.033.347.01.03.06.04.08.04.058 0 .116 0 .174.002.202.003.404.006.606-.032.01 0 .03.01.03.02l.02.09c.005.042.01.085.017.128.02.15.042.306.003.462l-.004.037.004.083.002.09c.002.09.003.18-.012.27 0 .061.01.127.019.192l.011.088c0 .053-.002.106-.004.159-.005.108-.009.217.004.33l-.01.12c-.006.108-.004.21-.002.311l.002.15.004.61c-.001.153-.01.306-.024.46 0 .02.01.05.02.08.006.058.002.11-.003.164-.003.04-.007.08-.007.126l-.009.34.004.17c.005.171.01.344-.005.52-.01.03-.01.06-.01.1v.04c0 .03.004.066.03.08.02.006.038.013.055.02.037.016.071.03.105.03.229.018.46.014.691.01.154-.002.307-.004.46 0 .025 0 .05-.007.075-.014.044-.01.086-.022.124.004.03.01.06.01.08.01.069-.016.14-.013.21-.01.106.005.21.01.3-.05.034-.127.032-.258.03-.388-.002-.065-.003-.13 0-.192l.001-.014c.01-.195.02-.381.01-.586-.01-.05-.01-.1-.01-.15-.02-.1-.01-.2 0-.3l.005-.268-.002-.05c-.003-.101-.006-.204.016-.312l-.01-.13c-.005-.225 0-.454.005-.685.005-.232.01-.465.005-.695v-.35-.056c-.004-.168-.008-.336.01-.504l-.01-.1-.001-.068c-.004-.128-.009-.276.101-.352.25.04.5.03.74 0 .02 0 .05-.02.05-.05-.005-.055.003-.113.01-.17.008-.058.015-.115.01-.17l-.005-.015c-.008-.023-.015-.042-.015-.075.024-.112.023-.224.021-.336v-.084l-.007-.018c-.007-.021-.014-.039-.014-.062l.02-.02c0-.05 0-.102-.002-.153-.002-.102-.004-.204.002-.297l.002-.06-.03-.176c-.007-.034-.018-.061-.052-.074l-.011-.003c-.014-.005-.034-.012-.049.003-.036.018-.063.003-.098-.014l-.012-.006c-.11-.01-.223-.006-.336-.003-.134.005-.269.009-.404-.007h-.064c-.11-.002-.219-.004-.336.03l-.1-.02h-.014z" clip-rule="evenodd"/>
</svg>
