<svg xmlns="http://www.w3.org/2000/svg" width="80" height="80" fill="none" viewBox="0 0 80 80">
    <defs>
        <linearGradient id="paint0_linear" x1="40" x2="40" y1="0" y2="80" gradientUnits="userSpaceOnUse">
            <stop stop-color="#FAF6FF"/>
            <stop offset="1" stop-color="#DEC7FF"/>
        </linearGradient>
        <linearGradient id="paint1_linear" x1="25.304" x2="25.304" y1="55.355" y2="66" gradientUnits="userSpaceOnUse">
            <stop stop-color="#725EF6"/>
            <stop offset="1" stop-color="#6001D1"/>
        </linearGradient>
        <linearGradient id="paint2_linear" x1="47.078" x2="47.078" y1="28.258" y2="45.677" gradientUnits="userSpaceOnUse">
            <stop stop-color="#725EF6"/>
            <stop offset="1" stop-color="#6001D1"/>
        </linearGradient>
        <clipPath id="clip0">
            <path fill="#fff" d="M0 0H60V60H0z" transform="translate(10 6)"/>
        </clipPath>
    </defs>

    <rect width="80" height="80" fill="url(#paint0_linear)" rx="20"/>

    <g clip-path="url(#clip0)">
        <path fill="#F2E8FF" d="M37.885 48.58h30V66H35.949V46.2l1.936 2.38zm25.161 11.614v-6.775h-8.71v6.775h8.71zm-13.548 0v-6.775h-8.71v6.775h8.71z"/>
        <path fill="#DAC0FF" d="M63.046 53.42h-8.71v6.774h8.71v-6.775zM49.498 53.42h-8.71v6.774h8.71v-6.775z"/>
        <path fill="url(#paint1_linear)" d="M28.207 55.355H22.4V66h5.807V55.355z"/>
        <path fill="#DAC0FF" d="M25.304 43.742c1.596 0 2.903 1.297 2.903 2.903 0 1.596-1.307 2.903-2.903 2.903-1.607 0-2.904-1.307-2.904-2.903 0-1.606 1.297-2.903 2.904-2.903z"/>
        <path fill="#fff" d="M35.949 46.2V66h-7.742V55.355H22.4V66h-7.742V46.19l10.645-13.093L35.95 46.2zm-7.742.445c0-1.606-1.307-2.903-2.904-2.903-1.606 0-2.903 1.297-2.903 2.903 0 1.596 1.297 2.903 2.903 2.903 1.598 0 2.904-1.307 2.904-2.903z"/>
        <path fill="#5B00E4" d="M39.454 45.677h29.398v2.904H37.884L35.95 46.2 25.304 33.097 14.658 46.19v.01l-1.935 2.38-1.575-2.903 14.156-17.419 14.15 17.42z"/>
        <path fill="#000" d="M33.589 28.258h14.516l2.36 2.903H35.95l-2.36-2.903z"/>
        <path fill="url(#paint2_linear)" d="M54.696 28.258l14.156 17.42H39.454l-14.15-17.42h8.285l2.36 2.903h14.516l-2.36-2.903h6.591z"/>
        <path fill="#FC4" d="M48.53 12.774c0 3.735-3.04 6.774-6.774 6.774-3.745 0-6.775-3.04-6.775-6.774C34.981 9.03 38.011 6 41.756 6c3.735 0 6.774 3.029 6.774 6.774z"/>
        <path fill="#E3A500" d="M41.756 6c-.673 0-1.323.1-1.938.285 2.796.83 4.841 3.418 4.841 6.49 0 3.062-2.045 5.654-4.84 6.489.614.183 1.264.284 1.937.284 3.734 0 6.774-3.04 6.774-6.774C48.53 9.03 45.491 6 41.756 6z"/>
        <path fill="#E3A500" d="M41.755 15.677c-.535 0-.968-.432-.968-.967v-3.871c0-.535.433-.968.968-.968.535 0 .968.433.968.968v3.87c0 .536-.434.968-.968.968z"/>
    </g>
</svg>
