<svg xmlns="http://www.w3.org/2000/svg" width="335" height="130" fill="none" viewBox="0 0 335 130">
    <path fill="#00D339" d="M70.212 120.559c-.192 0-.384-.119-.448-.299-.063-.239.064-.479.32-.599 2.618-.778 4.662-3.172 4.854-5.746v-1.138c-2.555.659-5.365.06-7.154-1.676-.958-.898-1.66-2.394-.958-3.591.83-1.497 3.066-1.557 4.727-.778 2.044.957 3.577 2.753 4.151 4.848.192-.119.448-.179.64-.299 2.426-1.377 3.831-4.13 3.512-6.944-.32-2.993-2.3-5.387-4.343-7.961-2.044-2.514-4.088-5.029-4.535-8.201-.51-3.532 1.405-7.243 4.663-9.04.255-.119.51-.06.638.18s.064.48-.191.599c-2.938 1.616-4.663 4.968-4.216 8.141.383 2.873 2.3 5.268 4.343 7.722 2.044 2.574 4.216 5.208 4.535 8.381.32 3.112-1.277 6.225-3.96 7.781-.32.18-.639.3-.958.419.064.479.064 1.018.064 1.497-.255 2.933-2.49 5.627-5.557 6.525 0 .119-.064.179-.127.179zm-.895-13.408c-.702 0-1.405.239-1.724.778-.447.778.064 1.855.766 2.514 1.533 1.496 4.088 1.975 6.324 1.437-.512-1.856-1.853-3.472-3.641-4.31-.511-.3-1.15-.419-1.725-.419z"/>
    <path fill="#7A1DFF" d="M6.643 85.9c-.639.3-.958.838-1.214 1.796 1.533.539 2.3 1.018 3.45 1.975.19-.658.574-1.077 1.468-1.676-1.15-.958-2.235-1.556-3.704-2.095zM335 120.859c0-.659-.128-1.018-.639-1.557-1.149.3-1.852.359-3.002.419.192.359.192.659.192.898 1.341-.06 2.172 0 3.449.24zM333.467 57.526c-1.661-1.077-2.746-1.556-4.343-1.975-.319 1.197-.256 2.035 0 2.753 1.022.06 1.724.48 2.682 1.198.256-1.018.703-1.437 1.661-1.976zM253.247 6.106c-1.597-.42-2.874-.599-4.216-.3-.383.958-.383 1.617-.127 2.395 1.66-.24 2.618-.18 4.151.3-.319-1.018-.383-1.677.192-2.395zM181.199 18.557c-.51-.24-.957-.18-1.659.12.319 1.077.383 1.736.255 2.753.511-.18.894-.12 1.723.12.128-1.137 0-1.916-.319-2.993zM59.783 69.14c-.256.179-.511.299-.894.418.575.599.894.958 1.213 1.497.447 0 .639-.12.894-.3-.191-.419-.638-1.017-1.213-1.616zM45.093 30.17c.574.24.83.538 1.15 1.077.574-.838 1.085-1.736 1.213-2.155-.384-.3-.83-.419-1.405-.538-.128.419-.384.897-.959 1.616zM218.948 72.491c-.511 0-.767.12-1.15.479.064.479.255.778.511 1.077.511-.12.894-.06 1.533.06-.384-.539-.703-.898-.894-1.616zM122.44 50.343c.638-.06 1.022-.3 1.469-.838-.192-.599-.447-1.078-.894-1.317-.703.24-1.214.24-2.172.12.766.658 1.214 1.137 1.597 2.035zM48.477 120.859c0-.3-.064-.479-.255-.838-.32.239-.575.299-.894.359 0 .299 0 .479.128.838.319-.18.638-.24 1.02-.359zM266.787 17.54c.51.119.702.239 1.021.478.128-.18.192-.24.319-.3-.319-.299-.574-.478-1.085-.658-.128.18-.255.3-.255.48zM274.579 81.95c-.128.299-.064.478.064.897.83-.24 1.852-.3 3.002-.24-.064-.299-.064-.538.064-.837-1.15-.18-1.853-.12-3.13.18zM208.856 5.926c-.32.18-.703.42-.894.838.128.3.128.54.128.838.191-.18.446-.18.829-.12-.063-.418-.063-.897-.063-1.556zM239.386 24.663c-.575-.838-1.15-1.437-1.916-1.796-.575.359-.894.658-1.15 1.137.894.479 1.342.898 1.916 1.736.256-.599.511-.898 1.15-1.077zM120.332 73.33c.255.718.51 1.137.893 1.616.384-.3.575-.599.703-.898-.319-.24-.447-.54-.575-1.018-.319.3-.574.36-1.021.3zM92.868 9.278c-.192.3-.192.48-.192.838.447-.06.703 0 .958.12.191-.24.255-.479.319-.778-.383 0-.638-.06-1.085-.18zM286.204 48.188c1.596.24 2.427.478 3.513 1.257.255-.539.51-.838.958-.958-1.086-.958-2.108-1.317-3.769-1.736-.383.479-.575.958-.702 1.437zM97.147 26.219c-.447-.3-.703-.659-1.022-1.257-.766 1.077-1.405 1.736-2.172 2.335.192.658.447.957.894 1.256.575-.359 1.406-1.197 2.3-2.334zM69.236 15.564c-1.086-.898-1.597-1.497-2.3-2.754-.639.3-1.15.659-1.405 1.257.383.838 1.086 1.796 2.172 2.933.383-.897.702-1.316 1.532-1.436zM204.896 42.441c.639.36 1.086.539 1.724.719.064-.48.064-.779-.064-1.078-.383 0-.702-.18-1.085-.419-.064.42-.191.599-.575.778zM80.349 35.916c.127-.06.319-.12.51-.06 0-.538-.063-.838-.191-1.317-.32-.06-.51 0-.639.06.256.48.32.779.32 1.317zM319.096 106.672c.256-.3.639-.539 1.214-.599-.575-1.317-1.086-2.035-1.98-3.113-.831.18-1.278.479-1.533.719 1.213.898 1.66 1.736 2.299 2.993zM194.741 0c-.703 0-1.469.12-2.108.539-.128.538-.255.898-.511 1.377.511-.12.83 0 1.341.478.256-.778.703-1.436 1.278-2.394zM1.214 41.244c.383.06.638-.06 1.021-.3-.574-.838-.894-1.855-1.213-3.112-.32.18-.575.18-1.022.18.192 1.316.447 2.035 1.214 3.232z"/>
    <path fill="#FF0E41" d="M24.654 40.209c.51.598.766 1.257.575 2.275 2.682-.36 4.343-.898 6.706-1.856 0-1.497-.32-2.275-.639-2.813-2.235 1.556-3.96 1.975-6.642 2.394z"/>
    <path fill="#FFAF00" d="M274.195 85.105c.895.778 1.916.898 3.577.658-.064-2.454.256-3.95 1.214-6.106-1.214.06-2.044-.24-3.641-1.137-.894 2.275-1.15 4.13-1.15 6.585zM292.846 38.533c.511.958 1.405 1.377 2.874 1.736.894-2.155 1.661-3.352 3.321-4.968-1.086-.3-1.724-.839-2.746-2.156-1.597 1.677-2.555 3.233-3.449 5.388z"/>
    <path fill="#FF41AA" d="M119.437 24.585c-1.085.06-1.66.18-2.554.898.447 1.617.638 2.634.702 4.31.575-.24 1.086-.299 1.469-.24-.128-1.855 0-3.052.383-4.968z"/>
    <path fill="#FFAF00" d="M66.744 25.423c-1.724 2.395-2.555 4.011-3.257 6.286 1.98.419 3.321.359 4.535 0 .127-1.497.766-2.455 1.916-3.891-1.66-.48-2.364-1.078-3.194-2.395z"/>
    <path fill="#FF41AA" d="M23.632 83.368c-.703 2.275-1.022 4.13-.511 6.046 1.597.54 2.683.54 3.96.24-.447-2.335-.32-3.712.51-5.986-1.66.419-2.682.479-3.96-.3z"/>
    <path fill="#00D339" d="M290.546 58.946c.384-.24.703-.3 1.214-.42-.639-.838-1.022-1.376-1.277-2.095-.575-.06-.831.06-1.214.24.192.538.639 1.377 1.277 2.275z"/>
    <path fill="#FF0E41" d="M302.234 107.552c-1.405.838-3.193 1.197-7.281.419-.064 1.676.383 3.113 1.597 4.909 3.066.179 4.918 0 7.728-1.078-1.277-1.197-1.66-2.214-2.044-4.25zM261.357 55.414c1.789.359 2.811.359 4.535-.54-.064-2.872.128-4.549.703-7.302-1.086.18-1.852.06-2.491-.12-.575 3.173-1.341 5.028-2.747 7.962z"/>
    <path fill="#00D339" d="M191.547 60.203c-1.405-.06-3.002.06-4.343.897-.32 1.078-.575 1.796-1.214 2.814 1.022-.24 1.661.12 2.683 1.137.511-1.616 1.533-2.993 2.874-4.848zM78.369 109.707c-.064.718.191 1.137.766 1.616.767-.119 1.341-.299 1.725-.718-.192-.778-.128-1.317.127-2.275-.894.659-1.469 1.018-2.618 1.377z"/>
    <path fill="#FF0E41" d="M168.107 33.145c1.277-1.736 1.852-2.933 2.363-4.669-1.469-.299-2.427-.24-3.321 0-.064 1.078-.575 1.796-1.405 2.874 1.277.419 1.788.838 2.363 1.795z"/>
    <path fill="#00D339" d="M236.575 55.533c-.766 1.557-1.277 2.874-1.149 4.31 1.086.54 1.852.719 2.81.599 0-1.736.256-2.754 1.15-4.25-1.278.12-2.044.06-2.811-.659z"/>
    <path fill="#FF0E41" d="M281.923 113.837c.575-.059 1.086 0 1.725.479.702-1.736.894-2.873 1.086-4.609-1.022-.539-1.661-.599-2.172-.599.319 1.796 0 2.993-.639 4.729z"/>
    <path fill="#008DF0" d="M175.26 51.044c-.639.06-1.341.18-1.852.598-.064.48-.128.838-.384 1.317.448-.12.767 0 1.278.36.128-.779.511-1.437.958-2.275z"/>
    <path fill="#00D339" d="M194.549 19.617c-1.278.3-2.747.12-5.621-1.377-.511 1.257-.575 2.455-.128 4.07 2.3.839 3.705 1.198 6.132 1.018-.575-1.257-.575-2.095-.383-3.711z"/>
    <path fill="#FFAF00" d="M33.787 75.706c.192-.718.32-1.077.83-1.496-.255-.12-.383-.3-.447-.479-.51.419-.766.838-1.021 1.616.191.18.383.3.638.36z"/>
    <path fill="#FF41AA" d="M86.544 70.678c.447.18.83.12 1.468-.06-.447-1.257-.447-2.694-.383-4.37-.51.12-.83.06-1.34-.12-.255 1.737-.255 2.754.255 4.55z"/>
    <path fill="#00D339" d="M23.632 116.711c.32.479.703 1.018 1.341 1.317.511-.12.83-.239 1.405-.239-.319-.3-.319-.599-.191-1.198-.767.18-1.533.18-2.555.12z"/>
    <path fill="#008DF0" d="M212.816 70.618c-1.342-.718-2.108-.958-3.705-.599-.703 2.275-1.277 3.592-2.491 5.627.894.12 1.469.36 1.98.719 1.214-2.454 2.299-3.771 4.216-5.747z"/>
    <path fill="#FFAF00" d="M39.983 93.904c-1.341.838-2.3 1.676-2.938 2.814.575.897 1.086 1.316 1.852 1.616.83-1.317 1.533-1.976 2.874-2.754-1.022-.419-1.533-.838-1.788-1.676z"/>
    <path fill="#00D339" d="M263.081 118.567c.192 1.317-.063 2.095-.702 3.232 2.299.12 4.662-.06 5.684-.419.064-1.018-.127-1.915-.511-3.113-1.213.419-2.427.419-4.471.3z"/>
    <path fill="#FF41AA" d="M136.555 63.914c-.575 1.317-.511 2.275.319 3.651 1.597.24 2.747.24 3.832-.299.128-1.616.767-2.634 1.917-4.25-2.172.658-3.577.958-6.068.898z"/>
    <path fill="#008DF0" d="M59.144 62.776c.383-2.334.766-3.531 2.043-5.088-.894-.419-1.405-.778-1.596-1.317-1.533 1.617-2.172 2.993-2.81 5.448.702.538 1.468.778 2.363.957z"/>
    <path fill="#FF41AA" d="M218.564 30.093c.384.479.511 1.017.384 1.796 2.107-.18 3.449-.6 5.365-1.258.064-1.137-.192-1.795-.447-2.274-1.789 1.197-3.194 1.496-5.302 1.736z"/>
    <path fill="#FFAF00" d="M264.168 95.64c-1.278-1.137-2.172-1.616-4.024-1.676-1.469 2.394-2.555 3.711-4.471 5.746 1.022.36 1.597.839 2.044 1.317 2.107-2.394 3.768-3.591 6.451-5.387z"/>
    <path fill="#008DF0" d="M246.987 74.45c1.149.538 2.363 1.077 3.832.837.703-.718 1.214-1.197 2.108-1.796-.894-.239-1.278-.718-1.661-1.915-1.022 1.197-2.427 1.916-4.279 2.873z"/>
    <path fill="#FFAF00" d="M54.354 120.542c.638-.958.894-1.616 1.15-2.514-.767-.12-1.278-.06-1.789.06 0 .598-.256.958-.703 1.556.703.12 1.022.359 1.342.898z"/>
    <path fill="#00D339" d="M108.707 37.036c-.511-.419-.894-.897-1.022-1.795-2.171.838-3.385 1.616-5.173 2.873.319 1.197.766 1.796 1.213 2.215 1.533-1.676 2.811-2.395 4.982-3.293z"/>
    <path fill="#FF41AA" d="M282.882 20.934c-.447.419-.575.778-.511 1.377.511.359.958.479 1.469.479.319-.54.702-.838 1.469-1.258-1.022-.12-1.597-.239-2.427-.598z"/>
    <path fill="#00D339" d="M18.395 126.289c.063 1.017.191 2.095.958 2.993.894.179 1.469.359 2.299.718-.192-.718 0-1.197.766-1.975-1.34-.24-2.49-.898-4.023-1.736z"/>
</svg>
