<svg xmlns="http://www.w3.org/2000/svg" width="80" height="80" fill="none" viewBox="0 0 80 80">
    <path fill="#5B00E4" d="M56.25 57.5l-2.5 2.5-1.744.597-11.765 4.025-11.827 4.045-11.705 4.005L6.25 76.25h-2.5v-2.5l2.14-5.134 3.04-7.299 3.04-7.297 3.264-7.833 2.818-6.76 3.04-7.297 1.408-3.38 2.5-2.5L36.75 38l13.498 13.498L56.25 57.5z"/>
    <path fill="#F2E8FF" d="M28.414 68.667L16.71 72.672 5.89 68.616l3.04-7.299 19.485 7.35zM52.006 60.597l-11.765 4.025L11.97 54.02l3.264-7.833 36.771 14.41zM50.249 51.498L18.052 39.426l3.04-7.296L36.75 38 50.25 51.498z"/>
    <path fill="#FC4" d="M31.25 25l5.227-5.227c.655-.655 1.023-1.543 1.023-2.47 0-.683-.2-1.352-.577-1.923-.376-.57-.912-1.018-1.54-1.287l-3.255-1.395c-2.213-.949-4.139-2.462-5.583-4.388L25 6.25l3.75-2.5c1.62 2.43 4.005 4.252 6.776 5.175l1.488.496c1.598.533 2.987 1.555 3.972 2.92.984 1.366 1.514 3.008 1.514 4.691 0 1.915-.685 3.767-1.931 5.221L35 28.75 31.25 25z"/>
    <path fill="#BED3FA" d="M48.75 18.75l-1.25-7.5 7.5 2.5-6.25 5z"/>
    <path fill="#FB5252" d="M40.966 6.22l.608-2.425 5 1.253-.608 2.425-5-1.253z"/>
    <path fill="#FC4" d="M53.055 5.194l3.75-2.501 1.387 2.08-3.75 2.5-1.387-2.08z"/>
    <path fill="#0044C2" d="M23.79 14.04l2.425-.607 1.253 4.999-2.425.607-1.253-4.999zM55 48.75l5.227-5.227c.655-.655 1.543-1.023 2.47-1.023.683 0 1.352.2 1.923.577.57.376 1.018.912 1.287 1.54l1.395 3.255c.949 2.213 2.462 4.139 4.388 5.583L73.75 55l2.5-3.75c-2.43-1.62-4.251-4.005-5.175-6.776l-.496-1.488c-.533-1.598-1.554-2.987-2.92-3.972-1.366-.984-3.008-1.514-4.691-1.514-1.915 0-3.767.685-5.221 1.931L51.25 45 55 48.75z"/>
    <path fill="#FC4" d="M65 32.5l7.5 1.25-2.5-7.5-5 6.25z"/>
    <path fill="#FB5252" d="M72.544 37.764l2.425-.608 1.253 5-2.425.607-1.253-5z"/>
    <path fill="#BED3FA" d="M72.731 25.567l2.501-3.75 2.08 1.388-2.501 3.75-2.08-1.388z"/>
    <path fill="#0044C2" d="M60.969 54.996l.607-2.425 5 1.252-.608 2.425-5-1.252z"/>
    <path fill="#FB5252" d="M40 35l4.978-5.812c1.617-1.887 3.89-3.09 6.36-3.364l.142-.016c2.118-.232 4.111-1.122 5.699-2.544 1.587-1.421 2.69-3.305 3.153-5.385.277-1.246.89-2.393 1.77-3.317.88-.923 1.997-1.59 3.229-1.925L75 10l1.25 5-6.76 1.502c-1.334.297-2.554.976-3.51 1.955-.954.979-1.603 2.215-1.867 3.557l-.035.18c-.444 2.257-1.602 4.31-3.303 5.858-1.7 1.547-3.855 2.506-6.142 2.735l-.148.015c-2.87.28-5.516 1.68-7.361 3.896-1.639 1.97-3.374 4.052-3.374 4.052L40 35z"/>
</svg>
