<svg xmlns="http://www.w3.org/2000/svg" width="44" height="44" fill="none" viewBox="0 0 44 44">
    <circle cx="22" cy="22" r="22" fill="#F2E8FF"/>
    <path fill="#fff" d="M35 13.5L14 11l-1.5 16L33 29.5l2-16z"/>
    <path fill="#fff" d="M10 16H31V33H10z"/>
    <path fill="#6001D2" d="M22.673 18.47c-1.52 0-2.754 1.252-2.754 2.794 0 1.543 1.233 2.793 2.754 2.793s2.754-1.25 2.754-2.793c0-1.543-1.233-2.793-2.754-2.793zm0 4.257c-.797 0-1.442-.655-1.442-1.463s.645-1.463 1.442-1.463c.797 0 1.443.655 1.443 1.463s-.646 1.463-1.443 1.463z"/>
    <path fill="#6001D2" d="M33.657 12.086l-17.902-2.061c-.695-.1-1.399.105-1.934.565-.536.421-.88 1.046-.951 1.73l-.328 2.726h-1.017c-1.442 0-2.524 1.297-2.524 2.76v13.6c-.036 1.395 1.05 2.556 2.425 2.593h18.1c1.442 0 2.754-1.13 2.754-2.593v-.532c.447-.088.871-.269 1.246-.532.531-.454.871-1.096.95-1.796l1.509-13.5c.154-1.466-.884-2.786-2.328-2.96zm-2.689 19.32c0 .732-.72 1.264-1.442 1.264h-18c-.652.02-1.196-.5-1.215-1.162l.001-.102v-2.46l5.082-3.791c.61-.476 1.47-.434 2.033.1l3.574 3.192c.543.462 1.226.72 1.935.731.554.007 1.099-.143 1.573-.432l6.46-3.79v6.45zm0-8.014l-7.147 4.223c-.614.37-1.39.302-1.935-.166l-3.606-3.225c-1.034-.901-2.545-.957-3.64-.134l-4.328 3.193v-9.477c0-.732.492-1.43 1.213-1.43h18c.771.032 1.394.65 1.443 1.43v5.586zm3.707-8.526l-.002.014-1.54 13.5c.002.35-.155.682-.427.898-.131.133-.426.2-.426.266V17.806c-.052-1.515-1.26-2.726-2.754-2.76H13.853l.296-2.594c.064-.336.237-.64.491-.864.288-.202.636-.296.984-.266l17.87 2.095c.72.069 1.25.718 1.18 1.45z"/>
</svg>
