<svg width="24" height="24" fill="none" xmlns="http://www.w3.org/2000/svg">
    <g clip-path="url(#a)">
        <path d="M21.414 0H2.586A2.589 2.589 0 0 0 0 2.586v13.792a2.589 2.589 0 0 0 2.586 2.586h5.967l1.976 3.953C10.873 23.605 11.41 24 12 24c.59 0 1.127-.395 1.47-1.083l1.977-3.953h5.967A2.589 2.589 0 0 0 24 16.378V2.586A2.589 2.589 0 0 0 21.414 0zm1.18 16.378c0 .65-.53 1.18-1.18 1.18h-6.401c-.267 0-.51.15-.63.389l-2.17 4.34a.856.856 0 0 1-.213.295.856.856 0 0 1-.213-.294l-2.17-4.341a.703.703 0 0 0-.63-.389H2.587c-.65 0-1.18-.53-1.18-1.18V2.586c0-.65.53-1.18 1.18-1.18h18.828c.65 0 1.18.53 1.18 1.18v13.792z" fill="#000"/>
    </g>
    <defs>
        <clipPath id="a">
            <path fill="#fff" d="M0 0h24v24H0z"/>
        </clipPath>
    </defs>
</svg>
