<svg xmlns="http://www.w3.org/2000/svg" width="60" height="60" fill="none" viewBox="0 0 60 60">
    <defs>
        <linearGradient id="paint0_linear" x1="30" x2="30" y1="1.875" y2="58.125" gradientUnits="userSpaceOnUse">
            <stop stop-color="#FAF6FF"/>
            <stop offset="1" stop-color="#DEC7FF"/>
        </linearGradient>
    </defs>
    <path fill="url(#paint0_linear)" d="M29.883 1.875C13.405 1.875 0 13.703 0 28.242c0 6.142 2.43 12.094 6.854 16.811.876 3.61-.187 7.435-2.823 10.071-1.103 1.103-.323 3.001 1.242 3.001 5.01 0 9.838-1.962 13.426-5.423 3.55 1.267 7.306 1.907 11.184 1.907C46.36 54.61 60 42.782 60 28.242c0-14.54-13.64-26.367-30.117-26.367zm-13.828 31.64c-2.908 0-5.274-2.365-5.274-5.273 0-2.908 2.366-5.273 5.274-5.273s5.273 2.365 5.273 5.273c0 2.908-2.365 5.274-5.273 5.274zm14.062 0c-2.908 0-5.273-2.365-5.273-5.273 0-2.908 2.365-5.273 5.273-5.273 2.908 0 5.274 2.365 5.274 5.273 0 2.908-2.366 5.274-5.274 5.274zm14.063 0c-2.908 0-5.274-2.365-5.274-5.273 0-2.908 2.366-5.273 5.274-5.273s5.273 2.365 5.273 5.273c0 2.908-2.365 5.274-5.273 5.274z"/>
</svg>
