<svg width="24" height="24" fill="none" xmlns="http://www.w3.org/2000/svg">
    <path d="M1 10.5h4.5V22H1V10.5z" fill="#6001D2"/>
    <path d="M10.5 7V1.5l4 1 .5 6 8 1.5-1 10-2.5 2.5L8 23l-2-2-.5-10 5-4z" fill="#F2E8FF"/>
    <path d="M20.616 7.97h-4.94V4.58c0-1.625-.486-2.805-1.445-3.505C12.722-.032 10.67.59 10.582.619a.842.842 0 0 0-.587.803v4.09c0 3.026-3.56 4.078-3.712 4.118-.01.005-.02.005-.025.01l-.406.127a2.541 2.541 0 0 0-1.753-.7H2.556A2.55 2.55 0 0 0 0 11.616v8.796a2.558 2.558 0 0 0 2.556 2.556H4.1a2.53 2.53 0 0 0 1.699-.651 3.522 3.522 0 0 0 2.698 1.263h10.01c2.32 0 3.863-1.273 4.133-3.403l1.244-7.811.068-.421a3.393 3.393 0 0 0-3.335-3.976zM4.976 20.418a.876.876 0 0 1-.877.876H2.556a.876.876 0 0 1-.876-.876v-8.8c0-.485.391-.877.876-.877H4.1c.485 0 .876.392.876.877v8.8zm17.315-8.732-1.312 8.247c0 .01-.005.02-.005.03-.06.48-.235 1.943-2.468 1.943H8.496a1.845 1.845 0 0 1-1.841-1.841v-8.447c0-.113-.01-.226-.025-.338l.123-.04c.357-.102 4.921-1.503 4.921-5.734V2.113c.485-.05 1.122-.015 1.567.318.5.372.755 1.092.755 2.15v4.23c0 .466.377.843.842.843h5.778c.94 0 1.7.764 1.7 1.7 0 .107-.01.22-.025.332z" fill="#6001D2"/>
</svg>
