<svg xmlns="http://www.w3.org/2000/svg" width="44" height="44" fill="none" viewBox="0 0 44 44">
    <path fill="#23C99D" d="M37.784 41.412L20.478 32.25c-.45-.239-1-.206-1.427.083L5.818 41.495c-.495.344-.71.968-.528 1.543.176.569.71.962 1.309.962h30.539c.63 0 1.182-.429 1.333-1.045.154-.613-.132-1.248-.687-1.543z"/>
    <path fill="#6001D2" d="M34 17.465c-.181-.575-.712-.965-1.315-.965H7.267c-.643 0-1.201.448-1.342 1.078L1.303 38.376c-.121.553.107 1.122.574 1.439.231.156.5.233.768.233.275 0 .547-.08.783-.245l30.039-20.798c.497-.34.709-.965.533-1.54z"/>
    <path fill="#23C99D" d="M39.505 20.477c-.099-.449-.415-.814-.841-.982-.429-.168-.91-.11-1.284.148l-13.236 9.163c-.396.275-.619.735-.588 1.21.027.482.305.91.728 1.133l17.303 9.163c.204.108.424.163.644.163.294 0 .588-.094.833-.284.426-.324.627-.866.511-1.391l-4.07-18.323z"/>
    <path fill="#FB5252" d="M10.017 0C4.71 0 .392 4.317.392 9.625c0 4.939 7.722 13.687 8.602 14.669.262.288.633.456 1.023.456.39 0 .762-.168 1.023-.456.88-.982 8.602-9.73 8.602-14.669C19.642 4.317 15.325 0 10.017 0z"/>
    <path fill="#FAFAFA" d="M10.017 13.75c2.279 0 4.125-1.847 4.125-4.125S12.296 5.5 10.017 5.5c-2.278 0-4.125 1.847-4.125 4.125s1.847 4.125 4.125 4.125z"/>
</svg>
