<svg xmlns="http://www.w3.org/2000/svg" width="80" height="80" fill="none" viewBox="0 0 80 80">
    <g opacity=".5">
        <path fill="#fff" d="M0 0H80V80H0z"/>
        <path fill="#D0D0D0" d="M9.984 24.745c0-.8.425-1.54 1.117-1.941l27.2-15.766c.696-.403 1.554-.402 2.249.004l27.016 15.76c.689.402 1.112 1.14 1.112 1.939V56.1c0 .799-.423 1.537-1.112 1.938L40.55 73.8c-.695.406-1.553.407-2.249.004l-27.2-15.766c-.692-.4-1.117-1.14-1.117-1.94V24.744z"/>
        <path fill="#fff" d="M33.654 42.712V33.01H28.4c0 2.022-1.96 2.022-4.042 2.022v4.446c1.475 0 2.566 0 4.102-1.354l-.04 4.587h-4.062v4.447h13.339V42.71h-4.043zM46.72 47.36c5.598 0 8.285-2.385 8.285-7.296 0-4.891-2.688-7.256-8.286-7.256-5.618 0-8.286 2.345-8.286 7.256 0 4.931 2.668 7.296 8.286 7.296zm0-4.446c-2.487 0-3.032-1.334-3.032-2.85 0-1.496.525-2.81 3.031-2.81 2.506 0 3.032 1.335 3.032 2.81 0 1.495-.546 2.85-3.032 2.85z"/>
        <path fill="#fff" d="M65.428 25.752v30.296L39.235 71.196 13.233 56.048V25.752l26.193-15.147 26.002 15.147zM14.38 55.282l24.854 14.38 24.855-14.38V26.327L39.235 11.947l-24.854 14.38v28.954z"/>
        <path fill="#fff" d="M41.147 25.753l-1.72-.959-1.913.959.383-2.11-1.338-1.342 1.912-.383.955-1.726.765 1.726 2.103.383-1.53 1.343.383 2.109zM31.205 27.286l-1.338-.575-1.339.575.192-1.534-.956-.958 1.338-.192.765-1.342.764 1.342 1.339.192-.956.959.19 1.533zM50.133 27.286l-1.338-.575-1.339.575.192-1.534-.956-.958 1.53-.192.573-1.342.764 1.342 1.53.192-1.147.959.191 1.533zM56.442 28.629l-.956-.384-.956.384.19-.96-.764-.766.956-.192.574-.959.382.96 1.147.19-.765.768.192.959zM24.131 28.629l-.956-.384-.956.384.191-.96-.765-.766 1.148-.192.382-.959.574.96.956.19-.765.768.191.959z"/>
        <path fill="#D0D0D0" d="M13.757 70.446c.028.308-.2.58-.507.609l-5.752.524c-1.765.161-3.53.322-5.294.596-.439.068-.79-.37-.62-.78l2.352-5.661c.075-.18.05-.387-.064-.545-1.25-1.71-2.5-3.298-3.749-4.868-.28-.35-.055-.874.39-.922 1.9-.205 3.705-.504 5.647-.667 2.108-.176 4.055-.352 6.137-.528.307-.026.577.2.604.507.175 1.954.35 4.04.524 5.965 0 1.75.16 3.819.332 5.77zM66.243 70.446c-.028.308.2.58.507.609l5.752.524c1.765.161 3.53.322 5.294.596.439.068.79-.37.62-.78l-2.352-5.661c-.075-.18-.05-.387.064-.545 1.25-1.71 2.5-3.298 3.749-4.868.279-.35.055-.874-.39-.922-1.9-.205-3.705-.504-5.647-.667-2.108-.176-4.055-.352-6.138-.528-.306-.026-.576.2-.603.507-.175 1.954-.35 4.04-.524 5.965 0 1.75-.16 3.819-.332 5.77z"/>
        <path fill="#B5B5B5" d="M66.256 70.419l4.87-2.972-3.022-2.77-1.624 2.49-.224 3.252zM13.744 70.475l-5.318-3.091 3.525-2.685 1.513 2.411.28 3.365z" opacity=".6"/>
        <path fill="#D0D0D0" d="M72.48 65.346c-.124 1.252-1.26 2.147-2.506 1.997-20.081-2.415-40.47-2.418-60.552-.01-1.278.154-2.43-.79-2.534-2.075-.31-3.811-.689-7.538-.995-11.353-.096-1.19.766-2.24 1.95-2.377 21.157-2.459 42.472-2.459 63.629 0 1.184.137 2.045 1.187 1.958 2.377-.28 3.845-.572 7.6-.95 11.441z"/>
        <path fill="#fff" d="M19.633 57.676c0 2.054 1.111 3.04 3.705 3.04 2.366 0 3.587-.834 3.68-2.703h-2.24c-.084.564-.514.85-1.44.85-1.288 0-1.516-.556-1.516-1.187 0-.623.22-1.17 1.516-1.17.926 0 1.356.277 1.44.833h2.24c-.093-1.861-1.322-2.686-3.68-2.686-2.594 0-3.705.976-3.705 3.023zM30.647 55.495c-.935 0-2.03.185-3.04.513l.657 1.432c.926-.202 1.667-.261 2.316-.261.673 0 1.313.025 1.313.631-.463-.168-1.002-.26-1.71-.26-1.473 0-2.989.345-2.989 1.658 0 1.095 1.01 1.508 2.165 1.508.875 0 1.751-.127 2.534-.7v.616h2.021V58.13c-.017-1.928-1.196-2.635-3.267-2.635zm1.246 3.486c-.505.219-1.246.387-1.928.387-.514 0-.75-.042-.75-.32 0-.32.405-.404 1.34-.404.58 0 1.018.042 1.338.126v.211zm.388-3.747v-1.18l-1.743-.673-1.744.674v1.179l1.744-.674 1.743.674zM38.723 55.579l-1.406 3.511-1.465-3.511h-2.19l2.105 5.053h.927l-.842 2.105h2.189l2.872-7.158h-2.19zM44.788 58.551c0 1.752 1.348 2.165 3.765 2.165 2.416 0 3.764-.413 3.764-2.038 0-1.541-1.44-1.701-3.764-1.794-1.28-.05-1.49-.042-1.49-.27 0-.227.21-.277 1.237-.277 1.07 0 1.575.067 1.575.379h2.19c0-1.508-1.298-2.063-3.597-2.063-2.324 0-3.595.555-3.595 1.852 0 1.373 1.019 1.81 3.68 1.895 1.38.042 1.574.076 1.574.328 0 .22-.193.303-1.49.303-1.39 0-1.66-.193-1.66-.48h-2.189zM57.067 53.465l1.743-.674v-1.178l-1.743.673v1.18zm.766 1.769v-1.18l-1.743-.673-1.743.674v1.179l1.743-.674 1.743.674zm-1.743.26c-2.147 0-3.436.742-3.436 2.611 0 1.87 1.289 2.61 3.436 2.61 2.147 0 3.436-.74 3.436-2.61 0-1.87-1.289-2.61-3.436-2.61zm0 3.538c-.901 0-1.415-.186-1.415-.927 0-.74.514-.926 1.415-.926s1.415.185 1.415.926c0 .741-.514.927-1.415.927z"/>
    </g>
</svg>
