<svg xmlns="http://www.w3.org/2000/svg" width="80" height="80" fill="none" viewBox="0 0 80 80">
    <rect width="80" height="80" fill="#F5F5F5" rx="20"/>
    <path fill="#9E9E9E" d="M65.625 58.125h-7.5c-1.035 0-1.875-.84-1.875-1.875 0-1.035.84-1.875 1.875-1.875h7.5c1.035 0 1.875.84 1.875 1.875 0 1.035-.84 1.875-1.875 1.875zM50.625 58.125h-7.5c-1.035 0-1.875-.84-1.875-1.875 0-1.035.84-1.875 1.875-1.875h7.5c1.035 0 1.875.84 1.875 1.875 0 1.035-.84 1.875-1.875 1.875zM35.625 58.125h-7.5c-1.035 0-1.875-.84-1.875-1.875 0-1.035.84-1.875 1.875-1.875h7.5c1.035 0 1.875.84 1.875 1.875 0 1.035-.84 1.875-1.875 1.875zM20.625 58.125h-7.5c-1.035 0-1.875-.84-1.875-1.875 0-1.035.84-1.875 1.875-1.875h7.5c1.035 0 1.875.84 1.875 1.875 0 1.035-.84 1.875-1.875 1.875z"/>
    <path fill="#F44336" d="M33.125 45.625c-.64 0-1.28-.245-1.768-.733-.977-.977-.977-2.557 0-3.535l13.75-13.75c.978-.977 2.558-.977 3.535 0 .978.978.978 2.558 0 3.535l-13.75 13.75c-.487.488-1.127.733-1.767.733z"/>
    <path fill="#F44336" d="M46.875 45.625c-.64 0-1.28-.245-1.768-.733l-13.75-13.75c-.977-.977-.977-2.557 0-3.535.978-.977 2.558-.977 3.535 0l13.75 13.75c.978.978.978 2.558 0 3.535-.487.488-1.127.733-1.767.733z"/>
</svg>
