<svg xmlns="http://www.w3.org/2000/svg" width="24" height="16" fill="none" viewBox="0 0 24 16">
    <path fill="#fff" d="M7.403 1.59h7.405c.195 0 .352-.153.352-.342 0-.188-.157-.341-.352-.341H7.403c-.195 0-.352.153-.352.341 0 .189.157.342.352.342zM.78 4.93h7.405c.195 0 .352-.153.352-.342 0-.189-.157-.341-.352-.341H.78c-.195 0-.352.152-.352.341 0 .189.157.342.352.342zM2.768 8.444c0 .189.158.342.352.342h7.405c.195 0 .352-.153.352-.342 0-.189-.157-.341-.352-.341H3.12c-.194 0-.352.152-.352.341zM7.006 12.414H.352c-.194 0-.352.153-.352.341 0 .189.158.342.352.342h6.654c.194 0 .352-.153.352-.342 0-.188-.158-.341-.352-.341zM18.978 3.731c1.062 0 1.924-.835 1.924-1.865S20.04 0 18.978 0c-1.063 0-1.925.835-1.925 1.866 0 1.03.862 1.865 1.925 1.865z"/>
    <path fill="#fff" d="M22.143 3.194c-1.105 1.5-2.584 1.675-4.177.758-.108-.062-.589-.319-.695-.38-2.562-1.475-5.12-.896-6.836 1.433-.729.99.957 1.93 1.678.95.887-1.203 2.014-1.551 3.247-1.17-.631 1.062-1.183 2.118-1.962 3.618-.779 1.5-2.499 2.698-4.151 1.761-1.193-.675-2.268.986-1.08 1.66 2.257 1.277 4.902.492 6.252-1.17.047.025.097.047.151.065 1.103.373 2.55 1.365 2.99 1.717.44.351 1.197 2.142 1.647 3.042.545 1.092 2.306.297 1.759-.8-.51-1.02-1.365-3.059-2.032-3.574-.535-.414-1.574-1.183-2.455-1.62.596-1.12 1.217-2.227 1.87-3.315 2.083.619 4.062-.11 5.472-2.024.73-.991-.956-1.93-1.678-.95z"/>
</svg>
