<svg width="16" height="16" fill="none" xmlns="http://www.w3.org/2000/svg">
    <path d="M11.47 5.862a.666.666 0 0 0-.942 0L7.666 8.724 6.471 7.529a.667.667 0 1 0-.943.942l1.667 1.667a.664.664 0 0 0 .943 0l3.333-3.333a.666.666 0 0 0 0-.943z" fill="#00AA7D"/>
    <path d="M15.333 7.333a.667.667 0 0 0-.666.667A6.674 6.674 0 0 1 8 14.667 6.674 6.674 0 0 1 1.333 8 6.674 6.674 0 0 1 8 1.333c1.79 0 3.47.7 4.731 1.97a.666.666 0 1 0 .946-.94A7.946 7.946 0 0 0 8 0C3.589 0 0 3.589 0 8s3.589 8 8 8 8-3.589 8-8a.667.667 0 0 0-.667-.667z" fill="#00AA7D"/>
</svg>
