<svg xmlns="http://www.w3.org/2000/svg" width="24" height="24" fill="none" viewBox="0 0 24 24">
    <defs>
        <linearGradient id="paint0_linear" x1="10.939" x2="10.939" y1="1.453" y2="17.627" gradientUnits="userSpaceOnUse">
            <stop stop-color="#725EF6"/>
            <stop offset="1" stop-color="#6001D1"/>
        </linearGradient>
        <linearGradient id="paint1_linear" x1="15.786" x2="15.786" y1="5.207" y2="17.625" gradientUnits="userSpaceOnUse">
            <stop stop-color="#725EF6"/>
            <stop offset="1" stop-color="#6001D1"/>
        </linearGradient>
        <clipPath id="clip0">
            <path fill="#fff" d="M0 0H24V24H0z"/>
        </clipPath>
    </defs>
    <g clip-path="url(#clip0)">
        <path fill="#F2E8FF" d="M18.61 10.828c-.389 0-.704.315-.704.703v6.094h5.39c.39 0 .704-.315.704-.703v-.703c0-2.977-2.413-5.39-5.39-5.39z"/>
        <path fill="url(#paint0_linear)" d="M15.055 9.272l-.545-1.31-.729-.228.183-1.08-.424-1.018c-.12-.289-.416-.463-.726-.429-.94.105-1.865-.163-2.604-.754-.734-.587-1.197-1.423-1.305-2.356-.025-.216-.138-.415-.32-.532-.262-.167-.594-.143-.827.047L4.236 4.494c-.36.294-.683.624-.967.986l1.222 7.472 7.768 4.485c.22.223.58.188.703.188h5.647v-6.797h-2.124c-.298 0-.576-.112-.787-.303l-.933-.306.29-.947z"/>
        <path fill="url(#paint1_linear)" d="M16.485 10.828c-.298 0-.576-.112-.788-.303l-.932-.306.29-.947-.545-1.309-.729-.229.183-1.08-.424-1.018c-.1-.242-.325-.403-.578-.429v12.418h5.647v-6.797h-2.124z"/>
        <path fill="#F2E8FF" d="M15.403 10.107l-.348-.835-1.438.83c-.336.194-.451.624-.257.96.194.337.624.452.96.258l1.377-.795c-.124-.114-.226-.255-.294-.418zM13.964 6.654l-1.753 1.012c-.336.194-.452.624-.257.96.194.337.624.452.96.258l1.596-.921-.546-1.31zM5.218 12.289C5.88 11.14 6.052 9.8 5.7 8.52c-.343-1.245-1.175-2.298-2.287-2.956L3.27 5.48c-.185.236-.354.485-.506.747L.635 9.914c-.194.336-.079.766.257.96l3.6 2.078.374-.054.352-.61z"/>
        <path fill="#DAC0FF" d="M12.61 16.828L.636 9.914l-.351.609c-.282.488-.357 1.056-.211 1.6.146.545.495 1 .983 1.281l10.148 5.86c.534.308 1.142.47 1.758.47h8.929c1.163 0 2.109-.946 2.109-2.109v-.703H12.962c-.123 0-.245-.032-.351-.094z"/>
        <path fill="#DCDCDC" d="M3.984 22.547H.704c-.39 0-.704-.315-.704-.703 0-.389.315-.703.703-.703h3.281c.389 0 .704.314.704.703 0 .388-.315.703-.704.703zM18.61 22.547H7.733c-.388 0-.703-.315-.703-.703 0-.389.315-.703.703-.703H18.61c.389 0 .703.314.703.703 0 .388-.314.703-.703.703zM5.86 19.734H.702c-.388 0-.703-.314-.703-.703 0-.388.315-.703.703-.703H5.86c.389 0 .704.315.704.703 0 .389-.315.703-.704.703z"/>
    </g>
</svg>
