<svg xmlns="http://www.w3.org/2000/svg" width="20" height="20" fill="none" viewBox="0 0 20 20">
    <path fill="#DAC0FF" d="M9.55 3.84c1.06 0 1.92-.86 1.92-1.92S10.61 0 9.55 0 7.63.86 7.63 1.92s.86 1.92 1.92 1.92zM14.834 8.592c-1.582-.915-2.88-2.152-3.971-3.606-.687-.966-2.501-.915-3.238-.03-1.122 1.09-2.074 2.215-2.829 3.34-.308.462-.186 1.085.275 1.394.172.115.366.17.558.17.324 0 .642-.156.835-.445.332-.494.707-.989 1.124-1.482-.016 1.043.036 2.925.062 3.771.009.282-.055.557-.186.808-1.035 1.976-1.697 3.847-2.37 6.135-.164.559.156 1.145.714 1.31.127.037.254.05.378.04.425-.033.804-.322.932-.755.62-2.11 1.22-3.818 2.154-5.627.047.002.095.002.143 0l1.792 5.343c.434 1.298 2.448.623 2.012-.675-.653-1.947-1.305-3.892-1.956-5.839-.038-.112-.13-.55-.142-.692-.108-1.2-.147-2.395-.135-3.592.916.878 1.932 1.64 3.061 2.294 1.126.653 1.897-1.218.787-1.862z"/>
</svg>
