<svg xmlns="http://www.w3.org/2000/svg" width="20" height="20" fill="none" viewBox="0 0 20 20">
    <path fill="#DAC0FF" d="M9.96.625C4.469.625 0 4.567 0 9.415c0 2.046.81 4.03 2.285 5.603.292 1.203-.063 2.478-.941 3.357-.368.367-.108 1 .414 1 1.67 0 3.28-.654 4.475-1.808 1.183.423 2.435.636 3.728.636C15.453 18.203 20 14.261 20 9.414 20 4.568 15.454.625 9.96.625zM5.353 11.172c-.97 0-1.758-.789-1.758-1.758 0-.97.788-1.758 1.758-1.758.969 0 1.757.789 1.757 1.758 0 .97-.788 1.758-1.757 1.758zm4.687 0c-.97 0-1.758-.789-1.758-1.758 0-.97.789-1.758 1.758-1.758.97 0 1.758.789 1.758 1.758 0 .97-.789 1.758-1.758 1.758zm4.688 0c-.97 0-1.758-.789-1.758-1.758 0-.97.788-1.758 1.758-1.758.969 0 1.757.789 1.757 1.758 0 .97-.788 1.758-1.757 1.758z"/>
</svg>
