<svg xmlns="http://www.w3.org/2000/svg" width="89" height="93" fill="none" viewBox="0 0 89 93">
    <defs>
        <linearGradient id="paint0_linear" x1="44.331" x2="44.331" y1="6.737" y2="74.105" gradientUnits="userSpaceOnUse">
            <stop stop-color="#725EF6"/>
            <stop offset="1" stop-color="#6001D1"/>
        </linearGradient>
        <linearGradient id="paint1_linear" x1="11.88" x2="11.88" y1="58.202" y2="72.182" gradientUnits="userSpaceOnUse">
            <stop stop-color="#725EF6"/>
            <stop offset="1" stop-color="#6001D1"/>
        </linearGradient>
        <linearGradient id="paint2_linear" x1="78.12" x2="78.12" y1="58.202" y2="72.182" gradientUnits="userSpaceOnUse">
            <stop stop-color="#725EF6"/>
            <stop offset="1" stop-color="#6001D1"/>
        </linearGradient>
        <linearGradient id="paint3_linear" x1="44.661" x2="44.661" y1="49.684" y2="67.359" gradientUnits="userSpaceOnUse">
            <stop stop-color="#725EF6"/>
            <stop offset="1" stop-color="#6001D1"/>
        </linearGradient>
        <filter id="filter0_d" width="78.695" height="87.368" x="4.984" y="4.737" color-interpolation-filters="sRGB" filterUnits="userSpaceOnUse">
            <feFlood flood-opacity="0" result="BackgroundImageFix"/>
            <feColorMatrix in="SourceAlpha" values="0 0 0 0 0 0 0 0 0 0 0 0 0 0 0 0 0 0 127 0"/>
            <feOffset dy="8"/>
            <feGaussianBlur stdDeviation="5"/>
            <feColorMatrix values="0 0 0 0 0 0 0 0 0 0 0 0 0 0 0 0 0 0 0.1 0"/>
            <feBlend in2="BackgroundImageFix" result="effect1_dropShadow"/>
            <feBlend in="SourceGraphic" in2="effect1_dropShadow" result="shape"/>
        </filter>
        <filter id="filter1_d" width="87.551" height="37.675" x=".885" y="41.684" color-interpolation-filters="sRGB" filterUnits="userSpaceOnUse">
            <feFlood flood-opacity="0" result="BackgroundImageFix"/>
            <feColorMatrix in="SourceAlpha" values="0 0 0 0 0 0 0 0 0 0 0 0 0 0 0 0 0 0 127 0"/>
            <feOffset dy="2"/>
            <feGaussianBlur stdDeviation="5"/>
            <feColorMatrix values="0 0 0 0 0 0 0 0 0 0 0 0 0 0 0 0 0 0 0.1 0"/>
            <feBlend in2="BackgroundImageFix" result="effect1_dropShadow"/>
            <feBlend in="SourceGraphic" in2="effect1_dropShadow" result="shape"/>
        </filter>
    </defs>
    <g filter="url(#filter0_d)">
        <path fill="url(#paint0_linear)" d="M14.984 24.745c0-.8.426-1.54 1.117-1.941l27.2-15.766c.696-.403 1.554-.402 2.25.004l27.015 15.76c.689.402 1.112 1.14 1.112 1.939V56.1c0 .799-.423 1.537-1.112 1.938L45.55 73.8c-.695.406-1.553.407-2.249.004l-27.2-15.766c-.691-.4-1.117-1.14-1.117-1.94V24.744z"/>
    </g>
    <path fill="#fff" d="M37.6 42.6V33h-5.2c0 2-1.94 2-4 2v4.4c1.46 0 2.54 0 4.06-1.34l-.04 4.54H28.4V47h13.2v-4.4h-4zM60.564 35h-7.4l-5.64 4.28V31h-4.8v16h4.8v-2.46l2.82-2.06 4.02 4.52h6.2l-6.56-7.02 6.56-4.98z"/>
    <path fill="#fff" d="M70.428 25.752v30.296L44.235 71.196 18.234 56.048V25.752l26.192-15.147 26.002 15.147zm-51.047 29.53l24.854 14.38 24.855-14.38V26.327L44.235 11.947l-24.854 14.38v28.954z"/>
    <path fill="#fff" d="M46.147 25.753l-1.72-.959-1.913.959.383-2.11-1.338-1.342 1.912-.383.955-1.726.765 1.726 2.103.383-1.53 1.343.383 2.109zM36.205 27.286l-1.338-.575-1.339.575.192-1.534-.956-.958 1.338-.192.765-1.342.765 1.342 1.338.192-.956.959.191 1.533zM55.133 27.286l-1.338-.575-1.339.575.192-1.534-.956-.958 1.53-.192.573-1.342.764 1.342 1.53.192-1.147.959.191 1.533zM61.442 28.629l-.956-.384-.956.384.191-.96-.765-.766.956-.192.574-.959.382.96 1.147.19-.764.768.19.959zM29.131 28.629l-.956-.384-.956.384.191-.96-.765-.766 1.148-.192.382-.959.574.96.956.19-.765.768.191.959z"/>
    <path fill="url(#paint1_linear)" d="M18.757 70.446c.028.308-.2.58-.507.609l-5.752.524c-1.765.161-3.53.322-5.294.596-.439.068-.79-.37-.62-.78l2.352-5.661c.075-.18.05-.387-.064-.545-1.25-1.71-2.5-3.298-3.749-4.868-.28-.35-.055-.874.39-.922 1.9-.205 3.705-.504 5.647-.667 2.108-.176 4.055-.352 6.137-.528.307-.026.577.2.604.507.175 1.954.35 4.04.524 5.965 0 1.75.16 3.819.332 5.77z"/>
    <path fill="url(#paint2_linear)" d="M71.243 70.446c-.028.308.2.58.507.609l5.752.524c1.765.161 3.53.322 5.294.596.439.068.79-.37.62-.78l-2.352-5.661c-.075-.18-.05-.387.064-.545 1.25-1.71 2.5-3.298 3.749-4.868.279-.35.055-.874-.39-.922-1.9-.205-3.705-.504-5.647-.667-2.108-.176-4.055-.352-6.138-.528-.306-.026-.576.2-.603.507-.175 1.954-.35 4.04-.524 5.965 0 1.75-.16 3.819-.332 5.77z"/>
    <path fill="#5B00E4" d="M71.256 70.419l4.87-2.972-3.022-2.77-1.624 2.49-.224 3.252zM18.744 70.475l-5.319-3.091 3.526-2.685 1.513 2.411.28 3.365z" opacity=".6"/>
    <g filter="url(#filter1_d)">
        <path fill="url(#paint3_linear)" d="M77.48 65.346c-.124 1.252-1.26 2.147-2.506 1.997-20.081-2.415-40.47-2.418-60.552-.01-1.278.154-2.43-.79-2.534-2.075-.31-3.811-.689-7.538-.995-11.353-.096-1.19.766-2.24 1.95-2.377 21.157-2.459 42.472-2.459 63.629 0 1.184.137 2.045 1.187 1.958 2.377-.28 3.845-.572 7.6-.95 11.441z"/>
    </g>
    <path fill="#fff" d="M24.633 57.676c0 2.054 1.111 3.04 3.705 3.04 2.366 0 3.587-.834 3.68-2.703h-2.24c-.084.564-.514.85-1.44.85-1.288 0-1.516-.556-1.516-1.187 0-.623.22-1.17 1.516-1.17.926 0 1.356.277 1.44.833h2.24c-.093-1.861-1.322-2.686-3.68-2.686-2.594 0-3.705.976-3.705 3.023zM35.647 55.495c-.935 0-2.03.185-3.04.513l.657 1.432c.926-.202 1.667-.261 2.316-.261.673 0 1.313.025 1.313.631-.463-.168-1.002-.26-1.71-.26-1.473 0-2.989.345-2.989 1.658 0 1.095 1.01 1.508 2.164 1.508.876 0 1.752-.127 2.535-.7v.616h2.021V58.13c-.017-1.928-1.196-2.635-3.267-2.635zm1.246 3.486c-.505.219-1.246.387-1.928.387-.514 0-.75-.042-.75-.32 0-.32.405-.404 1.34-.404.58 0 1.018.042 1.338.126v.211zm.388-3.747v-1.18l-1.743-.673-1.744.674v1.179l1.744-.674 1.743.674zM43.723 55.579l-1.406 3.511-1.465-3.511h-2.19l2.105 5.053h.927l-.842 2.105h2.189l2.872-7.158h-2.19zM49.788 58.551c0 1.752 1.348 2.165 3.765 2.165 2.416 0 3.764-.413 3.764-2.038 0-1.541-1.44-1.701-3.764-1.794-1.28-.05-1.49-.042-1.49-.27 0-.227.21-.277 1.237-.277 1.07 0 1.575.067 1.575.379h2.19c0-1.508-1.298-2.063-3.597-2.063-2.324 0-3.595.555-3.595 1.852 0 1.373 1.019 1.81 3.68 1.895 1.38.042 1.574.076 1.574.328 0 .22-.193.303-1.49.303-1.39 0-1.66-.193-1.66-.48h-2.189zM62.067 53.465l1.743-.674v-1.178l-1.743.673v1.18zm.766 1.769v-1.18l-1.743-.673-1.743.674v1.179l1.743-.674 1.743.674zm-1.743.26c-2.147 0-3.436.742-3.436 2.611 0 1.87 1.289 2.61 3.436 2.61 2.147 0 3.436-.74 3.436-2.61 0-1.87-1.289-2.61-3.436-2.61zm0 3.538c-.901 0-1.415-.186-1.415-.927 0-.74.514-.926 1.415-.926s1.415.185 1.415.926c0 .741-.514.927-1.415.927z"/>
</svg>
