<svg xmlns="http://www.w3.org/2000/svg" width="80" height="80" fill="none" viewBox="0 0 80 80">
    <rect width="80" height="80" fill="#F5F5F5" rx="20"/>
    <path fill="#fff" d="M20.04 14.36h38.944v47.205l-4.72 4.72-4.72-2.36-5.901 2.36-4.72-4.72-3.54 4.72-4.721-3.54-5.9 3.54-4.721-4.72V14.36z"/>
    <path fill="#D0D0D0" d="M41.111 31.52H38.89c-.98 0-1.777-.76-1.777-1.692 0-.933.797-1.692 1.777-1.692h4.444c.86 0 1.556-.663 1.556-1.481 0-.818-.697-1.481-1.556-1.481h-1.777v-1.692c0-.818-.697-1.481-1.556-1.481-.86 0-1.556.663-1.556 1.48v1.713c-2.488.215-4.444 2.21-4.444 4.634 0 2.566 2.193 4.654 4.889 4.654h2.222c.98 0 1.777.759 1.777 1.692 0 .932-.797 1.691-1.777 1.691h-4.444c-.86 0-1.556.664-1.556 1.482s.697 1.48 1.556 1.48h1.777v1.693c0 .818.697 1.48 1.556 1.48.86 0 1.556-.662 1.556-1.48v-1.712c2.488-.215 4.444-2.21 4.444-4.634 0-2.567-2.193-4.654-4.889-4.654zM48.049 53.106H30.812c-.889 0-1.61.743-1.61 1.66 0 .916.721 1.66 1.61 1.66h17.237c.888 0 1.609-.744 1.609-1.66 0-.917-.72-1.66-1.61-1.66z"/>
    <path fill="#D0D0D0" fill-rule="evenodd" d="M20.47 12h37.92c.89 0 1.61.743 1.61 1.66v48.437c0 .44-.17.863-.471 1.174l-4.74 4.888c-.315.325-.727.486-1.139.486-.411 0-.823-.162-1.137-.486l-3.603-3.715-3.602 3.715c-.301.311-.71.486-1.138.486-.426 0-.836-.174-1.138-.486l-3.602-3.715-3.602 3.715c-.302.312-.71.486-1.138.486-.427 0-.836-.174-1.138-.486l-3.602-3.715-3.602 3.715c-.628.648-1.647.648-2.276 0l-4.74-4.888c-.302-.311-.471-.733-.471-1.174V13.66c0-.916.72-1.659 1.609-1.659zm29.578 48.924l3.603 3.715 3.13-3.229V15.32H22.08v46.09l3.131 3.23 3.602-3.716c.302-.311.711-.486 1.138-.486.427 0 .836.175 1.138.486l3.602 3.715 3.602-3.715c.629-.648 1.648-.648 2.276 0l3.602 3.715 3.602-3.715c.302-.31.712-.486 1.139-.486.426 0 .836.175 1.137.486z" clip-rule="evenodd"/>
</svg>
