<svg xmlns="http://www.w3.org/2000/svg" width="20" height="20" fill="none" viewBox="0 0 20 20">
    <path fill="#DAC0FF" d="M10 20c5.523 0 10-4.477 10-10S15.523 0 10 0 0 4.477 0 10s4.477 10 10 10z"/>
    <path fill="#000" d="M5.713 14.98A3.216 3.216 0 0 1 2.5 11.767a3.217 3.217 0 0 1 3.213-3.213 3.216 3.216 0 0 1 3.212 3.213 3.217 3.217 0 0 1-3.213 3.213zm0-5.784a2.573 2.573 0 0 0-2.57 2.57 2.573 2.573 0 0 0 2.57 2.571 2.574 2.574 0 0 0 2.57-2.57 2.573 2.573 0 0 0-2.57-2.57zm8.996 5.784a3.217 3.217 0 0 1-3.213-3.213 3.217 3.217 0 0 1 3.213-3.213 3.216 3.216 0 0 1 3.213 3.213 3.217 3.217 0 0 1-3.213 3.213zm0-5.784a2.573 2.573 0 0 0-2.57 2.57 2.573 2.573 0 0 0 2.57 2.571 2.573 2.573 0 0 0 2.57-2.57 2.573 2.573 0 0 0-2.57-2.57z"/>
    <path fill="#fff" d="M7.962 8.554a.322.322 0 0 1-.321-.321V6.947a.321.321 0 0 1 .642 0v1.285a.321.321 0 0 1-.321.322z"/>
    <path fill="#fff" d="M15.008 11.652l-2.049-5.328a.321.321 0 1 0-.6.23l.296.769-4.732.591-.008.001-.013.002-.019.004-.011.004-.013.004-.005.001a.647.647 0 0 0-.041.019l-.015.008-.013.008-.012.008-.002.001-.013.01-.009.008-.002.003c-.005.003-.008.007-.011.01a.273.273 0 0 0-.009.009l-.004.003-.007.009-.002.003-.007.008-.003.005c-.002.003-.005.005-.005.008l-.003.003-.007.01-.003.006-.002.002-2.248 3.855a.022.022 0 0 0-.002.004l-.01.018-.005.01a.219.219 0 0 0-.007.018l-.005.012a.244.244 0 0 0-.008.032l-.003.014-.002.018-.002.012v.033l.002.033.003.015.004.017.009.03.003.012.008.016.006.013.008.015.008.013.008.012.01.014.009.01.011.013.01.01.013.011.013.01.011.009.016.011c.003 0 .005.002.007.004l.005.002.008.005.018.009.008.003.024.009.008.002.024.007h.003l.029.005h.005l.03.002h4.498l.03-.002h.005a.325.325 0 0 0 .022-.004h.002l.005-.001h.003l.008-.002.004-.001.012-.003a.038.038 0 0 1 .007-.003l.012-.004.009-.003.005-.002a.05.05 0 0 0 .004-.002.05.05 0 0 0 .011-.005l.007-.003a.04.04 0 0 0 .007-.004l.002-.001a.017.017 0 0 0 .004-.002l.003-.002h.001l.014-.01a.015.015 0 0 1 .004-.002l.008-.005.002-.003a.11.11 0 0 0 .013-.01h.001l.008-.007.002-.002.01-.01a.01.01 0 0 0 .003-.003l.006-.007.005-.004.008-.009.003-.003a.014.014 0 0 1 .004-.005l.004-.006.005-.008.005-.006.002-.004 2.549-3.965 1.379 3.586a.321.321 0 0 0 .599-.23zM7.962 8.87l1.69 2.897h-3.38l1.69-2.897zm2.262 2.604L8.484 8.49l3.976-.497-2.236 3.48z"/>
    <path fill="#000" d="M9.247 7.269H7.319a.322.322 0 0 1 0-.642h1.928a.321.321 0 1 1 0 .642zm3.412-.509a.322.322 0 0 1-.23-.545l.222-.228-.325-.324h-1.473a.322.322 0 1 1 0-.643h1.607a.32.32 0 0 1 .227.094l.643.643a.322.322 0 0 1 .003.45l-.444.456a.32.32 0 0 1-.23.097z"/>
    <path fill="#fff" d="M10.854 12.088a.643.643 0 1 1-1.286 0 .643.643 0 0 1 1.286 0z"/>
</svg>
