<svg xmlns="http://www.w3.org/2000/svg" width="40" height="40" fill="none" viewBox="0 0 40 40">
    <defs>
        <linearGradient id="paint0_linear" x1="20" x2="20" y1="0" y2="40" gradientUnits="userSpaceOnUse">
            <stop stop-color="#FAF6FF"/>
            <stop offset="1" stop-color="#DEC7FF"/>
        </linearGradient>
        <linearGradient id="paint1_linear" x1="19.534" x2="19.534" y1="22.121" y2="24.544" gradientUnits="userSpaceOnUse">
            <stop stop-color="#725EF6"/>
            <stop offset="1" stop-color="#6001D1"/>
        </linearGradient>
        <linearGradient id="paint2_linear" x1="30.977" x2="30.977" y1="19.697" y2="26.967" gradientUnits="userSpaceOnUse">
            <stop stop-color="#725EF6"/>
            <stop offset="1" stop-color="#6001D1"/>
        </linearGradient>
        <linearGradient id="paint3_linear" x1="8.091" x2="8.091" y1="19.697" y2="26.967" gradientUnits="userSpaceOnUse">
            <stop stop-color="#725EF6"/>
            <stop offset="1" stop-color="#6001D1"/>
        </linearGradient>
        <linearGradient id="paint4_linear" x1="16.352" x2="16.352" y1="13.639" y2="17.274" gradientUnits="userSpaceOnUse">
            <stop stop-color="#725EF6"/>
            <stop offset="1" stop-color="#6001D1"/>
        </linearGradient>
        <linearGradient id="paint5_linear" x1="23.319" x2="23.319" y1="13.639" y2="17.274" gradientUnits="userSpaceOnUse">
            <stop stop-color="#725EF6"/>
            <stop offset="1" stop-color="#6001D1"/>
        </linearGradient>
    </defs>
    <path fill="url(#paint0_linear)" d="M20 40c11.046 0 20-8.954 20-20S31.046 0 20 0 0 8.954 0 20s8.954 20 20 20z"/>
    <path fill="#fff" d="M35.486 18.875c-1.135-.702-4.794-1.601-9.929-1.601l-2.712-3.183c-.572-.671-1.407-1.058-2.287-1.058H12.44c-.862 0-1.696.31-2.351.875l-3.201 2.76-3.414.49c-.485.07-.88.428-.998.906l-.406 1.633 9.034 4.24h25.295v-3.424c0-.67-.346-1.286-.913-1.638z"/>
    <path fill="#fff" d="M36.398 20.909c0-1.212-1.807-2.424-10.238-2.424H2.67c-.333 0-.602.272-.602.606v3.635l11.443 1.818h22.886v-3.635z"/>
    <path fill="url(#paint1_linear)" d="M36.398 23.332H8.158L2.8 22.135c-.321-.071-.646.133-.718.46-.072.326.133.65.457.722l5.42 1.212c.044.01.087.015.131.015h28.307c.333 0 .602-.272.602-.606 0-.335-.27-.606-.602-.606z"/>
    <path fill="#EDEDEE" d="M30.977 26.36c1.663 0 3.011-1.355 3.011-3.028s-1.348-3.03-3.01-3.03c-1.664 0-3.012 1.357-3.012 3.03 0 1.673 1.348 3.029 3.011 3.029z"/>
    <path fill="url(#paint2_linear)" fill-rule="evenodd" d="M27.364 23.332c0 2.004 1.62 3.635 3.613 3.635 1.993 0 3.614-1.63 3.614-3.635s-1.621-3.635-3.614-3.635c-1.992 0-3.613 1.63-3.613 3.635zm1.204 0c0-1.336 1.08-2.423 2.41-2.423 1.328 0 2.408 1.087 2.408 2.423s-1.08 2.423-2.409 2.423c-1.328 0-2.409-1.087-2.409-2.423z" clip-rule="evenodd"/>
    <path fill="#DCDBDE" d="M30.977 24.543c.665 0 1.204-.542 1.204-1.211 0-.67-.539-1.212-1.204-1.212-.665 0-1.204.543-1.204 1.212 0 .669.539 1.211 1.204 1.211z"/>
    <path fill="#EDEDEE" d="M8.09 26.36c1.664 0 3.012-1.355 3.012-3.028s-1.348-3.03-3.011-3.03-3.011 1.357-3.011 3.03c0 1.673 1.348 3.029 3.01 3.029z"/>
    <path fill="url(#paint3_linear)" fill-rule="evenodd" d="M4.478 23.332c0 2.004 1.62 3.635 3.613 3.635 1.993 0 3.614-1.63 3.614-3.635s-1.621-3.635-3.614-3.635c-1.993 0-3.613 1.63-3.613 3.635zm1.204 0c0-1.336 1.08-2.423 2.41-2.423 1.328 0 2.408 1.087 2.408 2.423s-1.08 2.423-2.409 2.423c-1.328 0-2.409-1.087-2.409-2.423z" clip-rule="evenodd"/>
    <path fill="#DCDBDE" d="M8.091 24.543c.666 0 1.205-.542 1.205-1.211 0-.67-.54-1.212-1.205-1.212s-1.204.543-1.204 1.212c0 .669.539 1.211 1.204 1.211z"/>
    <path fill="#DCDCDC" d="M26.16 22.284H13.512c-.333 0-.602-.307-.602-.686 0-.38.27-.687.602-.687H26.16c.332 0 .602.307.602.686 0 .38-.27.687-.602.687zM36.398 22.284h-.602c-.333 0-.603-.307-.603-.686 0-.38.27-.687.603-.687h.602c.332 0 .602.307.602.686 0 .38-.27.687-.602.687z"/>
    <path fill="#fff" d="M6.887 16.668l3.2-2.76c.655-.564 1.49-.875 2.352-.875h8.12c.878 0 1.713.387 2.286 1.058l2.712 3.183h-14.26c-.53 0-1.06-.044-1.584-.132l-2.826-.474z"/>
    <path fill="url(#paint4_linear)" d="M19.895 14.075c-.229-.276-.567-.436-.925-.436h-5.562c-.32 0-.626.128-.852.355L10.75 15.81c-.16.161-.25.379-.25.606 0 .473.381.857.852.857h10.55c.256 0 .395-.3.232-.497l-2.239-2.702z"/>
    <path fill="#504B5A" d="M14.716 17.274H12.91l1.204-3.635h1.205l-.603 3.635z"/>
    <path fill="#fff" d="M35.752 19.091h-.559c-.332 0-.602.271-.602.606 0 .335.27.606.602.606h1.178c-.052-.471-.27-.898-.62-1.212z"/>
    <path fill="url(#paint5_linear)" d="M22.845 14.09c-.145-.168-.306-.32-.48-.451h-.983c-.256 0-.395.3-.232.497l2.24 2.702c.228.276.567.436.924.436h1.243l-2.712-3.183z"/>
    <path fill="#DCDCDC" d="M2.069 19.091v.606h1.204c.333 0 .603-.271.603-.606 0-.334-.27-.606-.603-.606h-.602c-.333 0-.602.272-.602.606z"/>
</svg>
