<svg xmlns="http://www.w3.org/2000/svg" width="40" height="40" fill="none" viewBox="0 0 40 40">
    <defs>
        <linearGradient id="paint0_linear" x1="20" x2="20" y1="0" y2="40" gradientUnits="userSpaceOnUse">
            <stop stop-color="#FAF6FF"/>
            <stop offset="1" stop-color="#DEC7FF"/>
        </linearGradient>
        <linearGradient id="paint1_linear" x1="27.638" x2="27.638" y1="16.84" y2="21.053" gradientUnits="userSpaceOnUse">
            <stop stop-color="#725EF6"/>
            <stop offset="1" stop-color="#6001D1"/>
        </linearGradient>
        <linearGradient id="paint2_linear" x1="30.263" x2="30.263" y1="19.474" y2="30" gradientUnits="userSpaceOnUse">
            <stop stop-color="#725EF6"/>
            <stop offset="1" stop-color="#6001D1"/>
        </linearGradient>
        <linearGradient id="paint3_linear" x1="10.263" x2="10.263" y1="19.474" y2="30" gradientUnits="userSpaceOnUse">
            <stop stop-color="#725EF6"/>
            <stop offset="1" stop-color="#6001D1"/>
        </linearGradient>
        <linearGradient id="paint4_linear" x1="22.632" x2="22.632" y1="10" y2="12.632" gradientUnits="userSpaceOnUse">
            <stop stop-color="#725EF6"/>
            <stop offset="1" stop-color="#6001D1"/>
        </linearGradient>
        <linearGradient id="paint5_linear" x1="14.188" x2="14.188" y1="13.158" y2="16.316" gradientUnits="userSpaceOnUse">
            <stop stop-color="#725EF6"/>
            <stop offset="1" stop-color="#6001D1"/>
        </linearGradient>
    </defs>
    <path fill="url(#paint0_linear)" d="M20 40c11.046 0 20-8.954 20-20S31.046 0 20 0 0 8.954 0 20s8.954 20 20 20z"/>
    <path fill="#F9F9F9" d="M35 24.737c0 2.616-2.12 4.737-4.737 4.737-2.616 0-4.737-2.121-4.737-4.737S27.647 20 30.263 20 35 22.12 35 24.737z"/>
    <path fill="url(#paint1_linear)" d="M25 21.053c-.202 0-.387-.116-.474-.299-.088-.182-.063-.399.063-.557l.105-.131c1.368-1.712 3.321-2.857 5.483-3.216.187-.037.38.032.502.178.123.147.157.348.088.526-.068.179-.228.306-.417.333-1.906.317-3.627 1.327-4.834 2.837l-.105.131c-.1.125-.25.198-.41.198z"/>
    <path fill="#F9F9F9" d="M15 24.737c0 2.616-2.12 4.737-4.737 4.737-2.616 0-4.737-2.121-4.737-4.737S7.647 20 10.263 20 15 22.12 15 24.737z"/>
    <path fill="#F5F5F5" d="M19.327 18.616c-.03 0-.059-.003-.087-.008l-4.327-.72c-.205-.036-.37-.19-.42-.392l-.527-2.105c-.047-.183.007-.377.143-.509.135-.131.33-.18.512-.128.182.052.321.198.366.381l.443 1.771 3.985.664c.27.046.46.29.437.562-.022.273-.25.483-.522.484h-.003z"/>
    <path fill="#F5F5F5" d="M11.316 24.21c-.238 0-.445-.16-.507-.39-.061-.229.039-.47.244-.59l8.12-4.737c.252-.147.574-.062.72.19.147.25.062.573-.19.719l-8.12 4.737c-.08.047-.173.072-.267.072z"/>
    <path fill="url(#paint2_linear)" fill-rule="evenodd" d="M25 24.737C25 27.644 27.356 30 30.263 30c2.906-.003 5.26-2.358 5.263-5.263 0-2.907-2.356-5.263-5.263-5.263S25 21.83 25 24.737zm1.053 0c0-2.326 1.885-4.21 4.21-4.21 2.324.002 4.208 1.886 4.21 4.21 0 2.325-1.884 4.21-4.21 4.21-2.325 0-4.21-1.885-4.21-4.21z" clip-rule="evenodd"/>
    <path fill="#D0D0D0" d="M11.842 24.737c0 .872-.707 1.579-1.579 1.579s-1.579-.707-1.579-1.58c0-.871.707-1.578 1.579-1.578s1.579.707 1.579 1.579z"/>
    <path fill="url(#paint3_linear)" fill-rule="evenodd" d="M5 24.737C5 27.644 7.356 30 10.263 30c2.906-.003 5.26-2.358 5.263-5.263 0-2.907-2.356-5.263-5.263-5.263S5 21.83 5 24.737zm1.053 0c0-2.326 1.885-4.21 4.21-4.21 2.324.002 4.208 1.886 4.21 4.21 0 2.325-1.884 4.21-4.21 4.21-2.325 0-4.21-1.885-4.21-4.21z" clip-rule="evenodd"/>
    <path fill="#fff" d="M25.526 14.21l1.053 2.632h-2.105l-4.21 2.105-1.58 6.316H16.58l1.579-7.368 7.368-3.684z"/>
    <path fill="#F5F5F5" d="M21.03 24.543l2.39-7.175-3.157 1.58-1.579 6.315h1.346c.454 0 .856-.29 1-.72z"/>
    <path fill="#fff" d="M29.256 23.898l-4.21-9.474c-.03-.067-.046-.14-.046-.213v-1.695l-1.707-.426.256-1.022 2.105.527c.234.058.398.269.398.51V14.1l4.166 9.372-.962.427z"/>
    <path fill="url(#paint4_linear)" d="M22.632 12.632c-.727 0-1.316-.59-1.316-1.316 0-.727.589-1.316 1.316-1.316.726 0 1.316.589 1.316 1.316 0 .727-.59 1.316-1.316 1.316z"/>
    <path fill="url(#paint5_linear)" d="M14.5 16.316c-.029 0-.058-.003-.086-.008l-1.517-.252c-.562-.094-1.054-.43-1.348-.917-.294-.489-.359-1.08-.178-1.621.071-.215.272-.36.498-.36h4.41c.35 0 .663.221.779.552.116.33.01.698-.263.917L14.83 16.2c-.093.075-.21.116-.329.116z"/>
    <path fill="#D0D0D0" d="M30.218 26.316c-.872 0-1.579-.707-1.579-1.58 0-.871.707-1.578 1.58-1.578.871 0 1.578.707 1.578 1.579s-.707 1.579-1.579 1.579z"/>
</svg>
