<svg xmlns="http://www.w3.org/2000/svg" width="80" height="80" fill="none" viewBox="0 0 80 80">
    <defs>
        <linearGradient id="paint0_linear" x1="40" x2="40" y1="0" y2="80" gradientUnits="userSpaceOnUse">
            <stop stop-color="#FAF6FF"/>
            <stop offset="1" stop-color="#DEC7FF"/>
        </linearGradient>
        <linearGradient id="paint1_linear" x1="38.327" x2="38.327" y1="54.859" y2="57.906" gradientUnits="userSpaceOnUse">
            <stop stop-color="#725EF6"/>
            <stop offset="1" stop-color="#6001D1"/>
        </linearGradient>
        <linearGradient id="paint2_linear" x1="53.302" x2="53.302" y1="29.886" y2="49.477" gradientUnits="userSpaceOnUse">
            <stop stop-color="#725EF6"/>
            <stop offset="1" stop-color="#6001D1"/>
        </linearGradient>
    </defs>
    <rect width="80" height="80" fill="url(#paint0_linear)" rx="20"/>
    <path fill="#fff" d="M52.038 21.14H44.42v-7.617c0-.853-.67-1.523-1.524-1.523H18.57C16.041 12 14 14.041 14 16.57v42.86c0 2.529 2.041 4.57 4.57 4.57h30.42c2.53 0 4.571-2.041 4.571-4.57V22.664c0-.853-.67-1.523-1.523-1.523z"/>
    <path fill="#fff" d="M53.561 22.664V59.43c0 2.529-2.041 4.57-4.57 4.57H33.756V12h9.141c.853 0 1.523.67 1.523 1.523v7.618h7.618c.853 0 1.523.67 1.523 1.523z"/>
    <path fill="#fff" d="M53.562 24.188H42.898c-.843 0-1.524-.682-1.524-1.524V12h3.32c1.197 0 2.369.485 3.214 1.332l4.323 4.324c.846.848 1.33 2.018 1.33 3.21v3.322z"/>
    <path fill="#5B00E4" d="M64.652 28.332c-1.706-1.737-4.753-1.737-6.46 0l-1.553 1.584-1.097 1.067c-.61.578-.61 1.553 0 2.132l2.163 2.164 2.164 2.163c.548.61 1.584.61 2.133 0l1.096-1.066 1.554-1.585c1.798-1.706 1.798-4.753 0-6.46z"/>
    <path fill="#DAC0FF" d="M47.284 45.699l-3.138-3.139c-.06-.06-.122-.06-.183 0l-.09.061c-.184.183-.306.396-.367.61l-2.163 6.49c-.213.609-.03 1.188.366 1.553v.03c.426.397 1.005.55 1.554.336l6.49-2.163c.213-.061.426-.183.609-.366l.06-.061c.062-.06.062-.122 0-.183-1.005-1.035-2.101-2.133-3.138-3.168zM42.897 30.281h-21.28c-2.01 0-2.01-3.047 0-3.047h21.28c2.011 0 2.011 3.047 0 3.047zM36.803 36.375H21.617c-2.01 0-2.01-3.047 0-3.047h15.186c2.011 0 2.011 3.047 0 3.047zM36.803 42.469H21.617c-2.01 0-2.01-3.047 0-3.047h15.186c2.011 0 2.011 3.047 0 3.047zM36.803 48.563H21.617c-2.01 0-2.01-3.047 0-3.047h15.186c2.011 0 2.011 3.047 0 3.047z"/>
    <path fill="url(#paint1_linear)" d="M42.897 57.906h-9.14c-2.011 0-2.011-3.047 0-3.047h9.14c2.01 0 2.01 3.047 0 3.047z"/>
    <path fill="url(#paint2_linear)" d="M63.097 36.376l-1.096 1.066c-6.033 6.002-4.023 3.991-9.446 9.415 0 .06-2.163 2.224-2.194 2.255-.182.182-.395.304-.609.365l-6.246-6.246c.06-.213.183-.427.366-.61.03-.03 2.194-2.193 2.255-2.193 3.96-3.961 2.01-1.98 9.414-9.445l1.067-1.097 6.49 6.49z"/>
</svg>
