<svg xmlns="http://www.w3.org/2000/svg" width="20" height="20" fill="none" viewBox="0 0 20 20">
    <path fill="#DAC0FF" d="M10 20c5.523 0 10-4.477 10-10S15.523 0 10 0 0 4.477 0 10s4.477 10 10 10z"/>
    <path fill="#000" d="M11.832 6.817l-.731-1.463.436-.218.731 1.463-.436.218z"/>
    <path fill="#B9B7BD" d="M15.342 13.78a.61.61 0 1 1 0-1.22.61.61 0 0 1 0 1.22z"/>
    <path fill="#000" fill-rule="evenodd" d="M13.513 13.17a1.829 1.829 0 1 1 3.658 0 1.829 1.829 0 0 1-3.658 0zm.732 0a1.097 1.097 0 1 0 2.195 0 1.097 1.097 0 0 0-2.195 0z" clip-rule="evenodd"/>
    <path fill="#DCDBDE" d="M15.335 13.399a.244.244 0 0 1-.21-.118l-1.199-1.997a.244.244 0 0 1 .418-.251l1.2 1.996a.244.244 0 0 1-.209.37z"/>
    <path fill="#F5F5F5" d="M13.707 11.936h2.288a.242.242 0 0 0 .217-.135l.126-.257a.33.33 0 0 0-.08-.395c-.267-.234-.864-.62-2.013-.783l-.538 1.57z"/>
    <path fill="#000" fill-rule="evenodd" d="M3.515 13.17a1.829 1.829 0 1 1 3.658 0 1.829 1.829 0 0 1-3.658 0zm.732 0a1.097 1.097 0 1 0 2.195 0 1.097 1.097 0 0 0-2.195 0z" clip-rule="evenodd"/>
    <path fill="#DCDBDE" d="M7.783 13.78H5.344a.61.61 0 0 1 0-1.22h2.439a.61.61 0 1 1 0 1.22z"/>
    <path fill="#F5F5F5" d="M12.05 13.048l.422-2.32a1.706 1.706 0 0 0-.023-.72l-.643-2.812h.732l1.22 3.17-.732 2.682h-.976z"/>
    <path fill="#fff" d="M13.531 12.97l1.034-2.242a.731.731 0 0 0-.047-.7l-1.391-2.186a.209.209 0 0 0-.27-.075.424.424 0 0 0-.216.502l.401 1.34a3.17 3.17 0 0 1 .072 1.532l-.254 1.271a.488.488 0 0 1-.478.392H9.856l.487-2.682-.487-.732-3.17-.244-1.864.208a.373.373 0 0 0-.222.633l.378.379s-1.95.488-1.95 1.707v.244c0 .134.109.243.243.243h3.7c.13 0 .254.052.345.143l.69.69a.488.488 0 0 0 .345.143h4.294c.38 0 .727-.221.886-.567z"/>
    <path fill="#F5F5F5" d="M10.343 10.122l-.487-.732-3.17-.244-1.864.208a.372.372 0 0 0-.222.633l.378.379h5.32l.045-.244zM13.27 7.44h-1.22a.488.488 0 1 1 0-.976h1.22v.975z"/>
    <path fill="#000" d="M12.05 7.196a.243.243 0 0 1-.172-.072l-.172-.172h-.631a.244.244 0 1 1 0-.488h.63a.49.49 0 0 1 .345.143l.173.172a.244.244 0 0 1-.173.417z"/>
    <path fill="#fff" d="M13.27 7.44h-.244v-.976h.244c.134 0 .244.11.244.244v.488c0 .134-.11.243-.244.243z"/>
    <path fill="#EDEDEE" d="M5.344 13.78a.61.61 0 1 0 0-1.22.61.61 0 0 0 0 1.22z"/>
    <path fill="#000" d="M6.198 9.22c0 .107.053.206.141.265l.83.553c.32.214.697.328 1.083.328h2.038c.154 0 .27-.141.239-.292l-.029-.143a.975.975 0 0 0-.956-.785H8.235c-.22 0-.438-.026-.65-.08l-.335-.083a2.682 2.682 0 0 0-.65-.08h-.085a.318.318 0 0 0-.317.317z"/>
    <path fill="#fff" d="M7.515 11.634l.731.975a.488.488 0 0 0 .39.195h1.22l.354-1.95H7.905a.488.488 0 0 0-.39.78zM11.319 5.976h-.244a.244.244 0 0 1-.244-.244v-.487c0-.135.11-.244.244-.244h.244a.488.488 0 1 1 0 .975z"/>
</svg>
