<svg xmlns="http://www.w3.org/2000/svg" width="40" height="40" fill="none" viewBox="0 0 40 40">
    <path fill="#FFF2D1" d="M20 40c11.046 0 20-8.954 20-20S31.046 0 20 0 0 8.954 0 20s8.954 20 20 20z"/>
    <path fill="#fff" d="M10 8H28V32H10z"/>
    <path fill="#000" d="M27.896 19.878V7.429c0-.237-.192-.429-.43-.429H9.438c-.237 0-.429.192-.429.43v24.897c0 .237.192.43.43.43h18.029c.237 0 .429-.193.429-.43v-4.293h-.859v3.864H9.867V7.858h17.17v12.02h.859z"/>
    <path fill="#000" d="M10.725 19.449H11.584V20.308H10.725zM12.442 19.449H26.179000000000002V20.308H12.442zM10.725 15.156H11.584V16.015H10.725zM12.442 15.156H26.179000000000002V16.015H12.442zM10.725 23.742H11.584V24.601H10.725zM12.442 23.742H24.032V24.601H12.442z"/>
    <path fill="#000" fill-rule="evenodd" d="M30.866 22.163l-1.82-1.822c-.168-.167-.44-.167-.607 0l-6.375 6.375-.005.007-.005.007c-.03.032-.053.068-.071.107l-.006.01-.008.02-.006.01-.003.006-.91 2.732c-.075.225.047.468.272.543.043.015.089.022.135.022.046 0 .092-.007.136-.022l2.732-.91c.003 0 .006-.003.01-.005l.007-.004.017-.008.012-.006c.039-.018.075-.042.107-.071l.007-.005.007-.005 6.374-6.375c.168-.167.168-.439 0-.606zm-8.73 6.91l.42-1.258.838.839-1.258.42zm.838-2.053l1.215 1.215 5.767-5.769-1.214-1.214-5.768 5.768z" clip-rule="evenodd"/>
</svg>
